<?xml version="1.0" encoding="utf-8"?>
<!-- Generator: Adobe Illustrator 21.1.0, SVG Export Plug-In . SVG Version: 6.00 Build 0)  -->
<svg version="1.1" id="圖層_1" xmlns="http://www.w3.org/2000/svg" xmlns:xlink="http://www.w3.org/1999/xlink" x="0px" y="0px"
	 viewBox="0 0 242 191" style="enable-background:new 0 0 242 191;" xml:space="preserve">
<style type="text/css">
	.st0{fill:#515151;}
	.st1{fill:#ACDFFC;}
	.st2{fill:#ABDEFC;}
	.st3{fill:#AADEFB;}
	.st4{fill:#A9DDFB;}
	.st5{fill:#A8DCFA;}
	.st6{fill:#A7DCFA;}
	.st7{fill:#A6DBF9;}
	.st8{fill:#A5DAF9;}
	.st9{fill:#A4DAF9;}
	.st10{fill:#A3D9F8;}
	.st11{fill:#A2D8F8;}
	.st12{fill:#A1D8F7;}
	.st13{fill:#A0D7F7;}
	.st14{fill:#9FD6F6;}
	.st15{fill:#9ED6F6;}
	.st16{fill:#9DD5F6;}
	.st17{fill:#9CD4F5;}
	.st18{fill:#9BD4F5;}
	.st19{fill:#9AD3F4;}
	.st20{fill:#99D2F4;}
	.st21{fill:#98D1F4;}
	.st22{fill:#97D1F3;}
	.st23{fill:#96D0F3;}
	.st24{fill:#95CFF2;}
	.st25{fill:#94CFF2;}
	.st26{fill:#93CEF1;}
	.st27{fill:#92CDF1;}
	.st28{fill:#91CDF1;}
	.st29{fill:#90CCF0;}
	.st30{fill:#8FCBF0;}
	.st31{fill:#8ECBEF;}
	.st32{fill:#8DCAEF;}
	.st33{fill:#8CC9EE;}
	.st34{fill:#8BC9EE;}
	.st35{fill:#8AC8EE;}
	.st36{fill:#89C7ED;}
	.st37{fill:#88C7ED;}
	.st38{fill:#87C6EC;}
	.st39{fill:#86C5EC;}
	.st40{fill:#85C5EB;}
	.st41{fill:#84C4EB;}
	.st42{fill:#83C3EB;}
	.st43{fill:#82C3EA;}
	.st44{fill:#81C2EA;}
	.st45{fill:#80C1E9;}
	.st46{fill:#7FC1E9;}
	.st47{fill:#7EC0E9;}
	.st48{fill:#7DBFE8;}
	.st49{fill:#7CBFE8;}
	.st50{fill:#7BBEE7;}
	.st51{fill:#7ABDE7;}
	.st52{fill:#79BDE6;}
	.st53{fill:#78BCE6;}
	.st54{fill:#77BBE6;}
	.st55{fill:#76BBE5;}
	.st56{fill:#75BAE5;}
	.st57{fill:#74B9E4;}
	.st58{fill:#73B8E4;}
	.st59{fill:#72B8E3;}
	.st60{fill:#71B7E3;}
	.st61{fill:#70B6E3;}
	.st62{fill:#6FB6E2;}
	.st63{fill:#6EB5E2;}
	.st64{fill:#6DB4E1;}
	.st65{fill:#6CB4E1;}
	.st66{fill:#6BB3E0;}
	.st67{fill:#6AB2E0;}
	.st68{fill:#69B2E0;}
	.st69{fill:#68B1DF;}
	.st70{fill:#67B0DF;}
	.st71{fill:#66B0DE;}
	.st72{fill:#65AFDE;}
	.st73{fill:#64AEDD;}
	.st74{fill:#63AEDD;}
	.st75{fill:#62ADDD;}
	.st76{fill:#61ACDC;}
	.st77{fill:#60ACDC;}
	.st78{fill:#5FABDB;}
	.st79{fill:#5EAADB;}
	.st80{fill:#5DAADB;}
	.st81{fill:#5CA9DA;}
	.st82{fill:#5BA8DA;}
	.st83{fill:#5AA8D9;}
	.st84{fill:#59A7D9;}
	.st85{fill:#58A6D8;}
	.st86{fill:#57A6D8;}
	.st87{fill:#56A5D8;}
	.st88{fill:#55A4D7;}
	.st89{fill:#54A4D7;}
	.st90{fill:#53A3D6;}
	.st91{fill:#52A2D6;}
	.st92{fill:#51A2D5;}
	.st93{fill:#50A1D5;}
	.st94{fill:#4FA0D5;}
	.st95{fill:#4EA0D4;}
	.st96{fill:#4D9FD4;}
	.st97{fill:#4C9ED3;}
	.st98{fill:#4B9DD3;}
	.st99{fill:#4A9DD2;}
	.st100{fill:#499CD2;}
	.st101{fill:#489BD2;}
	.st102{fill:#479BD1;}
	.st103{fill:#469AD1;}
	.st104{fill:#4599D0;}
	.st105{fill:#4499D0;}
	.st106{fill:#4398CF;}
	.st107{fill:#4297CF;}
	.st108{fill:#4197CF;}
	.st109{fill:#4096CE;}
	.st110{fill:#3F95CE;}
	.st111{fill:#3E95CD;}
	.st112{fill:#3D94CD;}
	.st113{fill:#3C93CD;}
	.st114{fill:#3B93CC;}
	.st115{fill:#3A92CC;}
	.st116{fill:#3991CB;}
	.st117{fill:#3891CB;}
	.st118{fill:#3790CA;}
	.st119{fill:#368FCA;}
	.st120{fill:#358FCA;}
	.st121{fill:#348EC9;}
	.st122{fill:#338DC9;}
	.st123{fill:#328DC8;}
	.st124{fill:#318CC8;}
	.st125{fill:#308BC7;}
	.st126{fill:#2F8BC7;}
	.st127{fill:#2E8AC7;}
	.st128{fill:#2D89C6;}
	.st129{fill:#2C89C6;}
	.st130{fill:#2B88C5;}
	.st131{fill:#2A87C5;}
	.st132{fill:#2987C4;}
	.st133{fill:#2886C4;}
	.st134{fill:#2785C4;}
	.st135{fill:#2684C3;}
	.st136{fill:#2584C3;}
	.st137{fill:#2483C2;}
	.st138{fill:#2382C2;}
	.st139{fill:#2282C2;}
	.st140{fill:#2181C1;}
	.st141{fill:#2080C1;}
	.st142{fill:#1F80C0;}
	.st143{fill:#1E7FC0;}
	.st144{fill:#1D7EBF;}
	.st145{fill:#1C7EBF;}
	.st146{fill:#1B7DBF;}
	.st147{fill:#1A7CBE;}
	.st148{fill:#197CBE;}
	.st149{fill:#187BBD;}
	.st150{fill:#177ABD;}
	.st151{fill:#167ABC;}
	.st152{fill:#1579BC;}
	.st153{fill:#6C6CFF;}
	.st154{fill:#6B6DFF;}
	.st155{fill:#6A6FFF;}
	.st156{fill:#6870FF;}
	.st157{fill:#6772FF;}
	.st158{fill:#6673FF;}
	.st159{fill:#6575FF;}
	.st160{fill:#6476FF;}
	.st161{fill:#6378FF;}
	.st162{fill:#6179FF;}
	.st163{fill:#607BFF;}
	.st164{fill:#5F7CFF;}
	.st165{fill:#5E7EFF;}
	.st166{fill:#5D7FFF;}
	.st167{fill:#5B81FF;}
	.st168{fill:#5A82FF;}
	.st169{fill:#5984FF;}
	.st170{fill:#5885FF;}
	.st171{fill:#5787FF;}
	.st172{fill:#5588FF;}
	.st173{fill:#548AFF;}
	.st174{fill:#538BFF;}
	.st175{fill:#528DFF;}
	.st176{fill:#518EFF;}
	.st177{fill:#5090FF;}
	.st178{fill:#4E91FF;}
	.st179{fill:#4D93FF;}
	.st180{fill:#4C94FF;}
	.st181{fill:#4B96FF;}
	.st182{fill:#4A97FF;}
	.st183{fill:#4899FF;}
	.st184{fill:#479AFF;}
	.st185{fill:#469BFF;}
	.st186{fill:#459DFF;}
	.st187{fill:#449EFF;}
	.st188{fill:#42A0FF;}
	.st189{fill:#41A1FF;}
	.st190{fill:#40A3FF;}
	.st191{fill:#3FA4FF;}
	.st192{fill:#3EA6FF;}
	.st193{fill:#3DA7FF;}
	.st194{fill:#3BA9FF;}
	.st195{fill:#3AAAFF;}
	.st196{fill:#39ACFF;}
	.st197{fill:#38ADFF;}
	.st198{fill:#37AFFF;}
	.st199{fill:#35B0FF;}
	.st200{fill:#34B2FF;}
	.st201{fill:#33B3FF;}
	.st202{fill:#32B5FF;}
	.st203{fill:#31B6FF;}
	.st204{fill:#2FB8FF;}
	.st205{fill:#2EB9FF;}
	.st206{fill:#2DBBFF;}
	.st207{fill:#2CBCFF;}
	.st208{fill:#2BBEFF;}
	.st209{fill:#2ABFFF;}
	.st210{fill:#28C1FF;}
	.st211{fill:#27C2FF;}
	.st212{fill:#26C4FF;}
	.st213{fill:#25C5FF;}
	.st214{fill:#24C6FF;}
	.st215{fill:#22C8FF;}
	.st216{fill:#21C9FF;}
	.st217{fill:#20CBFF;}
	.st218{fill:#1FCCFF;}
	.st219{fill:#1ECEFF;}
	.st220{fill:#1CCFFF;}
	.st221{fill:#1BD1FF;}
	.st222{fill:#1AD2FF;}
	.st223{fill:#19D4FF;}
	.st224{fill:#18D5FF;}
	.st225{fill:#17D7FF;}
	.st226{fill:#15D8FF;}
	.st227{fill:#14DAFF;}
	.st228{fill:#13DBFF;}
	.st229{fill:#12DDFF;}
	.st230{fill:#11DEFF;}
	.st231{fill:#0FE0FF;}
	.st232{fill:#0EE1FF;}
	.st233{fill:#0DE3FF;}
	.st234{fill:#0CE4FF;}
	.st235{fill:#0BE6FF;}
	.st236{fill:#09E7FF;}
	.st237{fill:#08E9FF;}
	.st238{fill:#07EAFF;}
	.st239{fill:#06ECFF;}
	.st240{fill:#05EDFF;}
	.st241{fill:#04EFFF;}
	.st242{fill:#02F0FF;}
	.st243{fill:#01F2FF;}
	.st244{fill:#00F3FF;}
</style>
<g>
	<g>
		<g>
			<path class="st0" d="M15.2,55.5c0.3,0.8,0.5,1.6,0.7,2.4c-0.3,0.5-0.6,1.1-0.8,1.6l-1.6,3.2l-1.6,3.2l-0.8,1.6
				c-0.7,0.3-1.4,0.7-2.3,0.9c-0.3-0.8-0.5-1.6-0.7-2.4l0.8-1.6l1.6-3.2l1.6-3.2c0.2-0.6,0.6-1.1,0.8-1.6
				C13.6,56.1,14.4,55.8,15.2,55.5z"/>
		</g>
		<g>
			<path class="st0" d="M15.5,71c0.3,0.8,0.5,1.6,0.7,2.4c-0.3,0.5-0.6,1.1-0.8,1.6l-1.6,3.2l-1.6,3.2L11.2,83
				c-0.7,0.3-1.4,0.7-2.3,0.9c-0.3-0.8-0.5-1.6-0.7-2.4l0.8-1.6l1.6-3.2l1.6-3.2c0.2-0.6,0.6-1.1,0.8-1.6
				C13.9,71.5,14.6,71.1,15.5,71z"/>
		</g>
		<g>
			<path class="st0" d="M15.8,86.3c0.3,0.8,0.5,1.6,0.7,2.4c-0.3,0.5-0.6,1.1-0.8,1.6L14,93.5l-1.6,3.2l-0.8,1.6
				c-0.7,0.3-1.4,0.7-2.3,0.9c-0.3-0.8-0.5-1.6-0.7-2.4l0.8-1.6l1.6-3.2l1.6-3.2c0.2-0.6,0.6-1.1,0.8-1.6
				C14.3,86.9,14.9,86.6,15.8,86.3z"/>
		</g>
		<g>
			<path class="st0" d="M16.2,101.8c0.3,0.8,0.5,1.6,0.7,2.4c-0.3,0.5-0.6,1.1-0.8,1.6l-1.6,3.2l-1.6,3.2l-0.8,1.6
				c-0.7,0.3-1.4,0.7-2.3,0.9c-0.3-0.8-0.5-1.6-0.7-2.4l0.8-1.6l1.6-3.2l1.6-3.2c0.2-0.6,0.6-1.1,0.8-1.6
				C14.5,102.4,15.3,102,16.2,101.8z"/>
		</g>
		<g>
			<path class="st0" d="M16.4,117.2c0.3,0.8,0.5,1.6,0.7,2.4c-0.3,0.5-0.6,1.1-0.8,1.6l-1.6,3.2l-1.6,3.2l-0.8,1.6
				c-0.7,0.3-1.4,0.7-2.3,0.9c-0.3-0.8-0.5-1.6-0.7-2.4l0.8-1.6l1.6-3.2l1.6-3.2c0.2-0.6,0.6-1.1,0.8-1.6
				C14.8,117.7,15.6,117.5,16.4,117.2z"/>
		</g>
		<g>
			<path class="st0" d="M16.7,132.6c0.3,0.8,0.5,1.6,0.7,2.4c-0.3,0.5-0.6,1.1-0.8,1.6l-1.6,3.2l-1.6,3.2l-0.8,1.6
				c-0.7,0.3-1.4,0.7-2.3,0.9c-0.3-0.8-0.5-1.6-0.7-2.4l0.8-1.6l1.6-3.2l1.6-3.2c0.2-0.6,0.6-1.1,0.8-1.6
				C15.2,133.2,15.8,132.9,16.7,132.6z"/>
		</g>
		<g>
			<path class="st0" d="M17,148.1c0.3,0.8,0.5,1.6,0.7,2.4c-0.3,0.5-0.6,1.1-0.8,1.6l-1.6,3.2l-1.6,3.2l-0.8,1.6
				c-0.7,0.3-1.4,0.7-2.3,0.9c-0.3-0.8-0.5-1.6-0.7-2.4l0.8-1.6l1.6-3.2l1.6-3.2c0.2-0.6,0.6-1.1,0.8-1.6
				C15.4,148.6,16.2,148.3,17,148.1z"/>
		</g>
		<g>
			<path class="st0" d="M17.3,163.5c0.3,0.8,0.5,1.6,0.7,2.4c-0.3,0.5-0.6,1.1-0.8,1.6l-1.6,3.2l-1.6,3.2l-0.8,1.6
				c-0.7,0.3-1.4,0.7-2.3,0.9c-0.3-0.8-0.5-1.6-0.7-2.4l0.8-1.6l1.6-3.2l1.6-3.2c0.2-0.6,0.6-1.1,0.8-1.6
				C15.7,164.1,16.5,163.8,17.3,163.5z"/>
		</g>
	</g>
	<g>
		<g>
			<path class="st0" d="M23.8,166.1c1.4,1.2,2.4,2.5,3.3,3.7c-0.2,1.1-0.3,2.1-0.4,3.2l-0.8,6.5l-0.8,6.5l-0.4,3.2
				c-1.2,0.9-2.5,1.9-4.1,2.8c-1.3-1.2-2.3-2.5-3.3-3.7l0.4-3.2l0.8-6.5l0.8-6.5c0.1-1.1,0.3-2.1,0.3-3.3
				C21,168,22.2,167,23.8,166.1z"/>
		</g>
		<g>
			<path class="st0" d="M35.7,165.7c1.4,1.3,2.3,2.5,3.3,3.7c-0.2,1.1-0.3,2.1-0.4,3.2l-0.8,6.5l-0.8,6.5l-0.4,3.2
				c-1.2,0.9-2.5,1.9-4.1,2.8c-1.3-1.2-2.3-2.5-3.3-3.7l0.4-3.2l0.8-6.5l0.8-6.5c0.1-1.1,0.3-2.1,0.4-3.2
				C32.8,167.6,34,166.6,35.7,165.7z"/>
		</g>
		<g>
			<path class="st0" d="M47.6,165.4c1.4,1.3,2.3,2.5,3.3,3.7c-0.2,1.1-0.3,2.1-0.5,3.2l-0.8,6.5l-0.8,6.5l-0.4,3.2
				c-1.2,0.9-2.5,1.9-4.1,2.8c-1.3-1.2-2.3-2.5-3.2-3.7l0.4-3.2l0.8-6.5l0.8-6.5c0.2-1.1,0.3-2.1,0.4-3.2
				C44.6,167.2,45.8,166.2,47.6,165.4z"/>
		</g>
		<g>
			<path class="st0" d="M59.3,165c1.4,1.3,2.3,2.5,3.3,3.7c-0.2,1.1-0.3,2.1-0.5,3.2l-0.9,6.5l-0.9,6.5l-0.4,3.2
				c-1.2,0.9-2.5,1.9-4.1,2.7c-1.3-1.3-2.3-2.5-3.2-3.7l0.4-3.2l0.9-6.5l0.9-6.5c0.2-1.1,0.3-2.1,0.4-3.2
				C56.5,166.8,57.7,165.9,59.3,165z"/>
		</g>
		<g>
			<path class="st0" d="M71.2,164.6c1.4,1.3,2.3,2.5,3.3,3.8c-0.2,1.1-0.3,2.1-0.5,3.2l-0.9,6.5l-0.9,6.5l-0.4,3.2
				c-1.2,0.9-2.5,1.9-4.1,2.7c-1.3-1.3-2.2-2.5-3.2-3.8l0.4-3.2l0.9-6.5l0.9-6.5c0.2-1.1,0.3-2.1,0.4-3.2
				C68.3,166.4,69.5,165.5,71.2,164.6z"/>
		</g>
		<g>
			<path class="st0" d="M83,164.3c1.4,1.3,2.3,2.5,3.2,3.8c-0.2,1.1-0.3,2.1-0.5,3.2l-0.9,6.5l-0.9,6.5l-0.5,3.2
				c-1.2,0.9-2.5,1.8-4.1,2.7c-1.3-1.3-2.2-2.5-3.2-3.8l0.5-3.2l0.9-6.5l0.9-6.5c0.2-1.1,0.3-2.1,0.4-3.2
				C80.2,166,81.4,165.1,83,164.3z"/>
		</g>
		<g>
			<path class="st0" d="M94.9,163.9c1.4,1.3,2.3,2.5,3.2,3.8c-0.2,1.1-0.3,2.1-0.5,3.2l-0.9,6.5l-0.9,6.5l-0.5,3.2
				c-1.2,0.9-2.5,1.8-4.1,2.7c-1.3-1.3-2.2-2.5-3.2-3.8l0.5-3.2l0.9-6.5l0.9-6.5c0.2-1.1,0.3-2.1,0.4-3.2
				C92,165.6,93.3,164.7,94.9,163.9z"/>
		</g>
		<g>
			<path class="st0" d="M106.8,163.4c1.4,1.3,2.3,2.5,3.2,3.8c-0.2,1.1-0.3,2.1-0.5,3.2l-1,6.5l-1,6.5l-0.5,3.2
				c-1.2,0.9-2.5,1.8-4.1,2.7c-1.3-1.3-2.2-2.5-3.2-3.8l0.5-3.2l1-6.5l1-6.5c0.2-1.1,0.3-2.1,0.4-3.2
				C103.8,165.2,105,164.3,106.8,163.4z"/>
		</g>
		<g>
			<path class="st0" d="M118.6,163c1.4,1.3,2.3,2.5,3.2,3.8c-0.2,1.1-0.3,2.1-0.5,3.2l-1,6.5l-1,6.5l-0.5,3.2
				c-1.3,0.9-2.5,1.8-4.1,2.7c-1.3-1.3-2.2-2.5-3.2-3.8l0.5-3.2l1-6.5l1-6.5c0.2-1.1,0.3-2.1,0.5-3.2
				C115.7,164.8,116.9,163.9,118.6,163z"/>
		</g>
		<g>
			<path class="st0" d="M130.5,162.7c1.3,1.3,2.3,2.5,3.2,3.8c-0.2,1.1-0.3,2.1-0.6,3.2l-1,6.5l-1,6.5l-0.5,3.2
				c-1.3,0.9-2.5,1.8-4.2,2.6c-1.3-1.3-2.2-2.5-3.1-3.8l0.5-3.2l1-6.5l1-6.5c0.2-1.1,0.4-2.1,0.5-3.2
				C127.5,164.4,128.8,163.5,130.5,162.7z"/>
		</g>
		<g>
			<path class="st0" d="M142.3,162.3c1.3,1.3,2.2,2.5,3.2,3.8c-0.2,1.1-0.3,2.1-0.6,3.2l-1.1,6.5l-1.1,6.5l-0.5,3.2
				c-1.3,0.9-2.5,1.8-4.2,2.6c-1.3-1.3-2.2-2.5-3.1-3.8l0.5-3.2l1.1-6.5l1.1-6.5c0.2-1.1,0.4-2.1,0.5-3.2
				C139.4,164,140.6,163.1,142.3,162.3z"/>
		</g>
		<g>
			<path class="st0" d="M154.1,161.9c1.3,1.3,2.2,2.5,3.1,3.8c-0.2,1.1-0.4,2.1-0.6,3.2l-1.1,6.4l-1.1,6.4l-0.5,3.2
				c-1.3,0.9-2.5,1.8-4.2,2.6c-1.3-1.3-2.2-2.5-3.1-3.8l0.5-3.2l1.1-6.4l1.1-6.4c0.2-1.1,0.4-2.1,0.5-3.2
				C151.2,163.6,152.5,162.7,154.1,161.9z"/>
		</g>
		<g>
			<path class="st0" d="M166,161.5c1.3,1.3,2.2,2.5,3.1,3.8c-0.2,1.1-0.4,2.1-0.6,3.2l-1.1,6.4l-1.1,6.4l-0.6,3.2
				c-1.3,0.9-2.5,1.8-4.2,2.6c-1.3-1.3-2.2-2.5-3.1-3.8l0.6-3.2l1.1-6.4l1.1-6.4c0.2-1.1,0.4-2.1,0.5-3.2
				C163,163.2,164.3,162.3,166,161.5z"/>
		</g>
		<g>
			<path class="st0" d="M177.8,161.2c1.3,1.3,2.2,2.5,3.1,3.8c-0.2,1.1-0.4,2.1-0.6,3.2l-1.1,6.4l-1.1,6.4l-0.6,3.2
				c-1.3,0.9-2.5,1.8-4.2,2.6c-1.3-1.3-2.1-2.5-3.1-3.8l0.6-3.2l1.1-6.4l1.1-6.4c0.2-1.1,0.4-2.1,0.5-3.2
				C174.9,162.8,176.2,162,177.8,161.2z"/>
		</g>
		<g>
			<path class="st0" d="M189.7,160.7c1.3,1.3,2.2,2.6,3.1,3.8c-0.2,1.1-0.4,2.1-0.6,3.2l-1.1,6.4l-1.1,6.4l-0.6,3.2
				c-1.3,0.9-2.5,1.7-4.2,2.5c-1.3-1.3-2.1-2.5-3.1-3.8l0.6-3.2l1.1-6.4l1.1-6.4c0.2-1.1,0.4-2.1,0.5-3.2
				C186.7,162.5,188,161.6,189.7,160.7z"/>
		</g>
		<g>
			<path class="st0" d="M201.5,160.3c1.3,1.3,2.2,2.6,3.1,3.8c-0.2,1.1-0.4,2.1-0.6,3.2l-1.1,6.4l-1.1,6.4l-0.6,3.2
				c-1.3,0.9-2.5,1.7-4.2,2.5c-1.2-1.3-2.1-2.6-3-3.8l0.6-3.2l1.1-6.4l1.1-6.4c0.2-1.1,0.4-2.1,0.6-3.2
				C198.6,162.1,199.8,161.2,201.5,160.3z"/>
		</g>
		<g>
			<path class="st0" d="M213.4,159.9c1.3,1.3,2.2,2.6,3.1,3.8c-0.2,1.1-0.4,2.1-0.7,3.2l-1.1,6.4l-1.1,6.4l-0.6,3.2
				c-1.3,0.9-2.5,1.7-4.2,2.5c-1.2-1.3-2.1-2.6-3-3.8l0.6-3.2l1.1-6.4l1.1-6.4c0.2-1.1,0.4-2.1,0.6-3.2
				C210.4,161.6,211.7,160.7,213.4,159.9z"/>
		</g>
		<g>
			<path class="st0" d="M225.2,159.6c1.3,1.3,2.2,2.6,3,3.8c-0.2,1.1-0.4,2.1-0.7,3.2l-1.1,6.4l-1.1,6.4l-0.6,3.2
				c-1.3,0.9-2.5,1.7-4.2,2.5c-1.2-1.3-2.1-2.6-3-3.8l0.6-3.2l1.1-6.4l1.1-6.4c0.2-1.1,0.4-2.1,0.6-3.2
				C222.2,161.2,223.5,160.3,225.2,159.6z"/>
		</g>
	</g>
	<g>
		<polygon class="st1" points="231.4,165.6 15.8,174.9 12.9,55.4 170.6,55.3 		"/>
		<polygon class="st2" points="231.4,165.4 15.9,174.6 12.9,55.1 170.9,55 		"/>
		<polygon class="st3" points="231.5,165.2 15.9,174.5 12.9,54.9 171.2,54.7 		"/>
		<polygon class="st4" points="231.5,165 15.9,174.3 12.9,54.5 171.4,54.4 		"/>
		<polygon class="st5" points="231.5,164.8 16,174.2 13,54.2 171.7,54 		"/>
		<polygon class="st6" points="231.5,164.7 16,174 13,53.9 172,53.7 		"/>
		<polygon class="st7" points="231.6,164.5 16,173.8 13,53.5 172.3,53.4 		"/>
		<polygon class="st8" points="231.6,164.3 16.1,173.7 13,53.2 172.5,53.1 		"/>
		<polygon class="st9" points="231.7,164.2 16.1,173.5 13,52.9 172.8,52.7 		"/>
		<polygon class="st10" points="231.7,163.9 16.1,173.3 13,52.6 173.1,52.4 		"/>
		<polygon class="st11" points="231.8,163.8 16.2,173.1 13,52.2 173.3,52.1 		"/>
		<polygon class="st12" points="231.8,163.6 16.2,172.9 13.1,51.9 173.6,51.7 		"/>
		<polygon class="st13" points="231.9,163.4 16.2,172.8 13.1,51.6 173.9,51.4 		"/>
		<polygon class="st14" points="231.9,163.3 16.2,172.6 13.1,51.3 174.1,51.1 		"/>
		<polygon class="st15" points="232,163.1 16.2,172.4 13.2,50.9 174.4,50.8 		"/>
		<polygon class="st16" points="232,162.9 16.2,172.3 13.2,50.6 174.7,50.4 		"/>
		<polygon class="st17" points="232,162.7 16.3,172.1 13.2,50.3 175,50.1 		"/>
		<polygon class="st18" points="232,162.5 16.3,172 13.3,49.9 175.2,49.8 		"/>
		<polygon class="st19" points="232.1,162.4 16.3,171.7 13.3,49.6 175.5,49.5 		"/>
		<polygon class="st20" points="232.1,162.2 16.4,171.5 13.3,49.3 175.8,49.1 		"/>
		<polygon class="st21" points="232.2,162.1 16.4,171.4 13.3,49 176,48.8 		"/>
		<polygon class="st22" points="232.2,161.8 16.4,171.2 13.4,48.7 176.3,48.5 		"/>
		<polygon class="st23" points="232.3,161.6 16.5,171.1 13.4,48.4 176.6,48.1 		"/>
		<polygon class="st24" points="232.3,161.5 16.5,170.9 13.4,48.1 176.8,47.8 		"/>
		<polygon class="st25" points="232.4,161.3 16.5,170.7 13.5,47.7 177.1,47.5 		"/>
		<polygon class="st26" points="232.4,161.2 16.5,170.6 13.5,47.4 177.4,47.2 		"/>
		<polygon class="st27" points="232.4,160.9 16.6,170.3 13.5,47.1 177.7,46.8 		"/>
		<polygon class="st28" points="232.4,160.7 16.6,170.2 13.5,46.8 177.9,46.5 		"/>
		<polygon class="st29" points="232.5,160.6 16.6,170 13.5,46.4 178.2,46.2 		"/>
		<polygon class="st30" points="232.5,160.4 16.6,169.8 13.5,46.1 178.5,45.9 		"/>
		<polygon class="st31" points="232.6,160.3 16.6,169.7 13.5,45.8 178.7,45.5 		"/>
		<polygon class="st32" points="232.6,160.1 16.6,169.5 13.6,45.4 179,45.2 		"/>
		<polygon class="st33" points="232.7,159.8 16.7,169.3 13.6,45.1 179.3,44.9 		"/>
		<polygon class="st34" points="232.7,159.7 16.7,169.2 13.6,44.8 179.5,44.5 		"/>
		<polygon class="st35" points="232.8,159.5 16.7,169 13.6,44.5 179.8,44.2 		"/>
		<polygon class="st36" points="232.8,159.4 16.8,168.8 13.7,44.1 180.1,43.9 		"/>
		<polygon class="st37" points="232.9,159.2 16.8,168.6 13.7,43.8 180.4,43.6 		"/>
		<polygon class="st38" points="232.9,159 16.8,168.4 13.7,43.5 180.6,43.2 		"/>
		<polygon class="st39" points="232.9,158.8 16.9,168.3 13.8,43.2 180.8,42.9 		"/>
		<polygon class="st40" points="232.9,158.6 16.9,168.1 13.8,42.8 181.2,42.6 		"/>
		<polygon class="st41" points="233,158.5 16.9,167.9 13.8,42.6 181.4,42.3 		"/>
		<polygon class="st42" points="233,158.3 17,167.8 13.8,42.3 181.7,41.9 		"/>
		<polygon class="st43" points="233.1,158.1 17,167.6 13.9,41.9 182,41.6 		"/>
		<polygon class="st44" points="233.1,158 17,167.4 13.9,41.6 182.2,41.3 		"/>
		<polygon class="st45" points="233.2,157.7 17,167.2 13.9,41.3 182.5,41 		"/>
		<polygon class="st46" points="233.2,157.6 17,167 13.9,41 182.8,40.6 		"/>
		<polygon class="st47" points="233.3,157.4 17,166.9 13.9,40.6 183.1,40.3 		"/>
		<polygon class="st48" points="233.3,157.2 17.1,166.7 13.9,40.3 183.3,40 		"/>
		<polygon class="st49" points="233.3,157.1 17.1,166.6 13.9,40 183.5,39.6 		"/>
		<polygon class="st50" points="233.3,156.9 17.1,166.4 14,39.6 183.9,39.3 		"/>
		<polygon class="st51" points="233.4,156.7 17.2,166.2 14,39.3 184.1,39 		"/>
		<polygon class="st52" points="233.4,156.5 17.2,166 14,39 184.4,38.7 		"/>
		<polygon class="st53" points="233.5,156.3 17.2,165.8 14.1,38.7 184.7,38.3 		"/>
		<polygon class="st54" points="233.5,156.2 17.3,165.7 14.1,38.3 184.9,38 		"/>
		<polygon class="st55" points="233.6,156 17.3,165.5 14.1,38 185.2,37.7 		"/>
		<polygon class="st56" points="233.6,155.8 17.3,165.3 14.2,37.7 185.5,37.4 		"/>
		<polygon class="st57" points="233.7,155.6 17.4,165.2 14.2,37.4 185.7,37 		"/>
		<polygon class="st58" points="233.7,155.4 17.4,165 14.2,37 186,36.7 		"/>
		<polygon class="st59" points="233.7,155.3 17.4,164.8 14.2,36.8 186.2,36.4 		"/>
		<polygon class="st60" points="233.7,155.1 17.5,164.7 14.3,36.5 186.6,36 		"/>
		<polygon class="st61" points="233.8,154.9 17.5,164.4 14.3,36.1 186.8,35.7 		"/>
		<polygon class="st62" points="233.8,154.7 17.5,164.3 14.3,35.8 187.1,35.4 		"/>
		<polygon class="st63" points="233.9,154.5 17.5,164.1 14.4,35.5 187.4,35.1 		"/>
		<polygon class="st64" points="233.9,154.4 17.5,163.9 14.4,35.1 187.6,34.7 		"/>
		<polygon class="st65" points="234,154.2 17.5,163.8 14.4,34.8 187.9,34.4 		"/>
		<polygon class="st66" points="234,154 17.6,163.6 14.4,34.5 188.2,34.1 		"/>
		<polygon class="st67" points="234.1,153.9 17.6,163.4 14.4,34.2 188.4,33.8 		"/>
		<polygon class="st68" points="234.1,153.6 17.6,163.3 14.4,33.8 188.7,33.4 		"/>
		<polygon class="st69" points="234.2,153.5 17.7,163 14.4,33.5 188.9,33.1 		"/>
		<polygon class="st70" points="234.2,153.3 17.7,162.9 14.5,33.2 189.3,32.8 		"/>
		<polygon class="st71" points="234.2,153.1 17.7,162.7 14.5,32.9 189.5,32.4 		"/>
		<polygon class="st72" points="234.2,153 17.8,162.5 14.5,32.5 189.8,32.1 		"/>
		<polygon class="st73" points="234.3,152.8 17.8,162.4 14.5,32.2 190.1,31.8 		"/>
		<polygon class="st74" points="234.3,152.6 17.8,162.2 14.6,31.9 190.3,31.5 		"/>
		<polygon class="st75" points="234.4,152.4 17.9,162.1 14.6,31.5 190.6,31.1 		"/>
		<polygon class="st76" points="234.4,152.2 17.9,161.9 14.6,31.2 190.8,30.8 		"/>
		<polygon class="st77" points="234.5,152.1 17.9,161.7 14.7,30.9 191.1,30.5 		"/>
		<polygon class="st78" points="234.5,151.9 17.9,161.5 14.7,30.6 191.4,30.2 		"/>
		<polygon class="st79" points="234.6,151.8 17.9,161.3 14.7,30.3 191.6,29.8 		"/>
		<polygon class="st80" points="234.6,151.5 17.9,161.2 14.7,30 192,29.5 		"/>
		<polygon class="st81" points="234.6,151.3 18,161 14.8,29.7 192.2,29.2 		"/>
		<polygon class="st82" points="234.6,151.2 18,160.8 14.8,29.3 192.5,28.8 		"/>
		<polygon class="st83" points="234.7,151 18,160.7 14.8,29 192.8,28.5 		"/>
		<polygon class="st84" points="234.7,150.9 18.1,160.5 14.8,28.7 193,28.2 		"/>
		<polygon class="st85" points="234.8,150.6 18.1,160.3 14.8,28.4 193.3,27.9 		"/>
		<polygon class="st86" points="234.8,150.4 18.1,160.1 14.8,28 193.5,27.5 		"/>
		<polygon class="st87" points="234.9,150.3 18.2,159.9 14.8,27.7 193.8,27.2 		"/>
		<polygon class="st88" points="234.9,150.1 18.2,159.8 14.9,27.4 194.1,26.9 		"/>
		<polygon class="st89" points="235,150 18.2,159.6 14.9,27 194.3,26.6 		"/>
		<polygon class="st90" points="235,149.8 18.3,159.4 14.9,26.7 194.7,26.2 		"/>
		<polygon class="st91" points="235.1,149.5 18.3,159.3 15,26.4 194.9,25.9 		"/>
		<polygon class="st92" points="235.1,149.4 18.3,159.1 15,26.1 195.2,25.6 		"/>
		<polygon class="st93" points="235.1,149.2 18.4,158.9 15,25.7 195.5,25.2 		"/>
		<polygon class="st94" points="235.1,149.1 18.4,158.7 15.1,25.4 195.7,24.9 		"/>
		<polygon class="st95" points="235.2,148.9 18.4,158.5 15.1,25.1 196,24.6 		"/>
		<polygon class="st96" points="235.2,148.7 18.4,158.4 15.1,24.8 196.2,24.3 		"/>
		<polygon class="st97" points="235.3,148.5 18.4,158.2 15.1,24.5 196.5,23.9 		"/>
		<polygon class="st98" points="235.3,148.3 18.4,158 15.2,24.2 196.8,23.6 		"/>
		<polygon class="st99" points="235.4,148.2 18.5,157.9 15.2,23.9 197,23.3 		"/>
		<polygon class="st100" points="235.4,148 18.5,157.7 15.2,23.5 197.4,23 		"/>
		<polygon class="st101" points="235.5,147.8 18.5,157.6 15.3,23.2 197.6,22.6 		"/>
		<polygon class="st102" points="235.5,147.7 18.6,157.4 15.3,22.9 197.9,22.3 		"/>
		<polygon class="st103" points="235.5,147.4 18.6,157.2 15.3,22.6 198.2,22 		"/>
		<polygon class="st104" points="235.5,147.3 18.6,157 15.3,22.2 198.4,21.7 		"/>
		<polygon class="st105" points="235.6,147.1 18.7,156.8 15.3,21.9 198.7,21.3 		"/>
		<polygon class="st106" points="235.6,146.9 18.7,156.7 15.3,21.6 198.9,21 		"/>
		<polygon class="st107" points="235.7,146.8 18.7,156.5 15.3,21.2 199.2,20.7 		"/>
		<polygon class="st108" points="235.7,146.6 18.8,156.3 15.4,20.9 199.5,20.3 		"/>
		<polygon class="st109" points="235.8,146.4 18.8,156.2 15.4,20.6 199.7,20 		"/>
		<polygon class="st110" points="235.8,146.2 18.8,156 15.4,20.3 200.1,19.7 		"/>
		<polygon class="st111" points="235.9,146 18.8,155.8 15.4,19.9 200.3,19.4 		"/>
		<polygon class="st112" points="235.9,145.9 18.8,155.6 15.5,19.6 200.5,19 		"/>
		<polygon class="st113" points="236,145.7 18.8,155.4 15.5,19.3 200.8,18.7 		"/>
		<polygon class="st114" points="236,145.5 18.9,155.3 15.5,19 201.1,18.4 		"/>
		<polygon class="st115" points="236,145.3 18.9,155.1 15.6,18.7 201.4,18.1 		"/>
		<polygon class="st116" points="236,145.1 18.9,154.9 15.6,18.4 201.6,17.7 		"/>
		<polygon class="st117" points="236.1,145 19,154.8 15.6,18.1 201.9,17.4 		"/>
		<polygon class="st118" points="236.1,144.8 19,154.6 15.6,17.7 202.2,17.1 		"/>
		<polygon class="st119" points="236.2,144.6 19,154.4 15.7,17.4 202.4,16.7 		"/>
		<polygon class="st120" points="236.2,144.4 19.1,154.2 15.7,17.1 202.8,16.4 		"/>
		<polygon class="st121" points="236.3,144.2 19.1,154 15.7,16.7 203,16.1 		"/>
		<polygon class="st122" points="236.3,144.1 19.1,153.9 15.7,16.4 203.2,15.8 		"/>
		<polygon class="st123" points="236.4,143.9 19.2,153.7 15.7,16.1 203.5,15.4 		"/>
		<polygon class="st124" points="236.4,143.7 19.2,153.6 15.7,15.8 203.8,15.1 		"/>
		<polygon class="st125" points="236.4,143.6 19.2,153.4 15.8,15.4 204.1,14.8 		"/>
		<polygon class="st126" points="236.4,143.3 19.3,153.2 15.8,15.1 204.3,14.5 		"/>
		<polygon class="st127" points="236.5,143.2 19.3,153.1 15.8,14.8 204.6,14.1 		"/>
		<polygon class="st128" points="236.5,143 19.3,152.8 15.8,14.5 204.9,13.8 		"/>
		<polygon class="st129" points="236.6,142.8 19.3,152.7 15.9,14.1 205.1,13.5 		"/>
		<polygon class="st130" points="236.6,142.7 19.3,152.5 15.9,13.8 205.5,13.1 		"/>
		<polygon class="st131" points="236.7,142.5 19.3,152.3 15.9,13.5 205.7,12.8 		"/>
		<polygon class="st132" points="236.7,142.3 19.4,152.2 16,13.1 205.9,12.5 		"/>
		<polygon class="st133" points="236.8,142.1 19.4,152 16,12.8 206.2,12.2 		"/>
		<polygon class="st134" points="236.8,141.9 19.4,151.8 16,12.6 206.5,11.8 		"/>
		<polygon class="st135" points="236.9,141.8 19.5,151.7 16,12.2 206.8,11.5 		"/>
		<polygon class="st136" points="236.9,141.6 19.5,151.4 16.1,11.9 207,11.2 		"/>
		<polygon class="st137" points="236.9,141.4 19.5,151.3 16.1,11.6 207.3,10.9 		"/>
		<polygon class="st138" points="236.9,141.2 19.6,151.1 16.1,11.3 207.6,10.5 		"/>
		<polygon class="st139" points="237,141 19.6,150.9 16.2,10.9 207.8,10.2 		"/>
		<polygon class="st140" points="237,140.9 19.6,150.8 16.2,10.6 208.1,9.9 		"/>
		<polygon class="st141" points="237.1,140.7 19.7,150.6 16.2,10.3 208.4,9.5 		"/>
		<polygon class="st142" points="237.1,140.6 19.7,150.4 16.2,10 208.6,9.2 		"/>
		<polygon class="st143" points="237.2,140.3 19.7,150.3 16.2,9.6 208.9,8.9 		"/>
		<polygon class="st144" points="237.2,140.1 19.7,150 16.2,9.3 209.2,8.6 		"/>
		<polygon class="st145" points="237.3,140 19.7,149.9 16.2,9 209.5,8.2 		"/>
		<polygon class="st146" points="237.3,139.8 19.7,149.7 16.3,8.6 209.7,7.9 		"/>
		<polygon class="st147" points="237.3,139.7 19.8,149.5 16.3,8.3 210,7.6 		"/>
		<polygon class="st148" points="237.3,139.5 19.8,149.4 16.3,8 210.3,7.3 		"/>
		<polygon class="st149" points="237.4,139.2 19.8,149.2 16.3,7.7 210.5,6.9 		"/>
		<polygon class="st150" points="237.4,139.1 19.9,149.1 16.4,7.3 210.8,6.6 		"/>
		<polygon class="st151" points="237.5,138.9 19.9,148.9 16.4,7 211.1,6.3 		"/>
		<polygon class="st152" points="237.5,138.8 19.9,148.7 16.4,6.7 211.3,6 		"/>
	</g>
	<g>
		<g>
			<path class="st153" d="M104.1,99.6L83.7,70c-1.6-2.6-2.9-5.1-4.2-7.4H79c0.2,2.1-0.1,4.7-0.7,7.9L73,100.3L104.1,99.6z
				 M150.7,132.5l-26.7,0.7l-12.1-18.7l-40.8,1.1l-3.4,19.1l-26.2,0.7l20-88.1l29.2-0.7L150.7,132.5z"/>
			<path class="st153" d="M183.3,131.6l-24.8,0.7l-20-87l24.8-0.7L183.3,131.6z"/>
		</g>
		<g>
			<path class="st154" d="M104.2,99.4L83.8,69.8c-1.6-2.6-2.9-5.1-4.2-7.4h-0.5c0.2,2.1-0.1,4.7-0.7,7.9l-5.4,29.8L104.2,99.4z
				 M150.8,132.2l-26.7,0.7L112,114.2l-40.8,1.1l-3.4,19.1l-26.2,0.7l20-88l29.2-0.7L150.8,132.2z"/>
			<polygon class="st154" points="183.4,131.4 158.6,132 138.6,45 163.5,44.4 			"/>
		</g>
		<g>
			<path class="st155" d="M104.3,99.2L83.9,69.6c-1.6-2.6-2.9-5.1-4.2-7.4h-0.5c0.2,2.1-0.1,4.7-0.7,7.9l-5.4,29.8L104.3,99.2z
				 M150.9,132l-26.7,0.7l-12-18.7l-40.8,1.1l-3.4,19.1l-26.2,0.7l20-88.1l29.2-0.7L150.9,132z"/>
			<polygon class="st155" points="183.5,131.1 158.7,131.8 138.8,44.8 163.6,44.1 			"/>
		</g>
		<g>
			<path class="st156" d="M104.4,99L83.9,69.4c-1.6-2.6-2.9-5.1-4.2-7.4h-0.5c0.2,2.1-0.1,4.7-0.7,7.9l-5.4,29.8L104.4,99z
				 M151.1,131.8l-26.7,0.7l-12.1-18.7l-40.8,1.1L68,134l-26.2,0.7l20-88.1l29.2-0.7L151.1,131.8z"/>
			<polygon class="st156" points="183.6,131 158.8,131.6 138.9,44.6 163.7,44 			"/>
		</g>
		<g>
			<path class="st157" d="M104.5,98.8L84.1,69.2c-1.6-2.6-2.9-5.1-4.2-7.4h-0.5c0.2,2.1-0.1,4.7-0.7,7.9l-5.4,29.8L104.5,98.8z
				 M151.2,131.6l-26.7,0.7l-12.1-18.7l-40.8,1.1l-3.4,19.1l-26.2,0.7l20-88.1L91,45.7L151.2,131.6z"/>
			<polygon class="st157" points="183.7,130.7 158.9,131.4 139,44.4 163.8,43.7 			"/>
		</g>
		<g>
			<path class="st158" d="M104.6,98.5L84.2,68.9c-1.6-2.6-2.9-5.1-4.2-7.4h-0.5c0.2,2.1-0.1,4.7-0.7,7.9l-5.4,29.8L104.6,98.5z
				 M151.2,131.4l-26.7,0.7l-12.1-18.7l-40.8,1.1l-3.4,19.1l-26.2,0.7l20-88.1l29.2-0.7L151.2,131.4z"/>
			<polygon class="st158" points="183.8,130.5 159,131.1 139.1,44.1 163.8,43.5 			"/>
		</g>
		<g>
			<path class="st159" d="M104.7,98.4L84.3,68.8c-1.6-2.6-2.9-5.1-4.2-7.4h-0.5c0.2,2.1-0.1,4.7-0.7,7.9l-5.4,29.8L104.7,98.4z
				 M151.3,131.1l-26.7,0.7l-12.1-18.7l-40.8,1.1l-3.4,19.1L42,134l20-88.1l29.2-0.7L151.3,131.1z"/>
			<polygon class="st159" points="183.9,130.3 159.1,131 139.2,44 164,43.3 			"/>
		</g>
		<g>
			<path class="st160" d="M104.8,98.1L84.3,68.5c-1.6-2.6-2.9-5.1-4.2-7.4h-0.5c0.2,2.1-0.1,4.7-0.7,7.9l-5.4,29.8L104.8,98.1z
				 M151.5,131l-26.7,0.7L112.6,113l-40.8,1.1l-3.4,19.1l-26.2,0.7l20-88.1L91.3,45L151.5,131z"/>
			<polygon class="st160" points="184,130.1 159.3,130.7 139.3,43.7 164.1,43.1 			"/>
		</g>
		<g>
			<path class="st161" d="M105,97.9L84.5,68.3c-1.6-2.6-2.9-5.1-4.2-7.4h-0.5c0.2,2.1-0.1,4.7-0.7,7.9l-5.4,29.8L105,97.9z
				 M151.6,130.7l-26.7,0.7l-12.1-18.7l-40.8,1.1l-3.4,19.1l-26.2,0.7l20-88.1l29.2-0.7L151.6,130.7z"/>
			<polygon class="st161" points="184.1,129.9 159.3,130.6 139.4,43.5 164.2,42.8 			"/>
		</g>
		<g>
			<path class="st162" d="M105,97.7L84.6,68.1c-1.6-2.6-2.9-5.1-4.2-7.4h-0.5c0.2,2.1-0.1,4.7-0.7,7.9l-5.4,29.8L105,97.7z
				 M151.6,130.5l-26.7,0.7l-12.1-18.7L72,113.6l-3.4,19.1l-26.2,0.7l19.9-88l29.2-0.7L151.6,130.5z"/>
			<polygon class="st162" points="184.2,129.7 159.4,130.3 139.5,43.3 164.2,42.7 			"/>
		</g>
		<g>
			<path class="st163" d="M105.1,97.5L84.7,67.9c-1.6-2.6-2.9-5.1-4.2-7.4H80c0.2,2.1-0.1,4.7-0.7,7.9L74,98.2L105.1,97.5z
				 M151.7,130.3l-26.7,0.7l-12.1-18.7l-40.8,1.1l-3.4,19.1l-26.2,0.7l20-88.1l29.2-0.7L151.7,130.3z"/>
			<polygon class="st163" points="184.3,129.4 159.5,130.1 139.6,43.1 164.4,42.4 			"/>
		</g>
		<g>
			<path class="st164" d="M105.2,97.3L84.8,67.7c-1.6-2.6-2.9-5.1-4.2-7.4h-0.5c0.2,2.1-0.1,4.7-0.7,7.9L74,98L105.2,97.3z
				 M151.8,130.1l-26.7,0.7L113,112.1l-40.8,1.1l-3.4,19.1l-26.2,0.7l20-88.1l29.2-0.7L151.8,130.1z"/>
			<polygon class="st164" points="184.4,129.3 159.7,129.9 139.7,42.9 164.5,42.3 			"/>
		</g>
		<g>
			<path class="st165" d="M105.3,97L84.8,67.4c-1.6-2.6-2.9-5.1-4.2-7.4h-0.5c0.2,2.1-0.1,4.7-0.7,7.9l-5.4,29.8L105.3,97z
				 M152,129.9l-26.7,0.7l-12.1-18.7L72.3,113l-3.4,19.1l-26.2,0.7l20-88.1L91.8,44L152,129.9z"/>
			<polygon class="st165" points="184.5,129 159.7,129.7 139.8,42.7 164.6,42 			"/>
		</g>
		<g>
			<path class="st166" d="M105.4,96.9L85,67.3c-1.6-2.6-2.9-5.1-4.2-7.4h-0.5c0.2,2.1-0.1,4.7-0.7,7.9l-5.4,29.8L105.4,96.9z
				 M152.1,129.7l-26.7,0.7l-12.1-18.7l-40.8,1.1L69,131.9l-26.2,0.7l20-88.1l29.2-0.7L152.1,129.7z"/>
			<polygon class="st166" points="184.6,128.8 159.8,129.5 139.9,42.4 164.7,41.8 			"/>
		</g>
		<g>
			<path class="st167" d="M105.5,96.6L85.1,67c-1.6-2.6-2.9-5.1-4.2-7.4h-0.5c0.2,2.1-0.1,4.7-0.7,7.9l-5.4,29.8L105.5,96.6z
				 M152.1,129.4l-26.7,0.7l-12.1-18.7l-40.8,1.1l-3.4,19.1l-26.2,0.7l20-88.1L92,43.5L152.1,129.4z"/>
			<polygon class="st167" points="184.7,128.6 159.9,129.3 140,42.3 164.8,41.6 			"/>
		</g>
		<g>
			<path class="st168" d="M105.6,96.4L85.2,66.8c-1.6-2.6-2.9-5.1-4.2-7.4h-0.5c0.2,2.1-0.1,4.7-0.7,7.9l-5.4,29.8L105.6,96.4z
				 M152.2,129.3l-26.7,0.7l-12.1-18.7l-40.8,1.1l-3.4,19.1l-26.2,0.7l20-88.1L92,43.3L152.2,129.3z"/>
			<polygon class="st168" points="184.8,128.4 160,129 140.1,42 164.9,41.4 			"/>
		</g>
		<g>
			<path class="st169" d="M105.7,96.2L85.2,66.6c-1.6-2.6-2.9-5.1-4.2-7.4h-0.5c0.2,2.1-0.1,4.7-0.7,7.9L74.5,97L105.7,96.2z
				 M152.4,129l-26.7,0.7L113.5,111l-40.8,1.1l-3.4,19.1l-26.2,0.7l20-88.1l29.2-0.7L152.4,129z"/>
			<polygon class="st169" points="184.9,128.2 160.2,128.9 140.2,41.8 165,41.2 			"/>
		</g>
		<g>
			<path class="st170" d="M105.9,96L85.4,66.4c-1.6-2.6-2.9-5.1-4.2-7.4h-0.5c0.2,2.1-0.1,4.7-0.7,7.9l-5.4,29.8L105.9,96z
				 M152.5,128.9l-26.7,0.7l-12.1-18.7l-40.8,1.1l-3.4,19.1l-26.2,0.7l20-88.1l29.2-0.7L152.5,128.9z"/>
			<polygon class="st170" points="185,128 160.2,128.6 140.3,41.6 165.1,41 			"/>
		</g>
		<g>
			<path class="st171" d="M105.9,95.7L85.5,66.1c-1.6-2.6-2.9-5.1-4.2-7.4h-0.5c0.2,2.1-0.1,4.7-0.7,7.9l-5.4,29.8L105.9,95.7z
				 M152.5,128.6l-26.7,0.7l-12.1-18.7l-40.8,1.1l-3.4,19.1l-26.2,0.7l20-88.1l29.2-0.7L152.5,128.6z"/>
			<polygon class="st171" points="185.1,127.7 160.3,128.4 140.4,41.4 165.2,40.7 			"/>
		</g>
		<g>
			<path class="st172" d="M106,95.6L85.6,66c-1.6-2.6-2.9-5.1-4.2-7.4h-0.5c0.2,2.1-0.1,4.7-0.7,7.9l-5.4,29.8L106,95.6z
				 M152.6,128.4l-26.7,0.7l-12.1-18.7L73,111.4l-3.4,19.1l-26.2,0.7l20-88.1l29.2-0.7L152.6,128.4z"/>
			<polygon class="st172" points="185.2,127.5 160.4,128.2 140.5,41.2 165.3,40.5 			"/>
		</g>
		<g>
			<path class="st173" d="M106.1,95.3L85.7,65.7c-1.6-2.6-2.9-5.1-4.2-7.4H81c0.2,2.1-0.1,4.7-0.7,7.9l-5.4,29.8L106.1,95.3z
				 M152.8,128.2l-26.7,0.7L114,110.2l-40.8,1.1l-3.5,19.1l-26.2,0.7l20-88.1l29.2-0.7L152.8,128.2z"/>
			<polygon class="st173" points="185.3,127.3 160.6,128 140.6,41 165.4,40.3 			"/>
		</g>
		<g>
			<path class="st174" d="M106.3,95.2L85.8,65.6c-1.6-2.6-2.9-5.1-4.2-7.4h-0.5c0.2,2.1-0.1,4.7-0.7,7.9l-5.4,29.8L106.3,95.2z
				 M152.9,128l-26.7,0.7L114,110L73.2,111l-3.4,19.1l-26.2,0.7l20-88.1L92.7,42L152.9,128z"/>
			<polygon class="st174" points="185.4,127.1 160.6,127.8 140.7,40.8 165.5,40.1 			"/>
		</g>
		<g>
			<path class="st175" d="M106.3,94.9L85.9,65.3c-1.6-2.6-2.9-5.1-4.2-7.4h-0.5c0.2,2.1-0.1,4.7-0.7,7.9l-5.4,29.8L106.3,94.9z
				 M153,127.8l-26.7,0.7l-12.1-18.7l-40.8,1.1L69.9,130l-26.2,0.7l20-88.1l29.2-0.7L153,127.8z"/>
			<polygon class="st175" points="185.5,126.9 160.7,127.5 140.8,40.5 165.6,39.9 			"/>
		</g>
		<g>
			<path class="st176" d="M106.4,94.7L86,65.1c-1.6-2.6-2.9-5.1-4.2-7.4h-0.5c0.2,2.1-0.1,4.7-0.7,7.9l-5.4,29.8L106.4,94.7z
				 M153,127.5l-26.7,0.7l-12.1-18.7l-40.8,1.1L70,129.8l-26.2,0.7l20-88.1l29.2-0.7L153,127.5z"/>
			<polygon class="st176" points="185.6,126.6 160.8,127.3 140.9,40.3 165.7,39.6 			"/>
		</g>
		<g>
			<path class="st177" d="M106.5,94.5L86.1,64.9c-1.6-2.6-2.9-5.1-4.2-7.4h-0.5c0.2,2.1-0.1,4.7-0.7,7.9l-5.4,29.8L106.5,94.5z
				 M153.2,127.3l-26.7,0.7l-12.1-18.7l-40.8,1.1l-3.4,19.1l-26.2,0.7l20-88.1L93,41.4L153.2,127.3z"/>
			<polygon class="st177" points="185.7,126.5 161,127.1 141,40.1 165.8,39.5 			"/>
		</g>
		<g>
			<path class="st178" d="M106.6,94.3L86.1,64.7c-1.6-2.6-2.9-5.1-4.2-7.4h-0.5c0.2,2.1-0.1,4.7-0.7,7.9L75.4,95L106.6,94.3z
				 M153.3,127.1l-26.7,0.7l-12.1-18.7l-40.8,1.1l-3.4,19.1L44,130l20-88.1l29.2-0.7L153.3,127.1z"/>
			<polygon class="st178" points="185.8,126.2 161.1,126.9 141.1,39.9 165.9,39.2 			"/>
		</g>
		<g>
			<path class="st179" d="M106.8,94.1L86.3,64.5c-1.6-2.6-2.9-5.1-4.2-7.4h-0.5c0.2,2.1-0.1,4.7-0.7,7.9l-5.4,29.8L106.8,94.1z
				 M153.4,126.9l-26.7,0.7l-12.1-18.7L73.7,110l-3.4,19.1L44,129.8l19.9-88.1L93.1,41L153.4,126.9z"/>
			<polygon class="st179" points="185.9,126.1 161.1,126.7 141.2,39.6 166,39 			"/>
		</g>
		<g>
			<path class="st180" d="M106.8,93.9L86.4,64.3c-1.6-2.6-2.9-5.1-4.2-7.4h-0.5c0.2,2.1-0.1,4.7-0.7,7.9l-5.4,29.8L106.8,93.9z
				 M153.4,126.6l-26.7,0.7l-12.1-18.6l-40.8,1.1l-3.4,19.1l-26.2,0.7l20-88.1l29.2-0.7L153.4,126.6z"/>
			<polygon class="st180" points="186,125.8 161.2,126.5 141.3,39.5 166.1,38.8 			"/>
		</g>
		<g>
			<path class="st181" d="M106.9,93.6L86.5,64c-1.6-2.6-2.9-5.1-4.2-7.4h-0.5c0.2,2.1-0.1,4.7-0.7,7.9l-5.4,29.8L106.9,93.6z
				 M153.5,126.5l-26.7,0.7l-12.1-18.7L74,109.5l-3.4,19.1l-26.2,0.7l19.9-88l29.2-0.7L153.5,126.5z"/>
			<polygon class="st181" points="186.2,125.6 161.4,126.2 141.4,39.2 166.2,38.6 			"/>
		</g>
		<g>
			<path class="st182" d="M107,93.4L86.6,63.8c-1.6-2.6-2.9-5.1-4.2-7.4h-0.5c0.2,2.1-0.1,4.7-0.7,7.9l-5.4,29.8L107,93.4z
				 M153.7,126.2L127,127l-12.1-18.7L74,109.3l-3.4,19.1l-26.2,0.7l20-88.1l29.2-0.7L153.7,126.2z"/>
			<polygon class="st182" points="186.2,125.4 161.5,126.1 141.5,39.1 166.3,38.4 			"/>
		</g>
		<g>
			<path class="st183" d="M107.2,93.2L86.7,63.6c-1.6-2.6-2.9-5.1-4.2-7.4h-0.5c0.2,2.1-0.1,4.7-0.7,7.9L76,93.9L107.2,93.2z
				 M153.8,126.1l-26.7,0.7l-12.1-18.7l-40.8,1.1l-3.4,19.1l-26.2,0.7l20-88.1l29.2-0.7L153.8,126.1z"/>
			<polygon class="st183" points="186.3,125.2 161.5,125.8 141.6,38.8 166.4,38.2 			"/>
		</g>
		<g>
			<path class="st184" d="M107.2,93L86.8,63.4c-1.6-2.6-2.9-5.1-4.2-7.4h-0.5c0.2,2.1-0.1,4.7-0.7,7.9l-5.4,29.8L107.2,93z
				 M153.9,125.8l-26.7,0.7L115,107.8l-40.8,1.1L70.8,128l-26.2,0.7l20-88.1l29.2-0.7L153.9,125.8z"/>
			<polygon class="st184" points="186.4,124.9 161.6,125.6 141.7,38.6 166.5,37.9 			"/>
		</g>
		<g>
			<path class="st185" d="M107.3,92.8L86.9,63.2c-1.6-2.6-2.9-5.1-4.2-7.4h-0.5c0.2,2.1-0.1,4.7-0.7,7.9l-5.4,29.8L107.3,92.8z
				 M153.9,125.6l-26.7,0.7l-12.1-18.7l-40.8,1.1l-3.4,19.1l-26.2,0.7l20-88l29.2-0.7L153.9,125.6z"/>
			<polygon class="st185" points="186.6,124.8 161.7,125.4 141.8,38.4 166.6,37.8 			"/>
		</g>
		<g>
			<path class="st186" d="M107.4,92.5L87,62.9c-1.6-2.6-2.9-5.1-4.2-7.4h-0.5c0.2,2.1-0.1,4.7-0.7,7.9l-5.4,29.8L107.4,92.5z
				 M154.1,125.4l-26.7,0.7l-12.1-18.7l-40.8,1.1L71,127.6l-26.2,0.7l20-88.1l29.2-0.7L154.1,125.4z"/>
			<polygon class="st186" points="186.6,124.5 161.9,125.2 141.9,38.2 166.7,37.5 			"/>
		</g>
		<g>
			<path class="st187" d="M107.6,92.4L87.1,62.8c-1.6-2.6-2.9-5.1-4.2-7.4h-0.5c0.2,2.1-0.1,4.7-0.7,7.9l-5.4,29.8L107.6,92.4z
				 M154.2,125.2l-26.7,0.7l-12.1-18.7l-40.8,1.1l-3.4,19.1L44.9,128l19.9-88l29.2-0.7L154.2,125.2z"/>
			<polygon class="st187" points="186.7,124.4 162,125 142,38 166.8,37.4 			"/>
		</g>
		<g>
			<path class="st188" d="M107.7,92.1L87.2,62.5c-1.6-2.6-2.9-5.1-4.2-7.4h-0.5c0.2,2.1-0.1,4.7-0.7,7.9l-5.4,29.8L107.7,92.1z
				 M154.3,125l-26.7,0.7L115.4,107l-40.8,1.1l-3.4,19.1l-26.2,0.7l20-88.1l29.2-0.7L154.3,125z"/>
			<polygon class="st188" points="186.8,124.1 162,124.8 142.1,37.8 166.9,37.1 			"/>
		</g>
		<g>
			<path class="st189" d="M107.7,91.9L87.3,62.3c-1.6-2.6-2.9-5.1-4.2-7.4h-0.5c0.2,2.1-0.1,4.7-0.7,7.9l-5.4,29.8L107.7,91.9z
				 M154.3,124.8l-26.7,0.7l-12.1-18.7l-40.8,1.1L71.3,127L45,127.6l20-88.1l29.2-0.7L154.3,124.8z"/>
			<polygon class="st189" points="186.9,123.9 162.1,124.5 142.2,37.5 167,36.9 			"/>
		</g>
		<g>
			<path class="st190" d="M107.8,91.7L87.4,62.1c-1.6-2.6-2.9-5.1-4.2-7.4h-0.5c0.2,2.1-0.1,4.7-0.7,7.9l-5.4,29.8L107.8,91.7z
				 M154.5,124.5l-26.7,0.7l-12.1-18.7l-40.8,1.1l-3.4,19.1l-26.3,0.7l20-88.1l29.2-0.7L154.5,124.5z"/>
			<polygon class="st190" points="187.1,123.7 162.3,124.4 142.3,37.4 167.1,36.7 			"/>
		</g>
		<g>
			<path class="st191" d="M108,91.5L87.5,61.9c-1.6-2.6-2.9-5.1-4.2-7.4h-0.5c0.2,2.1-0.1,4.7-0.7,7.9l-5.4,29.8L108,91.5z
				 M154.6,124.4l-26.7,0.7l-12.1-18.7l-40.8,1.1l-3.4,19.1l-26.2,0.7l20-88.1l29.2-0.7L154.6,124.4z"/>
			<polygon class="st191" points="187.1,123.5 162.4,124.1 142.4,37.1 167.2,36.5 			"/>
		</g>
		<g>
			<path class="st192" d="M108.1,91.3L87.6,61.7c-1.6-2.6-2.9-5.1-4.2-7.4H83c0.2,2.1-0.1,4.7-0.7,7.9l-5.4,29.8L108.1,91.3z
				 M154.7,124.1l-26.7,0.7l-12.1-18.7L75,107.2l-3.4,19.1L45.3,127l20-88.1l29.2-0.7L154.7,124.1z"/>
			<polygon class="st192" points="187.2,123.3 162.4,124 142.5,36.9 167.3,36.2 			"/>
		</g>
		<g>
			<path class="st193" d="M108.1,91.1L87.7,61.5c-1.6-2.6-2.9-5.1-4.2-7.4H83c0.2,2.1-0.1,4.7-0.7,7.9L77,91.8L108.1,91.1z
				 M154.8,123.9l-26.7,0.7l-12.1-18.7l-40.8,1.1l-3.4,19.1l-26.2,0.7l20-88.1l29.2-0.7L154.8,123.9z"/>
			<polygon class="st193" points="187.3,123.1 162.5,123.7 142.7,36.7 167.4,36 			"/>
		</g>
		<g>
			<path class="st194" d="M108.2,90.8L87.8,61.2c-1.6-2.6-2.9-5.1-4.2-7.4h-0.5c0.2,2.1-0.1,4.7-0.7,7.9l-5.4,29.8L108.2,90.8z
				 M154.8,123.7l-26.7,0.7L116,105.7l-40.8,1.1l-3.4,19.1l-26.2,0.7l20-88.1l29.2-0.7L154.8,123.7z"/>
			<polygon class="st194" points="187.5,122.8 162.7,123.5 142.7,36.5 167.5,35.8 			"/>
		</g>
		<g>
			<path class="st195" d="M108.3,90.7L87.9,61.1c-1.6-2.6-2.9-5.1-4.2-7.4h-0.5c0.2,2.1-0.1,4.7-0.7,7.9l-5.4,29.8L108.3,90.7z
				 M155,123.5l-26.7,0.7l-12.1-18.7l-40.8,1.1l-3.4,19.1l-26.2,0.7l19.9-88l29.2-0.7L155,123.5z"/>
			<polygon class="st195" points="187.5,122.6 162.8,123.3 142.8,36.3 167.6,35.6 			"/>
		</g>
		<g>
			<path class="st196" d="M108.5,90.4L88,60.8c-1.6-2.6-2.9-5.1-4.2-7.4h-0.5c0.2,2.1-0.1,4.7-0.7,7.9l-5.4,29.8L108.5,90.4z
				 M155.1,123.3l-26.7,0.7l-12.1-18.7l-40.8,1.1L72,125.5l-26.2,0.7l20-88.1l29.2-0.7L155.1,123.3z"/>
			<polygon class="st196" points="187.6,122.4 162.9,123.1 142.9,36 167.7,35.4 			"/>
		</g>
		<g>
			<path class="st197" d="M108.6,90.3L88.1,60.7c-1.6-2.6-2.9-5.1-4.2-7.4h-0.5c0.2,2.1-0.1,4.7-0.7,7.9L77.4,91L108.6,90.3z
				 M155.2,123.1l-26.7,0.7l-12.1-18.7l-40.8,1.1l-3.4,19.1l-26.2,0.7l20-88.1L95,37.1L155.2,123.1z"/>
			<polygon class="st197" points="187.7,122.2 162.9,122.9 143,35.8 167.8,35.1 			"/>
		</g>
		<g>
			<path class="st198" d="M108.6,90L88.2,60.4c-1.6-2.6-2.9-5.1-4.2-7.4h-0.5c0.2,2.1-0.1,4.7-0.7,7.9l-5.4,29.8L108.6,90z
				 M155.2,122.8l-26.7,0.7l-12.1-18.7l-40.8,1.1L72.2,125l-26.2,0.7l20-88.1l29.2-0.7L155.2,122.8z"/>
			<polygon class="st198" points="187.9,122 163,122.6 143.1,35.6 167.9,35 			"/>
		</g>
		<g>
			<path class="st199" d="M108.7,89.8L88.3,60.2c-1.6-2.6-2.9-5.1-4.2-7.4h-0.5c0.2,2.1-0.1,4.7-0.7,7.9l-5.4,29.8L108.7,89.8z
				 M155.4,122.6l-26.7,0.7l-12.1-18.7l-40.8,1.1l-3.4,19.1l-26.2,0.7l20-88.1l29.2-0.7L155.4,122.6z"/>
			<polygon class="st199" points="188,121.7 163.2,122.4 143.2,35.4 168,34.7 			"/>
		</g>
		<g>
			<path class="st200" d="M108.9,89.6L88.4,60c-1.6-2.6-2.9-5.1-4.2-7.4h-0.5c0.2,2.1-0.1,4.7-0.7,7.9l-5.4,29.8L108.9,89.6z
				 M155.5,122.4l-26.7,0.7l-12.1-18.7l-40.8,1.1l-3.4,19.1l-26.2,0.7l20-88.1l29.2-0.7L155.5,122.4z"/>
			<polygon class="st200" points="188,121.6 163.3,122.2 143.3,35.2 168.1,34.6 			"/>
		</g>
		<g>
			<path class="st201" d="M109,89.4L88.5,59.8c-1.6-2.6-2.9-5.1-4.2-7.4h-0.5c0.2,2.1-0.1,4.7-0.7,7.9l-5.4,29.8L109,89.4z
				 M155.6,122.2l-26.7,0.7l-12.1-18.7l-40.8,1.1l-3.4,19.1l-26.2,0.7l20-88.1l29.2-0.7L155.6,122.2z"/>
			<polygon class="st201" points="188.1,121.3 163.3,122 143.4,35 168.2,34.3 			"/>
		</g>
		<g>
			<path class="st202" d="M109,89.1L88.6,59.5c-1.6-2.6-2.9-5.1-4.2-7.4h-0.5c0.2,2.1-0.1,4.7-0.7,7.9l-5.4,29.8L109,89.1z
				 M155.7,122l-26.7,0.7L116.8,104L76,105.1l-3.4,19.1l-26.2,0.7l20-88.1L95.5,36L155.7,122z"/>
			<polygon class="st202" points="188.2,121.1 163.4,121.7 143.6,34.7 168.3,34.1 			"/>
		</g>
		<g>
			<path class="st203" d="M109.1,89L88.7,59.3c-1.6-2.6-2.9-5.1-4.2-7.4H84c0.2,2.1-0.1,4.7-0.7,7.9L78,89.7L109.1,89z M155.8,121.7
				l-26.7,0.7L117,103.8l-40.8,1.1L72.7,124l-26.2,0.7l19.9-88.1l29.2-0.7L155.8,121.7z"/>
			<polygon class="st203" points="188.4,120.9 163.6,121.6 143.6,34.6 168.4,33.9 			"/>
		</g>
		<g>
			<path class="st204" d="M109.3,88.7L88.8,59.1c-1.6-2.6-2.9-5.1-4.2-7.4h-0.5c0.2,2.1-0.1,4.7-0.7,7.9l-5.4,29.8L109.3,88.7z
				 M155.9,121.6l-26.7,0.7l-12.1-18.7l-40.8,1.1l-3.4,19.1l-26.2,0.7l19.9-88.1l29.2-0.7L155.9,121.6z"/>
			<polygon class="st204" points="188.4,120.7 163.7,121.3 143.7,34.3 168.5,33.7 			"/>
		</g>
		<g>
			<path class="st205" d="M109.4,88.5L88.9,58.9c-1.6-2.6-2.9-5.1-4.2-7.4h-0.5c0.2,2.1-0.1,4.7-0.7,7.9l-5.4,29.8L109.4,88.5z
				 M156,121.3l-26.7,0.7l-12.1-18.7l-40.8,1.1l-3.4,19.1l-26.2,0.7l20-88.1l29.2-0.7L156,121.3z"/>
			<polygon class="st205" points="188.5,120.5 163.8,121.2 143.8,34.2 168.6,33.5 			"/>
		</g>
		<g>
			<path class="st206" d="M109.5,88.3L89,58.7c-1.6-2.6-2.9-5.1-4.2-7.4h-0.5c0.2,2.1-0.1,4.7-0.7,7.9L78.3,89L109.5,88.3z
				 M156.1,121.2l-26.7,0.7l-12.1-18.7l-40.8,1.1L73,123.4L46.7,124l20-88.1l29.2-0.7L156.1,121.2z"/>
			<polygon class="st206" points="188.6,120.3 163.8,120.9 144,33.9 168.7,33.3 			"/>
		</g>
		<g>
			<path class="st207" d="M109.5,88.1L89.1,58.4c-1.6-2.6-2.9-5.1-4.2-7.4h-0.5c0.2,2.1-0.1,4.7-0.7,7.9l-5.4,29.8L109.5,88.1z
				 M156.1,120.9l-26.7,0.7l-12.1-18.7L76.5,104l-3.4,19.1l-26.2,0.7l20-88.1L96,35L156.1,120.9z"/>
			<polygon class="st207" points="188.8,120 164,120.7 144,33.7 168.8,33 			"/>
		</g>
		<g>
			<path class="st208" d="M109.6,87.9L89.2,58.3c-1.6-2.6-2.9-5.1-4.2-7.4h-0.5c0.2,2.1-0.1,4.7-0.7,7.9l-5.4,29.8L109.6,87.9z
				 M156.3,120.7l-26.7,0.7l-12.1-18.7l-40.8,1.1l-3.4,19.1L47,123.5l19.9-88L96,34.8L156.3,120.7z"/>
			<polygon class="st208" points="188.9,119.9 164.1,120.5 144.1,33.5 168.9,32.9 			"/>
		</g>
		<g>
			<path class="st209" d="M109.8,87.6L89.3,58c-1.6-2.6-2.9-5.1-4.2-7.4h-0.5c0.2,2.1-0.1,4.7-0.7,7.9l-5.4,29.8L109.8,87.6z
				 M156.4,120.5l-26.7,0.7l-12.1-18.7l-40.8,1.1l-3.4,19.1l-26.2,0.7l20-88.1l29.2-0.7L156.4,120.5z"/>
			<polygon class="st209" points="188.9,119.6 164.2,120.3 144.2,33.3 169,32.6 			"/>
		</g>
		<g>
			<path class="st210" d="M109.9,87.5L89.4,57.9c-1.6-2.6-2.9-5.1-4.2-7.4h-0.5c0.2,2.1-0.1,4.7-0.7,7.9l-5.4,29.8L109.9,87.5z
				 M156.5,120.3l-26.7,0.7l-12.1-18.7l-40.8,1.1l-3.4,19.1l-26.2,0.7l20-88.1l29.2-0.7L156.5,120.3z"/>
			<polygon class="st210" points="189,119.5 164.2,120.1 144.4,33 169.1,32.4 			"/>
		</g>
		<g>
			<path class="st211" d="M109.9,87.2L89.5,57.6c-1.6-2.6-2.9-5.1-4.2-7.4h-0.5c0.2,2.1-0.1,4.7-0.7,7.9L78.8,88L109.9,87.2z
				 M156.6,120l-26.7,0.7L117.7,102l-40.8,1.1l-3.4,19.1l-26.2,0.7l20-88l29.2-0.7L156.6,120z"/>
			<polygon class="st211" points="189.2,119.2 164.4,119.9 144.5,32.9 169.2,32.2 			"/>
		</g>
		<g>
			<path class="st212" d="M110,87L89.6,57.4c-1.6-2.6-2.9-5.1-4.2-7.4h-0.5c0.2,2.1-0.1,4.7-0.7,7.9l-5.4,29.8L110,87z M156.7,119.9
				l-26.7,0.7l-12.1-18.7l-40.8,1.1l-3.4,19.1l-26.2,0.7l20-88.1l29.2-0.7L156.7,119.9z"/>
			<polygon class="st212" points="189.3,119 164.5,119.6 144.5,32.6 169.3,32 			"/>
		</g>
		<g>
			<path class="st213" d="M110.2,86.8L89.7,57.2c-1.6-2.6-2.9-5.1-4.2-7.4h-0.5c0.2,2.1-0.1,4.7-0.7,7.9L79,87.6L110.2,86.8z
				 M156.8,119.6l-26.7,0.7L118,101.6l-40.8,1.1l-3.4,19.1l-26.2,0.7l20-88.1l29.2-0.7L156.8,119.6z"/>
			<polygon class="st213" points="189.3,118.8 164.6,119.5 144.6,32.4 169.4,31.8 			"/>
		</g>
		<g>
			<path class="st214" d="M110.3,86.6L89.8,57c-1.6-2.6-2.9-5.1-4.2-7.4h-0.5c0.2,2.1-0.1,4.7-0.7,7.9l-5.4,29.8L110.3,86.6z
				 M156.9,119.5l-26.7,0.7L118,101.5l-40.8,1.1l-3.4,19.1l-26.2,0.7l20-88.1l29.2-0.7L156.9,119.5z"/>
			<polygon class="st214" points="189.4,118.6 164.7,119.2 144.7,32.2 169.6,31.5 			"/>
		</g>
		<g>
			<path class="st215" d="M110.4,86.4L89.9,56.8c-1.6-2.6-2.9-5.1-4.2-7.4h-0.5c0.2,2.1-0.1,4.7-0.7,7.9l-5.4,29.8L110.4,86.4z
				 M157,119.2l-26.7,0.7l-12.1-18.7l-40.8,1.1l-3.4,19.1l-26.2,0.7l20-88.1l29.2-0.7L157,119.2z"/>
			<polygon class="st215" points="189.6,118.3 164.7,119 144.9,32 169.6,31.3 			"/>
		</g>
		<g>
			<path class="st216" d="M110.4,86.2L90,56.6c-1.6-2.6-2.9-5.1-4.2-7.4h-0.5c0.2,2.1-0.1,4.7-0.7,7.9l-5.4,29.8L110.4,86.2z
				 M157.1,119l-26.7,0.7L118.3,101L77.5,102L74,121.2l-26.2,0.7l20-88.1L96.9,33L157.1,119z"/>
			<polygon class="st216" points="189.7,118.1 164.9,118.8 144.9,31.8 169.7,31.1 			"/>
		</g>
		<g>
			<path class="st217" d="M110.6,85.9L90.2,56.3c-1.6-2.6-2.9-5.1-4.2-7.4h-0.5c0.2,2.1-0.1,4.7-0.7,7.9l-5.4,29.8L110.6,85.9z
				 M157.2,118.8l-26.7,0.7l-12.1-18.7l-40.8,1.1L74.1,121l-26.2,0.7l20-88.1L97,32.9L157.2,118.8z"/>
			<polygon class="st217" points="189.8,117.9 165,118.6 145,31.5 169.8,30.9 			"/>
		</g>
		<g>
			<path class="st218" d="M110.7,85.8L90.2,56.2c-1.6-2.6-2.9-5.1-4.2-7.4h-0.5c0.2,2.1-0.1,4.7-0.7,7.9l-5.4,29.8L110.7,85.8z
				 M157.3,118.6l-26.7,0.7l-12.1-18.7l-40.8,1.1l-3.4,19.1L48,121.4l20-88.1l29.2-0.7L157.3,118.6z"/>
			<polygon class="st218" points="189.8,117.7 165.1,118.4 145.1,31.4 169.9,30.7 			"/>
		</g>
		<g>
			<path class="st219" d="M110.8,85.5L90.3,55.9c-1.6-2.6-2.9-5.1-4.2-7.4h-0.5c0.2,2.1-0.1,4.7-0.7,7.9l-5.4,29.8L110.8,85.5z
				 M157.4,118.4l-26.7,0.7l-12.1-18.7l-40.8,1.1l-3.4,19.1L48,121.3l20-88.1l29.2-0.7L157.4,118.4z"/>
			<polygon class="st219" points="189.9,117.5 165.1,118.1 145.3,31.1 170,30.5 			"/>
		</g>
		<g>
			<path class="st220" d="M110.8,85.3L90.4,55.7c-1.6-2.6-2.9-5.1-4.2-7.4h-0.5c0.2,2.1-0.1,4.7-0.7,7.9L79.7,86L110.8,85.3z
				 M157.5,118.1l-26.7,0.7l-12.1-18.7l-40.8,1.1l-3.4,19.1L48.2,121l20-88.1l29.2-0.7L157.5,118.1z"/>
			<polygon class="st220" points="190.1,117.2 165.3,117.9 145.4,30.9 170.1,30.2 			"/>
		</g>
		<g>
			<path class="st221" d="M110.9,85.1L90.5,55.5c-1.6-2.6-2.9-5.1-4.2-7.4h-0.5c0.2,2.1-0.1,4.7-0.7,7.9l-5.4,29.8L110.9,85.1z
				 M157.6,117.9l-26.7,0.7l-12.1-18.7L78,101l-3.4,19.1l-26.2,0.7l20-88.1L97.4,32L157.6,117.9z"/>
			<polygon class="st221" points="190.2,117.1 165.4,117.7 145.4,30.7 170.2,30.1 			"/>
		</g>
		<g>
			<path class="st222" d="M111.1,84.9L90.6,55.3c-1.6-2.6-2.9-5.1-4.2-7.4H86c0.2,2.1-0.1,4.7-0.7,7.9l-5.4,29.8L111.1,84.9z
				 M157.7,117.7l-26.7,0.7l-12.1-18.7l-40.8,1.1l-3.4,19.1l-26.2,0.7l20-88.1l29.2-0.7L157.7,117.7z"/>
			<polygon class="st222" points="190.2,116.8 165.5,117.5 145.5,30.5 170.3,29.8 			"/>
		</g>
		<g>
			<path class="st223" d="M111.2,84.7L90.7,55.1c-1.6-2.6-2.9-5.1-4.2-7.4h-0.5c0.2,2.1-0.1,4.7-0.7,7.9L80,85.4L111.2,84.7z
				 M157.8,117.5l-26.7,0.7l-12.1-18.7l-40.8,1.1l-3.4,19.1l-26.2,0.7l20-88.1l29.2-0.7L157.8,117.5z"/>
			<polygon class="st223" points="190.3,116.7 165.6,117.3 145.7,30.3 170.5,29.6 			"/>
		</g>
		<g>
			<path class="st224" d="M111.3,84.5L90.8,54.9c-1.6-2.6-2.9-5.1-4.2-7.4h-0.5c0.2,2.1-0.1,4.7-0.7,7.9l-5.4,29.8L111.3,84.5z
				 M157.9,117.2l-26.7,0.7l-12-18.6l-40.8,1.1l-3.4,19.1l-26.2,0.7l20-88.1l29.2-0.7L157.9,117.2z"/>
			<polygon class="st224" points="190.5,116.4 165.7,117.1 145.8,30.1 170.5,29.4 			"/>
		</g>
		<g>
			<path class="st225" d="M111.3,84.2L90.9,54.6c-1.6-2.6-2.9-5.1-4.2-7.4h-0.5c0.2,2.1-0.1,4.7-0.7,7.9l-5.4,29.8L111.3,84.2z
				 M158,117.1l-26.7,0.7l-12.1-18.7l-40.8,1.1l-3.4,19.1l-26.2,0.7l20-88.1l29.2-0.7L158,117.1z"/>
			<polygon class="st225" points="190.6,116.2 165.8,116.8 145.8,29.8 170.6,29.2 			"/>
		</g>
		<g>
			<path class="st226" d="M111.5,84L91.1,54.4c-1.6-2.6-2.9-5.1-4.2-7.4h-0.5c0.2,2.1-0.1,4.7-0.7,7.9l-5.4,29.8L111.5,84z
				 M158.1,116.8l-26.7,0.7l-12.1-18.7l-40.8,1.1L75,119l-26.2,0.7l20-88.1L97.9,31L158.1,116.8z"/>
			<polygon class="st226" points="190.7,116 165.9,116.7 145.9,29.7 170.7,29 			"/>
		</g>
		<g>
			<path class="st227" d="M111.6,83.8L91.1,54.2c-1.6-2.6-2.9-5.1-4.2-7.4h-0.5c0.2,2.1-0.1,4.7-0.7,7.9l-5.4,29.8L111.6,83.8z
				 M158.2,116.7l-26.7,0.7l-12.1-18.7l-40.8,1.1l-3.4,19.1l-26.2,0.7l20-88.1L98,30.7L158.2,116.7z"/>
			<polygon class="st227" points="190.7,115.8 166,116.4 146,29.4 170.9,28.8 			"/>
		</g>
		<g>
			<path class="st228" d="M111.7,83.6L91.2,54c-1.6-2.6-2.9-5.1-4.2-7.4h-0.5c0.2,2.1-0.1,4.7-0.7,7.9l-5.4,29.8L111.7,83.6z
				 M158.3,116.4l-26.7,0.7l-12-18.7l-40.8,1.1l-3.4,19.1L49,119.3l20-88.1l29.2-0.7L158.3,116.4z"/>
			<polygon class="st228" points="190.9,115.6 166,116.3 146.2,29.2 170.9,28.5 			"/>
		</g>
		<g>
			<path class="st229" d="M111.7,83.4L91.3,53.8c-1.6-2.6-2.9-5.1-4.2-7.4h-0.5c0.2,2.1-0.1,4.7-0.7,7.9l-5.4,29.8L111.7,83.4z
				 M158.4,116.2l-26.7,0.7l-12.1-18.7l-40.8,1.1l-3.4,19.1L49.1,119l20-88.1l29.2-0.7L158.4,116.2z"/>
			<polygon class="st229" points="191,115.4 166.2,116 146.3,29 171,28.4 			"/>
		</g>
		<g>
			<path class="st230" d="M111.9,83.1L91.5,53.5c-1.6-2.6-2.9-5.1-4.2-7.4h-0.5c0.2,2.1-0.1,4.7-0.7,7.9l-5.4,29.8L111.9,83.1z
				 M158.5,116l-26.7,0.7L119.7,98l-40.8,1.1l-3.4,19.1l-26.2,0.7l20-88.1l29.2-0.7L158.5,116z"/>
			<polygon class="st230" points="191.1,115.1 166.3,115.8 146.3,28.8 171.1,28.1 			"/>
		</g>
		<g>
			<path class="st231" d="M112,83L91.5,53.4c-1.6-2.6-2.9-5.1-4.2-7.4h-0.5c0.2,2.1-0.1,4.7-0.7,7.9l-5.4,29.8L112,83z M158.6,115.8
				l-26.7,0.7l-12.1-18.7L79,98.8L75.5,118l-26.2,0.7l20-88l29.2-0.7L158.6,115.8z"/>
			<polygon class="st231" points="191.1,115 166.4,115.6 146.4,28.6 171.2,27.9 			"/>
		</g>
		<g>
			<path class="st232" d="M112.1,82.7L91.6,53.1c-1.6-2.6-2.9-5.1-4.2-7.4H87c0.2,2.1-0.1,4.7-0.7,7.9l-5.4,29.8L112.1,82.7z
				 M158.7,115.6l-26.7,0.7l-12.1-18.7L79,98.7l-3.4,19.1l-26.2,0.7l20-88.1l29.2-0.7L158.7,115.6z"/>
			<polygon class="st232" points="191.2,114.7 166.4,115.4 146.6,28.4 171.4,27.7 			"/>
		</g>
		<g>
			<path class="st233" d="M112.2,82.6L91.7,53c-1.6-2.6-2.9-5.1-4.2-7.4H87c0.2,2.1-0.1,4.7-0.7,7.9L81,83.3L112.2,82.6z
				 M158.8,115.4l-26.7,0.7L120,97.4l-40.8,1.1l-3.4,19.1l-26.2,0.7l20-88.1l29.2-0.7L158.8,115.4z"/>
			<polygon class="st233" points="191.4,114.5 166.6,115.1 146.7,28.1 171.4,27.5 			"/>
		</g>
		<g>
			<path class="st234" d="M112.3,82.3L91.9,52.7c-1.6-2.6-2.9-5.1-4.2-7.4h-0.5c0.2,2.1-0.1,4.7-0.7,7.9l-5.4,29.8L112.3,82.3z
				 M158.9,115.1l-26.7,0.7l-12.1-18.7l-40.8,1.1l-3.4,19.1L49.6,118l20-88.1l29.2-0.7L158.9,115.1z"/>
			<polygon class="st234" points="191.5,114.3 166.7,115 146.7,27.9 171.5,27.3 			"/>
		</g>
		<g>
			<path class="st235" d="M112.4,82.1L92,52.5c-1.6-2.6-2.9-5.1-4.2-7.4h-0.5c0.2,2.1-0.1,4.7-0.7,7.9l-5.4,29.8L112.4,82.1z
				 M159,115l-26.7,0.7L120.2,97L79.4,98l-3.4,19.1l-26.2,0.7l20-88.1L98.8,29L159,115z"/>
			<polygon class="st235" points="191.6,114.1 166.8,114.7 146.8,27.7 171.6,27 			"/>
		</g>
		<g>
			<path class="st236" d="M112.5,81.9L92,52.3c-1.6-2.6-2.9-5.1-4.2-7.4h-0.5c0.2,2.1-0.1,4.7-0.7,7.9l-5.4,29.8L112.5,81.9z
				 M159.1,114.7l-26.7,0.7l-12.1-18.7l-40.8,1.1L76,116.9l-26.2,0.7l20-88.1l29.2-0.7L159.1,114.7z"/>
			<polygon class="st236" points="191.6,113.9 166.9,114.5 147,27.5 171.8,26.9 			"/>
		</g>
		<g>
			<path class="st237" d="M112.6,81.7L92.1,52.1c-1.6-2.6-2.9-5.1-4.2-7.4h-0.5c0.2,2.1-0.1,4.7-0.7,7.9l-5.4,29.8L112.6,81.7z
				 M159.2,114.5l-26.7,0.7l-12.1-18.7l-40.8,1.1l-3.4,19.1l-26.2,0.7l20-88.1L99,28.6L159.2,114.5z"/>
			<polygon class="st237" points="191.8,113.6 167,114.3 147.1,27.3 171.8,26.6 			"/>
		</g>
		<g>
			<path class="st238" d="M112.6,81.4L92.2,51.8c-1.6-2.6-2.9-5.1-4.2-7.4h-0.5c0.2,2.1-0.1,4.7-0.7,7.9l-5.4,29.8L112.6,81.4z
				 M159.3,114.3l-26.7,0.7l-12.1-18.7l-40.8,1.1l-3.4,19.1L50,117.2l20-88.1l29.2-0.7L159.3,114.3z"/>
			<polygon class="st238" points="191.9,113.4 167.1,114.1 147.2,27 171.9,26.4 			"/>
		</g>
		<g>
			<path class="st239" d="M112.8,81.3L92.4,51.7c-1.6-2.6-2.9-5.1-4.2-7.4h-0.5c0.2,2.1-0.1,4.7-0.7,7.9L81.7,82L112.8,81.3z
				 M159.4,114.1l-26.7,0.7l-12.1-18.7l-40.8,1.1l-3.4,19.1l-26.2,0.7l20-88.1l29.2-0.7L159.4,114.1z"/>
			<polygon class="st239" points="192,113.2 167.2,113.9 147.2,26.9 172,26.2 			"/>
		</g>
		<g>
			<path class="st240" d="M112.9,81L92.4,51.4c-1.6-2.6-2.9-5.1-4.2-7.4h-0.5c0.2,2.1-0.1,4.7-0.7,7.9l-5.4,29.8L112.9,81z
				 M159.5,113.9l-26.7,0.7l-12.1-18.7L79.9,97l-3.4,19.1l-26.2,0.7l20-88.1l29.2-0.7L159.5,113.9z"/>
			<polygon class="st240" points="192,113 167.3,113.6 147.3,26.6 172.2,26 			"/>
		</g>
		<g>
			<path class="st241" d="M113,80.9L92.5,51.3c-1.6-2.6-2.9-5.1-4.2-7.4h-0.5c0.2,2.1-0.1,4.7-0.7,7.9l-5.4,29.8L113,80.9z
				 M159.6,113.6l-26.7,0.7l-12.1-18.7l-40.8,1.1l-3.4,19.1l-26.2,0.7l20-88.1l29.2-0.7L159.6,113.6z"/>
			<polygon class="st241" points="192.2,112.8 167.3,113.5 147.5,26.4 172.3,25.7 			"/>
		</g>
		<g>
			<path class="st242" d="M113.1,80.6L92.6,51c-1.6-2.6-2.9-5.1-4.2-7.4h-0.5c0.2,2.1-0.1,4.7-0.7,7.9l-5.4,29.8L113.1,80.6z
				 M159.7,113.4l-26.7,0.7l-12.1-18.7l-40.8,1.1l-3.4,19.1l-26.2,0.7l20-88.1l29.2-0.7L159.7,113.4z"/>
			<polygon class="st242" points="192.3,112.6 167.5,113.2 147.6,26.2 172.3,25.6 			"/>
		</g>
		<g>
			<path class="st243" d="M113.2,80.4L92.8,50.8c-1.6-2.6-2.9-5.1-4.2-7.4h-0.5c0.2,2.1-0.1,4.7-0.7,7.9l-5.4,29.8L113.2,80.4z
				 M159.8,113.2l-26.7,0.7L121,95.2l-40.8,1.1l-3.4,19.1l-26.2,0.7l20-88.1l29.2-0.7L159.8,113.2z"/>
			<polygon class="st243" points="192.4,112.3 167.6,113 147.6,26 172.4,25.3 			"/>
		</g>
		<g>
			<path class="st244" d="M113.3,80.2L92.9,50.6c-1.6-2.6-2.9-5.1-4.2-7.4h-0.5c0.2,2.1-0.1,4.7-0.7,7.9l-5.4,29.8L113.3,80.2z
				 M159.9,113l-26.7,0.7L121.1,95l-40.8,1.1l-3.4,19.1l-26.2,0.7l20-88.1L99.7,27L159.9,113z"/>
			<path class="st244" d="M192.5,112.2l-24.8,0.7l-20-87l24.8-0.7L192.5,112.2z"/>
		</g>
	</g>
</g>
</svg>
