<?xml version="1.0" encoding="utf-8"?>
<!-- Generator: Adobe Illustrator 21.1.0, SVG Export Plug-In . SVG Version: 6.00 Build 0)  -->
<svg version="1.1" id="圖層_1" xmlns="http://www.w3.org/2000/svg" xmlns:xlink="http://www.w3.org/1999/xlink" x="0px" y="0px"
	 viewBox="0 0 315 135" style="enable-background:new 0 0 315 135;" xml:space="preserve">
<style type="text/css">
	.st0{fill:#E20707;}
	.st1{fill:#A110FF;}
	.st2{fill:#F0F1F1;}
	.st3{fill:#690CA5;}
	.st4{fill:#E6E6E7;}
	.st5{opacity:0.4;fill:#FFFFFF;enable-background:new    ;}
</style>
<path class="st0" d="M140.8-22.2c1.7,0.5,3.5,1.1,5.2,1.7C144.3-21.1,142.6-21.7,140.8-22.2z"/>
<g>
	<path class="st1" d="M64.9,127.1C33.3,126.8,8,100.9,8.4,69.4l0-6.7C8.8,31.1,34.7,5.8,66.3,6.1l185.4,2.2
		c31.5,0.4,56.8,26.2,56.5,57.8l-0.1,6.6c-0.4,31.5-26.2,56.8-57.8,56.5L64.9,127.1z"/>
	<g>
		<path class="st2" d="M250.2,129.3c31.5,0.4,57.4-24.9,57.8-56.5l0.1-6.6c0.4-31.5-24.9-57.4-56.5-57.8l-92.7-1l-1.4,121
			L250.2,129.3z"/>
	</g>
	<path class="st3" d="M65.1,98.5C37.2,98.2,14.4,78,9.6,51.5C8.9,55,8.4,58.7,8.4,62.3l0,6.7c-0.4,31.5,24.9,57.4,56.5,57.8l92.7,1
		l0.4-28.3L65.1,98.5z"/>
	<path class="st4" d="M308.4,72.6l0.1-6.6c0.1-1.8-0.1-3.7-0.2-5.5c-0.2-1.9-0.4-3.6-0.7-5.4c-5.4,26.3-28.8,46-56.7,45.7l-92.7-1
		l-0.4,28.3l92.7,1C282.2,129.5,308.1,104.2,308.4,72.6z"/>
	<path class="st5" d="M64.2,56.6c-7.7-0.1-13.9-6.4-13.8-14.1l0-1.6c0.1-7.7,6.4-13.9,14.1-13.8L253,29.1
		c7.7,0.1,13.8,6.5,13.8,14.1l0,1.6c-0.1,7.7-6.5,13.8-14.2,13.8L64.2,56.6z"/>
</g>
</svg>
