<?xml version="1.0" encoding="utf-8"?>
<!-- Generator: Adobe Illustrator 22.0.1, SVG Export Plug-In . SVG Version: 6.00 Build 0)  -->
<svg version="1.1" id="圖層_1" xmlns="http://www.w3.org/2000/svg" xmlns:xlink="http://www.w3.org/1999/xlink" x="0px" y="0px"
	 viewBox="0 0 1024 768" style="enable-background:new 0 0 1024 768;" xml:space="preserve">
<style type="text/css">
	.st0{fill:#CEB73D;}
	.st1{fill:none;stroke:#CEB73D;stroke-width:1.6216;stroke-miterlimit:10;}
	
		.st2{fill:none;stroke:#CEB73D;stroke-width:2.0338;stroke-linecap:round;stroke-linejoin:round;stroke-miterlimit:10;stroke-dasharray:0.1017,5.0845;}
	
		.st3{fill:none;stroke:#CEB73D;stroke-width:2.0772;stroke-linecap:round;stroke-linejoin:round;stroke-miterlimit:10;stroke-dasharray:0.1039,5.1931;}
	.st4{fill:none;stroke:#CEB73D;stroke-width:1.3167;stroke-miterlimit:10;}
	.st5{fill:#FFFFFF;}
	.st6{font-family:'FZLTTHB--B51-0';}
	.st7{font-size:6.3417px;}
	.st8{letter-spacing:-0.9;}
	.st9{letter-spacing:-2.6;}
	.st10{letter-spacing:-1.8;}
	.st11{fill:#F9F9F9;}
	.st12{font-family:'FZLTZHB--B51-0';}
	.st13{font-size:61.857px;}
	.st14{letter-spacing:-7.3;}
	.st15{letter-spacing:-6.4;}
	.st16{font-size:20.619px;}
	.st17{letter-spacing:2;}
	.st18{font-size:30.9285px;}
	.st19{letter-spacing:3;}
</style>
<path class="st0" d="M748.7,690.8c-0.6-0.2-1.2-0.4-1.7-0.6C747.5,690.4,748.1,690.6,748.7,690.8z"/>
<g>
	<g>
		<g>
			
				<ellipse transform="matrix(0.2309 -0.973 0.973 0.2309 -189.7994 696.4454)" class="st1" cx="345.6" cy="468.3" rx="48.5" ry="48.5"/>
			<path class="st2" d="M390.8,468.3c0,24.9-20.2,45.1-45.1,45.1c-24.9,0-45.1-20.2-45.1-45.1c0-24.9,20.2-45.1,45.1-45.1
				C370.5,423.1,390.8,443.4,390.8,468.3z"/>
			<g>
				<g>
					<path class="st0" d="M334.9,455.2c-17.3,7.2-27.7,17.5-27.7,17.5l3.6,0.9c7.5-7.8,15.8-13.1,23.8-16.9L334.9,455.2z"/>
					<path class="st0" d="M357.1,449.1l-0.5,0.9c10.8-1.9,18.7-1.3,19.8-1.3C369.6,448,363.2,448.3,357.1,449.1z"/>
					<path class="st0" d="M376.4,448.7c0,0,0.1,0,0.1,0C376.5,448.7,376.5,448.7,376.4,448.7z"/>
				</g>
				<g>
					<polygon class="st0" points="341.4,428.7 339.9,440.2 322.6,444.4 347.9,447.2 					"/>
					<polygon class="st0" points="347.9,447.2 361.3,437.5 350.5,439.9 341.4,428.7 350.2,440.6 					"/>
					<polygon class="st0" points="338.6,451.8 322.6,444.4 337.7,452.2 333.1,474.5 347.9,447.2 					"/>
					<polygon class="st0" points="361.3,437.5 353.4,449.9 347.9,447.2 359.6,464.2 353.9,450.2 					"/>
					<polygon class="st0" points="347.9,447.2 347.1,457.9 333.1,474.5 347.7,457.9 359.6,464.2 347.7,457.2 					"/>
				</g>
				<g>
					<polygon class="st0" points="373,451.6 373.7,456.1 381.4,457.4 370.1,459.3 					"/>
					<polygon class="st0" points="370.1,459.3 364.1,455.6 368.9,456.3 373,451.6 369,456.6 					"/>
					<polygon class="st0" points="374.3,461 381.4,457.4 374.7,461.2 377.2,471.3 370.1,459.3 					"/>
					<polygon class="st0" points="364.1,455.6 367.5,460.6 370.1,459.3 364.4,467.2 367.2,460.7 					"/>
					<polygon class="st0" points="370.1,459.3 370.4,464 377.2,471.3 370.1,464 364.4,467.2 370.1,463.7 					"/>
				</g>
				<g>
					<path class="st0" d="M327.9,449.5c-14.6,5.4-23.3,12.1-23.3,12.1l4.7,1.5c6.7-5.3,14.1-9.3,21.4-12.1L327.9,449.5z"/>
					<path class="st0" d="M360.9,442.6l-0.8,1.3c11.2-1.2,19-0.6,19-0.6C372.8,442.5,366.7,442.3,360.9,442.6z"/>
				</g>
			</g>
			<g>
				<g>
					<g>
						<g>
							<path class="st0" d="M371.4,495.8c4.3-3.2,6.9-9.3,2.9-15.6c0-0.1,0-0.1,0-0.2c0.1,0,0.1,0,0.2,0c4.1,6.4,1.5,12.6-2.9,15.9
								C371.6,496,371.5,496,371.4,495.8z"/>
						</g>
						<g>
							<path class="st0" d="M372.3,493.2c0,0-1.2,1.3-1,2.7C371.3,495.9,372.8,495.5,372.3,493.2z"/>
							<path class="st0" d="M376.7,495.9c0,0-3.1-1.2-5.4,0C371.3,495.9,373.1,498.2,376.7,495.9z"/>
						</g>
						<g>
							<path class="st0" d="M374.1,490.8c0,0-0.7,1.5-0.2,2.7C373.9,493.5,375.1,492.8,374.1,490.8z"/>
							<path class="st0" d="M378.8,492.3c0,0-3.1-0.4-4.8,1.2C374,493.5,376.1,495.2,378.8,492.3z"/>
						</g>
						<g>
							<path class="st0" d="M375.1,488.2c0,0-0.3,1.5,0.4,2.5C375.5,490.7,376.4,489.8,375.1,488.2z"/>
							<path class="st0" d="M379.6,488.5c0,0-2.9,0.4-4.1,2.3C375.6,490.7,377.9,491.7,379.6,488.5z"/>
						</g>
						<g>
							<path class="st0" d="M375.3,486.1c0,0,0.3,1.1,1.1,1.6C376.3,487.7,376.7,486.8,375.3,486.1z"/>
							<path class="st0" d="M378.5,484.9c0,0-1.9,1.2-2.1,2.8C376.4,487.7,378.3,487.7,378.5,484.9z"/>
						</g>
						<g>
							<path class="st0" d="M375.1,483.9c0,0,0.4,0.8,1.1,1C376.2,484.8,376.3,484.1,375.1,483.9z"/>
							<path class="st0" d="M377.3,482.3c0,0-1.1,1.3-1,2.5C376.3,484.8,377.7,484.4,377.3,482.3z"/>
						</g>
						<g>
							<path class="st0" d="M374.3,481.7c0,0,0.5,0.6,1.2,0.7C375.5,482.4,375.4,481.7,374.3,481.7z"/>
							<path class="st0" d="M376,479.9c0,0-0.8,1.3-0.5,2.4C375.5,482.4,376.7,481.8,376,479.9z"/>
						</g>
						<g>
							<path class="st0" d="M373.1,480c0,0,0.7,0.5,1.3,0.3C374.4,480.4,374.2,479.7,373.1,480z"/>
							<path class="st0" d="M374.2,478c0,0-0.4,1.5,0.2,2.5C374.4,480.4,375.4,479.5,374.2,478z"/>
						</g>
					</g>
					<g>
						<g>
							<path class="st0" d="M320.2,495.8c-4.3-3.2-6.9-9.3-2.9-15.6c0-0.1,0-0.1,0-0.2c-0.1,0-0.1,0-0.2,0
								c-4.1,6.4-1.5,12.6,2.9,15.9C320.1,496,320.1,496,320.2,495.8z"/>
						</g>
						<g>
							<path class="st0" d="M319.3,493.2c0,0,1.2,1.3,1,2.7C320.3,495.9,318.9,495.5,319.3,493.2z"/>
							<path class="st0" d="M314.9,495.9c0,0,3.1-1.2,5.4,0C320.3,495.9,318.5,498.2,314.9,495.9z"/>
						</g>
						<g>
							<path class="st0" d="M317.5,490.8c0,0,0.7,1.5,0.2,2.7C317.7,493.5,316.5,492.8,317.5,490.8z"/>
							<path class="st0" d="M312.9,492.3c0,0,3.1-0.4,4.8,1.2C317.7,493.5,315.5,495.2,312.9,492.3z"/>
						</g>
						<g>
							<path class="st0" d="M316.5,488.2c0,0,0.3,1.5-0.4,2.5C316.1,490.7,315.2,489.8,316.5,488.2z"/>
							<path class="st0" d="M312,488.5c0,0,2.9,0.4,4.1,2.3C316,490.7,313.7,491.7,312,488.5z"/>
						</g>
						<g>
							<path class="st0" d="M316.3,486.1c0,0-0.3,1.1-1.1,1.6C315.3,487.7,314.9,486.8,316.3,486.1z"/>
							<path class="st0" d="M313.1,484.9c0,0,1.9,1.2,2.1,2.8C315.2,487.7,313.3,487.7,313.1,484.9z"/>
						</g>
						<g>
							<path class="st0" d="M316.5,483.9c0,0-0.4,0.8-1.1,1C315.4,484.8,315.3,484.1,316.5,483.9z"/>
							<path class="st0" d="M314.3,482.3c0,0,1.1,1.3,1,2.5C315.3,484.8,313.9,484.4,314.3,482.3z"/>
						</g>
						<g>
							<path class="st0" d="M317.3,481.7c0,0-0.5,0.6-1.2,0.7C316.2,482.4,316.2,481.7,317.3,481.7z"/>
							<path class="st0" d="M315.6,479.9c0,0,0.8,1.3,0.5,2.4C316.1,482.4,314.9,481.8,315.6,479.9z"/>
						</g>
						<g>
							<path class="st0" d="M318.5,480c0,0-0.7,0.5-1.3,0.3C317.2,480.4,317.4,479.7,318.5,480z"/>
							<path class="st0" d="M317.4,478c0,0,0.4,1.5-0.2,2.5C317.2,480.4,316.2,479.5,317.4,478z"/>
						</g>
					</g>
				</g>
			</g>
			<g>
				<path class="st0" d="M332.6,491.1h-5.4v-10.9h5.2c2.5,0.1,3.8,0.9,4,2.6c0,1.4-0.8,2.2-2.4,2.5c0,0,0,0.1,0,0.1
					c1.8,0.3,2.8,1.1,2.9,2.6C336.9,490,335.4,491.1,332.6,491.1z M332,481.5h-3v3.3h3c1.6,0,2.4-0.6,2.4-1.7
					C334.4,482,333.6,481.5,332,481.5z M332.2,486.1H329v3.7h3.3c1.7,0,2.6-0.7,2.6-2C334.8,486.7,333.9,486.2,332.2,486.1z"/>
				<path class="st0" d="M346.2,491.1H337v-10.9h8.9v1.4h-7.1v3.2h6.6v1.4h-6.6v3.6h7.3V491.1z"/>
				<path class="st0" d="M346.4,487.8l1.8-0.4c0.3,1.8,1.4,2.6,3.4,2.6c1.7,0,2.6-0.7,2.7-1.9c0.1-0.8-0.7-1.4-2.4-1.9
					c-0.2,0-0.5-0.1-0.9-0.2c-0.2,0-0.3-0.1-0.5-0.1c-2.6-0.5-3.8-1.5-3.7-3c0.2-1.8,1.6-2.8,4.3-2.9c2.7,0,4.3,1,4.8,3l-1.9,0.4
					c-0.3-1.3-1.2-2-2.8-2c-1.5,0.1-2.4,0.6-2.5,1.5c-0.1,0.8,0.8,1.4,2.9,1.7c0.8,0.2,1.3,0.3,1.7,0.4c2,0.6,3,1.6,2.9,3
					c-0.1,2-1.6,3.1-4.5,3.1C348.6,491.3,346.8,490.1,346.4,487.8z"/>
				<path class="st0" d="M366.2,481.6h-4.1v9.5h-1.9v-9.5h-4.1v-1.4h10V481.6z"/>
			</g>
			<g>
				<path class="st0" d="M330,494.3l2.5,5.7h-1.1l-0.6-1.5H328l-0.6,1.5h-1l2.5-5.7H330z M329.4,495L329.4,495
					c-0.1,0.2-0.2,0.3-0.2,0.5c0,0-0.3,0.8-0.9,2.2h2.3c-0.6-1.4-0.9-2.2-0.9-2.2C329.5,495.4,329.5,495.2,329.4,495z"/>
				<path class="st0" d="M332,494.3h0.9c0.5,2.3,0.9,3.7,1,4.2c0,0.1,0.1,0.2,0.1,0.5h0c0-0.1,0.1-0.3,0.2-0.6
					c0.2-0.6,0.5-2,1.1-4.2h1c0.8,2.7,1.1,4.2,1.2,4.3c0,0.1,0.1,0.3,0.1,0.5h0c0-0.2,0.1-0.4,0.1-0.4c0-0.1,0.3-1.6,1-4.4h1
					l-1.6,5.7h-0.9c-0.8-2.8-1.2-4.3-1.3-4.4c0-0.1,0-0.2-0.1-0.4c0,0.1,0,0.3-0.1,0.3c0,0.1-0.5,1.5-1.3,4.4h-1L332,494.3z"/>
				<path class="st0" d="M344.2,500h-4.8v-5.7h4.7v0.7h-3.7v1.7h3.5v0.7h-3.5v1.9h3.8V500z"/>
				<path class="st0" d="M347.7,494.3l2.5,5.7h-1.1l-0.6-1.5h-2.8l-0.6,1.5h-1l2.5-5.7H347.7z M347.2,495L347.2,495
					c-0.1,0.2-0.2,0.3-0.2,0.5c0,0-0.3,0.8-0.9,2.2h2.3c-0.6-1.4-0.9-2.2-0.9-2.2C347.3,495.4,347.2,495.2,347.2,495z"/>
				<path class="st0" d="M355.6,500h-1.3l-1.9-2.4h-1.4v2.4h-1v-5.7h2.9c1.4,0,2.1,0.6,2.2,1.6c0,1-0.6,1.5-1.7,1.6L355.6,500z
					 M351.1,495v1.9h1.7c1,0,1.5-0.3,1.4-1c0-0.6-0.5-1-1.4-1H351.1z"/>
				<path class="st0" d="M357.7,500h-2.1v-5.7h2.1c2.1,0,3.2,1,3.2,2.8C360.9,499.1,359.9,500,357.7,500z M357.6,495h-1.1v4.3h1.1
					c1.5,0,2.2-0.7,2.2-2.2C359.8,495.7,359.1,495,357.6,495z"/>
				<path class="st0" d="M360.9,498.3l0.9-0.2c0.1,0.9,0.7,1.4,1.8,1.4c0.9,0,1.3-0.3,1.4-1c0-0.4-0.4-0.7-1.3-1
					c-0.1,0-0.2-0.1-0.5-0.1c-0.1,0-0.2,0-0.2-0.1c-1.4-0.3-2-0.8-1.9-1.6c0.1-1,0.8-1.5,2.3-1.5c1.4,0,2.3,0.5,2.5,1.6l-1,0.2
					c-0.1-0.7-0.6-1-1.5-1c-0.8,0-1.2,0.3-1.3,0.8c-0.1,0.4,0.4,0.7,1.5,0.9c0.4,0.1,0.7,0.2,0.9,0.2c1,0.3,1.5,0.8,1.5,1.6
					c0,1.1-0.8,1.6-2.4,1.6C362,500.1,361.1,499.5,360.9,498.3z"/>
			</g>
		</g>
		<g>
			<g>
				<g>
					<g>
						<g>
							<path class="st0" d="M496.1,512.3c-0.1,0-0.3-0.1-0.3-0.2c0,0-1.9-4.1-8.4-5.3c-7.5-1.3-27.8-11-31.6-26.6
								c-4.3-17.5,2-38.5,25.5-46c0.2-0.1,0.4,0,0.5,0.2c0.1,0.2,0,0.4-0.2,0.5c-23.2,7.4-29.3,28-25.1,45.1
								c3.7,15.2,23.7,24.8,31.1,26c6.9,1.2,8.8,5.5,8.9,5.7c0.1,0.2,0,0.4-0.2,0.5C496.2,512.2,496.1,512.3,496.1,512.3z"/>
						</g>
						<g>
							<path class="st0" d="M480,496.1c0,0,5.9,4.3,6.5,10C486.5,506.1,480.4,505.9,480,496.1z"/>
							<path class="st0" d="M464.9,511.7c0,0,11.4-7.9,21.5-5.2C486.3,506.5,481.5,517.5,464.9,511.7z"/>
						</g>
						<g>
							<path class="st0" d="M470.6,489.3c0,0,4.6,5.6,3.8,11.3C474.4,500.6,468.5,498.8,470.6,489.3z"/>
							<path class="st0" d="M452,500.6c0,0,13-4.8,22.1,0.4C474.1,501,466.6,510.4,452,500.6z"/>
						</g>
						<g>
							<path class="st0" d="M464.2,483.7c0,0,2.1,5.3,0.1,9.4C464.3,493.2,460.3,490.5,464.2,483.7z"/>
							<path class="st0" d="M447.5,487.8c0,0,11-0.4,16.6,5.6C464,493.4,456.1,498.7,447.5,487.8z"/>
						</g>
						<g>
							<path class="st0" d="M460,474.2c0,0,0.8,5.7-2.1,9.2C457.8,483.4,454.6,479.8,460,474.2z"/>
							<path class="st0" d="M442.8,474.1c0,0,10.8,2.2,14.7,9.4C457.5,483.6,448.5,486.8,442.8,474.1z"/>
						</g>
						<g>
							<path class="st0" d="M460.2,464.9c0,0-1.2,5.2-4.9,7.2C455.3,472.1,453.7,467.9,460.2,464.9z"/>
							<path class="st0" d="M445.4,459c0,0,8.5,5.5,9.5,13.1C454.9,472.1,446.1,471.9,445.4,459z"/>
						</g>
						<g>
							<path class="st0" d="M462.7,454.2c0,0-2.3,4.4-6.2,5.4C456.6,459.5,456.1,455.4,462.7,454.2z"/>
							<path class="st0" d="M450.7,445.4c0,0,6.4,7,5.5,14.1C456.3,459.5,448.3,457.2,450.7,445.4z"/>
						</g>
						<g>
							<path class="st0" d="M466.9,447.6c0,0-3,2.3-5.9,1.8C461,449.4,462,446.4,466.9,447.6z"/>
							<path class="st0" d="M461.3,437.8c0,0,2.2,6.8-0.6,11.4C460.8,449.2,456,445.2,461.3,437.8z"/>
						</g>
						<g>
							<path class="st0" d="M471.9,442.2c0,0-2.7,1.1-4.8,0.1C467.2,442.3,468.5,440.3,471.9,442.2z"/>
							<path class="st0" d="M469.8,433.8c0,0,0.3,5.5-2.8,8.4C467.1,442.2,464.3,438.2,469.8,433.8z"/>
						</g>
						<g>
							<path class="st0" d="M478.6,438.5c0,0-2.6,0.6-4.4-0.6C474.2,437.9,475.8,436.2,478.6,438.5z"/>
							<path class="st0" d="M477.9,430.5c0,0-0.6,5.1-3.8,7.2C474.1,437.7,472.3,433.7,477.9,430.5z"/>
						</g>
						<g>
							<path class="st0" d="M484.9,436.7c0,0-2.7-0.2-4-1.8C480.9,434.9,482.9,433.8,484.9,436.7z"/>
							<path class="st0" d="M486.6,429.3c0,0-2,4.7-5.7,5.8C480.9,435.2,480.3,430.8,486.6,429.3z"/>
						</g>
					</g>
					<g>
						<g>
							<path class="st0" d="M492.6,512.3c0.1,0,0.3-0.1,0.3-0.2c0,0,1.9-4.1,8.4-5.3c7.5-1.3,27.8-11,31.6-26.6
								c4.3-17.5-2-38.5-25.5-46c-0.2-0.1-0.4,0-0.5,0.2c-0.1,0.2,0,0.4,0.2,0.5c23.1,7.4,29.3,28,25.1,45.1
								c-3.7,15.2-23.7,24.8-31.1,26c-6.9,1.2-8.8,5.5-8.9,5.7c-0.1,0.2,0,0.4,0.2,0.5C492.5,512.2,492.6,512.3,492.6,512.3z"/>
						</g>
						<g>
							<path class="st0" d="M508.7,496.1c0,0-5.9,4.3-6.5,10C502.2,506.1,508.3,505.9,508.7,496.1z"/>
							<path class="st0" d="M523.8,511.7c0,0-11.4-7.9-21.5-5.2C502.4,506.5,507.2,517.5,523.8,511.7z"/>
						</g>
						<g>
							<path class="st0" d="M518.1,489.3c0,0-4.6,5.6-3.8,11.3C514.3,500.6,520.2,498.8,518.1,489.3z"/>
							<path class="st0" d="M536.7,500.6c0,0-13-4.8-22.1,0.4C514.6,501,522.1,510.4,536.7,500.6z"/>
						</g>
						<g>
							<path class="st0" d="M524.5,483.7c0,0-2.1,5.3-0.1,9.4C524.4,493.2,528.4,490.5,524.5,483.7z"/>
							<path class="st0" d="M541.3,487.8c0,0-11-0.4-16.6,5.6C524.7,493.4,532.6,498.7,541.3,487.8z"/>
						</g>
						<g>
							<path class="st0" d="M528.8,474.2c0,0-0.8,5.7,2.1,9.2C530.9,483.4,534.1,479.8,528.8,474.2z"/>
							<path class="st0" d="M546,474.1c0,0-10.8,2.2-14.7,9.4C531.2,483.6,540.2,486.8,546,474.1z"/>
						</g>
						<g>
							<path class="st0" d="M528.5,464.9c0,0,1.2,5.2,4.9,7.2C533.4,472.1,535,467.9,528.5,464.9z"/>
							<path class="st0" d="M543.3,459c0,0-8.5,5.5-9.5,13.1C533.8,472.1,542.6,471.9,543.3,459z"/>
						</g>
						<g>
							<path class="st0" d="M526,454.2c0,0,2.3,4.4,6.2,5.4C532.1,459.5,532.6,455.4,526,454.2z"/>
							<path class="st0" d="M538,445.4c0,0-6.4,7-5.5,14.1C532.4,459.5,540.4,457.2,538,445.4z"/>
						</g>
						<g>
							<path class="st0" d="M521.8,447.6c0,0,3,2.3,5.9,1.8C527.7,449.4,526.7,446.4,521.8,447.6z"/>
							<path class="st0" d="M527.4,437.8c0,0-2.2,6.8,0.6,11.4C527.9,449.2,532.7,445.2,527.4,437.8z"/>
						</g>
						<g>
							<path class="st0" d="M516.8,442.2c0,0,2.7,1.1,4.8,0.1C521.5,442.3,520.2,440.3,516.8,442.2z"/>
							<path class="st0" d="M518.9,433.8c0,0-0.3,5.5,2.8,8.4C521.7,442.2,524.4,438.2,518.9,433.8z"/>
						</g>
						<g>
							<path class="st0" d="M510.1,438.5c0,0,2.6,0.6,4.4-0.6C514.5,437.9,512.9,436.2,510.1,438.5z"/>
							<path class="st0" d="M510.8,430.5c0,0,0.6,5.1,3.8,7.2C514.6,437.7,516.4,433.7,510.8,430.5z"/>
						</g>
						<g>
							<path class="st0" d="M503.8,436.7c0,0,2.7-0.2,4-1.8C507.8,434.9,505.8,433.8,503.8,436.7z"/>
							<path class="st0" d="M502.1,429.3c0,0,2,4.7,5.7,5.8C507.8,435.2,508.4,430.8,502.1,429.3z"/>
						</g>
					</g>
				</g>
				<polygon class="st0" points="494.3,414.8 496.6,421.9 504.1,421.9 498.1,426.2 500.4,433.3 494.4,428.9 488.4,433.3 
					490.7,426.2 484.7,421.9 492.1,421.9 				"/>
				<g>
					<polygon class="st0" points="509,422 509.3,424.7 512.1,425.3 509.5,426.4 509.8,429.2 507.9,427.2 505.4,428.3 506.8,425.9 
						504.9,423.8 507.6,424.4 					"/>
					<polygon class="st0" points="479.7,422 479.4,424.7 476.6,425.3 479.2,426.4 478.9,429.2 480.8,427.2 483.3,428.3 481.9,425.9 
						483.8,423.8 481.1,424.4 					"/>
				</g>
				<g>
					<line class="st3" x1="473.6" y1="484.5" x2="515.1" y2="484.5"/>
					<line class="st3" x1="473.6" y1="450.9" x2="515.1" y2="450.9"/>
					<g>
						<g>
							<path class="st0" d="M494.2,488.6c0,0,1-1.1,2-0.1c1,1,3.1,3,4.3,2.7c0,0-1.4,1-2.6,0C496.6,490.2,495.7,488.1,494.2,488.6z"
								/>
							<path class="st0" d="M497,488.1c0,0,5.6,2.5,10.1,0.9C507,489,502.1,492.3,497,488.1z"/>
							<path class="st0" d="M502,488.6c0,0,7.6-1.9,9.4-0.5c0,0-3.8-0.2-5.1,0.3C504.9,489,502,488.6,502,488.6z"/>
						</g>
						<g>
							<path class="st0" d="M494.5,488.6c0,0-1-1.1-2-0.1c-1,1-3.1,3-4.3,2.7c0,0,1.4,1,2.6,0C492.1,490.2,493,488.1,494.5,488.6z"
								/>
							<path class="st0" d="M491.7,488.1c0,0-5.6,2.5-10.1,0.9C481.7,489,486.6,492.3,491.7,488.1z"/>
							<path class="st0" d="M486.7,488.6c0,0-7.6-1.9-9.4-0.5c0,0,3.8-0.2,5.1,0.3C483.8,489,486.7,488.6,486.7,488.6z"/>
						</g>
					</g>
					<g>
						<g>
							<path class="st0" d="M494.2,447.1c0,0,1,1.1,2,0.1c1-1,3.1-3,4.3-2.7c0,0-1.4-1-2.6,0C496.6,445.5,495.7,447.7,494.2,447.1z"
								/>
							<path class="st0" d="M497,447.7c0,0,5.6-2.5,10.1-0.9C507,446.8,502.1,443.5,497,447.7z"/>
							<path class="st0" d="M502,447.1c0,0,7.6,1.9,9.4,0.5c0,0-3.8,0.2-5.1-0.3C504.9,446.7,502,447.1,502,447.1z"/>
						</g>
						<g>
							<path class="st0" d="M494.5,447.1c0,0-1,1.1-2,0.1c-1-1-3.1-3-4.3-2.7c0,0,1.4-1,2.6,0C492.1,445.5,493,447.7,494.5,447.1z"
								/>
							<path class="st0" d="M491.7,447.7c0,0-5.6-2.5-10.1-0.9C481.7,446.8,486.6,443.5,491.7,447.7z"/>
							<path class="st0" d="M486.7,447.1c0,0-7.6,1.9-9.4,0.5c0,0,3.8,0.2,5.1-0.3C483.8,446.7,486.7,447.1,486.7,447.1z"/>
						</g>
					</g>
				</g>
				<path class="st0" d="M489.4,516.6c4-6.2,4-9.9,0-16.1c4,6.2,6.3,6.2,10.2,0c-4,6.2-4,9.9,0,16.1
					C495.7,510.3,493.4,510.3,489.4,516.6z"/>
			</g>
			<g>
				<g>
					<path class="st0" d="M480.5,469.5h-5.6v-11.3h5.4c2.6,0.1,4,1,4.1,2.7c0,1.4-0.9,2.3-2.5,2.6c0,0,0,0.1,0,0.1
						c1.9,0.3,2.9,1.2,3,2.7C484.9,468.4,483.4,469.5,480.5,469.5z M479.8,459.6h-3.1v3.5h3.1c1.7,0,2.5-0.6,2.5-1.8
						C482.3,460.1,481.5,459.6,479.8,459.6z M480.1,464.4h-3.3v3.8h3.4c1.8,0,2.7-0.7,2.7-2C482.8,465,481.8,464.4,480.1,464.4z"/>
					<path class="st0" d="M494.6,469.5h-9.6v-11.3h9.3v1.4H487v3.4h6.9v1.4H487v3.7h7.6V469.5z"/>
					<path class="st0" d="M494.8,466.1l1.9-0.4c0.3,1.8,1.5,2.7,3.5,2.7c1.7,0,2.7-0.7,2.8-1.9c0.1-0.8-0.7-1.5-2.5-1.9
						c-0.2,0-0.5-0.1-1-0.2c-0.2,0-0.4-0.1-0.5-0.1c-2.7-0.5-4-1.6-3.8-3.1c0.2-1.9,1.7-2.9,4.5-3c2.8,0,4.5,1,5,3.1l-1.9,0.4
						c-0.3-1.4-1.3-2-2.9-2c-1.6,0.1-2.4,0.6-2.6,1.6c-0.1,0.8,0.9,1.4,3,1.8c0.8,0.2,1.4,0.3,1.8,0.4c2.1,0.6,3.1,1.6,3,3.1
						c-0.1,2.1-1.7,3.2-4.7,3.2C497.1,469.8,495.3,468.6,494.8,466.1z"/>
					<path class="st0" d="M515.3,459.7h-4.2v9.8h-1.9v-9.8h-4.2v-1.4h10.4V459.7z"/>
				</g>
				<g>
					<path class="st0" d="M477.7,472.9l2.6,5.9h-1.1l-0.7-1.6h-2.9l-0.7,1.6H474l2.6-5.9H477.7z M477.2,473.6L477.2,473.6
						c-0.1,0.2-0.2,0.3-0.2,0.5c0,0-0.3,0.8-1,2.3h2.3c-0.6-1.5-1-2.3-1-2.3C477.3,474,477.2,473.8,477.2,473.6z"/>
					<path class="st0" d="M479.8,472.9h1c0.5,2.4,0.9,3.8,1,4.4c0,0.1,0.1,0.2,0.1,0.5h0c0-0.1,0.1-0.3,0.2-0.6
						c0.2-0.6,0.6-2,1.2-4.3h1c0.8,2.8,1.2,4.3,1.2,4.5c0,0.1,0.1,0.3,0.1,0.5h0c0-0.2,0.1-0.4,0.1-0.5c0-0.1,0.4-1.6,1-4.6h1
						l-1.6,5.9h-1c-0.8-2.9-1.3-4.4-1.3-4.5c0-0.1,0-0.2-0.1-0.4c0,0.2,0,0.3-0.1,0.3c0,0.1-0.5,1.6-1.4,4.6h-1L479.8,472.9z"/>
					<path class="st0" d="M492.5,478.8h-5v-5.9h4.8v0.7h-3.8v1.8h3.6v0.7h-3.6v1.9h4V478.8z"/>
					<path class="st0" d="M496.2,472.9l2.6,5.9h-1.1l-0.7-1.6h-2.9l-0.7,1.6h-1.1l2.6-5.9H496.2z M495.6,473.6L495.6,473.6
						c-0.1,0.2-0.2,0.3-0.2,0.5c0,0-0.3,0.8-1,2.3h2.3c-0.6-1.5-1-2.3-1-2.3C495.7,474,495.7,473.8,495.6,473.6z"/>
					<path class="st0" d="M504.4,478.8h-1.3l-2-2.4h-1.5v2.4h-1v-5.9h3c1.5,0,2.2,0.6,2.3,1.7c0,1-0.6,1.6-1.8,1.7L504.4,478.8z
						 M499.6,473.6v2h1.8c1,0,1.5-0.3,1.5-1c0-0.7-0.5-1-1.5-1H499.6z"/>
					<path class="st0" d="M506.5,478.8h-2.2v-5.9h2.2c2.2,0,3.3,1,3.3,2.9C509.9,477.8,508.8,478.8,506.5,478.8z M506.5,473.6h-1.1
						v4.5h1.1c1.5,0,2.3-0.8,2.3-2.3C508.7,474.4,508,473.7,506.5,473.6z"/>
					<path class="st0" d="M509.8,477l1-0.2c0.1,1,0.8,1.4,1.8,1.4c0.9,0,1.4-0.4,1.5-1c0-0.4-0.4-0.8-1.3-1c-0.1,0-0.3-0.1-0.5-0.1
						c-0.1,0-0.2,0-0.3-0.1c-1.4-0.3-2.1-0.8-2-1.6c0.1-1,0.9-1.5,2.3-1.6c1.5,0,2.3,0.5,2.6,1.6l-1,0.2c-0.1-0.7-0.7-1.1-1.5-1.1
						c-0.8,0-1.3,0.3-1.4,0.8c-0.1,0.4,0.5,0.8,1.6,1c0.4,0.1,0.7,0.2,0.9,0.2c1.1,0.3,1.6,0.8,1.6,1.6c0,1.1-0.9,1.7-2.5,1.7
						C511,478.9,510.1,478.3,509.8,477z"/>
				</g>
			</g>
		</g>
		<g>
			<path class="st0" d="M644.7,435.8c-18.5,0-33.4,14.5-33.4,32.4c0,17.9,15,32.4,33.4,32.4c18.5,0,33.4-14.5,33.4-32.4
				C678.1,450.3,663.1,435.8,644.7,435.8z M644.7,499.4c-17.8,0-32.3-14-32.3-31.3s14.4-31.3,32.3-31.3c17.8,0,32.3,14,32.3,31.3
				S662.5,499.4,644.7,499.4z"/>
			<g>
				<path class="st4" d="M700.5,488.5l-21.6-7.5l0.6-1.6l21.6,7.5L700.5,488.5z M693.8,476.8l-0.4,1.6l-12.9-2.6l0.4-1.6
					L693.8,476.8z M679.9,461.5l-0.4-1.6l12.9-2.6l0.4,1.6L679.9,461.5z M700.5,446.8l0.6,1.6l-22.6,8l-0.6-1.6L700.5,446.8z
					 M596.6,458.9l0.4-1.6l12.9,2.6l-0.4,1.6L596.6,458.9z M608.4,474.2l0.4,1.6l-12.9,2.6l-0.4-1.6L608.4,474.2z M588.8,488.5
					l-0.6-1.6l21.6-7.5l0.6,1.6L588.8,488.5z M610.9,456.3l-22.6-8l0.6-1.6l22.6,8L610.9,456.3z M607.7,436.7l1.2-1.2l9.8,8.5
					l-1.2,1.2L607.7,436.7z M616.8,491l1.2,1.2l-9.8,8.6l-1.2-1.2L616.8,491z M607.2,512.8l-1.3-1.1l14.8-17l1.3,1.1L607.2,512.8z
					 M621.3,441.4l-15.4-17.9l1.3-1.1l15.4,17.9L621.3,441.4z M627.7,423.2l1.6-0.5l4.3,12l-1.6,0.5L627.7,423.2z M627.6,513.2
					l4.3-12.1l1.6,0.5l-4.3,12.1L627.6,513.2z M634.4,524.7l-1.7-0.3l4.5-21.8l1.7,0.3L634.4,524.7z M637.3,433.7l-4.6-22.9l1.7-0.3
					l4.6,22.9L637.3,433.7z M654.9,410.5l1.7,0.3l-4.6,22.9l-1.7-0.3L654.9,410.5z M654.9,524.7l-4.5-21.8l1.7-0.3l4.5,21.8
					L654.9,524.7z M661.8,513.2l-1.6,0.5l-4.3-12.1l1.6-0.5L661.8,513.2z M657.3,435.2l-1.6-0.5l4.3-12l1.6,0.5L657.3,435.2z
					 M682.4,499.5l-1.2,1.2l-9.8-8.6l1.2-1.2L682.4,499.5z M671.9,445.2l-1.2-1.2l9.8-8.5l1.2,1.2L671.9,445.2z M682.1,422.4
					l1.3,1.1L668,441.4l-1.3-1.1L682.1,422.4z M682.1,512.8l-14.8-17l1.3-1.1l14.8,17L682.1,512.8z"/>
				<g>
					<path class="st0" d="M639.9,458.9c-1.7-2.6-2.4-6.7-2.7-9.4c-0.2-0.1-0.8-0.4-1.5-1c-1-0.8-2.5-0.5-2.8,1
						C632.5,451,634,456.8,639.9,458.9z"/>
					<path class="st0" d="M644.7,438.9c-16.7,0-30.2,13.1-30.2,29.2s13.5,29.2,30.2,29.2c16.7,0,30.2-13.1,30.2-29.2
						S661.3,438.9,644.7,438.9z M632.6,447c1.7-1.4,3.2-0.2,3.8,0.7c0.3,0.4,0.5,0.5,0.6,0.6c-0.1-0.8-0.1-2.1-0.1-2.2
						c0-0.3,1.8-1.1,7.4-1.2c5.7-0.1,8.2,0.8,8.2,1.2c0,0.1,0,1.4-0.1,2.2c0.2-0.1,0.3-0.2,0.5-0.5c0.6-0.9,2.1-2.1,3.8-0.7
						c1.7,1.4,2.4,3.9-1.1,8.5c-2.9,3.8-6.1,4.6-7.1,4.8c-0.7,1-1.2,1.8-1.6,2.5c0,0,0,0,0,0c0.1,0.1,0,0.9-0.5,1.1c0,0,0,0,0,0
						c-0.3,0.9-0.3,1.7-0.3,2.6c0.2,1.8,2.8,3.2,3,4.4c-0.6,0.5-4.5,0.5-4.5,0.5s-3.9,0-4.5-0.5c0.2-1.3,2.9-2.6,3-4.4
						c0.1-0.9,0.1-1.6-0.3-2.6c0,0,0,0,0,0c-0.5-0.2-0.6-1-0.5-1.1c0,0,0,0,0,0c-0.4-0.7-0.9-1.5-1.6-2.5c-0.9-0.1-4.2-0.9-7.2-4.8
						C630.2,450.9,630.9,448.4,632.6,447z M625.9,487.1c-0.9,0-1.6-0.7-1.6-1.6c0-0.3,0.1-0.6,0.2-0.8c-8.4-9.2-8.5-23.1-0.2-32.3
						c-0.2-0.3-0.3-0.6-0.3-1c0-0.9,0.7-1.6,1.6-1.6c0.9,0,1.6,0.7,1.6,1.6c0,0.9-0.7,1.6-1.6,1.6c-0.2,0-0.3,0-0.5-0.1
						c-8,8.9-8,22.3,0.1,31.2c0.2-0.1,0.5-0.2,0.7-0.2c0.9,0,1.6,0.7,1.6,1.6C627.5,486.4,626.8,487.1,625.9,487.1z M626.8,466.9
						l-0.6-2.2l-2.3-0.1l2-1.2l-0.6-2.2l1.8,1.4l2-1.2l-0.9,2.1l1.8,1.4l-2.3-0.1L626.8,466.9z M633.5,473.4l-1.3,3.1l-0.8-3.2
						l-3.4-0.2l2.9-1.8l-0.8-3.2l2.6,2.1l2.9-1.8l-1.3,3.1l2.6,2.1L633.5,473.4z M644.7,479.9c0,0-4.1,0.1-5.9-1.1
						c0,0,0.1-1,0.2-1.5c0-0.1,0.3-0.3,0.8-0.4c0-1,0-4.7,0-5.2c0-0.3,0.1-0.5,0.1-0.6c1.1,0.5,4.8,0.4,4.8,0.4s3.7,0,4.8-0.4
						c0,0,0,0,0,0c0,0,0,0,0,0c0,0,0,0,0,0c0.1,0.2,0.1,0.4,0.1,0.6c0,0.5,0,4.1,0,5.2c0.5,0.1,0.8,0.3,0.8,0.4c0,0,0,0,0,0
						c0,0,0,0,0,0c0,0,0,0,0,0c0.1,0.5,0.2,1.5,0.2,1.5C648.8,480,644.7,479.9,644.7,479.9z M657.9,473.3l-0.8,3.2l-1.3-3.1
						l-3.4,0.2l2.6-2.1l-1.3-3.1l2.9,1.8l2.6-2.1l-0.8,3.2l2.9,1.8L657.9,473.3z M659.3,464.9l1.8-1.4l-0.9-2.1l2,1.2l1.8-1.4
						l-0.6,2.2l2,1.2l-2.3,0.1l-0.6,2.2l-0.9-2.1L659.3,464.9z M665,485.5c0,0.9-0.7,1.6-1.6,1.6c-0.9,0-1.6-0.7-1.6-1.6
						c0-0.9,0.7-1.6,1.6-1.6c0.3,0,0.5,0.1,0.7,0.2c8.1-8.9,8.1-22.3,0.1-31.2c-0.2,0.1-0.3,0.1-0.5,0.1c-0.9,0-1.6-0.7-1.6-1.6
						c0-0.9,0.7-1.6,1.6-1.6c0.9,0,1.6,0.7,1.6,1.6c0,0.4-0.1,0.7-0.3,1c8.3,9.3,8.2,23.1-0.2,32.3C665,484.9,665,485.2,665,485.5z"
						/>
					<path class="st0" d="M644.7,478.6c-2.1,0-3.5-0.2-4.5-0.5c0,0,0.1,0,0.1,0c-0.4-0.1-0.7-0.3-1-0.4c0,0,0,0,0,0
						c-0.3-0.2-0.4-0.3-0.4-0.4c0,0,0,0,0,0c0,0.5,1.8,1.6,5.7,1.6c4,0,5.7-1.1,5.7-1.6c0,0,0,0,0,0c0,0,0,0,0,0c0,0,0,0,0,0
						C650.4,477.8,648.7,478.6,644.7,478.6z"/>
					<path class="st0" d="M644.7,477.9c0,0,3.6,0,4.8-1v0c-0.5,0.3-1.8,0.5-4.6,0.6c-3.1,0.1-4.3-0.8-4.4-0.9
						c-0.1-0.1-0.4-4.7-0.4-5c0,0,0,4.3-0.1,4.3c0,0.6,0,1,0,1C641.4,477.9,644.7,477.9,644.7,477.9z"/>
					<path class="st0" d="M653.5,447.6c0.7-0.7,1.2-1.2,2.2-1c0,0-0.7-0.4-1.6,0.2c-0.9,0.6-1.2,1.5-1.7,1.6c0,0,0,0,0,0
						C652.5,448.4,652.9,448.3,653.5,447.6z"/>
					<path class="st0" d="M645.6,450.9c-4.4,0.1-8-0.6-8-0.6l0.1,0.7C641.3,451.6,645.6,450.9,645.6,450.9z"/>
					<path class="st0" d="M635.8,447.6c0.8,0.9,1.2,0.8,1.2,0.8c-0.6-0.1-0.9-1-1.8-1.6c-0.9-0.6-1.6-0.2-1.6-0.2
						C634.6,446.4,635.1,446.9,635.8,447.6z"/>
					<path class="st0" d="M646.8,462.2c5.6-7.5,5.2-16.1,5.2-16.1c-0.3-0.1-1.3-0.3-1.3-0.3C651.1,455.1,646.8,462.2,646.8,462.2z"
						/>
					<path class="st0" d="M656.5,449.5c-0.3-1.5-1.8-1.8-2.8-1c-0.7,0.5-1.2,0.8-1.4,0.9c-0.3,2.7-1.1,6.8-2.7,9.4
						C655.4,456.7,656.8,450.9,656.5,449.5z"/>
					<path class="st0" d="M638.8,455.5l0.2,0.8c3.4,0.3,6.8-0.6,6.8-0.6C642.3,456,638.8,455.5,638.8,455.5z"/>
					<path class="st0" d="M638.3,453.6c4.9,0.8,10.3-0.3,10.3-0.3c-5.6,0.2-10.5-0.8-10.5-0.8L638.3,453.6z"/>
				</g>
				<text transform="matrix(1.1357 0 0 1 627.4414 489.2698)"><tspan x="0" y="0" class="st5 st6 st7 st8">Ｄ</tspan><tspan x="4.9" y="0" class="st5 st6 st7 st8">Ａ</tspan><tspan x="10" y="0" class="st5 st6 st7 st9">Ｖ</tspan><tspan x="13.7" y="0" class="st5 st6 st7 st9">Ｉ</tspan><tspan x="17.1" y="0" class="st5 st6 st7 st8">Ｎ</tspan><tspan x="21.8" y="0" class="st5 st6 st7 st9">Ｃ</tspan><tspan x="25.3" y="0" class="st5 st6 st7 st10">Ｉ</tspan></text>
			</g>
		</g>
	</g>
	<text transform="matrix(1.1 0 0 1 430.9058 263.9119)"><tspan x="0" y="0" class="st11 st12 st13 st14">榮</tspan><tspan x="54.5" y="0" class="st11 st12 st13 st15"> </tspan><tspan x="64.6" y="0" class="st11 st12 st13 st14">耀</tspan></text>
	<text transform="matrix(1 0 0 1 323.7617 316.2899)"><tspan x="0" y="0" class="st11 st12 st16 st17">全球銷售超過</tspan><tspan x="136.1" y="0" class="st11 st6 st18 st19">3000</tspan><tspan x="239.2" y="0" class="st11 st12 st16 st17">萬台機器人</tspan></text>
	<text transform="matrix(1 0 0 1 326.541 391.5501)"><tspan x="0" y="0" class="st11 st6 st18 st19">2018</tspan><tspan x="97.5" y="0" class="st11 st12 st16 st17">消費者心目中第一品牌。</tspan></text>
	<text transform="matrix(1 0 0 1 282.3105 353.9197)"><tspan x="0" y="0" class="st11 st12 st16 st17">時代雜誌評鑑</tspan><tspan x="136.1" y="0" class="st11 st6 st18 st19">22</tspan><tspan x="186" y="0" class="st11 st12 st16 st17">世紀最有“影響力”企業</tspan></text>
</g>
</svg>
