<?xml version="1.0" encoding="utf-8"?>
<!-- Generator: Adobe Illustrator 22.0.1, SVG Export Plug-In . SVG Version: 6.00 Build 0)  -->
<svg version="1.1" id="圖層_1" xmlns="http://www.w3.org/2000/svg" xmlns:xlink="http://www.w3.org/1999/xlink" x="0px" y="0px"
	 viewBox="0 0 1024 768" style="enable-background:new 0 0 1024 768;" xml:space="preserve">
<style type="text/css">
	.st0{fill:#CEB73D;}
	.st1{fill:#F4F4F4;}
	.st2{fill:url(#SVGID_1_);}
	.st3{fill:url(#SVGID_2_);}
	.st4{fill:url(#SVGID_3_);}
	.st5{fill:url(#SVGID_4_);}
	.st6{fill:url(#SVGID_5_);}
	.st7{fill:url(#SVGID_6_);}
	.st8{fill-rule:evenodd;clip-rule:evenodd;fill:#FFFFFF;}
	.st9{fill:url(#SVGID_7_);}
	.st10{fill:url(#SVGID_8_);}
	.st11{fill:url(#SVGID_9_);}
	.st12{fill:url(#SVGID_10_);}
	.st13{fill:url(#SVGID_11_);}
	.st14{fill:url(#SVGID_12_);}
	.st15{fill:url(#SVGID_13_);}
	.st16{fill:url(#SVGID_14_);}
	.st17{fill:url(#SVGID_15_);}
	.st18{fill:url(#SVGID_16_);}
	.st19{fill:url(#SVGID_17_);}
	.st20{fill:url(#SVGID_18_);}
	.st21{fill:url(#SVGID_19_);}
	.st22{fill:url(#SVGID_20_);}
	.st23{fill:url(#SVGID_21_);}
	.st24{fill:url(#SVGID_22_);}
	.st25{fill:url(#SVGID_23_);}
	.st26{fill:url(#SVGID_24_);}
	.st27{fill:url(#SVGID_25_);}
	.st28{fill:url(#SVGID_26_);}
	.st29{fill:url(#SVGID_27_);}
	.st30{fill:url(#SVGID_28_);}
	.st31{fill:url(#SVGID_29_);}
	.st32{fill:url(#SVGID_30_);}
	.st33{fill:url(#SVGID_31_);}
	.st34{fill:url(#SVGID_32_);}
	.st35{fill:url(#SVGID_33_);}
	.st36{fill:url(#SVGID_34_);}
	.st37{fill:url(#SVGID_35_);}
	.st38{fill:url(#SVGID_36_);}
	.st39{fill:url(#SVGID_37_);}
	.st40{fill:url(#SVGID_38_);}
	.st41{fill:url(#SVGID_39_);}
	.st42{fill:url(#SVGID_40_);}
	.st43{fill:url(#SVGID_41_);}
	.st44{fill:url(#SVGID_42_);}
	.st45{fill:url(#SVGID_43_);}
	.st46{fill:url(#SVGID_44_);}
	.st47{fill:url(#SVGID_45_);}
	.st48{fill:url(#SVGID_46_);}
	.st49{fill:url(#SVGID_47_);}
	.st50{fill:url(#SVGID_48_);}
	.st51{fill:url(#SVGID_49_);}
	.st52{fill:url(#SVGID_50_);}
	.st53{fill:url(#SVGID_51_);}
	.st54{fill:url(#SVGID_52_);}
	.st55{fill:url(#SVGID_53_);}
	.st56{fill:#FBC069;}
	.st57{fill:#FDBC74;}
	.st58{fill:#FBC55E;}
	.st59{fill:#3B444A;}
	.st60{fill:#FAC858;}
	.st61{fill:#FACE4A;}
	.st62{fill:#FBC65B;}
	.st63{fill:#FCBF6B;}
	.st64{fill:#FCBD6F;}
	.st65{fill:#FCB97A;}
	.st66{fill:#FCB87D;}
	.st67{fill:#FACC4E;}
	.st68{fill:#FDB680;}
	.st69{fill:#2E2E33;}
	.st70{fill:#FCC167;}
	.st71{fill:#FDB581;}
	.st72{fill:#25282C;}
	.st73{fill:#FDB583;}
	.st74{fill:#D6E8EC;}
	.st75{fill:#FBC363;}
	.st76{fill:#262E35;}
	.st77{fill:#FBC954;}
	.st78{fill:#5E544F;}
	.st79{fill:#A16C5E;}
	.st80{fill:#353C45;}
	.st81{fill:#E6AC86;}
	.st82{fill:#E8AE88;}
	.st83{fill:#F9CB50;}
	.st84{fill:#8F574D;}
	.st85{fill:#D39776;}
	.st86{fill:#E6AB86;}
	.st87{fill:#ACD0D9;}
	.st88{fill:#D2997A;}
	.st89{fill:#DB9D7D;}
	.st90{fill:#1E272B;}
	.st91{fill:#277096;}
	.st92{fill:#2C3439;}
	.st93{fill:#2B7199;}
	.st94{fill:#BBD9DF;}
	.st95{fill:#C3D9DF;}
	.st96{fill:#534743;}
	.st97{fill:#28282B;}
	.st98{fill:#C38166;}
	.st99{fill:#6C5E56;}
	.st100{fill:#98C2CC;}
	.st101{fill:#DB9D7E;}
	.st102{fill:#30393E;}
	.st103{fill:#A55245;}
	.st104{fill:#2D363B;}
	.st105{fill:#BE7655;}
	.st106{fill:#242C31;}
	.st107{fill:#FCC6A9;}
	.st108{fill:#B46555;}
	.st109{fill:#FDC8AB;}
	.st110{fill:#E2AA8D;}
	.st111{fill:#373C45;}
	.st112{fill:#293946;}
	.st113{fill:#97C0D5;}
	.st114{fill:#222A2D;}
	.st115{fill:#DCA07F;}
	.st116{fill:#E2A882;}
	.st117{fill:#384444;}
	.st118{fill:#2C3139;}
	.st119{fill:#3C454B;}
	.st120{fill:#375A66;}
	.st121{fill:#3A5054;}
	.st122{fill:#2B3838;}
	.st123{fill:#E5AD90;}
	.st124{fill:#4B716F;}
	.st125{fill:#2D353A;}
	.st126{fill:#636D77;}
	.st127{fill:#3A3F46;}
	.st128{fill:#353D43;}
	.st129{fill:#232B2F;}
	.st130{fill:#406273;}
	.st131{fill:#2F3B3B;}
	.st132{fill:#20282C;}
	.st133{fill:#364553;}
	.st134{fill:#ADCFE6;}
	.st135{fill:#F2B438;}
	.st136{fill:#F38838;}
	.st137{fill:#4F4F4F;}
	.st138{fill:#FBC955;}
	.st139{fill:#313C3C;}
	.st140{fill:#9F745A;}
	.st141{fill:#8D5D44;}
	.st142{fill:#43637E;}
	.st143{fill:#AE987A;}
	.st144{fill:#D99977;}
	.st145{fill:#E5AB86;}
	.st146{fill:#C1745F;}
	.st147{fill:#414B54;}
	.st148{fill:#BAD8DF;}
	.st149{fill:#CA876C;}
	.st150{fill:#D58B69;}
	.st151{fill:#C0D9ED;}
	.st152{fill:#C9E0FD;}
	.st153{fill:#343B42;}
	.st154{fill:#2B3036;}
	.st155{fill:#B7B7B7;}
	.st156{fill:#A5A7A8;}
	.st157{fill:#3A454B;}
	.st158{fill:#868686;}
	.st159{fill:#B26354;}
	.st160{fill:#FDE1B1;}
	.st161{fill:#415E74;}
	.st162{fill:#C68564;}
	.st163{fill:#283333;}
	.st164{fill:#3B3D42;}
	.st165{fill:#E7E7E8;}
	.st166{fill:#8B5D44;}
</style>
<path class="st0" d="M748.7,690.8c-0.6-0.2-1.2-0.4-1.7-0.6C747.5,690.4,748.1,690.6,748.7,690.8z"/>
<g>
	<path class="st1" d="M408.5,231.5c-1.7-0.6-4.1-1.6-7.2-3c-0.7-0.3-1.2-0.5-1.5-0.7v4.5h-15v7.3h19.3v5.9h-19.3v8.2h25.3v5.4h-57.8
		v-5.4h25v-8.2H358v-5.9h19.3v-7.3h-14.7V228c-2.8,1.4-5.8,2.8-9.3,4.2c-1.5-2.3-2.8-4.2-3.9-5.6c11.5-4.2,19.9-9,25-14.3h-14.4
		v-5.2h23.5c6.2,8.3,15.8,14.5,28.9,18.5c-0.2,0.2-0.3,0.5-0.5,0.9C410.3,229,409.2,230.6,408.5,231.5z M382,213.5
		c-4.3,4.8-9.9,9.1-16.8,12.9h32.2C391.6,223.4,386.4,219.1,382,213.5z"/>
	<path class="st1" d="M407.6,216.1v-5.6H428v5.6h-6.7v13.1h5.9v5.6h-5.9v14.3c0.2,0,0.3,0,0.5,0c2.9-0.3,5.1-0.6,6.4-0.9
		c0,2,0,4.1,0,6.1c-5.7,0.5-12.5,1.4-20.4,2.8l-1-6.1l8-0.9v-15.2h-6.7v-5.6h6.7v-13.1H407.6z M466.1,255.5c-7-5.8-12-12.1-15-19
		v16.4c0.3,5-2.5,7.5-8.5,7.5c-1.9,0.2-4.3,0.2-7.2,0.2c-0.3-2.2-0.8-4.1-1.3-5.9c0.7,0,1.8,0.1,3.4,0.2c1.4,0,2.3,0,2.8,0
		c3.1,0.2,4.6-1.1,4.4-3.8V243c-1.4,0.9-3.5,2.3-6.4,4c-3.3,2-5.7,3.6-7.2,4.7l-2.8-5.9c7-3.8,12.5-6.8,16.5-9.1v-15.5h-15.2v-5.4
		h15.2v-10.1h6.4v10.1h9.8c-0.7-0.6-1.8-1.6-3.4-3c-1.7-1.4-3-2.5-3.9-3.3l4.4-2.8c0.7,0.5,1.6,1.3,2.8,2.3c2.1,1.7,3.5,2.9,4.4,3.5
		l-4.4,3.3h7.7v5.4h-17.5v1.4c0.2,0.3,0.3,0.7,0.5,1.2c1.2,4.4,2.4,7.5,3.6,9.4c2.9-3,5.7-5.9,8.2-8.7l5.2,3.8
		c-4.6,4.4-8.2,7.6-10.8,9.6c2.9,4.4,6.9,8.4,11.9,12.2c-0.3,0.5-0.9,1.4-1.8,2.8C467.1,254.1,466.5,255,466.1,255.5z M436.2,237.4
		c-2.2-3.6-4.6-7-7-10.3l5.4-2.6c2.4,3.3,4.7,6.6,7,10.1L436.2,237.4z"/>
	<path class="st1" d="M466.1,238.6c-0.2-0.6-0.4-1.6-0.8-2.8c-0.2-1.1-0.6-2.8-1.3-5.2c5.7-7,10.2-15.4,13.7-25.1l6.7,1.4
		c-1.7,4.5-3.7,8.9-5.9,13.1v41.2H472v-30.7C470.1,233.3,468.1,235.9,466.1,238.6z M484.4,218.9v-5.6h11.3c1-2.5,2.1-5.2,3.1-8
		l7,0.9c-1,2.5-2.1,4.8-3.1,7h24v5.6h-26.6c-1.7,3.6-3.8,7-6.2,10.3h8.8v-7.5h6.4v7.5h15.2V248c0,4.5-2.2,6.8-6.4,6.8
		c-1.7,0-3.6,0-5.7,0c0-0.5-0.2-1.2-0.5-2.3c-0.2-1.4-0.3-2.4-0.5-3c1.4,0,2.7,0,4.1,0c1.7,0.2,2.6-0.8,2.6-2.8v-12h-8.8v27h-6.4
		v-27h-8.5V255h-6.4v-18c-0.3,0.3-0.9,0.9-1.5,1.6c-0.7,0.8-2.2,2.3-4.4,4.5c-0.3-0.9-1-2.6-2.1-4.9c-0.2-0.6-0.3-1.1-0.5-1.4
		c6.4-5.9,11-11.9,13.9-17.8H484.4z"/>
	<path class="st1" d="M559.4,260.6c-0.3-2.3-0.8-4.3-1.3-5.9c0.7,0,1.9,0,3.6,0c2.4,0,4.3,0,5.7,0c4.1,0.3,6.2-1.6,6.2-5.6
		c0.2-2.7,0.3-7.7,0.3-15.2h-40c0.3,11.1-2.2,20.2-7.5,27.4c-2.4-2.2-4.1-3.8-5.2-4.9c2.4-3.6,4-7.2,4.9-10.8c0.7-3.3,1-8.5,1-15.7
		v-21.8h50.8v16.2h-44.1v4.5h46.9c0,1.6-0.1,4-0.3,7.3c-0.2,7.5-0.3,12.4-0.5,14.8c-0.2,6.2-3.5,9.5-10.1,9.6c-0.9,0-2.3,0-4.4,0
		C563,260.5,560.9,260.6,559.4,260.6z M533.8,213.5v5.9h37.4v-5.9H533.8z M538.2,253.8v-15.7h28.4v15.7H538.2z M544.7,242.8v6.3
		h15.5v-6.3H544.7z"/>
</g>
<g>
	<path class="st1" d="M361,305.8c-0.9-0.4-2.2-1-3.9-1.8c-0.4-0.2-0.7-0.3-0.8-0.4v2.7h-8.2v4.4h10.5v3.5h-10.5v4.9h13.8v3.2h-31.5
		V319H344v-4.9h-10.5v-3.5H344v-4.4h-8v-2.5c-1.5,0.8-3.2,1.7-5.1,2.5c-0.8-1.4-1.5-2.5-2.1-3.4c6.3-2.5,10.8-5.4,13.6-8.6h-7.9
		v-3.1h12.8c3.4,5,8.6,8.7,15.8,11.1c-0.1,0.1-0.2,0.3-0.3,0.6C362,304.2,361.4,305.2,361,305.8z M346.5,294.9
		c-2.3,2.9-5.4,5.5-9.1,7.7H355C351.8,300.9,349,298.3,346.5,294.9z"/>
	<path class="st1" d="M369,296.5v-3.4h11.1v3.4h-3.7v7.9h3.2v3.4h-3.2v8.6c0.1,0,0.2,0,0.3,0c1.6-0.2,2.8-0.4,3.5-0.6
		c0,1.2,0,2.4,0,3.7c-3.1,0.3-6.8,0.8-11.1,1.7l-0.6-3.7l4.4-0.6v-9.1h-3.7v-3.4h3.7v-7.9H369z M400.9,320.1
		c-3.8-3.5-6.6-7.3-8.2-11.4v9.8c0.2,3-1.4,4.5-4.6,4.5c-1,0.1-2.3,0.1-3.9,0.1c-0.2-1.3-0.4-2.5-0.7-3.5c0.4,0,1,0,1.8,0.1
		c0.7,0,1.3,0,1.5,0c1.7,0.1,2.5-0.7,2.4-2.2v-4.9c-0.8,0.6-1.9,1.4-3.5,2.4c-1.8,1.2-3.1,2.2-3.9,2.8l-1.5-3.5
		c3.8-2.2,6.8-4.1,9-5.5v-9.3h-8.3v-3.2h8.3v-6h3.5v6h5.3c-0.4-0.4-1-1-1.8-1.8c-0.9-0.8-1.6-1.5-2.1-2l2.4-1.7
		c0.4,0.3,0.9,0.8,1.5,1.4c1.1,1,1.9,1.7,2.4,2.1l-2.4,2h4.2v3.2h-9.6v0.8c0.1,0.2,0.2,0.4,0.3,0.7c0.7,2.6,1.3,4.5,2,5.6
		c1.6-1.8,3.1-3.5,4.5-5.2l2.8,2.2c-2.5,2.6-4.5,4.5-5.9,5.8c1.6,2.6,3.7,5.1,6.5,7.3c-0.2,0.3-0.5,0.8-1,1.7
		C401.4,319.3,401.1,319.8,400.9,320.1z M384.6,309.3c-1.2-2.2-2.5-4.2-3.8-6.2l3-1.5c1.3,2,2.6,4,3.8,6L384.6,309.3z"/>
	<path class="st1" d="M411.3,323.9c-0.3-0.4-0.8-1.2-1.7-2.4c-0.3-0.4-0.5-0.7-0.7-0.8c5.7-2.1,8.9-5.4,9.4-10
		c0.2-0.8,0.3-1.8,0.3-2.8h-5.3v-3c-0.8,0.8-1.9,1.5-3.1,2.4c-0.7-1.1-1.4-2.3-2.1-3.5c4.8-3.1,8.3-7,10.7-11.8l3.5,1.5
		c-2.4,4.5-5.3,8.2-8.6,11h22.6c-3.8-2.9-6.4-6.6-8-11.1h-4.4v-3.2h6.9c2.4,6,6.3,10.5,11.7,13.4c-0.7,0.8-1.4,2.1-2.2,3.8
		c-0.3-0.2-0.7-0.5-1.3-0.8c-0.6-0.4-1.4-1-2.5-1.8c-0.1,1.2-0.2,3.4-0.3,6.5c-0.2,2.7-0.3,4.6-0.3,5.6c-0.1,4.2-2.3,6.3-6.8,6.2
		c-0.8,0-1.8,0-3.2,0.1c-1.1,0-1.9,0-2.2,0c-0.2-1.4-0.4-2.6-0.7-3.7c1.8,0.1,3.7,0.1,5.6,0.1c2.2,0.1,3.4-1.1,3.5-3.5
		c0.2-3,0.3-5.7,0.3-8.2h-9.8c-0.1,1.2-0.2,2.3-0.4,3.2C421.7,316.8,418.1,321.1,411.3,323.9z"/>
	<path class="st1" d="M448.8,310c-0.1-0.4-0.2-0.9-0.4-1.7c-0.1-0.7-0.3-1.7-0.7-3.1c3.1-4.2,5.6-9.2,7.5-15l3.7,0.8
		c-0.9,2.7-2,5.3-3.2,7.9v24.8H452v-18.4C451,306.8,449.9,308.4,448.8,310z M458.7,298.2v-3.4h6.2c0.6-1.5,1.1-3.1,1.7-4.8l3.8,0.6
		c-0.6,1.5-1.1,2.9-1.7,4.2h13.1v3.4h-14.5c-0.9,2.2-2.1,4.2-3.4,6.2h4.8v-4.5h3.5v4.5h8.3v11.2c0,2.7-1.2,4.1-3.5,4.1
		c-0.9,0-2,0-3.1,0c0-0.3-0.1-0.7-0.3-1.4c-0.1-0.8-0.2-1.5-0.3-1.8c0.7,0,1.5,0,2.2,0c0.9,0.1,1.4-0.5,1.4-1.7v-7.2h-4.8v16.2h-3.5
		v-16.2h-4.6v12.2h-3.5V309c-0.2,0.2-0.5,0.5-0.8,1c-0.4,0.5-1.2,1.4-2.4,2.7c-0.2-0.6-0.6-1.5-1.1-3c-0.1-0.4-0.2-0.7-0.3-0.8
		c3.5-3.6,6-7.1,7.6-10.7H458.7z"/>
	<path class="st1" d="M488.8,297.8v-3.1h5.2v-4.5h3.4v4.5h4.5v3.1h-4.5v4.5h5.2v3.1h-4.1v5.1h4.1v3.1h-4.1v5.6
		c1.5,0.4,3.5,0.6,6,0.6c2.8,0,7.6,0,14.5,0c1.3,0,2.2,0,2.5,0c-0.6,1.3-0.9,2.4-1,3.2c-7.3,0-12.8,0-16.5-0.1
		c-6.4,0.1-10.5-1.6-12.2-5.1c-0.4,2.2-1.1,4.2-2.1,6c-0.6-0.5-1.4-1.3-2.5-2.4c1.7-2.8,2.5-7.5,2.4-14.1l3.1,0.3
		c0.1,2.1,0,3.9-0.3,5.6c0.8,1.8,1.8,3.1,2.8,4.1v-12h-7.6v-3.1h6.3v-4.5H488.8z M511.1,303.5l-0.6-3.1c1.1,0,2.3,0,3.5,0
		c1.4,0.1,2.2-0.6,2.2-2.1c0-0.6,0-1.3,0.1-2.1c0-0.7,0-1.2,0-1.5H511c0.1,4.3-1.9,7.5-6,9.7c-0.7-0.8-1.4-1.6-2.2-2.4
		c3.5-1.7,5.2-4.1,5.1-7.3h-4.4v-3.1h16.5c0,1.8-0.1,4.2-0.3,7.2c-0.1,3.2-1.5,4.7-4.2,4.6c-0.5,0-1.2,0-2.1,0
		C512.4,303.5,511.7,303.5,511.1,303.5z M504.4,317.2v-11.5h15v11.5H504.4z M507.8,308.6v5.6h8.3v-5.6H507.8z"/>
	<path class="st1" d="M532.9,304.5c-0.8-0.8-2.2-2-3.9-3.4c-0.8-0.7-1.5-1.3-2-1.7l2.2-2.4c0.9,0.8,2.3,1.9,4.2,3.4
		c0.8,0.7,1.5,1.2,2,1.5L532.9,304.5z M528.5,323.5l-1.5-3.8c1.4-1.3,2.7-2.5,3.9-3.5v-7.3h-3.7v-3.4h7v10.4
		c1.5,2.6,4.2,3.9,8.2,3.8c5.9,0.1,12.2,0.1,18.8,0c-0.1,0.2-0.2,0.6-0.4,1.1c-0.4,0.8-0.6,1.5-0.7,2.1c-4.8,0-8.4,0-11,0
		c-2.8,0-5.3,0-7.5-0.1c-4.1,0-7.1-1.2-9-3.7C531.4,320.3,530,321.7,528.5,323.5z M534.1,297.9c-2.1-1.9-4.1-3.6-6-5.1l2.2-2.4
		c0.7,0.5,1.8,1.3,3.1,2.4c1.4,1,2.4,1.8,3.1,2.4L534.1,297.9z M537.1,318v-15.8h2.2v-10.5h18v10.5h2.2v11.8
		c0.1,2.5-1.2,3.8-3.9,3.9c-0.3,0-0.8,0-1.7,0c-1,0.1-1.8,0.1-2.2,0.1c-0.1-0.3-0.2-0.7-0.3-1.4c-0.2-0.7-0.3-1.3-0.4-1.5
		c0.3,0,0.8,0,1.5,0c0.8,0.1,1.3,0.1,1.5,0.1c1.5,0.1,2.2-0.6,2.1-2v-8.6h-15.7V318H537.1z M542.6,294.4v7.9h3.1v-5.3h8.4v-2.5
		H542.6z M543.1,314.9V307h10.4v7.9H543.1z M546,309.4v3.1h4.8v-3.1H546z M548.8,299.4v2.8h5.3v-2.8H548.8z"/>
	<path class="st1" d="M576.2,316.9h16.4v6.1h-25.5v-4.5c2.9-4.4,6.3-8,10.2-10.8c5.4-4.1,7.9-7.1,7.5-9.1c-0.1-3-1.7-4.5-4.7-4.5
		c-3.1-0.1-5.1,1.8-5.8,5.8l-7-1.4c1.4-7,6-10.5,13.9-10.5c7.2,0.3,11,3.6,11.6,9.8c0.5,4.4-2,8.2-7.7,11.4
		C581.5,311.8,578.5,314.4,576.2,316.9z"/>
	<path class="st1" d="M626,305.8c0.2,12-4.2,17.9-13.3,17.7c-8.8-0.2-13.2-6-13.3-17.5c0.3-11.7,4.7-17.7,13.3-18.1
		C621.4,287.9,625.9,293.9,626,305.8z M617.8,305.9c0.1-8.4-1.6-12.6-5-12.3c-3.5-0.1-5.3,4-5.3,12.3c0,8,1.8,12,5.3,12
		C616.3,318,618,314,617.8,305.9z"/>
	<path class="st1" d="M635.6,323.8v-17.4c-0.2,0.3-0.5,0.8-0.8,1.4c-0.8,1.3-1.3,2.2-1.7,2.8c-0.1-0.3-0.2-0.7-0.3-1.3
		c-0.3-1.7-0.5-2.9-0.6-3.7c2.2-4.1,4.1-9.3,5.5-15.5l3.5,0.7c-0.6,2.6-1.4,5.3-2.4,7.9v25H635.6z M642.1,323.8V292h23.1v31.8h-3.4
		v-1.7h-16.3v1.7H642.1z M645.4,295.2v23.9h16.3v-23.9H645.4z M646.8,302.4v-2.8h5.2v-3.2h3.1v3.2h5.2v2.8h-5.2v3.5h3.9v10.3h-11
		v-10.3h3.9v-3.5H646.8z M650.9,308.7v4.6h5.2v-4.6H650.9z"/>
	<path class="st1" d="M672.7,323.4c-0.1-0.4-0.2-1-0.4-1.8c-0.1-0.8-0.2-1.3-0.3-1.7c0.6,0,1.2,0,2,0c1.1,0.1,1.6-0.4,1.5-1.4v-7.6
		l-3.1,1L672,308l3.5-1v-6.8h-3.1v-3.5h3.1v-6.6h3.4v6.6h2.5v3.5h-2.5v5.6l2.5-0.7c0,1.3,0,2.5,0.1,3.7c-0.9,0.3-1.8,0.6-2.7,0.8
		v9.7c0.1,2.4-1.1,3.7-3.5,3.8L672.7,323.4z M686.9,302.3l-0.3-2.1l3.8-0.3v-2h-4.6v6.5c0,5.3-0.2,9.1-0.7,11.7
		c-0.5,2.4-1.5,5-3.1,7.7l-2.7-2.5c1.3-2.1,2.2-4.2,2.7-6.3c0.4-2.1,0.6-5.4,0.6-10v-9.1h8V290h3.5v1.8h10.1v2.1H694v1.8h11.2
		l-0.7,4.4l-3.1-0.4l0.3-1.8h-8.2v1.8l5.9-0.3l0.1,1.7l-6,0.3c-0.2,1.1,0.5,1.6,2.1,1.5h2.4c1.2,0,1.9-0.3,2.1-1
		c0.2-0.6,0.3-1.1,0.3-1.5l3.1,0.8c-0.1,0.7-0.2,1.3-0.4,1.8c-0.6,1.3-2,2-4.2,2h-4.6c-2.6,0-3.9-1-3.9-3.1L686.9,302.3z
		 M687.3,308.4v-2.2h17.6v2.2h-7.2c-0.8,0.6-1.8,1.1-3,1.7c0.7,0.7,1.3,1.4,1.7,2.1c2.1-0.9,4.2-2,6.5-3.1l2,2.1l-3.4,1.7
		c0.7,2.8,2.3,4.9,4.6,6.3c-0.8,0.8-1.4,1.7-2,2.5c-2.6-1.7-4.3-4.3-5.1-7.7c-0.2,0-0.4,0.1-0.7,0.3c-0.4,0.1-0.7,0.2-0.8,0.3
		c0.5,1.2,0.7,2.5,0.7,3.8c0.2,3.4-1.4,5.1-4.8,5.1c-1.1,0-2.2,0-3.1,0c-0.2-1-0.4-1.9-0.7-2.5c0.4,0,0.9,0,1.7,0.1
		c0.7,0,1.1,0,1.3,0c1.7,0.1,2.5-0.8,2.4-2.7c0-0.4,0-0.7,0-1c-1.8,1.4-4.8,3-9.1,4.6c-0.4-0.8-0.8-1.5-1.4-2.2
		c3.7-0.8,7-2.3,10.1-4.4c-0.1-0.2-0.2-0.5-0.3-0.8c-0.2-0.3-0.3-0.5-0.3-0.6c-2.2,1.3-4.5,2.4-7.2,3.4c-0.2-0.6-0.6-1.3-1.1-2.1
		c3-0.7,5.4-1.7,7.3-2.8c-0.3-0.5-0.6-0.8-0.8-1.1c-0.1,0-0.3,0.1-0.6,0.3c-1,0.4-2.5,0.9-4.4,1.5c-0.4-0.8-0.8-1.5-1.1-2.1
		c3.4-0.8,6-1.7,7.9-2.7H687.3z"/>
	<path class="st1" d="M714.1,323.5c-0.3,0-0.7-0.1-1.3-0.3c-0.7-0.1-1.1-0.2-1.4-0.3c0.8-2.2,1.4-4.3,1.7-6l2.5,0.3
		c-0.3,1.4-0.7,3.2-1.3,5.5C714.3,323,714.2,323.3,714.1,323.5z M712.8,304.8v-13.2H728v13.2h-6v2.4h6v2.7h-6v2.5
		c2.5-0.3,4.7-0.4,6.6-0.4c-0.1,0.9-0.1,1.8-0.1,2.7c-0.8,0.1-5.4,0.4-13.8,0.8c-1.4,0.1-2.3,0.1-2.7,0.1l-0.1-2.8l7-0.3v-2.7h-6.2
		v-2.7h6.2v-2.4H712.8z M715.4,294.1v8.2h3.8v-8.2H715.4z M717.2,300.9c-0.1-0.4-0.3-1-0.6-2c-0.4-1.1-0.7-2-0.8-2.5l1.7-0.6
		c0.1,0.4,0.3,1,0.6,1.8c0.4,1.2,0.6,2.1,0.7,2.7L717.2,300.9z M717.5,322.9c-0.1-1-0.3-2.7-0.6-4.9c0.2,1.5,0.1,1.2-0.1-0.8
		l2.4-0.3c0.1,0.6,0.2,1.4,0.3,2.4c0.3,1.6,0.5,2.8,0.6,3.5L717.5,322.9z M722.1,322.4c-0.1-0.7-0.3-1.5-0.6-2.7
		c-0.3-1.2-0.5-2.2-0.7-2.8l2.2-0.3c0.2,0.8,0.5,1.8,1,3.2c0.2,0.9,0.4,1.6,0.6,2.1L722.1,322.4z M725.5,294.1h-3.9v8.2h3.9V294.1z
		 M723.5,301l-1.7-0.7c0.5-1.1,1-2.6,1.5-4.5l1.7,0.6c0,0.1,0,0.2-0.1,0.4C724.4,298.7,723.9,300.2,723.5,301z M726.8,321.7
		c-0.2-0.7-0.6-1.6-1.1-2.8c-0.4-1-0.7-1.8-0.8-2.4l2.2-0.6c0.4,0.8,0.8,1.8,1.4,3.2c0.3,0.7,0.5,1.4,0.7,1.8L726.8,321.7z
		 M729.8,323.6v-17h5.2v-16.5h3.4v6.5h7v3.4h-7v6.6h5.9v17H741v-2.2h-7.7v2.2H729.8z M733.2,310v8.3h7.7V310H733.2z"/>
</g>
<g>
	<path class="st1" d="M215.9,421.4c-0.7-1.3-1.1-2.3-1.4-3c4.7-0.8,8.9-1.7,12.7-2.7l1.5,2.4C225.8,419.1,221.5,420.2,215.9,421.4z
		 M217.1,415.4v-16H245v16H217.1z M219,397.2v-8.2h24.2v8.2H219z M220.8,401.9v2.2h20.5v-2.2H220.8z M220.8,406.2v2.2h20.5v-2.2
		H220.8z M220.8,410.6v2.2h20.5v-2.2H220.8z M222.6,391.6v3.1h16.9v-3.1H222.6z M246.4,421.3c-4.2-1.1-8.5-2.2-12.8-3.1l1.3-2.4
		c5.3,0.9,9.6,1.7,12.8,2.4L246.4,421.3z"/>
	<path class="st1" d="M255.9,394.3v-3.8h29.4v3.8h-12.5v21.1h14.5v3.5h-33.2v-3.5h14.5v-21.1H255.9z"/>
	<path class="st1" d="M324.3,420.6c-8-4.2-12.7-10.3-14.1-18.3c-1.4,7.9-6.2,14.1-14.3,18.7c-0.8-1.2-1.6-2.4-2.7-3.5
		c9-4.6,13.8-11.6,14.5-21.1c0.2-2.2,0.3-5.1,0.3-8.4h4.2c-0.1,0.3-0.1,1.1-0.1,2.5c-0.1,1.1-0.1,2-0.1,2.5
		c0.8,12.2,5.9,20.2,15.2,24C325.9,418.4,325,419.5,324.3,420.6z"/>
	<path class="st1" d="M353,405.2c-0.5-1.3-1-2.4-1.5-3.4c2.5-3.9,4.3-8.7,5.3-14.3l3.4,0.4c-0.6,2.2-1.2,4.3-1.8,6h8.6v3.2h-1.7
		c-0.7,6.8-1.9,11.8-3.8,15c1.4,2.1,3.3,3.8,5.8,5.3c-0.3,0.5-0.7,1.2-1.3,2.2c-0.4,0.5-0.6,0.8-0.7,1.1c-2.3-1.9-4.3-3.8-5.9-5.6
		c-1.6,1.9-3.8,3.9-6.5,6.2c-0.6-0.8-1.2-1.7-2-2.5l-1,1.7c-2.2-0.9-4.1-1.7-5.8-2.4c-2.3,1.4-5.8,2.5-10.4,3.4
		c-0.2-0.8-0.6-1.6-1.1-2.7c3.2-0.5,5.8-1.1,7.9-1.8l-2.7-0.7c-0.3,0.3-0.6,0.5-0.8,0.7l-2.7-1c0.1-0.1,0.2-0.2,0.3-0.4
		c0.7-0.7,1.5-1.7,2.4-2.8h-3.8v-2.4h5.6c0.6-0.7,1-1.3,1.4-1.8h-5.6v-6.2h6.8v-1.8h-6.8v-3.9h-1.7v-2.7h1.7v-3.9h6.8v-2.4h3.2v2.4
		h6.8v3.9h1.8v2.7h-1.8v3.9h-6.8v1.8h6.8v6.2h-8.6h1c0,0.1,0,0.2-0.1,0.3c-0.2,0.3-0.6,0.8-1.1,1.5h10.4v2.4H350
		c-0.8,1.4-1.9,2.7-3.2,3.8c1.7,0.3,3.2,0.7,4.5,1.3c2.6-1.8,4.7-3.7,6.2-5.8c-1.5-2.9-2.5-6.1-3-9.6c-0.2,0.3-0.4,0.7-0.7,1.3
		C353.4,404.5,353.1,405,353,405.2z M337.5,392.4v2h3.8v-2H337.5z M337.5,396.5v2.1h3.8v-2.1H337.5z M337.5,404.5v2.1h3.8v-2.1
		H337.5z M339.5,414.4c0.5,0.1,1.1,0.3,2,0.6c0.9,0.3,1.6,0.5,2,0.7c1.1-0.8,2.1-1.7,2.8-2.7h-5.6L339.5,414.4z M348.3,392.4h-3.8v2
		h3.8V392.4z M344.5,396.5v2.1h3.8v-2.1H344.5z M348.5,404.5h-3.9v2.1h3.9V404.5z M359.4,408.9c1.2-2.7,2.1-6.6,2.5-11.7h-4.8
		l-0.3,0.7C357.3,402.4,358.1,406.1,359.4,408.9z"/>
	<path class="st1" d="M383.7,393.1v-2.7h8v-2.8h3.7v2.8h8.2v2.7h-8.2v2.4h10v2.7h-4.9l0.8,0.1l-2.1,3.4h5.8v2.7h-9.6v2.1h8.2v2.5
		h-8.2v2.2h10.1v2.5h-10.1v3.4c1.4,0,3.5,0,6.3,0c2.3,0,4,0,4.9,0c-0.6,1.3-0.9,2.4-1.1,3.2c-5.3,0-9.1,0-11.7,0
		c-2.8-0.1-5.1-0.2-6.9-0.3c-3.8,0-6.7-1.2-8.9-3.7c-1.4,1.2-2.8,2.7-4.1,4.4l-1.8-3.7c1.7-1.4,3-2.6,4.1-3.7v-6.3h-3.7v-3.4h7.2
		v9.6c1.7,2.6,4.4,3.9,8,3.8c0.3,0,0.8,0,1.5,0c1,0,1.8,0,2.4,0v-3.4h-10v-2.5h10V409h-7.9v-2.5h7.9v-2.1h-9.3v-2.7h5.6
		c-0.2-0.3-0.5-0.7-1-1.4c-0.7-1-1.1-1.7-1.3-2.1h0.4h-4.4v-2.7h9.8v-2.4H383.7z M378.5,402.9c-2.2-1.7-4.4-3.2-6.3-4.5l2.2-2.5
		c2.5,1.6,4.7,3,6.5,4.2L378.5,402.9z M379.5,395.7c-2.2-1.7-4.3-3.2-6.2-4.5l2.1-2.5c2.5,1.6,4.7,3,6.5,4.2L379.5,395.7z
		 M389.6,398.2l2.2,3.5h3.5c0.7-1.2,1.5-2.4,2.1-3.5H389.6z"/>
	<path class="st1" d="M430.7,420.5h-7.7v-24.1c-3.4,2.5-7.1,4.4-10.9,5.6v-6.6c5.5-2.1,9.7-5.3,12.7-9.5h5.9V420.5z"/>
	<path class="st1" d="M466.3,403.3c0.2,12-4.2,17.9-13.3,17.7c-8.8-0.2-13.2-6-13.3-17.5c0.3-11.7,4.7-17.7,13.3-18.1
		C461.8,385.4,466.2,391.4,466.3,403.3z M458.2,403.4c0.1-8.4-1.6-12.6-5-12.3c-3.5-0.1-5.3,4-5.3,12.3c0,8,1.8,12,5.3,12
		C456.6,415.5,458.3,411.5,458.2,403.4z"/>
	<path class="st1" d="M499.7,403.3c0.2,12-4.2,17.9-13.3,17.7c-8.8-0.2-13.2-6-13.3-17.5c0.3-11.7,4.7-17.7,13.3-18.1
		C495.2,385.4,499.6,391.4,499.7,403.3z M491.6,403.4c0.1-8.4-1.6-12.6-5-12.3c-3.5-0.1-5.3,4-5.3,12.3c0,8,1.8,12,5.3,12
		C490,415.5,491.7,411.5,491.6,403.4z"/>
	<path class="st1" d="M533.1,403.3c0.2,12-4.2,17.9-13.3,17.7c-8.8-0.2-13.2-6-13.3-17.5c0.3-11.7,4.7-17.7,13.3-18.1
		C528.5,385.4,533,391.4,533.1,403.3z M524.9,403.4c0.1-8.4-1.6-12.6-5-12.3c-3.5-0.1-5.3,4-5.3,12.3c0,8,1.8,12,5.3,12
		C523.4,415.5,525,411.5,524.9,403.4z"/>
	<path class="st1" d="M566.4,403.3c0.2,12-4.2,17.9-13.3,17.7c-8.8-0.2-13.2-6-13.3-17.5c0.3-11.7,4.7-17.7,13.3-18.1
		C561.9,385.4,566.3,391.4,566.4,403.3z M558.3,403.4c0.1-8.4-1.6-12.6-5-12.3c-3.5-0.1-5.3,4-5.3,12.3c0,8,1.8,12,5.3,12
		C556.7,415.5,558.4,411.5,558.3,403.4z"/>
	<path class="st1" d="M603.9,420.6c-8-4.2-12.7-10.3-14.1-18.3c-1.4,7.9-6.2,14.1-14.3,18.7c-0.8-1.2-1.6-2.4-2.7-3.5
		c9-4.6,13.8-11.6,14.5-21.1c0.2-2.2,0.3-5.1,0.3-8.4h4.2c-0.1,0.3-0.1,1.1-0.1,2.5c-0.1,1.1-0.1,2-0.1,2.5
		c0.8,12.2,5.9,20.2,15.2,24C605.5,418.4,604.6,419.5,603.9,420.6z"/>
</g>
<g>
	<g>
		<g id="XMLID_4_">
			<g>
				<g>
					<linearGradient id="SVGID_1_" gradientUnits="userSpaceOnUse" x1="262.6787" y1="306.4515" x2="262.6787" y2="338.8032">
						<stop  offset="0" style="stop-color:#70B6E6"/>
						<stop  offset="0.9936" style="stop-color:#0061DC"/>
					</linearGradient>
					<polygon class="st2" points="267.2,319.4 267.2,319.7 258.2,319.7 258.2,294.5 258.2,294.5 258.2,294.5 261.4,295.7 
						263.4,296.5 267.2,297.9 267.2,298.7 267.2,300.5 267.2,304.1 267.2,305.8 267.2,309.5 267.2,311.2 267.2,314.8 267.2,316.5 
											"/>
				</g>
				<g>
					<linearGradient id="SVGID_2_" gradientUnits="userSpaceOnUse" x1="284.4164" y1="288.8729" x2="284.4164" y2="347.7075">
						<stop  offset="0" style="stop-color:#70B6E6"/>
						<stop  offset="0.9936" style="stop-color:#0061DC"/>
					</linearGradient>
					<polygon class="st3" points="293.3,274.4 293.3,319.7 275.5,319.7 275.5,267.7 					"/>
				</g>
				<g>
					<linearGradient id="SVGID_3_" gradientUnits="userSpaceOnUse" x1="249.3711" y1="267.0747" x2="249.3711" y2="337.1917">
						<stop  offset="0" style="stop-color:#70B6E6"/>
						<stop  offset="0.9936" style="stop-color:#0061DC"/>
					</linearGradient>
					<polygon class="st4" points="256.5,251 256.5,277.2 253.2,278.8 253.2,297 247,300.3 247,319.7 242.2,319.7 242.2,245.7 
						243,245.9 243.5,246.1 244,246.3 244.3,246.4 244.8,246.6 245.3,246.8 245.6,246.9 246.1,247.1 246.6,247.3 246.9,247.4 
						247.4,247.6 247.9,247.8 248.2,247.9 248.7,248.1 249.2,248.3 249.5,248.4 250,248.6 250.5,248.8 250.8,248.9 251.3,249.1 
						251.8,249.2 252.1,249.3 252.6,249.5 253.1,249.7 253.4,249.8 253.9,250 254.4,250.2 254.7,250.3 255.2,250.5 255.7,250.7 
											"/>
				</g>
				<g>
					<linearGradient id="SVGID_4_" gradientUnits="userSpaceOnUse" x1="264.3636" y1="275.22" x2="264.3636" y2="318.5087">
						<stop  offset="0" style="stop-color:#0090E5"/>
						<stop  offset="0.9839" style="stop-color:#0047B3"/>
					</linearGradient>
					<polygon class="st5" points="275.5,267.7 275.5,319.7 267.2,319.7 267.2,319.4 267.2,316.5 267.2,314.8 267.2,311.2 
						267.2,309.5 267.2,305.8 267.2,304.1 267.2,300.5 267.2,298.7 267.2,297.9 263.4,296.5 261.4,295.7 258.2,294.5 258.2,294.5 
						258.2,294.5 253.2,297 253.2,278.8 256.5,277.2 					"/>
				</g>
				<g>
					<linearGradient id="SVGID_5_" gradientUnits="userSpaceOnUse" x1="252.5919" y1="295.5527" x2="252.5919" y2="307.5005">
						<stop  offset="0" style="stop-color:#0090E5"/>
						<stop  offset="0.9839" style="stop-color:#0047B3"/>
					</linearGradient>
					<polygon class="st6" points="253.2,297 258.2,294.5 258.2,319.7 247,319.7 247,300.3 					"/>
				</g>
				<g>
					<linearGradient id="SVGID_6_" gradientUnits="userSpaceOnUse" x1="233.3155" y1="253.9469" x2="233.3155" y2="314.8856">
						<stop  offset="0" style="stop-color:#0090E5"/>
						<stop  offset="0.9839" style="stop-color:#0047B3"/>
					</linearGradient>
					<polygon class="st7" points="242.2,245.7 242.2,319.7 224.4,319.7 224.4,254.6 					"/>
				</g>
			</g>
		</g>
		<g>
			<g>
				<g>
					<path class="st8" d="M239.4,251c-4.4,2.2-8.8,4.3-13.2,6.5v1c4.4-2,8.8-3.9,13.2-5.9V251z"/>
				</g>
			</g>
			<g>
				<g>
					<path class="st8" d="M239.4,255.5c-4.4,2-8.8,4-13.2,6v1c4.4-1.8,8.8-3.6,13.2-5.4V255.5z"/>
				</g>
			</g>
			<g>
				<g>
					<path class="st8" d="M239.4,260c-4.4,1.9-8.8,3.7-13.2,5.6v1c4.4-1.7,8.8-3.3,13.2-5V260z"/>
				</g>
			</g>
			<g>
				<g>
					<path class="st8" d="M239.4,314.2c-4.4,0.2-8.8,0.4-13.2,0.6v1c1.4,0,2.8,0,4.2,0c2.6,0,5.2-0.1,7.9-0.1c0.4,0,0.8,0,1.1,0
						V314.2z"/>
				</g>
			</g>
			<g>
				<g>
					<path class="st8" d="M239.4,309.7c-4.4,0.3-8.8,0.7-13.2,1v1c1.7-0.1,3.4-0.1,5.1-0.2c2.7-0.1,5.4-0.2,8.1-0.3V309.7z"/>
				</g>
			</g>
			<g>
				<g>
					<path class="st8" d="M239.4,264.5c-4.4,1.7-8.8,3.4-13.2,5.2v1c4.4-1.5,8.8-3,13.2-4.6V264.5z"/>
				</g>
			</g>
			<g>
				<g>
					<path class="st8" d="M239.4,305.2c-4.4,0.5-8.8,1-13.2,1.4v1c4.4-0.3,8.8-0.6,13.2-0.9V305.2z"/>
				</g>
			</g>
			<g>
				<g>
					<path class="st8" d="M239.4,269c-4.4,1.6-8.8,3.1-13.2,4.7v1c4.4-1.4,8.8-2.8,13.2-4.1V269z"/>
				</g>
			</g>
			<g>
				<g>
					<path class="st8" d="M239.4,300.7c-4.4,0.6-8.8,1.2-13.2,1.8v1c4.4-0.4,8.8-0.9,13.2-1.3V300.7z"/>
				</g>
			</g>
			<g>
				<g>
					<path class="st8" d="M239.4,296.1c-4.4,0.7-8.8,1.5-13.2,2.2v1c4.4-0.6,8.8-1.1,13.2-1.7V296.1z"/>
				</g>
			</g>
			<g>
				<g>
					<path class="st8" d="M239.4,278c-4.4,1.3-8.8,2.6-13.2,3.9v1c4.4-1.1,8.8-2.2,13.2-3.3V278z"/>
				</g>
			</g>
			<g>
				<g>
					<path class="st8" d="M239.4,273.5c-4.4,1.4-8.8,2.9-13.2,4.3v1c4.4-1.2,8.8-2.5,13.2-3.7V273.5z"/>
				</g>
			</g>
			<g>
				<g>
					<path class="st8" d="M239.4,282.6c-4.4,1.2-8.8,2.3-13.2,3.5v1c4.4-1,8.8-1.9,13.2-2.9V282.6z"/>
				</g>
			</g>
			<g>
				<g>
					<path class="st8" d="M239.4,291.6c-4.4,0.9-8.8,1.8-13.2,2.6v1c4.4-0.7,8.8-1.4,13.2-2.1V291.6z"/>
				</g>
			</g>
			<g>
				<g>
					<path class="st8" d="M239.4,287.1c-4.4,1-8.8,2-13.2,3v1c4.4-0.8,8.8-1.7,13.2-2.5V287.1z"/>
				</g>
			</g>
		</g>
		<g>
			<path class="st8" d="M272,274.4c-5.5,2.7-11,5.4-16.5,8.1v1.3c4.3-1.9,9.7-4.3,16.5-7.3V274.4z"/>
			<path class="st8" d="M272,280c-5.5,2.5-11,5-16.5,7.5v1.3c5.5-2.3,11-4.5,16.5-6.8V280z"/>
			<path class="st8" d="M272,285.6c-5.5,2.3-11,4.7-16.5,7v1.2c5.5-2.1,11-4.2,16.5-6.2V285.6z"/>
			<path class="st8" d="M272,291.2v2c-2.5,0.9-5,1.7-7.5,2.6l-2.1-0.8C265.5,293.7,268.7,292.5,272,291.2z"/>
			<path class="st8" d="M272,296.9v2c-1.2,0.4-2.3,0.7-3.5,1.1v-1.8C269.6,297.7,270.8,297.3,272,296.9z"/>
			<path class="st8" d="M272,308.1v1.9c-1.2,0.3-2.3,0.6-3.5,0.9v-1.8C269.6,308.8,270.8,308.5,272,308.1z"/>
			<path class="st8" d="M272,302.5v1.9c-1.2,0.3-2.3,0.7-3.5,1v-1.8C269.6,303.3,270.8,302.9,272,302.5z"/>
			<path class="st8" d="M268.5,316.5c1.2-0.3,2.3-0.5,3.5-0.8v-1.9c-1.2,0.3-2.3,0.6-3.5,0.9V316.5z"/>
		</g>
		<g>
			<g>
				<g>
					<path class="st8" d="M256.4,297.9c-2.8,1.4-5.5,2.8-8.3,4.2v0.7c2.8-1.3,5.5-2.5,8.3-3.8V297.9z"/>
				</g>
			</g>
			<g>
				<g>
					<path class="st8" d="M256.4,300.9c-2.8,1.3-5.5,2.6-8.3,3.9v0.7c2.8-1.2,5.5-2.4,8.3-3.5V300.9z"/>
				</g>
			</g>
			<g>
				<g>
					<path class="st8" d="M256.4,303.8c-2.8,1.2-5.5,2.4-8.3,3.6v0.6c2.8-1.1,5.5-2.2,8.3-3.2V303.8z"/>
				</g>
			</g>
			<g>
				<g>
					<path class="st8" d="M256.4,306.7c-2.8,1.1-5.5,2.2-8.3,3.4v0.6c2.8-1,5.5-2,8.3-3V306.7z"/>
				</g>
			</g>
			<g>
				<g>
					<path class="st8" d="M256.4,309.6c-2.8,1-5.5,2-8.3,3.1v0.6c2.8-0.9,5.5-1.8,8.3-2.7V309.6z"/>
				</g>
			</g>
			<g>
				<g>
					<path class="st8" d="M256.4,315.5c-2.8,0.8-5.5,1.7-8.3,2.5v0.6c2.8-0.7,5.5-1.4,8.3-2.1V315.5z"/>
				</g>
			</g>
			<g>
				<g>
					<path class="st8" d="M256.4,312.6c-2.8,0.9-5.5,1.9-8.3,2.8v0.6c2.8-0.8,5.5-1.6,8.3-2.4V312.6z"/>
				</g>
			</g>
		</g>
		<g>
			<g>
				<linearGradient id="SVGID_7_" gradientUnits="userSpaceOnUse" x1="243.4935" y1="269.709" x2="243.4935" y2="242.985">
					<stop  offset="0" style="stop-color:#70B6E6"/>
					<stop  offset="0.9936" style="stop-color:#0061DC"/>
				</linearGradient>
				<polygon class="st9" points="244,247.4 243.5,266.4 243,247 243.5,247.2 				"/>
			</g>
			<g>
				<linearGradient id="SVGID_8_" gradientUnits="userSpaceOnUse" x1="244.7907" y1="269.7088" x2="244.7907" y2="242.984">
					<stop  offset="0" style="stop-color:#70B6E6"/>
					<stop  offset="0.9936" style="stop-color:#0061DC"/>
				</linearGradient>
				<polygon class="st10" points="244.8,247.7 245.3,247.9 244.8,266.9 244.3,247.5 				"/>
			</g>
			<g>
				<linearGradient id="SVGID_9_" gradientUnits="userSpaceOnUse" x1="246.0911" y1="269.7086" x2="246.0911" y2="242.9841">
					<stop  offset="0" style="stop-color:#70B6E6"/>
					<stop  offset="0.9936" style="stop-color:#0061DC"/>
				</linearGradient>
				<polygon class="st11" points="246.6,248.4 246.1,267.4 245.6,248 246.1,248.2 				"/>
			</g>
			<g>
				<linearGradient id="SVGID_10_" gradientUnits="userSpaceOnUse" x1="247.3886" y1="269.7082" x2="247.3886" y2="242.9852">
					<stop  offset="0" style="stop-color:#70B6E6"/>
					<stop  offset="0.9936" style="stop-color:#0061DC"/>
				</linearGradient>
				<polygon class="st12" points="247.9,248.8 247.4,267.9 246.9,248.5 247.4,248.7 				"/>
			</g>
			<g>
				<linearGradient id="SVGID_11_" gradientUnits="userSpaceOnUse" x1="248.6898" y1="269.7083" x2="248.6898" y2="242.9852">
					<stop  offset="0" style="stop-color:#70B6E6"/>
					<stop  offset="0.9936" style="stop-color:#0061DC"/>
				</linearGradient>
				<polygon class="st13" points="249.2,249.3 248.7,268.3 248.2,248.9 248.7,249.1 				"/>
			</g>
			<g>
				<linearGradient id="SVGID_12_" gradientUnits="userSpaceOnUse" x1="249.9862" y1="269.707" x2="249.9862" y2="242.9836">
					<stop  offset="0" style="stop-color:#70B6E6"/>
					<stop  offset="0.9936" style="stop-color:#0061DC"/>
				</linearGradient>
				<polygon class="st14" points="250.5,249.8 250,268.8 249.5,249.4 250,249.6 				"/>
			</g>
			<g>
				<linearGradient id="SVGID_13_" gradientUnits="userSpaceOnUse" x1="251.2877" y1="269.7083" x2="251.2877" y2="242.9849">
					<stop  offset="0" style="stop-color:#70B6E6"/>
					<stop  offset="0.9936" style="stop-color:#0061DC"/>
				</linearGradient>
				<polygon class="st15" points="251.8,250.3 251.3,269.3 250.8,249.9 251.3,250.1 				"/>
			</g>
			<g>
				<linearGradient id="SVGID_14_" gradientUnits="userSpaceOnUse" x1="252.5855" y1="269.709" x2="252.5855" y2="242.9846">
					<stop  offset="0" style="stop-color:#70B6E6"/>
					<stop  offset="0.9936" style="stop-color:#0061DC"/>
				</linearGradient>
				<polygon class="st16" points="253.1,250.8 252.6,269.8 252.1,250.4 252.6,250.6 				"/>
			</g>
			<g>
				<linearGradient id="SVGID_15_" gradientUnits="userSpaceOnUse" x1="253.8859" y1="269.7074" x2="253.8859" y2="242.9836">
					<stop  offset="0" style="stop-color:#70B6E6"/>
					<stop  offset="0.9936" style="stop-color:#0061DC"/>
				</linearGradient>
				<polygon class="st17" points="254.4,251.3 253.9,270.3 253.4,250.9 253.9,251.1 				"/>
			</g>
			<g>
				<linearGradient id="SVGID_16_" gradientUnits="userSpaceOnUse" x1="255.1852" y1="269.7072" x2="255.1852" y2="242.9864">
					<stop  offset="0" style="stop-color:#70B6E6"/>
					<stop  offset="0.9936" style="stop-color:#0061DC"/>
				</linearGradient>
				<polygon class="st18" points="255.7,251.8 255.2,270.7 254.7,251.4 255.2,251.6 				"/>
			</g>
		</g>
		<g>
			<g>
				<linearGradient id="SVGID_17_" gradientUnits="userSpaceOnUse" x1="276.9734" y1="298.774" x2="276.9734" y2="263.2946">
					<stop  offset="0" style="stop-color:#70B6E6"/>
					<stop  offset="0.9936" style="stop-color:#0061DC"/>
				</linearGradient>
				<polygon class="st19" points="277.6,270 277,294.2 276.3,269.5 277,269.7 				"/>
			</g>
			<g>
				<linearGradient id="SVGID_18_" gradientUnits="userSpaceOnUse" x1="278.6222" y1="298.7731" x2="278.6222" y2="263.2988">
					<stop  offset="0" style="stop-color:#70B6E6"/>
					<stop  offset="0.9936" style="stop-color:#0061DC"/>
				</linearGradient>
				<polygon class="st20" points="278.6,270.4 279.3,270.6 278.6,294.8 278,270.1 				"/>
			</g>
			<g>
				<linearGradient id="SVGID_19_" gradientUnits="userSpaceOnUse" x1="280.2774" y1="298.7728" x2="280.2774" y2="263.2967">
					<stop  offset="0" style="stop-color:#70B6E6"/>
					<stop  offset="0.9936" style="stop-color:#0061DC"/>
				</linearGradient>
				<polygon class="st21" points="280.9,271.2 280.3,295.4 279.6,270.7 280.3,271 				"/>
			</g>
			<g>
				<linearGradient id="SVGID_20_" gradientUnits="userSpaceOnUse" x1="281.9264" y1="298.7749" x2="281.9264" y2="263.2944">
					<stop  offset="0" style="stop-color:#70B6E6"/>
					<stop  offset="0.9936" style="stop-color:#0061DC"/>
				</linearGradient>
				<polygon class="st22" points="282.6,271.8 281.9,296 281.3,271.3 281.9,271.6 				"/>
			</g>
			<g>
				<linearGradient id="SVGID_21_" gradientUnits="userSpaceOnUse" x1="283.5797" y1="298.7739" x2="283.5797" y2="263.2974">
					<stop  offset="0" style="stop-color:#70B6E6"/>
					<stop  offset="0.9936" style="stop-color:#0061DC"/>
				</linearGradient>
				<polygon class="st23" points="284.2,272.5 283.6,296.6 282.9,272 283.6,272.2 				"/>
			</g>
			<g>
				<linearGradient id="SVGID_22_" gradientUnits="userSpaceOnUse" x1="285.2303" y1="298.7728" x2="285.2303" y2="263.2982">
					<stop  offset="0" style="stop-color:#70B6E6"/>
					<stop  offset="0.9936" style="stop-color:#0061DC"/>
				</linearGradient>
				<polygon class="st24" points="285.9,273.1 285.2,297.2 284.6,272.6 285.2,272.8 				"/>
			</g>
			<g>
				<linearGradient id="SVGID_23_" gradientUnits="userSpaceOnUse" x1="286.8836" y1="298.7742" x2="286.8836" y2="263.2941">
					<stop  offset="0" style="stop-color:#70B6E6"/>
					<stop  offset="0.9936" style="stop-color:#0061DC"/>
				</linearGradient>
				<polygon class="st25" points="287.5,273.7 286.9,297.8 286.2,273.2 286.9,273.5 				"/>
			</g>
			<g>
				<linearGradient id="SVGID_24_" gradientUnits="userSpaceOnUse" x1="288.5332" y1="298.7738" x2="288.5332" y2="263.2964">
					<stop  offset="0" style="stop-color:#70B6E6"/>
					<stop  offset="0.9936" style="stop-color:#0061DC"/>
				</linearGradient>
				<polygon class="st26" points="289.2,274.3 288.5,298.5 287.9,273.8 288.5,274.1 				"/>
			</g>
			<g>
				<linearGradient id="SVGID_25_" gradientUnits="userSpaceOnUse" x1="290.1886" y1="298.7738" x2="290.1886" y2="263.2961">
					<stop  offset="0" style="stop-color:#70B6E6"/>
					<stop  offset="0.9936" style="stop-color:#0061DC"/>
				</linearGradient>
				<polygon class="st27" points="290.8,274.9 290.2,299.1 289.5,274.4 290.2,274.7 				"/>
			</g>
			<g>
				<linearGradient id="SVGID_26_" gradientUnits="userSpaceOnUse" x1="291.8402" y1="298.773" x2="291.8402" y2="263.2979">
					<stop  offset="0" style="stop-color:#70B6E6"/>
					<stop  offset="0.9936" style="stop-color:#0061DC"/>
				</linearGradient>
				<polygon class="st28" points="292.5,275.6 291.8,299.7 291.2,275.1 291.8,275.3 				"/>
			</g>
		</g>
		<g>
			<g>
				<linearGradient id="SVGID_27_" gradientUnits="userSpaceOnUse" x1="259.6905" y1="308.4427" x2="259.6905" y2="290.7926">
					<stop  offset="0" style="stop-color:#70B6E6"/>
					<stop  offset="0.9936" style="stop-color:#0061DC"/>
				</linearGradient>
				<polygon class="st29" points="260,296.2 259.7,306.7 259.4,296 259.7,296.1 				"/>
			</g>
			<g>
				<linearGradient id="SVGID_28_" gradientUnits="userSpaceOnUse" x1="260.4082" y1="308.4421" x2="260.4082" y2="290.7904">
					<stop  offset="0" style="stop-color:#70B6E6"/>
					<stop  offset="0.9936" style="stop-color:#0061DC"/>
				</linearGradient>
				<polygon class="st30" points="260.4,296.3 260.7,296.4 260.4,307 260.1,296.2 				"/>
			</g>
			<g>
				<linearGradient id="SVGID_29_" gradientUnits="userSpaceOnUse" x1="261.1288" y1="308.4436" x2="261.1288" y2="290.7919">
					<stop  offset="0" style="stop-color:#70B6E6"/>
					<stop  offset="0.9936" style="stop-color:#0061DC"/>
				</linearGradient>
				<polygon class="st31" points="261.4,296.7 261.1,307.3 260.8,296.5 261.1,296.6 				"/>
			</g>
			<g>
				<linearGradient id="SVGID_30_" gradientUnits="userSpaceOnUse" x1="261.8467" y1="308.4436" x2="261.8467" y2="290.7901">
					<stop  offset="0" style="stop-color:#70B6E6"/>
					<stop  offset="0.9936" style="stop-color:#0061DC"/>
				</linearGradient>
				<polygon class="st32" points="262.1,297 261.8,307.5 261.6,296.8 261.8,296.9 				"/>
			</g>
			<g>
				<linearGradient id="SVGID_31_" gradientUnits="userSpaceOnUse" x1="262.5669" y1="308.4416" x2="262.5669" y2="290.7927">
					<stop  offset="0" style="stop-color:#70B6E6"/>
					<stop  offset="0.9936" style="stop-color:#0061DC"/>
				</linearGradient>
				<polygon class="st33" points="262.9,297.3 262.6,307.8 262.3,297 262.6,297.1 				"/>
			</g>
			<g>
				<linearGradient id="SVGID_32_" gradientUnits="userSpaceOnUse" x1="263.2845" y1="308.444" x2="263.2845" y2="290.7887">
					<stop  offset="0" style="stop-color:#70B6E6"/>
					<stop  offset="0.9936" style="stop-color:#0061DC"/>
				</linearGradient>
				<polygon class="st34" points="263.6,297.5 263.3,308 263,297.3 263.3,297.4 				"/>
			</g>
			<g>
				<linearGradient id="SVGID_33_" gradientUnits="userSpaceOnUse" x1="264.0049" y1="308.4437" x2="264.0049" y2="290.7914">
					<stop  offset="0" style="stop-color:#70B6E6"/>
					<stop  offset="0.9936" style="stop-color:#0061DC"/>
				</linearGradient>
				<polygon class="st35" points="264.3,297.8 264,308.3 263.7,297.6 264,297.7 				"/>
			</g>
			<g>
				<linearGradient id="SVGID_34_" gradientUnits="userSpaceOnUse" x1="264.7231" y1="308.4415" x2="264.7231" y2="290.7934">
					<stop  offset="0" style="stop-color:#70B6E6"/>
					<stop  offset="0.9936" style="stop-color:#0061DC"/>
				</linearGradient>
				<polygon class="st36" points="265,298.1 264.7,308.6 264.4,297.9 264.7,298 				"/>
			</g>
			<g>
				<linearGradient id="SVGID_35_" gradientUnits="userSpaceOnUse" x1="265.4432" y1="308.4425" x2="265.4432" y2="290.7908">
					<stop  offset="0" style="stop-color:#70B6E6"/>
					<stop  offset="0.9936" style="stop-color:#0061DC"/>
				</linearGradient>
				<polygon class="st37" points="265.7,298.3 265.4,308.8 265.2,298.1 265.4,298.2 				"/>
			</g>
			<g>
				<linearGradient id="SVGID_36_" gradientUnits="userSpaceOnUse" x1="266.1622" y1="308.4435" x2="266.1622" y2="290.7935">
					<stop  offset="0" style="stop-color:#70B6E6"/>
					<stop  offset="0.9936" style="stop-color:#0061DC"/>
				</linearGradient>
				<polygon class="st38" points="266.4,298.6 266.2,309.1 265.9,298.4 266.2,298.5 				"/>
			</g>
		</g>
	</g>
	<radialGradient id="SVGID_37_" cx="259.1016" cy="320.3787" r="48.6357" gradientUnits="userSpaceOnUse">
		<stop  offset="0" style="stop-color:#70B6E6"/>
		<stop  offset="0.9936" style="stop-color:#0061DC"/>
	</radialGradient>
	<path class="st39" d="M298.7,318l4.1,0.9l4.1,1l8.3,1.9c0.3,0.1,0.4,0.3,0.4,0.6c-0.1,0.2-0.2,0.4-0.5,0.4l0,0
		c-1.2,0-2.4,0.1-3.6,0l-3.6,0h-7.1h-14.3h-28.5v-1.1h1.9v1.1h-28.5h-14.3h-7.1l-3.6,0c-1.2,0-2.4,0-3.6-0.1h0
		c-0.3,0-0.5-0.2-0.5-0.5c0-0.2,0.2-0.4,0.4-0.5l8.3-1.9c2.8-0.6,5.5-1.3,8.3-1.9c-2.7,0.8-5.4,1.6-8.2,2.4l-8.2,2.4l-0.1-0.9
		c1.2,0,2.4-0.1,3.6-0.1l3.6,0h7.1h14.3H260v1.1h-1.9v-1.1h28.5h14.3h7.1l3.6,0c1.2,0,2.4,0,3.6,0l-0.1,1l-8.2-2.4l-4.1-1.2
		L298.7,318z"/>
	<g>
		<linearGradient id="SVGID_38_" gradientUnits="userSpaceOnUse" x1="217.8064" y1="333.1244" x2="227.5062" y2="333.1244">
			<stop  offset="0" style="stop-color:#70B6E6"/>
			<stop  offset="0.9936" style="stop-color:#0061DC"/>
		</linearGradient>
		<path class="st40" d="M221.5,338.7h-3.7v-11.2h3.5c4,0,6.1,1.9,6.2,5.5C227.6,337,225.6,338.9,221.5,338.7z M221.3,329.6h-0.9v7.1
			h0.9c2.3,0,3.5-1.2,3.5-3.7C224.7,330.8,223.6,329.6,221.3,329.6z"/>
		<linearGradient id="SVGID_39_" gradientUnits="userSpaceOnUse" x1="229.9486" y1="333.1211" x2="241.4785" y2="333.1211">
			<stop  offset="0" style="stop-color:#70B6E6"/>
			<stop  offset="0.9936" style="stop-color:#0061DC"/>
		</linearGradient>
		<path class="st41" d="M241.5,338.7h-2.8l-0.9-2.4h-4.3l-0.8,2.4h-2.8l4.2-11.2h3.1L241.5,338.7z M237.3,334.3l-1.4-3.9
			c-0.1-0.1-0.1-0.3-0.2-0.6c0-0.1-0.1-0.2-0.1-0.3c0,0.1-0.1,0.2-0.1,0.4c-0.1,0.3-0.1,0.5-0.2,0.6l-1.3,3.8H237.3z"/>
		<linearGradient id="SVGID_40_" gradientUnits="userSpaceOnUse" x1="243.0601" y1="333.1211" x2="254.488" y2="333.1211">
			<stop  offset="0" style="stop-color:#70B6E6"/>
			<stop  offset="0.9936" style="stop-color:#0061DC"/>
		</linearGradient>
		<path class="st42" d="M254.5,327.5l-4.2,11.2h-2.9l-4.3-11.2h2.8l2.7,7.9c0.1,0.3,0.2,0.6,0.4,1c0,0.1,0.1,0.2,0.1,0.2
			c0-0.1,0-0.2,0.1-0.3c0.1-0.2,0.2-0.5,0.3-0.9l2.5-7.9H254.5z"/>
		<linearGradient id="SVGID_41_" gradientUnits="userSpaceOnUse" x1="260.5591" y1="333.1211" x2="263.11" y2="333.1211">
			<stop  offset="0" style="stop-color:#70B6E6"/>
			<stop  offset="0.9936" style="stop-color:#0061DC"/>
		</linearGradient>
		<path class="st43" d="M263.1,338.7h-2.6v-11.2h2.6V338.7z"/>
		<linearGradient id="SVGID_42_" gradientUnits="userSpaceOnUse" x1="269.8953" y1="333.1211" x2="279.8947" y2="333.1211">
			<stop  offset="0" style="stop-color:#70B6E6"/>
			<stop  offset="0.9936" style="stop-color:#0061DC"/>
		</linearGradient>
		<path class="st44" d="M279.9,338.7h-2.6l-4.4-7c0-0.1-0.1-0.3-0.3-0.6c-0.1-0.2-0.2-0.4-0.3-0.5c0,0.5,0.1,1.1,0.1,1.9v6.1h-2.4
			v-11.2h2.8l4.3,6.9c0.3,0.4,0.5,0.7,0.6,1.1c0-0.4-0.1-1-0.1-1.7v-6.3h2.4V338.7z"/>
		<linearGradient id="SVGID_43_" gradientUnits="userSpaceOnUse" x1="282.8027" y1="333.1465" x2="293.1083" y2="333.1465">
			<stop  offset="0" style="stop-color:#70B6E6"/>
			<stop  offset="0.9936" style="stop-color:#0061DC"/>
		</linearGradient>
		<path class="st45" d="M293,330.8l-2.4,0.5c-0.3-1.2-1.1-1.8-2.3-1.8c-1.7,0.1-2.6,1.3-2.7,3.6c0.1,2.3,1,3.6,2.8,3.7
			c1.4,0,2.2-0.8,2.4-2.4l2.4,0.8c-0.5,2.5-2.2,3.7-4.8,3.8c-3.5-0.1-5.3-2.1-5.5-5.8c0.2-3.6,2-5.6,5.4-5.8
			C290.7,327.5,292.3,328.6,293,330.8z"/>
		<linearGradient id="SVGID_44_" gradientUnits="userSpaceOnUse" x1="299.7405" y1="333.1211" x2="302.2914" y2="333.1211">
			<stop  offset="0" style="stop-color:#70B6E6"/>
			<stop  offset="0.9936" style="stop-color:#0061DC"/>
		</linearGradient>
		<path class="st46" d="M302.3,338.7h-2.6v-11.2h2.6V338.7z"/>
	</g>
	<g>
		<linearGradient id="SVGID_45_" gradientUnits="userSpaceOnUse" x1="223.0548" y1="346.899" x2="229.3462" y2="346.899">
			<stop  offset="0" style="stop-color:#70B6E6"/>
			<stop  offset="0.9936" style="stop-color:#0061DC"/>
		</linearGradient>
		<path class="st47" d="M225.3,349.7h4v1.5h-6.2v-1.1c0.7-1.1,1.5-2,2.5-2.6c1.3-1,1.9-1.7,1.8-2.2c0-0.7-0.4-1.1-1.1-1.1
			c-0.8,0-1.2,0.4-1.4,1.4l-1.7-0.3c0.3-1.7,1.5-2.6,3.4-2.6c1.8,0.1,2.7,0.9,2.8,2.4c0.1,1.1-0.5,2-1.9,2.8
			C226.6,348.5,225.8,349.1,225.3,349.7z"/>
		<linearGradient id="SVGID_46_" gradientUnits="userSpaceOnUse" x1="229.9805" y1="346.9379" x2="236.4869" y2="346.9379">
			<stop  offset="0" style="stop-color:#70B6E6"/>
			<stop  offset="0.9936" style="stop-color:#0061DC"/>
		</linearGradient>
		<path class="st48" d="M236.5,347c0.1,2.9-1,4.4-3.3,4.3c-2.1-0.1-3.2-1.5-3.3-4.3c0.1-2.9,1.2-4.3,3.3-4.4
			C235.4,342.6,236.5,344.1,236.5,347z M234.5,347c0-2.1-0.4-3.1-1.2-3c-0.9,0-1.3,1-1.3,3c0,2,0.4,2.9,1.3,2.9
			C234.1,350,234.5,349,234.5,347z"/>
		<linearGradient id="SVGID_47_" gradientUnits="userSpaceOnUse" x1="239.9289" y1="346.9564" x2="247.6963" y2="346.9564">
			<stop  offset="0" style="stop-color:#70B6E6"/>
			<stop  offset="0.9936" style="stop-color:#0061DC"/>
		</linearGradient>
		<path class="st49" d="M247.6,345.2l-1.8,0.4c-0.3-0.9-0.8-1.3-1.8-1.4c-1.3,0.1-2,1-2.1,2.7c0.1,1.7,0.8,2.7,2.1,2.8
			c1,0,1.7-0.7,1.8-1.9l1.8,0.6c-0.4,1.9-1.7,2.8-3.7,2.8c-2.6-0.1-4-1.6-4.1-4.3c0.1-2.8,1.5-4.2,4.1-4.4
			C245.9,342.7,247.1,343.6,247.6,345.2z"/>
		<linearGradient id="SVGID_48_" gradientUnits="userSpaceOnUse" x1="248.385" y1="346.9755" x2="256.7647" y2="346.9755">
			<stop  offset="0" style="stop-color:#70B6E6"/>
			<stop  offset="0.9936" style="stop-color:#0061DC"/>
		</linearGradient>
		<path class="st50" d="M256.8,347c-0.2,2.7-1.5,4.2-4.2,4.3c-2.7-0.2-4.1-1.6-4.2-4.3c0.1-2.8,1.5-4.3,4.2-4.4
			C255.2,342.8,256.6,344.2,256.8,347z M254.7,347c-0.1-1.8-0.8-2.7-2.1-2.8c-1.4,0.1-2.1,1-2.2,2.8c0.1,1.7,0.8,2.6,2.1,2.7
			C253.9,349.7,254.6,348.8,254.7,347z"/>
		<linearGradient id="SVGID_49_" gradientUnits="userSpaceOnUse" x1="257.7595" y1="346.9564" x2="266.6748" y2="346.9564">
			<stop  offset="0" style="stop-color:#70B6E6"/>
			<stop  offset="0.9936" style="stop-color:#0061DC"/>
		</linearGradient>
		<path class="st51" d="M266.7,351.2h-1.8v-5c0-0.5,0-1.2,0.1-1.9h0c-0.1,0.5-0.2,1-0.3,1.5l-1.6,5.5h-1.6l-1.6-5.6
			c-0.1-0.3-0.2-0.7-0.3-1.3h0c0,0.2,0,0.4,0,0.7c0,0.8,0,1.3,0,1.6v4.6h-1.8v-8.5h2.8l1.5,5.5c0,0.2,0.1,0.5,0.1,0.9
			c0-0.1,0-0.2,0-0.3c0-0.3,0-0.5,0.1-0.6l1.5-5.5h2.9V351.2z"/>
		<linearGradient id="SVGID_50_" gradientUnits="userSpaceOnUse" x1="267.8992" y1="346.9564" x2="274.5957" y2="346.9564">
			<stop  offset="0" style="stop-color:#70B6E6"/>
			<stop  offset="0.9936" style="stop-color:#0061DC"/>
		</linearGradient>
		<path class="st52" d="M271.2,348.2h-1.4v3h-1.9v-8.5h3.5c2,0.1,3.1,0.9,3.2,2.7C274.6,347.3,273.5,348.2,271.2,348.2z
			 M271.1,344.2h-1.3v2.5h1.3c1,0,1.5-0.4,1.5-1.3C272.6,344.7,272.1,344.2,271.1,344.2z"/>
		<linearGradient id="SVGID_51_" gradientUnits="userSpaceOnUse" x1="274.9397" y1="346.9564" x2="283.5489" y2="346.9564">
			<stop  offset="0" style="stop-color:#70B6E6"/>
			<stop  offset="0.9936" style="stop-color:#0061DC"/>
		</linearGradient>
		<path class="st53" d="M283.5,351.2h-2.1l-0.6-1.8h-3.2l-0.6,1.8h-2.1l3.1-8.5h2.3L283.5,351.2z M280.5,347.9l-1.1-2.9
			c-0.1-0.3-0.1-0.5-0.2-0.7h0c0,0.2-0.1,0.5-0.2,0.8l-1,2.9H280.5z"/>
		<linearGradient id="SVGID_52_" gradientUnits="userSpaceOnUse" x1="284.1993" y1="346.9564" x2="291.6989" y2="346.9564">
			<stop  offset="0" style="stop-color:#70B6E6"/>
			<stop  offset="0.9936" style="stop-color:#0061DC"/>
		</linearGradient>
		<path class="st54" d="M291.7,351.2h-2l-3.3-5.3c-0.2-0.4-0.4-0.7-0.5-0.8c0,0.4,0,0.9,0,1.5v4.6h-1.8v-8.5h2.1l3.2,5.2
			c0.2,0.3,0.4,0.6,0.5,0.8v0c0-0.3,0-0.7,0-1.3v-4.7h1.8V351.2z"/>
		<linearGradient id="SVGID_53_" gradientUnits="userSpaceOnUse" x1="292.3494" y1="346.9564" x2="300.9586" y2="346.9564">
			<stop  offset="0" style="stop-color:#70B6E6"/>
			<stop  offset="0.9936" style="stop-color:#0061DC"/>
		</linearGradient>
		<path class="st55" d="M301,342.7l-3.4,5.1v3.3h-1.9v-3.3l-3.3-5.2h2.2l1.7,2.8c0.2,0.3,0.3,0.5,0.5,0.8c0.2-0.3,0.4-0.6,0.5-0.8
			l1.6-2.8H301z"/>
	</g>
</g>
<g>
	<path class="st56" d="M688.6,358.9c2.7-0.7,5.4-1.1,8.2-0.7c1.2,1.3,1,2.9,1.1,4.5c0,5.3,0,10.6,0,15.9c0,2.8,0,5.6,0.8,8.4
		c-0.5,5.1-2,10.2-1.5,15.4c0.3,3.2,1,6.5,0.5,9.8c-0.1,0.4-0.2,0.7-0.3,1c-0.7,1.2-2,0.7-2.9,1c-1.2,0.5-2.6,0.8-2.7,2.4
		c-0.2,2,0,4.1-0.1,6.1c-0.3,2.3,1.5,3,2.9,3.9c1.5,1,3.5,1.7,3.3,4.1c-0.1,8.8,0,17.6,0,26.4c0,1.4,0.1,2.7-0.3,4
		c-1.8,1.8-3.8,3.2-6.1,4.1c-1.4-0.9-1.7-2.4-1.7-3.8c-0.1-9-0.3-17.9,0.1-26.9c0.9-1.8,0.4-3.2-1.1-4.4c-1-0.9-1.9-1.9-2.3-3.3
		c0.3-8,0.4-16,1.5-23.9c0.5-3.2,0-6.3,0.6-9.4c0.4-1.6,2.3-1.9,2.8-3.4c0.2-0.4,0.3-0.9,0.4-1.3c0.1-1-0.1-1.9-0.3-2.8
		C688.9,377.2,690,367.9,688.6,358.9z"/>
	<path class="st57" d="M665,390.7c2.7-0.5,4.5-2.5,6.6-4c1.8,2.5,1.3,5.5,1.7,8.3c-0.1,2.2,1.1,3.8,2.1,5.6
		c1.8,8.4,1.6,16.8,1.1,25.3c-0.1,1.6-0.3,3.1-0.4,4.7c-0.2,2.5,1.1,4.9,0.4,7.3c-0.6,8.1-0.1,16.2-0.3,24.3
		c-0.1,1.8,0.4,3.9-1.7,5.1c-2.9-1.4-4.4-3.9-5.8-6.7c-1.2-2.3-2.1-4.7-3.8-6.7c-2-2.7-0.4-5.6-0.3-8.4c0-1.3,0.4-2.6,0.8-3.9
		c1-3.5,1.3-7,1.6-10.6c0.8-2.4,1.6-4.7,0.7-7.3c-0.2-2.8-1-5.5-1.6-8.2c-0.8-3.2-1-6.4,0.1-9.6c0.4-1.1,0.2-2.2,0-3.3
		c-0.4-2.3-1.3-4.5-1.8-6.7c-0.3-1.5-0.4-3,0-4.4C664.4,391.2,664.7,390.9,665,390.7z"/>
	<path class="st58" d="M717.2,380.5c1.8,1,3.8,1.5,5.9,1.4c1.5,1.5,0.1,3.3,0.7,4.9c0.1,0.6,0,1.1-0.1,1.7c-0.6,6.6,1.2,13,1.3,19.5
		c0,5.8,1.1,11.6,0,17.4c-0.1,0.6-0.2,1.1-0.2,1.7c0,0.6,0,1.1,0,1.7c0,0.4,0,0.8,0,1.1c-0.3,2.9,0.5,5.8,0.4,8.7
		c-0.6,6.2-0.1,12.4-0.3,18.6c-0.1,1.7,0.3,3.7-1.8,4.8c-2.5-1.6-5-3.2-7.5-4.7c-1.1-1.5-1-3.1-0.6-4.8c2.1-1.5,2.4-2.9,0.1-4.6
		c-1-0.7-1.5-1.9-1.6-3.2c0.4-10.7,1.8-21.3,2-32c0.1-0.5,0.2-1,0.6-1.4c0.9-0.5,1.8-0.9,2.3-2c0.1-0.3,0.2-0.5,0.4-0.8
		c0.4-1.1-0.1-2-0.3-3c-0.1-0.4-0.1-0.7-0.2-1.1c-0.6-6.6-2.9-13.1-2.1-19.9C716.3,383.2,715.9,381.6,717.2,380.5z"/>
	<path class="st59" d="M717,411c-0.2,0.2-0.5,0.5-0.7,0.7c-0.4,0.5-0.9,1-1.6,1.2c-0.9,0.2-1.7,0.2-2.5-0.4c-0.2-0.3-0.2-0.6-0.1-1
		c0.5-3.8,0-7.5-0.4-11.3c0.4,3.6,0.9,7.2,0.4,10.9c-0.3,0.6-0.4,1.3-0.6,2c-0.1,0.3-0.3,0.7-0.6,0.9c-0.6,0.5-1.2,0.8-2,1
		c-2.5,0.4-4.9,0.5-7.4-0.1c-0.8-0.3-1.4-0.7-1.8-1.4c-0.1-3-0.2-6,0.2-9c1.3-2.8,2.6-5.7,0.8-8.8c0-3.9,2-7.5,2.1-11.4
		c0,0.5-0.1,1.1-0.2,1.6c-2.4,8.3-3.8,16.7-3.2,25.3c0.1,0.8-0.1,1.6-0.6,2.2c-1,0.7-1.7,0.3-2.2-0.6c-0.2-4.5-0.5-8.9-0.7-13.4
		c-0.3-4.3,0.8-8.4,1.9-12.4c-0.2-5.3,1.3-7.3,7.2-9.2c0.4,0,0.7,0.1,1,0.3c0.4,0.7,0.2,1.3,0,1.9c-1,2.6,0.2,4.8,1.5,6.9
		c1,1.5,2,3,2.7,4.6c0.4,1,0.8,2,1.1,3.1c0.6-4.8,1.7-9.5,1.4-14.4c0.2-1.1,0.4-2.1,1.5-2.6c0.4,0.3,0.9,0.5,1.3,0.8
		c0.4,1,1,2,1,3.2c-0.3,7.7,0.3,15.3,1.8,22.9c0,1.5-0.8,2.9-0.2,4.4C718.3,410,717.9,410.7,717,411z"/>
	<path class="st60" d="M744.2,462c-2.2,5.3-6.5,5.9-11.5,5.3c-0.9-0.9-1.1-2-1.1-3.1c-0.1-10.1-0.1-20.3,0-30.4
		c0-0.6,0.2-1.1,0.3-1.6c0.8-1.6,2.2-1.4,3.4-0.8c1.4,0.7,3,1,4.4,1.6c1.7,0.9,1.8,3.1,3.6,3.9c1.8,2.6,1.8,5.5,1.7,8.4
		c-0.5,4.4-0.9,8.9-0.1,13.3C745.3,459.7,745.2,461,744.2,462z"/>
	<path class="st61" d="M764.6,421.2c11.2,2.8,17.4,15,11.4,25.2c-2.7,4.5-7.3,5.2-12.1,4.6c-1.2-1.2-1.1-2.7-1.1-4.1
		c0-7.2-0.1-14.4,0-21.5C762.8,423.8,762.4,421.8,764.6,421.2z"/>
	<path class="st62" d="M732.7,431.3c0,12,0,23.9,0,35.9c-3.9-0.5-6.7-2.8-9.5-5.2c1-1.6,0.7-3.5,0.7-5.2c0-5.2,0-10.3,0-15.5
		c0-1.1-0.4-2.3,0.7-3.1c3.1-0.8,3.6-3.1,2.9-5.7c-0.6-2.3,0.2-4.5,0.2-6.7c0.6-3.9,0.8-7.8,1.3-11.7c0.2-1.1,0.1-2.3,1.1-3.1
		c0.4-0.2,0.8-0.1,1.1,0.2c1.7,1.8,1,4,1.1,6c0.1,2.1,0,4.2,0,6.3C732.1,426.2,732.6,428.7,732.7,431.3z"/>
	<path class="st63" d="M690.7,433.6c0,8.7,0,17.5,0,26.2c0,1.9,0.2,3.8,0.7,5.6c-2.6,1.9-5.5,3.1-8.8,3.2c-0.8-0.8-1-1.8-1-2.8
		c0-11.5-0.3-23,0.2-34.5c0.6-2,1.9-1.4,3.1-0.8C686.8,431.4,688.6,432.7,690.7,433.6z"/>
	<path class="st64" d="M682.6,429.9c0,12.9,0,25.8,0,38.6c-2.8,0.1-5.7,0.6-8.1-1.4c0.8-1.2,0.7-2.6,0.7-3.9c0-7.4,0-14.8,0-22.3
		c0-1.2-0.4-2.5,0.6-3.6c4,0.6,4.2,0.4,3.6-3.5c-0.2-1.3-0.3-2.6-0.4-3.9c0.4-6.5,1.1-12.9,2-19.2c0.1-1.1,0.2-2.3,1.7-2.5
		c0.7,0.6,0.8,1.4,0.9,2.3c0.1,5.5,0.1,11,0,16.5C683.4,428,683.5,429.1,682.6,429.9z"/>
	<path class="st65" d="M647.4,413.1c1-1.6,0.4-3.2-0.2-4.7c0.7-5.8,0.2-11.6,0.4-17.4c0.1-1.5-0.5-3.4,1.6-4.3
		c0.8,1.3,2.4,1.7,3.5,2.8c1.3,3.2,1.8,6.5,1.8,9.9c-4.5,4.3-2.6,10-3.4,15.1c-0.3,2.2,2,2.3,3.4,3c0.3,0.2,0.5,0.5,0.6,0.9
		c0.1,0.4,0,0.7-0.1,1.1c-3.2,3.8-2.9,7.9-1.5,12.4c1.3,4.1,2.8,8.1,2.7,12.5c-0.2,1.3-0.4,2.6-1.5,3.4c-2.3-0.4-4.7,0.6-6.8-0.7
		c-0.7-3.6-0.3-7.1-0.3-10.7C647.5,428.6,647.7,420.9,647.4,413.1z"/>
	<path class="st66" d="M647.4,413.1c0.9,0.9,1.3,2.1,1.3,3.4c0,9.5,0,18.9,0,28.4c0,0.8,0,1.6-0.7,2.1c-2.3-0.1-4.6,0.3-6.7-0.8
		c-1-1.1-1.1-2.4-1.1-3.8c0-7.6,0-15.1,0-22.7c0-1.3,0-2.7,1.1-3.8C643.7,415.9,645.9,415.5,647.4,413.1z"/>
	<path class="st67" d="M764.6,421.2c-1.2,1-0.7,2.3-0.7,3.5c0,8.8,0,17.5,0,26.3c-3.4,0.1-5.7-2.7-8.8-3.4c-1.6-1.8-0.4-3.8-0.3-5.7
		c1.5-6.7,1.5-13.6,1.6-20.4c0-0.8,0.1-1.6,0.7-2.2C759.7,419.6,762.3,419.8,764.6,421.2z"/>
	<path class="st68" d="M641.2,415.9c0,10.1,0,20.2,0,30.3c-3.1-0.6-5.7-2.1-8.1-4.1c-0.9-4.2-0.3-8.4-0.4-12.7
		c0-3.9-0.4-7.8,0.3-11.7C635.4,416.1,638.2,415.6,641.2,415.9z"/>
	<path class="st69" d="M755.1,398.3c0.5,3.6,2.6,7.1,0.6,10.8c-0.6,1.3,0.2,2.8-0.5,4.1c0.5,2,0.9,4,1.4,6c0.6,1.8,0.6,3.5-0.9,5
		c-0.6,0.6-1.2,1-2.1,0.7c-0.8-0.3-0.7-1-0.7-1.7c0-1.2-0.1-2.4,0-3.7c-0.1,0.6,0,1.2,0,1.7c0,4.7-1.1,5.6-5.7,4
		c-2.5-0.9-5.3-1.7-4.9-5.4c0.3-1.7,1.4-3.2,0.7-5c-0.2-4,1.7-7.7,1.8-11.7c2.3-1.3,2.7,0.4,2.9,2c0.3,2.6,1.8,4.4,3.6,6.6
		c1.7-4.2,2.2-8.1,1.1-12.2c0.4-0.9,0.7-1.9,1.8-2.2C754.7,397.4,755,397.7,755.1,398.3z"/>
	<path class="st70" d="M705.5,378.5c-4,1.7-7.3,3.9-7.5,8.8c-1-1.9-1.3-4-1.2-6.1c0-7.6,0-15.3,0-22.9c5.5,0.7,10.1,2.8,12.9,7.9
		c-0.5,0.8-1.3,0.8-2,1c-4.4,0.9-5.8,4.2-3.5,8.1C704.7,376.3,706,377,705.5,378.5z"/>
	<path class="st60" d="M737.5,377.9c1.5-0.8,3.1-1,4.7-1.3c1.6,1.9,0.8,4.2,1,6.3c0.1,1.2,0.1,2.4,0.3,3.6c0.1,0.3,0.1,0.7,0.1,1
		c-1.9,4.3,0.3,7.7,2.2,11.2c-0.1,0.3-0.4,0.6-0.6,0.8c-3.1,1.4-4.2,4-4.8,7.2c-1.1,6.8-1.5,13.6-0.2,20.4c0.2,1.1,0.2,2.2-0.4,3.3
		c-2.7-0.1-4.5-1.7-4.7-4.3c-0.1-1,0.1-2,0-3c0.8-8,0.7-16.1,1.9-24.1c0.6-4.2,0.1-8.5,0.2-12.8c-0.1-1,0.1-2,0-3
		C737.4,381.6,736.1,379.6,737.5,377.9z"/>
	<path class="st70" d="M697.5,461.3c-0.9-0.6-0.7-1.6-0.7-2.5c0-8.8,0-17.5,0-26.3c0-0.9-0.1-1.8,0.7-2.5c3-0.8,4.6,1,6,3.2
		c0.7,3.9,0.7,7.8,0,11.7c-0.5,3.3,0.1,6.4,0.3,9.7c0.1,1.3,1.4,1.7,1.8,2.7C702.9,458.6,700.2,459.9,697.5,461.3z"/>
	<path class="st71" d="M635.8,400.1c-7.2-4-10.2-14.4-6.5-20.9c1.6-2.8,3.7-4.7,7.1-4.6c1,0.9,1,2.2,1.1,3.4
		c0.1,6.1,0.1,12.3,0,18.4C637.4,397.8,637.4,399.4,635.8,400.1z"/>
	<path class="st68" d="M635.8,400.1c0.8-1.2,0.7-2.6,0.7-3.9c0-7.2,0-14.4,0-21.6c2.6,0.1,4.6,1.1,6.1,3.2c0.6,1.1,1,2.2,1,3.5
		c0,5.5,0.2,11-0.1,16.4c-0.1,1.9-0.2,3.8-1.7,5.3C639.6,402.4,637.7,401.2,635.8,400.1z"/>
	<path class="st66" d="M641.8,403c1.2-8.4,0.5-16.8,0.7-25.2c2.8,2.5,4.1,6.2,6.7,8.9c-1.2,3.7-0.3,7.5-0.6,11.2
		c-0.1,2.4,0,4.9,0,7.4c0,1.3,0,2.5-1.4,3.1C645.7,406.3,643.9,404.5,641.8,403z"/>
	<path class="st72" d="M744.9,402.9c1.6,3.2-1,6.1-0.9,9.1c0,1-0.3,2-0.5,3c0,1.4-0.2,2.8-0.6,4.1c0,3.3,5.2,7,8.3,5.9
		c1-0.3,1.1-1.3,1.1-2.2c0.1-1.4-0.3-2.9,0.7-5.1c0,2.1,0,3.3,0,4.5c0,0.7-0.4,1.8,0.7,2c0.9,0.2,1.3-0.6,1.8-1.3
		c0.8-1.2,1-2.5,0.9-3.9c0.2,0,0.4,0.1,0.6,0.2c0.6,7.7,0.3,15.3-1.4,22.9c-0.9,1.1-1.3,3.2-3.5,2.1c-0.6-3.9,1.6-7.4,1.6-11.2
		c0-0.8,0.2-1.5,0.3-2.3c0.3-2.2,0.2-3.9-2.8-2.9c-0.3,0.1-0.7,0.1-1,0.1c-1.9,0.1-4-1.6-5.5-0.8c-1.6,0.9,0.3,3.6-1,5.2
		c-0.7,0.7-1.5,1-2.4,0.4c-1.3-5.3-1.9-10.6-1-16c0.8-4.9,3.1-9.6,2-14.9c-0.4-2.1,1.6-1.4,2.7-0.5
		C745.3,401.8,745.3,402.4,744.9,402.9z"/>
	<path class="st73" d="M633,417.8c0.2,0.4,0.7,0.7,0.7,1.1c0,7.2,0.1,14.4,0,21.7c0,0.5-0.4,1-0.6,1.6c-6.8-4.5-10.2-16.7-1.9-23.5
		C631.7,418.2,632.2,417.8,633,417.8z"/>
	<path class="st74" d="M723.1,386.6c-1.4-1.6,0.9-3.1,0.1-4.7c1.3-1.3,0.6-2.7,0.2-4.1c-0.6-2.3-1.8-4.4-1.4-6.9
		c1.4-0.2,1.7,1.1,2.5,1.8c0.4,0.5,0.7,1,0.9,1.6c0.8,2.3,2.2,2.8,4.3,1.6c0.8-0.5,1.7-1,2.7-0.2c0.9,1.4,0.4,3.2,1.1,4.7
		c0.9-0.5,0.5-2.6,2.4-1.8c0.9,1.8,0.6,3.7,0.9,5.6c-0.1,1.4-1.1,2.1-2.1,2.8c-0.7,0.4-1.5,0.7-2.2,1.1
		C727.4,390,726,389.8,723.1,386.6z"/>
	<path class="st75" d="M715.7,451.9c0,1.8,0,3.6,0,5.4c-2.7-0.7-5.5-1-8.3-0.6c-0.4-0.4-0.6-0.9-0.6-1.5c-0.1-1.2-0.1-2.5-0.5-3.7
		c-0.3-1.1-0.2-2.3-0.3-3.4c0.8-6.1,1-12.2,2-18.2c0.2-1.1,0.1-2.3,1.6-2.6c0.5,0.4,0.8,1,0.9,1.6c0.3,5.3,0.1,10.6,0.1,15.8
		c-0.4,2.2,0.5,3.8,2.6,4.8C714.3,449.9,715.3,450.7,715.7,451.9z"/>
	<path class="st76" d="M672.4,395.4c-0.3-2.9-0.5-5.9-0.8-8.8c-1.3-4.8-0.8-9.7-0.4-14.5c0.2-2.4,0.8-4.7,1.2-7.1
		c0.2-1.3,0.2-2.7,2-2.9c0.2,0.1,0.3,0.2,0.5,0.3c1.3,1.3,1.5,2.9,1.3,4.7c-0.2,1.8-0.4,3.6-0.9,5.3c-1.8,6.8-0.2,13.6,0.2,20.3
		c0.1,1,0.3,2-0.4,2.9C674.2,396.3,673.3,396.2,672.4,395.4z"/>
	<path class="st77" d="M742.9,387.4c-1.4-3.5-0.4-7.2-0.7-10.8c3.7-0.5,7.2,0.2,10.2,2.6c0.1,2.5,1,5.1-1.1,7.2
		C748.6,387,745.7,387.3,742.9,387.4z"/>
	<path class="st78" d="M705.5,378.5c-1.2-2.1-3.5-3.4-3.4-6.3c0.2-4.8,1-5.6,7.5-6c2.1,1,5.3,1,3.9,4.8c-0.3,0.4-0.6,0.7-1.1,0.9
		c-3,0.8-4.9,2.6-5.1,5.9c-0.2,0.5-0.5,0.8-1.1,0.7C706.1,378.5,705.8,378.5,705.5,378.5z"/>
	<path class="st79" d="M665,390.7c-0.1,0.2-0.1,0.4-0.1,0.7c-0.2,0.2-0.4,0.5-0.7,0.7c-1.2,0.9-2.8,0.6-4,1.5c-1.5,1.9-1,4-0.7,6.1
		c0.1,1,0.3,2.3-1,2.5c-1,0.2-1.6-0.9-1.7-1.7c-0.8-4.2-2.9-8.1-3.3-12.4c1.5-3.3,4.5-3.1,7.2-2.6
		C663.4,385.8,664.8,387.9,665,390.7z"/>
	<path class="st80" d="M706.8,448.4c0.1,1.1,0.1,2.2,0.2,3.3c0.2,0.3,0.2,0.7,0,0.9c-1.8,1.3-0.6,1.9,0.5,2.6c0,0.5,0,1-0.1,1.5
		c-0.6,0.2-1.2,0.4-1.8,0.7c-1.9,0-2.5-0.8-2.8-2.8c-1.3-7.3,0.8-14.5,0.1-21.7c0.1-0.1,0.2-0.3,0.3-0.4c1.3-0.6,2.6-2.4,4.2-0.5
		c-0.2,5.5-0.7,11-1.8,16.3c-0.1,0.5-0.5,0.9-0.9,1.1c0.5,0.1,0.7-0.3,1-0.6C706,448.4,706.3,448.2,706.8,448.4z"/>
	<path class="st81" d="M735.3,351.4c-0.1,2.5,1.1,4.9,0.8,7.4c0,0.4,0,0.9-0.1,1.3c-0.2,0.8-0.6,1.4-1.2,1.8
		c-0.3,0.1-0.6,0.3-0.9,0.3c-0.3,0.1-0.6,0.1-1,0.1c-1.3-0.1-2.5-0.5-3.8-0.8c-1.4-0.3-1.3-1.8-2-2.6c-0.4-0.4-0.9-0.9-1.3-1.3
		c-0.4-0.6-0.6-1.3-0.4-2c0.2-0.5,0.5-0.9,0.9-1.3C729.2,352.7,731.8,350.6,735.3,351.4z"/>
	<path class="st82" d="M731.9,375.8c-0.9-0.1-1.4,0.6-2,1c-3.1,1.9-4.2,1.3-5.2-2.4c0.4-1.3,2-1.4,2.6-2.5c0.4-0.5,0.8-1,1.2-1.4
		c1-0.8,2.1-1.4,3.4-1.6c0.8-0.1,1.5-0.2,2.2-0.5c0.6-0.2,1.2-0.2,1.8-0.3c0.7,0,1.5-0.1,2.1-0.4c0.7-0.2,1.4-0.6,2.2-0.2
		c1.3,3.7,1.1,4.2-2.7,5.6c-0.7,0.6-1.5,0.8-2.4,0.8c-0.3,0-0.7,0-1,0c-1-0.3-1.9-0.5-3.2-0.6c0.7,0.3,1.4,0,1.9,0.5
		C733,374.7,732.8,375.4,731.9,375.8z"/>
	<path class="st83" d="M750.9,386c1.9-2-0.4-4.9,1.5-6.8c6.3,5.4,7.5,13.9,2.6,19.1c-0.2-0.2-0.5-0.5-0.7-0.7
		c-1.6-2.2-0.4-4.9-1.5-7.2C752.7,388.7,750.6,387.9,750.9,386z"/>
	<path class="st82" d="M744.2,462c-0.3-5.7-1.4-11.4,0.1-17.1c1.3-0.8,2.2-0.3,3,0.7c1,1.7,1.5,3.6,1.2,5.5c-1,7.2-2,14.4-1.8,21.7
		c-2,1.6-2.2-0.2-2.4-1.4c-0.3-2.1,0-4.2-0.1-6.2C744.2,464.1,744.2,463,744.2,462z"/>
	<path class="st82" d="M654.7,447.7c0.2-1.2,0.5-2.4,0.7-3.5c1.5-2,2.6-1.7,3.2,0.7c1,5.7-0.3,11.4-1,17c-0.3,2.3-0.4,4.7-0.2,7
		c0.1,1.4,0.6,2.9-0.8,4.1c-1.9,0.2-1.8-1.2-1.9-2.4c-0.1-2,0-4,0-6C654.7,458.9,654.7,453.3,654.7,447.7z"/>
	<path class="st84" d="M653.5,388c2.1,4.4,3.2,9.1,5,13.6c0.1-3.3-1.2-6.6,1.1-9.6c1.1,1.3,0.9,2.8,0.9,4.3
		c-0.2,1.4,0.5,2.8,0.6,4.2c0,1.7,1.9,3.8,0.3,5c-2,1.4-3.6-0.9-5.2-1.9c-0.9-0.9-1.7-2-2.3-3.2c-0.1-0.3,0-0.6,0.1-0.9
		c-0.2-3.4-1.9-6.6-1.2-10.1C653.4,389.2,653.3,388.6,653.5,388z"/>
	<path class="st85" d="M666.2,441.5c-0.7,4.1-1.5,8.2-1.3,12.3c-1.2,5-1.1,10,0.6,14.9c-1,1.1-1.9,1.1-2.6-0.3
		c-1.6-3.9-1.7-7.8-1.1-11.9c0.6-3.9,0-7.9,0.2-11.8c0.3-0.9,0.9-1.5,1.6-2C664.4,442.1,665,441.2,666.2,441.5z"/>
	<path class="st85" d="M656.8,472.7c-0.7-6.8,0.4-13.6,1.3-20.3c0.2-1.7,0.7-3.7-0.4-5.3c-0.9-1.3,0.6-1.8,0.5-2.7
		c0.9-1,1.8-0.9,2.9-0.3c0.9,2.9,0.6,5.7-0.8,8.3c-1.6,5.8-2.1,11.7-2.1,17.6C657.2,470.8,658.7,472.5,656.8,472.7z"/>
	<path class="st85" d="M752.4,444.4c1.6,0,2.1-1.6,3.3-2.2c-0.4,1.8-0.8,3.5-0.6,5.4c-1.1,7.1-3.1,14.1-0.1,21.2
		c-0.7,1.2-1.4,1.3-2.3,0.3c-0.5-1.2-0.9-2.5-1.5-3.7c-0.1-0.3-0.2-0.7-0.3-1c0.2-6.4,0.4-12.7,0.7-19.1
		C751.8,444.8,752.1,444.6,752.4,444.4z"/>
	<path class="st82" d="M660.1,452.5c-0.3-2.7,0.5-5.4,0.7-8.1c0.6-0.7,1.3-0.7,2-0.2c-0.8,2,0.3,4,0.1,6.1c-0.3,3.2,0.2,6.5-0.7,9.7
		c-0.9,3.1,1.4,5.8,1.3,8.8c-3-1.4-2.8-4.4-3.4-7C660.2,458.7,660.1,455.6,660.1,452.5z"/>
	<path class="st85" d="M746.3,472.9c-0.9-6.8,0.4-13.4,1.2-20.1c0.3-2.4,0.1-4.7-0.6-7c1.1-1.1,2.3-1.5,3.7-0.6
		c0.3,2.5,0.6,5.1-1,7.3c-1.6,5.8-2.1,11.7-2.1,17.6C746.7,470.8,748.1,472.6,746.3,472.9z"/>
	<path class="st78" d="M675.2,352.1c0.3-3.4,3.1-5.9,6.3-5.1c1.5,0.4,2.5-0.3,3.7-0.4c1.4,1.8,0.5,3.1-0.9,4.2
		c-1.5,1.2-3,2.2-4.3,3.6C677.8,354.9,676.2,354.2,675.2,352.1z"/>
	<path class="st82" d="M749.6,452.5c-0.1-2.5,0.1-5,0.7-7.4c0.6-0.7,1.3-0.6,2-0.2c-0.8,1.8-0.1,3.7,0.1,5.5c0.3,5-1,9.9-0.8,14.9
		c-2-0.4-1.5-2.1-1.9-3.4C749.7,458.8,749.7,455.6,749.6,452.5z"/>
	<path class="st86" d="M677.9,358.2c0-0.2-0.1-0.5-0.1-0.7c-0.9-1.4-0.5-2.5,1-2.7c0.9-0.1,1.4-0.5,1.8-1.1c1.6-0.7,3.1-1.7,5-0.9
		c0.7,0.7,0.8,1.6,0.8,2.5c0.1,1.8,0.8,3.9-1.1,5.2c-1.8,1.2-3.6,0.4-5.3-0.6C679.3,359.3,678.7,358.6,677.9,358.2z"/>
	<path class="st87" d="M723.9,373.1c-1.1-0.3-1.2-1.5-2-2.1c-0.2-2.8-2.4-6,1.3-8.2c0.2,0.1,0.3,0.1,0.5,0.2
		c2.5,2.7,4.7,5.5,3.6,9.5C726.3,373.6,725.2,373.8,723.9,373.1z"/>
	<path class="st88" d="M724,350.7c0.9-3.4,4.4-4.6,8.7-3.1c0.7,0.3,1.4,0.7,2.1,1.1C731.6,352.9,728.2,353.5,724,350.7z"/>
	<path class="st89" d="M706.4,378.5c0.2-0.2,0.4-0.5,0.7-0.7c0.4-0.2,0.9-0.2,1.3-0.1c3.5,0.5,3.8,0.3,3.8-3.3
		c0-1.1-0.2-2.2,0.2-3.3c0.4,0,0.8-0.1,1.2-0.1c1.1,2.2,0.7,4.5,0.8,6.8c-0.3,0.9-0.5,1.8-0.8,2.6c-0.5,0.6-1.1,0.7-1.8,0.5
		c-1.2-0.2-2.5,0.1-3.5-1.4c0.9,1.6,2.3,1.1,3.4,1.5c0.6,0.9,0.3,1.6-0.5,2.2c-0.6,0.4-1.3,0.3-2,0.2c-1.6-0.2-3.1-0.5-3.8-2.2
		c-0.2-0.5-0.2-1,0.1-1.5C705.8,379.4,706.1,379,706.4,378.5z"/>
	<path class="st90" d="M688.6,358.9c1.9,2.7,2.1,6,1.9,8.9c-0.6,5.9,0.7,11.6,1.8,17.2c0.1,0.7-0.1,1-0.3,1.5
		c-0.4,0.2-0.7,0.2-1-0.2c-1.9-4.3-2.4-8.8-2.6-13.5c-0.1-4.4,0.7-8.8-1.3-13c-0.1-0.4,0-0.8,0.3-1.1
		C687.7,358.9,688.2,358.9,688.6,358.9z"/>
	<path class="st91" d="M660.2,461.8c1.9,1.9,1.4,5.1,3.4,7c0.7,0.8,1.3-0.4,1.9-0.1c0.5,1,2.3,1.9,1.2,3.1c-1.2,1.2-2.9,0.1-4-0.6
		C659.3,469.2,658.6,465.9,660.2,461.8z"/>
	<path class="st89" d="M687.3,358.9c0,0.2,0,0.4-0.1,0.6c0,0.6,0,1.2-0.3,1.8c-0.6,0.9-1.8,1-2.3,2c-0.3,0.4-0.7,0.7-1.1,0.8
		c-1,0.3-2,0.3-3,0.2c-0.3-0.1-0.6-0.2-0.9-0.4c-0.9-0.7-1.2-1.6-1.1-2.6c0.1-0.7,0.4-1.2,0.6-1.8c0.2-0.3,0.4-0.5,0.7-0.7
		c1.6,0.9,3.7,2.4,5.1,0.8c1.7-1.9,1.2-4.5,0.2-6.8c0.2-0.7,0.6-1,1.3-0.8C686.6,354.3,687.6,356.5,687.3,358.9z"/>
	<path class="st92" d="M718.5,405.5c-1.5-4.7-2.2-9.5-2.1-14.5c0.1-4.1,0.4-8.3-0.6-12.4c0.9,0.3,0.8,1.4,1.5,1.9
		c-0.3,7-0.3,13.9,1.7,20.7c0.4,1.3,0.1,2.9,0.2,4.3C718.9,405.8,718.7,405.8,718.5,405.5z"/>
	<path class="st93" d="M656.8,472.7c1.3-0.5,0.2-2,1.2-2.6c0,1.3,0.1,2.7,0.1,4c0,1.1,0.1,2.4-1.3,2.7c-1.7,0.4-2.4-1.2-2.4-2.2
		c-0.3-3.4-1-6.8,0.4-10.1c1.4,1.8,0.4,3.9,0.7,5.8C655.6,471.3,654.8,472.7,656.8,472.7z"/>
	<path class="st94" d="M734.7,373.2c0.9,0,1.8,0,2.8,0c0,1.6,0,3.1,0,4.7c-0.1,1.8,1.1,3.5,0.5,5.4c-0.5,0.7-0.7,1.7-1.9,1.4
		c-1.2-2-0.6-4.2-0.7-6.3C734.1,376.8,733.5,375.1,734.7,373.2z"/>
	<path class="st95" d="M733.5,361.6c0.2,0,0.4,0.1,0.6,0.1c0.9,1.5,1.2,2.8-0.8,3.5c-1,0-1.7,0.4-2.2,1.2c-1.8,1.9-3,0.6-4.3-0.7
		c-1.1-1-2.2-2.1-3.5-2.7c0,0-0.1-0.1-0.1-0.1c0.9-1.5,2.7-1.7,4-2.7c1.4,1.5,2.6,3.2,5.1,2C732.7,362,733.1,361.8,733.5,361.6z"/>
	<path class="st96" d="M686.5,352c-0.4,0.3-0.8,0.5-1.3,0.8c-1.6,0.4-3.1,0.9-4.7,1.3c-0.3,0.2-0.5,0.2-0.7-0.1
		c0.1-2.1,1.9-2.7,3.3-3.5c1.6-1,2.5-2.2,2.1-4.1C687.5,347.7,687.8,349,686.5,352z"/>
	<path class="st97" d="M749.7,462c1.3,0.8,0.8,2.5,1.9,3.4c0,0,0-0.1,0-0.1c0.5,0.5,0.4,1.2,0.6,1.8c-0.4,3.1,2.8,2.8,4.1,4.3
		c-1.5,1.7-3.2,0.6-4.2-0.2c-1-0.8-2.9-0.9-3-2.1C749,466.7,748.2,464.2,749.7,462z"/>
	<path class="st98" d="M724,350.7c4.1,2,7.4,0,10.7-1.9c1.3,0.6,0.5,1.7,0.6,2.6c-3.1,0.7-5.8,2.3-8.7,3.4c-1-1.1-1.9-2.1-2.6-3.4
		C723.9,351.2,723.9,351,724,350.7z"/>
	<path class="st99" d="M679.8,354.1c0.2,0,0.5,0,0.7,0.1c-0.3,0.4,0.4,1.9-0.9,1.4c-2.5-1-1.7,0.9-2,1.9c-3-0.8-2.8-3.1-2.6-5.4
		C676.5,353.2,678.1,353.8,679.8,354.1z"/>
	<path class="st100" d="M740.2,367.6c-0.7,0.3-1.4,0.5-2,0.8c-0.1-3.2-2.1-5.7-2.7-8.8c0.2-0.3,0.4-0.5,0.6-0.8
		C739,361,739.9,364.2,740.2,367.6z"/>
	<path class="st101" d="M732.8,362.3c-0.4,1.9-1.8,1.4-2.9,1.2c-1.6-0.4-2.8-1.3-2.7-3.3c0-0.4,0-0.9,0-1.3c0.7,0.7,1.4,1.3,2.1,2
		C730.4,361.5,731.7,361.6,732.8,362.3z"/>
	<path class="st102" d="M679.7,359.6c0.1,0.6,0.2,1.1-0.6,1.3c-1.1,0.6-1,2.1-2,2.8c-1.3,0.4-1.9-0.7-2.7-1.3l-0.1-0.2
		c0.8-1.7,2.8-1.6,4-2.7C678.8,359.1,679.3,359.1,679.7,359.6z"/>
	<path class="st88" d="M724,351.4c1.4,0.7,2.9,1.3,2.6,3.4c-0.2,0.2-0.5,0.5-0.7,0.7c-1.9,0-1.3-1.8-1.9-2.7
		C724,352.3,724,351.9,724,351.4z"/>
	<path class="st98" d="M724,352.8c0.6,0.9,1.3,1.8,1.9,2.7c0,0.7,0,1.4,0,2.1C723.8,356.5,723.6,354.8,724,352.8z"/>
	<path class="st72" d="M755.1,413.2c0.2-1.4-0.5-2.9,0.5-4.1C755.5,410.4,756.4,411.9,755.1,413.2z"/>
	<path class="st99" d="M679.7,359.6c-0.4,0-0.9-0.1-1.3-0.1c-0.2-0.4-0.3-0.8-0.5-1.3c0.7,0,1.5-0.3,2,0.6
		C679.8,359.1,679.8,359.3,679.7,359.6z"/>
	<path class="st103" d="M690.7,423.2c0-2.5,0.1-4.9,0.1-7.4c2.8-1.5,4.2,1.4,6.4,2c0.3,0.1,0.5,0.3,0.8,0.5c2.8,2.6,5.9,3.2,9.3,1.3
		c0.3,0.1,0.5,0.3,0.6,0.7c0.1,0.6-0.1,1.2-0.6,1.5c-2.1,1.4-3.2,3.3-3.1,5.9c0,0.8-0.3,1.5-1.1,1.9
		C698.4,428.7,694.6,426,690.7,423.2z"/>
	<path class="st104" d="M689.4,392.7c0.3,9.1-1.9,18.1-1.6,27.3c0.1,2.6-0.8,5.3-0.5,7.9c-0.8,0.6-1.5,0.6-2.3,0
		c-0.7-6.6,0.5-13.2,0.8-19.7c0.2-5.5,0.6-11,1.5-16.4c0.4-0.8,0.9-1.3,1.9-1.3C689.9,391.2,689.9,392,689.4,392.7z"/>
	<path class="st105" d="M690.7,423.2c4.4,1.4,8.1,4.1,12.1,6.2c1.1,1.1,0.8,2.3,0.1,3.4c0,0-0.1-0.1-0.1-0.1
		c-1.7-1.1-3.3-2.4-5.4-2.7c-1.3-1.8-3.5-2.4-5.2-3.5C690.8,425.7,690.5,424.7,690.7,423.2z"/>
	<path class="st106" d="M685.2,428c0.7,0,1.4,0,2.1,0c1.4,1.3,2.8,2.6,4.1,3.9c1.2,1.2,0.2,1.5-0.8,1.6c-3.6,0.9-5.2-2.8-8.1-3.6
		c0-0.9,0-1.7,0.1-2.6c0.6-0.3,1.1-0.1,1.6,0.1C684.6,427.6,684.8,428.1,685.2,428z"/>
	<path class="st107" d="M700.2,413.7c0.5,0.1,1.2,0.1,1.4,0.8c0.5,0.7,0.6,1.4,0.4,2.3c-0.8,2.4-2.3,3.2-4.6,1.8l0,0
		c-1.2-1.4-2.1-2.9-0.8-4.7c0-0.2,0.1-0.5,0.1-0.7c0.6,0.3,1.2,1,2,0.6C699.2,413.4,699.7,413.3,700.2,413.7z"/>
	<path class="st108" d="M696.7,413.8c0.3,1.6,0.5,3.1,0.8,4.7c-2.6,0-4-3-6.7-2.6C692.4,414.1,694.1,412.5,696.7,413.8z"/>
	<path class="st109" d="M689.4,392.7c-0.1-0.7-0.1-1.3-0.2-2c-0.6-1.2,0-1.9,1.1-2.3c0.9,0.1,1.4,0.8,1.7,1.6
		C692.1,391.9,691.4,392.9,689.4,392.7z"/>
	<path class="st109" d="M691.3,386.5c0.2,0.1,0.4,0.1,0.6,0c1,0.7,0.6,1.8,0.7,2.8c-1.3,0.4-1.6-0.8-2.3-1.5
		C690.3,387.1,690.4,386.5,691.3,386.5z"/>
	<path class="st110" d="M690.8,388c0.6,0.5,1.3,0.9,1.9,1.4c-0.2,0.2-0.4,0.5-0.7,0.7c-0.9,0-1.4-0.6-1.4-1.5
		C690.5,388.4,690.5,388.2,690.8,388z"/>
	<path class="st111" d="M675.2,430.7c0.7-6.1,0.7-12.2,0.5-18.3c-0.1-4.1-0.4-8.1-1.3-12.1c1.9-1.4,0.9-3.4,1-5.2
		c0-0.7-0.2-1.4,0.4-1.9c1.4-0.8,2.9-0.6,4.3-0.7c1-0.1,2-0.4,2.7,0.5c1.2,4-0.2,7.8-1,11.6c-1.6,8.3-2.2,16.7-3.2,25
		c-0.1,0.4-0.2,0.9-0.3,1.3c-0.3,0.6-0.7,0.9-1.3,1C676.2,431.9,675.7,431.3,675.2,430.7z"/>
	<path class="st112" d="M666.2,441.5c-0.7,0.5-1.3,1-2,1.5c-0.7-0.7-0.8-1.6-0.6-2.5c1.6-6.7,0.3-13.4-0.3-20c0-0.4,0.1-0.8,0.2-1.2
		c0.6-1,0.2-2.8,2.2-2.9c1.5,2.3,1.8,4.9,2,7.5c1,2.2,0.5,4.5,0,6.7C667.7,434.4,667.3,438,666.2,441.5z"/>
	<path class="st113" d="M667,423.9c-0.5-2.5-1-4.9-1.5-7.4c-0.4-0.3-0.6-0.8-0.7-1.3c-0.2-0.9-0.2-1.9-0.5-2.8
		c-0.4-1.1,0-2.3-0.9-3.3c-0.3-0.3-0.6-0.6-0.8-1c1.6-1.7,2.8-3.7,2.9-6.1c0.5-0.2,0.9-0.2,1.3,0.1c0.7,1.6,0.6,3-0.1,4.7
		c-1.3,3.2-0.5,6.6,0.4,9.8c0.6,2.4,1.4,4.7,1.1,7.2C667.8,424.3,667.4,424.4,667,423.9z"/>
	<path class="st114" d="M675.2,430.7c0.5,0,1,0.1,1.3,0.7c1.1,1,0.6,2.6,1.5,4c0.7-1.6,0.1-3.3,1-4.5c0.3-0.2,0.5-0.3,0.8-0.1
		c0.3,1.5,0.6,3,0.8,4.5c0.1,1.2,0.6,2.9-1.1,3.5c-1.4,0.5-2.9,0.4-3.7-1.2C676.3,435.2,674.8,433,675.2,430.7z"/>
	<path class="st109" d="M675.7,395.4c-0.3,1.7,3.9,4.5-1.3,4.9c-1.5-1.3-2.1-2.9-2-4.8c0.9,0,1.8,0,2.7,0
		C675.3,395.1,675.5,395.1,675.7,395.4z"/>
	<path class="st115" d="M660.2,400.9c-0.2-1.4-0.4-2.7-0.6-4.1c3.7,0.1,3.3-3.4,4.6-5.4c0.2,0,0.4-0.1,0.6-0.1c0,1.6,0,3.2,0.1,4.8
		c0.9,1.7-0.2,2.5-1.4,3.3C662.5,400.1,661.9,401.8,660.2,400.9z"/>
	<path class="st79" d="M662.7,399c0.7-1,2.7-0.9,2.2-2.8c1,1.9,1.4,4,1.9,6.1c-0.4,0-0.8,0-1.2-0.1
		C663.9,401.7,662.9,400.7,662.7,399z"/>
	<path class="st116" d="M667,423.9c0.4,0,0.8,0,1.2,0c1.5,2.4,0.6,4.6-0.5,6.8C667.6,428.4,667.7,426.2,667,423.9z"/>
	<path class="st117" d="M724,426c0.7-10.1,0-20.2-1.4-30.2c-0.4-2.5-0.8-5.3,0.5-7.8c2.1,0.8,4.1,2.3,6.7,1.5
		c0.7-0.2,1.6,0.1,1.8,1.1c-0.6,12.1-3,24-4.7,36C725.8,427.6,724.8,427.3,724,426z"/>
	<path class="st118" d="M715.1,412.4c0.3-0.5,0.7-0.7,1.3-0.7c0.4,10.2-1.2,20.4-1.9,30.5c-0.1,1.1-0.1,2.2-0.2,3.4
		c-0.2,0.8-0.7,1.4-1.6,1.4c-0.8-0.1-0.8-0.8-0.9-1.5c0.8-8,0.8-16,1.7-23.9C713.7,418.5,713.5,415.3,715.1,412.4z"/>
	<path class="st119" d="M712.4,446.3c1,0.8,1.2-0.6,1.9-0.7c1.6,1.8,3.3,3.5,4.9,5.3c-1,1.4-2.4,0.5-3.5,0.9c-2-2.1-6.8-1.5-6-6.2
		c0.5-0.3,1.1-0.1,1.6,0C711.8,445.8,712.1,446,712.4,446.3z"/>
	<path class="st120" d="M724,426c0.8,0.5,1.7,0.8,2.6,0.6c0.5-0.6,0.9-1.4,1.9-0.7c-0.3,2.8-0.4,5.6,0.1,8.4c0.6,3.4-0.9,4.4-4,3.8
		c-0.8-2.9-1-5.8-0.6-8.8c0.8-0.1,1.1,0.5,1.4,1.1c0.7,1.3,0.4,2.8,1.1,4.6c0.7-1.6-0.1-2.8-0.1-4c-0.1-0.7-0.1-1.4-0.3-2.2
		c-0.3-1.1-1.7-0.8-2.2-1.6C724,426.9,724,426.4,724,426z"/>
	<path class="st121" d="M731.3,390c-2.9,0.2-6.2,1.5-8.2-2.1c0-0.4-0.1-0.9-0.1-1.3c2.8,1.5,5.7,2.9,8.9,0.8
		c0.6,0.5,0.7,1.2,0.5,1.9C732.3,389.8,732,390.2,731.3,390z"/>
	<path class="st122" d="M726.6,428.6c0.8,0.5,0.6,1.3,0.7,2c-0.9,0.8-1.8,0.7-2.7,0c-0.2-0.4-0.4-0.9-0.6-1.3
		c-0.1-0.2-0.1-0.4,0-0.7C724.8,428,725.7,427.9,726.6,428.6z"/>
	<path class="st123" d="M718.5,405.5c0.2,0.1,0.4,0.1,0.6,0c0,0.2,0,0.5,0.1,0.7c-0.2,0.9,0.7,1.9,0,2.8l0,0c-0.4,0.4-0.8,0.4-1.3,0
		C717.3,407.7,715.9,406.3,718.5,405.5z"/>
	<path class="st124" d="M726.6,428.6c-0.9,0-1.7,0.1-2.6,0.1c0-0.5,0-0.9,0-1.4C724.8,427.9,726.8,426.1,726.6,428.6z"/>
	<path class="st109" d="M717.9,409.1c0.4,0,0.8,0,1.3,0c-0.3,1.1-0.4,2.4-2.1,2C717.3,410.4,717.6,409.7,717.9,409.1z"/>
	<path class="st109" d="M719.1,409c0.3-0.9-1.2-1.9,0-2.8C720.1,407.2,720.1,408.1,719.1,409z"/>
	<path class="st118" d="M711,446.3c-0.4-0.2-0.8-0.4-1.3-0.7c0-5.7,0-11.3,0-17c0.1-2.7,1-5.3,1-8.1c0-0.5-0.8,0.1-0.3,0
		c0,0,0,0.1,0.1,0.2c0.6,2.3-0.5,4.5-0.9,6.7c-2,4-1.2,8.5-1.8,12.8c-0.4,2.7-0.9,5.4-0.9,8.2c-0.2,0.2-0.4,0.4-0.6,0.7
		c-0.5,0.4-0.9,0.4-1.3,0c0.7-5.9,1.3-11.8,2-17.7c0.6-3.5-0.1-7.1,1.1-10.5c0.4-2.2-0.5-4.7,1.7-6.4c0.3-0.5,0.8-0.7,1.4-0.7
		c0.6,1.2,0.4,2.4,0.3,2.9c-0.1-0.7,0.4-2.1-0.3-3.5c0-0.6,0.1-1.1,0.7-1.4c0.2-0.2,0.5-0.2,0.7,0c0,0.2,0,0.4,0,0.7
		c1.8,2.4,1.2,5.2,0.9,7.8c-0.8,7.5-0.5,15-0.9,22.5C712.3,444.1,712.4,445.5,711,446.3z"/>
	<path class="st80" d="M711,446.3c0.5-0.9,0.7-1.9,0.7-2.9c-0.4-10.3,0.5-20.7,0.7-31c0.9,0,1.8,0,2.7,0c-0.7,8.5-1.3,17.1-2,25.6
		c-0.2,2.8,0.3,5.6-0.7,8.3C711.9,446.3,711.4,446.3,711,446.3z"/>
	<path class="st125" d="M700.2,413.7c-0.5,0-0.9,0-1.4,0c-0.5-9,0-17.9,3.1-26.5c0.7-1.9,0-3.7-0.1-5.9c2.2,1.1,2.6,2.6,2.2,4.5
		c-0.8,3.5-1.6,7-2.4,10.4c0.4,2.7,0.4,5.4-0.7,8C700.5,407.3,701.6,410.6,700.2,413.7z"/>
	<path class="st126" d="M705.5,379.9c0.1,0.5,0.1,0.9,0.2,1.4c0.7,1.7,2.4,2.1,3.7,3.1c0.4,0.3,0.6,0.7,0.9,1.1
		c0.7,1.5,0.9,3.1,1,4.8c0-2.3-0.7-4.5-0.3-6.7c0-0.2,0.1-0.3,0.1-0.5c0.3-0.6,0.8-1.2,0.6-1.9c-0.2-0.2-0.2-0.4-0.1-0.5
		c0.1-0.1,0.2-0.2,0.3-0.2c0.6,0,1.3-0.1,1.9-0.1c0.7,5.6-1.1,11-2,16.6c-0.9-4.3-3.6-7.6-5.7-11.1C704.8,384,704.3,382,705.5,379.9
		z"/>
	<path class="st127" d="M709.6,414.4c-1,1.9-0.2,4.2-1.3,6.1c-0.4,0-0.5-0.4-0.7-0.6c-0.2,0-0.5-0.1-0.7-0.1
		c-2.3-0.4-4.2-1.4-5.5-3.4c0-0.7,0.1-1.3,0.1-2C704.3,414.4,707,414.4,709.6,414.4z"/>
	<path class="st128" d="M712.4,411.7c-0.2,0-0.5,0-0.7,0c0-4.3,0-8.5,0-12.8C711.9,403.2,714.3,407.5,712.4,411.7z"/>
	<path class="st70" d="M700.9,404.2c0.3-2.6-0.8-5.4,0.7-8C704,399.1,702.9,401.7,700.9,404.2z"/>
	<path class="st129" d="M711,413.1c1.4,1.4,0.2,3.1,0,4.7c0-1.3,0-2.7,0-4C711,413.5,711,413.3,711,413.1z"/>
	<path class="st69" d="M752.3,444.9c-0.7,0.1-1.3,0.1-2,0.2c-1.1,0.2-2.3,0.5-3.4,0.7c-0.8-0.7-1.7-0.9-2.6-0.8
		c0.1-2.8-0.3-5.5-1.4-8c0.2-0.5,0.7-0.7,1-1.2c0.1-0.4,0.1-0.7,0.1-1.1c-0.1-0.8-0.8-1.5-0.5-2.4c0-0.7,0-1.4,0-2
		c-0.2-4.5-0.2-4.6,4-3.5c2.5,0.7,4.9,0.6,7.4-1c0.6,6.6-1.1,12.7-2.6,18.7C752.4,444.5,752.4,444.7,752.3,444.9z"/>
	<path class="st130" d="M736,424c-0.6,3.1,0.8,5.2,3.4,6.7c1,0.3,1.3,1,1.2,1.9c-0.1,0.3-0.2,0.6-0.5,0.8c-2.9,1-4.8-1.9-7.4-2.1
		c-2.2-2.1-1.2-4.9-1.3-7.4c0.5-0.3,1-0.2,1.5-0.1c0.4,0,0.8,0,1.1,0C734.7,423.8,735.4,423.6,736,424z"/>
	<path class="st82" d="M740.1,433.4c0-0.2,0-0.4,0-0.6c0.5-0.6,0.9,0,1.4,0c0.7-0.2,1.3-0.5,2-0.7c0.3,0.9,1.7,1.3,1.3,2.6
		c-1.1,0.5-0.3,1,0,1.4c-0.3,1.1-1.3,0.5-1.9,0.7C740.2,437.2,741.1,434.5,740.1,433.4z"/>
	<path class="st131" d="M732.7,424.6c-0.4-0.2-0.8-0.4-1.2-0.6c0-3.1-0.1-6.3-0.1-9.4c0-1.2,0.1-2.5-0.7-3.5c1.3-3.4,1.4-7,1.8-10.5
		c-0.3,3.5-0.6,7.1-1.8,10.5c-1.3,2.5-0.7,5.3-1.2,8c-0.4,2.2-0.3,4.6-0.9,6.9c-0.6,0.2-1.3,0.4-1.9,0.7c0.5-8.2,1.6-16.3,3-24.3
		c0.7-4.1,1.2-8.2,1.7-12.3c0.2-0.2,0.5-0.5,0.7-0.7c0.5-0.4,1-0.3,1.5,0.1c0.5,0.7,0.5,1.4,0.4,2.2c-0.6,2.4-0.5,4.9,0.2,7.3
		c0.7,7.9-1,15.7-0.6,23.6C733.6,423.3,733.2,424,732.7,424.6z"/>
	<path class="st104" d="M679.7,430.7c-0.2,0-0.4,0-0.6,0c-0.4,0.4-0.6,1-1.4,0.7c0.5-10.1,1.9-20.1,3.8-30c0.5-2.9,0.7-5.8,1-8.7
		c0.8-0.7,1.6-0.6,2.4-0.1c1.5,1.4,1.5,3.3,1.3,5.1c-0.8,9.1-0.8,18.2-1.1,27.4c0,1-0.2,2-0.7,2.9c-0.6-0.2-1.3-0.4-1.9-0.7
		c0-5.7,0-11.3,0-17c0.1-3,1-5.9,1-8.1c-0.1-1.3-0.8-0.7-0.4-0.9c0.1,0,0.2,0,0.2,0.2c0.6,2.4-0.5,4.6-0.9,6.8
		c-1.8,4-1.1,8.4-1.9,12.6C679.9,424.2,680,427.5,679.7,430.7z"/>
	<path class="st132" d="M682.5,408.4c-0.2-2.6,1.2-4.9,1-7.5c0.8,3.3-0.1,6.3-0.8,9.5C682.6,409.7,682.5,409.1,682.5,408.4z"/>
	<path class="st133" d="M664.2,419.8c0.2,1.9,0.3,3.8,0.7,5.6c1.4,5.9,0.2,11.7-0.7,17.6c-0.5,0.4-0.9,0.8-1.4,1.2
		c-0.7,0.1-1.3,0.1-2,0.2c-0.9,0-1.8,0-2.8,0c-0.8-1.9-1.8,0.2-2.7-0.2c-0.2-5.4-2.3-10.4-3.6-15.5c-1-4,0-6.9,2.8-9.5
		C657.9,418.9,661.1,418.2,664.2,419.8z"/>
	<path class="st134" d="M653.9,399.6c0.1,0.2,0.1,0.4,0.1,0.6c1.3,1.9,1.6,3.9,0.9,6.1c-0.5,1.9-0.8,4-1.2,5.9
		c-0.1,0.6-0.4,1.7,0.7,0.4c2.5-0.4,4.9-1.5,7.5-0.5c1,0.9,1,2,0.8,3.1c-0.1,0.4-0.3,0.7-0.5,0.9c-2.3,1.3-4.8,2.2-7.5,1.8
		c-4.5-0.2-5.6-1.4-4.6-5.8c0.5-2.4,0.6-4.7,0.5-7C650.5,402.5,651.3,400.5,653.9,399.6z"/>
	<path class="st135" d="M664.2,419.8c-3.2-0.2-6.4,0.8-9.5-0.5c0-0.3,0.1-0.5,0.1-0.8c2.3-1.4,5.2-1,7.4-2.7l-0.1-0.1
		c0.8-0.4,1.4-1.4,2.4-0.3c0.2,1.3,0.1,2.6-0.2,3.8C664.2,419.4,664.2,419.6,664.2,419.8z"/>
	<path class="st136" d="M662.2,415.8c-2.1,2-4.9,2-7.4,2.7c0-0.2,0-0.4-0.1-0.6C657,416.7,659.7,416.6,662.2,415.8z"/>
	<path class="st137" d="M744.9,402.9c0-0.4,0-0.9,0-1.3c-0.8-1.2,0-1.9,0.7-2.7l-0.1-0.1c0.4-0.4,0.9-0.4,1.4-0.3
		c0.5,0.2,0.8,0.5,1.2,0.9c0.7,1.1,1,2.4,1.5,3.6c0.6,1.5,0.9,3.1,1,4.8c-0.1-1.8-0.7-3.6-0.7-5.4c0.1-0.7,0.2-1.4,0.4-2
		c0.6-1.1,1.4-1.7,2.6-0.9c1.4,4,0.6,7.9-0.5,11.7c-0.2,0.7,0,1.7-1.1,1.8c-0.9,0-1.5-0.6-1.7-1.4c-0.8-2.4-3.8-3.9-2.8-7.1
		C747.1,403.5,745.9,403,744.9,402.9z"/>
	<path class="st115" d="M747.7,399.6c-0.3-0.2-0.5-0.5-0.8-0.7c-0.3-0.5-0.3-0.9-0.1-1.4c0.2-0.1,0.3-0.3,0.5-0.3
		c5-0.7,5-0.7,4.7-6.3c0.2-0.9,0.5-1.6,1.7-1.5c0.8,2.7,0.9,5.5,0.7,8.2c-0.4,0.6-0.9,1.3-1.3,1.9c-1,0.1-2.1,0-2.1,1.5
		C749.3,401.8,748.5,400.6,747.7,399.6z"/>
	<path class="st138" d="M742.9,419.1c0.2-1.4-0.6-2.9,0.6-4.1C745.1,416.7,743.4,417.8,742.9,419.1z"/>
	<path class="st69" d="M745.6,398.9c-0.2,0.9-0.5,1.8-0.7,2.7c-0.6-0.2-1.2-0.5-1.8-0.7c2.2,3.5,0.7,7-0.4,10
		c-2.7,7.3-1.4,14.7-1.1,22c-0.5,1-0.9-0.3-1.4,0c-0.3-0.7-0.5-1.4-0.8-2.2c0-3.6-0.6-7-1.2-10.5c-0.6-3.7,0.6-7.3,0.9-10.9
		c0.1-0.8,0.3-1.7,0.4-2.6C739.7,402.2,741.3,400.2,745.6,398.9z"/>
	<path class="st139" d="M736,424c-0.6,0.2-1.3,0.4-1.9,0.6c-1-1.3-0.7-2.8-0.7-4.2c0.4-10.6,1.6-21.1,1.8-31.7
		c0.4-1.5,0.9-2.8,2.8-2.7c0.4,7.7-0.4,15.3-1.1,23C736.5,413.9,736.2,419,736,424z"/>
	<path class="st140" d="M753.7,389.3c-0.4,0.5-0.9,0.9-1.3,1.4c0,2.2-1.5,3.3-3.2,4.2c-1.2,0.5-2.4,0.7-2.6-1.2
		c0-1.7,0.4-3.3,0.7-4.7c0.1-0.7-0.7-0.3-0.2-0.3c0,1.8-0.4,3.5-0.9,5.1c-0.5,0.3-1,0.4-1.5,0.3c-3.1-1.3-1.2-4-1.6-6
		c0-0.2,0-0.5-0.1-0.7c2.4-1.9,5.3-1.4,8-1.4C751.8,387.1,752.8,388.2,753.7,389.3z"/>
	<path class="st141" d="M743,388.1c1,0.9,0.5,2.1,0.6,3.2c0.1,1,0,2.1,1.4,2.2c0.7,1.4,2.8,2,2.1,4c-0.1,0.5-0.1,0.9-0.2,1.4
		c-0.5,0-0.9-0.1-1.4-0.1C742.7,395.7,740.6,392.4,743,388.1z"/>
	<path class="st121" d="M738,386c-0.8,0.5-1.5,1.1-1.9,2c-0.4,0.4-0.8,0.4-1.3,0.3c-0.6-0.4-0.8-1-0.7-1.6c0.4-0.9,1.8-0.8,2.1-1.9
		c0.6-0.5,1.3-1,1.9-1.4C738,384.2,738,385.1,738,386z"/>
	<path class="st142" d="M734.7,373.2c0.2,1.8,0.5,3.5,0.7,5.3c-1.2,1.3-1,3.2-1.9,5.1c-1.6-2.6-1.5-5.2-1.6-7.7
		c0.3-0.7,0.6-1.4,0.9-2c0.3-0.5,1-0.3,1.4-0.6C734.3,373.1,734.5,373.1,734.7,373.2z"/>
	<path class="st143" d="M734.1,386.6c0.7,0.2,0.7,0.9,0.8,1.4c0.1,1.1-0.4,1.6-1.5,1.5c-0.4-0.1-0.9-0.1-1.3-0.2
		c0-0.6,0-1.3-0.1-1.9C732.7,387.2,733.4,386.9,734.1,386.6z"/>
	<path class="st144" d="M723.9,373.1c1.2,0,2.4,0,3.3-0.8c0.2-0.3,0.5-0.2,0.7,0c-0.5,1.6-2.2,1.3-3.3,2
		C724.4,374,724.2,373.5,723.9,373.1z"/>
	<path class="st119" d="M707.5,455.1c-0.6,0-1.1,0-1.7,0c-0.9,0-1.6-0.3-1.7-1.2c-0.1-1.1,0.9-0.7,1.5-0.9c0.7-0.3,1.1-0.7,1.4-1.3
		C708.1,452.7,707.5,454,707.5,455.1z"/>
	<path class="st129" d="M709.6,427.4c0.3-2.5,0.6-5,0.9-7.5c0.9,3.1,0,5.9-0.8,8.8C709.7,428.2,709.7,427.8,709.6,427.4z"/>
	<path class="st90" d="M675.7,395.4c-0.2,0-0.4,0-0.7,0c-1.7-9.4-2.2-18.8,0.2-28.2c0.5-1.9-0.7-3.2-0.7-4.8
		c1.2-0.3,1.7,0.8,2.5,1.2c1.1,0.9,1,2.2,1.1,3.5c-0.8,4.5-0.4,9.1-1.7,13.6c-0.5,1.7,0,3.5,0.2,5.3c0.2,2.5,0.9,5.1-0.8,7.5
		C675.7,394.1,675.7,394.7,675.7,395.4z"/>
	<path class="st145" d="M712.4,371.1c0.5,0.9,0.7,1.8,0.7,2.9c0.2,5.6-1,6.4-6,3.8C706.9,373.6,707.4,372.9,712.4,371.1z"/>
	<path class="st82" d="M664.2,391.5c-0.1,1.1-0.1,2.2-0.3,3.3c-0.5,2.5-1.9,3.5-4.3,2.1c0-1.6,0-3.2-0.1-4.7
		C661.1,392.3,662.6,391.7,664.2,391.5z"/>
	<path class="st146" d="M707.7,420c0.2,0.2,0.5,0.4,0.7,0.6c0,2.6-0.2,5.1-0.1,7.7c0.1,1.4-0.3,2.3-1.4,3.1c-1.5,0.1-2.3,1.8-4,1.5
		c0-1.1,0-2.3-0.1-3.4c0.1-0.1,0.2-0.2,0.2-0.2C703,425.3,704.6,422.3,707.7,420z"/>
	<path class="st147" d="M704.9,449c0.4,0,0.9,0,1.3,0c-0.8,0.9-1.8,0.7-2.8,0.5C703.8,448.8,704.4,449.1,704.9,449z"/>
	<path class="st148" d="M735.5,359.6c1.4,2.8,4.3,5.1,2.7,8.8c-0.5,0.8-1.3,0.6-2.1,0.6c-1.5-2.3-1.1-4.9-1.4-7.4
		C735,360.9,735.2,360.2,735.5,359.6z"/>
	<path class="st74" d="M734.7,361.5c1.5,2.3,1.5,4.9,1.4,7.4c-0.6,0-1.3,0-1.9,0.1c-2-1.1-2.4-2.7-1.5-4.7c2.6,0.3,0.8-1.8,1.4-2.6
		C734.3,361.6,734.5,361.5,734.7,361.5z"/>
	<path class="st149" d="M732.8,362.3c-1.3,0-2.6-0.3-3.5-1.4c1.4,0.2,2.8,0.5,4.2,0.7C733.2,361.8,733,362,732.8,362.3z"/>
	<path class="st100" d="M727.9,372.4c-0.2,0-0.5,0-0.7,0c-0.2-3.6-2.3-6.4-4-9.3c1.9-0.5,2.6,1.3,4,1.9c0.6,2,2.9,3.6,1.4,6.1
		C728.4,371.5,728.2,371.9,727.9,372.4z"/>
	<path class="st74" d="M728.7,371.1c-0.5-2-1-4.1-1.4-6.1c1.1,0.6,1.7,3.6,3.5,0.6c2.2,0.8,2.4,2.2,1.4,4.1
		C730.9,370.1,729.8,370.6,728.7,371.1z"/>
	<path class="st142" d="M732,369.6c0.1-1.5-0.1-3-1.4-4.1c0.3-0.9,1-1.4,2-1.3c0.1,1.7,0.7,3.3,1.5,4.7
		C733.7,369.9,732.8,369.7,732,369.6z"/>
	<path class="st150" d="M734.1,373.1c-0.3,0.6-0.8,0.6-1.4,0.6c-0.7-0.1-1.4-0.1-2.1-0.2c0-0.2,0-0.3,0-0.5
		C731.8,373.1,733,373.1,734.1,373.1z"/>
	<path class="st151" d="M662.7,399c1,1.1,1.9,2.1,2.9,3.2c1.3,3.1-0.2,4.8-2.8,6.1c-2.4,1.8-4.8,1.3-7.3,0.4c-1.6-2.1-0.3-4,0.6-5.8
		c1.7,0.7,3,2.3,5.1,2.7c0.5-1.8-1.1-3-0.9-4.6C661.6,401,662,399.7,662.7,399z"/>
	<path class="st113" d="M656.1,402.9c-0.2,1.8-0.5,3.6-0.7,5.4c0.2,1.7,0.7,3.6-1.3,4.7c-0.1,0.3-0.2,0.8-0.4,0.9
		c-1,0.2-1.1-0.7-1-1.2c0.4-2.2,0.6-4.4,1.3-6.5c0.7-2.1,0.5-3.9-0.1-5.9C655.3,400.7,655.5,401.9,656.1,402.9z"/>
	<path class="st152" d="M708.9,384.5c-1.9-0.3-3-1.3-3.2-3.3c1.2,1,2.4,1.5,4,1.4C710.3,383.6,709.9,384.2,708.9,384.5z"/>
	<path class="st149" d="M711.7,380.6c0,0.2-0.1,0.4-0.1,0.7c-1.2,0-2.4,0.1-3.5-1.1C709.5,379.6,710.6,380.9,711.7,380.6z"/>
	<path class="st153" d="M708.9,384.5c0.3-0.6,0.9-1.1,0.7-1.9c0.5,0.2,0.9,0.3,1.4,0.5c0,0-0.1,0.2-0.1,0.2c0.3,1.1-0.3,1.6-1.3,1.9
		C709.4,385.1,709.1,384.8,708.9,384.5z"/>
	<path class="st154" d="M684.6,392.8c-0.7,0-1.4,0-2,0c-0.7,0.2-1.4,0.4-2,0.7c-0.7-0.9-0.6-1.7,0.4-2.4c1.5-0.7,3.2-0.7,4.7-1.3
		c2.2-0.8,2.2-2.6,1.8-4.5c-0.5-2.9-0.4-5.8-0.2-8.7c-0.2-5.2-0.1-10.4-0.3-15.7c-0.2-0.6-0.3-1.1,0.4-1.4c1.5,1.5,2.2,3.3,2.1,5.5
		c-0.4,7.3,0.3,14.5,2,21.6c-0.7,0.3-0.7,0.8-0.6,1.4c-0.1,0.2-0.1,0.4-0.1,0.6c-1,0.4-1.4,1.1-1.4,2.1c-0.4,0.2-0.8,0.4-1.2,0.7
		C687.2,392.7,686.1,393.3,684.6,392.8z"/>
	<path class="st155" d="M685.9,390.6c-1.5,0.6-3,1-4.7,0.7c-1.4-1.5-1.1-3.4-0.9-5.1c0.3-2,0.5-4,0.5-6.1c0.5-4.3-0.8-8.4-1.6-12.5
		c-0.3-1.4-1.5-3,0.5-4.2c0.3,0,0.6,0.1,0.9,0.1c1,0.7,2.4-0.1,3.2,0.9c0.8,1,1.1,2.2,1.3,3.4c1.1,6,1.9,12,1.9,18.1
		C686.9,387.7,687,389.3,685.9,390.6z"/>
	<path class="st156" d="M685.9,390.6c0.3-8.9-0.6-17.6-2.7-26.3c0-0.4,0.4-0.5,0.7-0.7c0.3-0.3,0.6-0.5,0.9-0.8
		c2.5,1,2.2,3.4,2.5,5.4c0.4,2.7,0,5.6,0.9,8.2c-0.2,3-0.4,6,0.4,9C689.1,387.7,689,390,685.9,390.6z"/>
	<path class="st126" d="M679.7,363.5c-0.6,3.4,1.3,6.3,1.7,9.5c0.3,2.3,0.4,4.6,0.4,6.9c-1.7,0-1.9-1.3-2.3-2.4
		c-1.3-3.4-2.1-6.9-2.3-10.6c0-1.1-0.1-2.2-0.1-3.3c0.3-1.2-0.1-3,2.1-2.7C679.3,361.8,679.5,362.6,679.7,363.5z"/>
	<path class="st157" d="M688.1,376.4c-1.4-3.4-0.9-7.2-2-10.7c-0.4-1.1-0.5-2.2-1.4-3c-0.8-2.3,2.2-0.3,2.1-1.9
		c1.6,1.7,1.1,3.8,1.2,5.8C688.1,369.9,688.1,373.2,688.1,376.4z"/>
	<path class="st158" d="M683.9,363.6c-0.2,0.2-0.5,0.5-0.7,0.7c-0.9-0.2-2,0.3-2.7-0.7C681.6,363.6,682.7,363.6,683.9,363.6z"/>
	<path class="st159" d="M701.4,416.4c1.9,1,3.9,1.9,5.5,3.4c-4.2,3-5.4,2.8-9.5-1.4C699.3,418.7,700.9,418.6,701.4,416.4z"/>
	<path class="st80" d="M684.6,392.8c1.1-0.5,2.3-0.9,3.4-1.4c-0.3,9-1.1,18-2,27c-0.3,3.2,0.4,6.5-0.7,9.7c-0.2,0.5-0.5,0.5-0.7,0
		c0-7.2-0.1-14.4,0-21.6c0-3.4,0.4-6.7,0.6-10.1C685.3,395.1,685.2,393.9,684.6,392.8z"/>
	<path class="st102" d="M677.1,366.9c1.1,3.6,2.3,7.2,3.3,10.8c0.3,0.9,0.5,1.7,1.3,2.2c0.6,3.9-1.2,7.6-0.5,11.5
		c-0.8,0.5-0.7,1.3-0.7,2.1c-1.6,0-3.2,0-4.7,0C674.8,384.5,675.9,375.7,677.1,366.9z"/>
	<path class="st76" d="M677.8,431.4c0.5-0.2,0.9-0.4,1.4-0.7c0,1.5,0,3.1,0,4.6c0,0.7-0.1,1.5-0.8,1.6c-0.9,0.2-1.5-0.6-1.6-1.3
		c-0.2-1.4-0.2-2.8-0.2-4.3C676.9,431.4,677.3,431.4,677.8,431.4z"/>
	<path class="st160" d="M664.3,419.2c0-1.4,0-2.7-0.1-4.1c0.4-0.4,0.9-0.4,1.3,0c0,0.5,0,0.9,0,1.4
		C664.2,417,665.6,418.7,664.3,419.2z"/>
	<path class="st135" d="M654.1,412.9c1.3-1.3-0.2-3.4,1.3-4.7c2.5,0,5,0,7.5,0c0.4,0.1,0.9,0.1,1.3,0.2c0.7,1.3,0.4,2.7,0.2,4.1
		c-0.7,0.6-1.5,0.5-2.2,0C659.4,412.1,656.8,413.8,654.1,412.9z"/>
	<path class="st82" d="M662.1,412.5c0.7,0,1.4-0.1,2.1-0.1c0.2-0.3,0.4-0.3,0.7,0c1,0.7,0.6,1.8,0.6,2.8c-0.4,0-0.9,0-1.3,0
		c-0.7,0.2-1.4,0.4-2.1,0.6C662.1,414.6,662.1,413.6,662.1,412.5z"/>
	<path class="st160" d="M664.9,412.4c-0.2,0-0.5,0-0.7,0c0-1.3,0-2.7-0.1-4C665.6,409.5,664.6,411.1,664.9,412.4z"/>
	<path class="st161" d="M724.6,430.7c0.9,0,1.8,0,2.7,0c0.2,1.2,0.5,2.4,0.7,3.6c0.1,1,0,2.2-1.3,2.3c-1.2,0-1.3-1-1.3-2
		C725.3,433.2,725.3,431.9,724.6,430.7z"/>
	<path class="st119" d="M709.6,385.3c0.4-0.6,0.9-1.3,1.3-1.9c1.7,2.3,0.3,4.9,0.6,7.3C710.5,389.1,709.8,387.3,709.6,385.3z"/>
	<path class="st162" d="M744.8,436.2c-1.1-0.2-2.2-0.8-1.8-1.9c0.5-1.2,1.1,0.5,1.8,0.4C744.8,435.2,744.8,435.7,744.8,436.2z"/>
	<path class="st117" d="M733.4,389.5c0.5-0.5,1-1,1.5-1.5c0.4,0,0.8,0,1.2,0c0.2,10.7-1.2,21.3-2,31.9c-0.1,1.6,0,3.2,0,4.7
		c-0.5,0-0.9,0-1.4,0c-0.5-8.8,1-17.6,0.7-26.4c-0.5-2.3-0.5-4.5,0-6.8C733.4,390.8,733.4,390.1,733.4,389.5z"/>
	<path class="st163" d="M730.6,411.1c0.5-3.9,1.1-7.7,1.7-12.2c1.1,4.3-0.5,7.7-0.4,11.3C731.9,410.8,731.2,411,730.6,411.1
		C730.6,411.1,730.6,411.1,730.6,411.1z"/>
	<path class="st163" d="M733.4,391.4c0,2.3,0,4.5,0,6.8C732.3,395.9,732.3,393.7,733.4,391.4z"/>
	<path class="st132" d="M684.5,394.1c0,2,0.4,3.1-0.3,4.2C683.8,397,683.7,395.9,684.5,394.1z"/>
	<path class="st164" d="M750.4,402.2c1,2,0.7,4.1,0.5,6.6c-1.1-2.2-1.8-4-1.9-6c-0.1-0.6,0.1-1.1,0.7-1.3
		C750.2,401.4,750.4,401.6,750.4,402.2z"/>
	<path class="st165" d="M750.4,402.2c-1-0.8-1,0.3-1.4,0.7c-0.9-0.9-1.1-2.1-1.3-3.3c1.1,0.5,2.2,0.9,3.3,1.4
		C751,401.4,751.2,402,750.4,402.2z"/>
	<path class="st82" d="M747,397.5c-0.2-1.6-2.9-1.9-2.1-4c0.5,0,0.9-0.1,1.4-0.1c0.3-0.2,0.5-0.2,0.6,0.1c0.1,1.3,0.7,1.2,1.7,0.8
		c1.7-0.7,2.5-2.3,3.6-3.6c1.4,1.8,0.6,3.8,0.6,5.7c0,1.6-1.4,1.9-2.7,1.7C749.2,398,748.1,397.7,747,397.5z"/>
	<path class="st166" d="M746.9,393.5c-0.2,0-0.4-0.1-0.6-0.1c0-2-0.3-4,1.8-5.9C747.6,389.7,747.3,391.6,746.9,393.5z"/>
</g>
</svg>
