<svg xmlns="http://www.w3.org/2000/svg" xmlns:xlink="http://www.w3.org/1999/xlink" viewBox="0 0 185.03 184.66"><defs><style>.cls-1{isolation:isolate;}.cls-2{fill:#8cd4ff;}.cls-3{fill:#3776ac;}.cls-4{fill:url(#Degradado_sin_nombre_3);}.cls-5{mix-blend-mode:overlay;fill:url(#Degradado_sin_nombre_11);}.cls-6{mix-blend-mode:color-dodge;fill:url(#Degradado_sin_nombre_10);}.cls-7{fill:#53f0e7;}.cls-8{fill:url(#Degradado_sin_nombre_3-2);}</style><linearGradient id="Degradado_sin_nombre_3" x1="3053.04" y1="-681.41" x2="3045.5" y2="-525.25" gradientTransform="matrix(0.54, 0.54, -0.91, 0.93, -2125.08, -999.6)" gradientUnits="userSpaceOnUse"><stop offset="0" stop-color="#3dc7cf"/><stop offset="1" stop-color="#27196e"/></linearGradient><linearGradient id="Degradado_sin_nombre_11" x1="3054.09" y1="-708.14" x2="3054.09" y2="-473.96" gradientTransform="matrix(0.54, 0.54, -0.91, 0.93, -2125.08, -999.6)" gradientUnits="userSpaceOnUse"><stop offset="0" stop-color="#3dc7cf"/><stop offset="1" stop-color="#fff" stop-opacity="0"/></linearGradient><linearGradient id="Degradado_sin_nombre_10" x1="3038.07" y1="-663.81" x2="3030.61" y2="-486.53" gradientTransform="matrix(0.54, 0.54, -0.91, 0.93, -2125.08, -999.6)" gradientUnits="userSpaceOnUse"><stop offset="0" stop-color="#53f0e7"/><stop offset="1" stop-color="#53f0e7"/></linearGradient><linearGradient id="Degradado_sin_nombre_3-2" x1="3077.35" y1="-609.25" x2="2882.95" y2="-612.23" xlink:href="#Degradado_sin_nombre_3"/></defs><title>資產 4</title><g class="cls-1"><g id="圖層_2" data-name="圖層 2"><g id="圖層_41" data-name="圖層 41"><path class="cls-2" d="M163.51,184.46l-156.12.2c-4.5,0-7.32-2.85-7.39-7.37L.61,22C.47,12.21,12.42.12,22.13.2L176.79,0c4.51,0,7.32,2.85,7.39,7.37L185,162.7C185.18,172.45,173.22,184.54,163.51,184.46Z"/><polygon class="cls-3" points="183.85 83.89 183.82 82.41 1.5 80.91 1.52 82.4 183.85 83.89"/><polygon class="cls-3" points="183.7 73.97 183.68 72.48 1.35 70.98 1.37 72.47 183.7 73.97"/><polygon class="cls-3" points="1.2 61.06 1.22 62.54 183.55 64.04 183.53 62.56 1.2 61.06"/><polygon class="cls-3" points="184 93.82 183.97 92.34 1.65 90.84 1.67 92.32 184 93.82"/><polygon class="cls-3" points="184.44 123.6 184.42 122.12 2.09 120.62 2.12 122.1 184.44 123.6"/><polygon class="cls-3" points="184.29 113.68 184.27 112.19 1.95 110.69 1.97 112.18 184.29 113.68"/><polygon class="cls-3" points="184.15 103.75 184.12 102.27 1.8 100.77 1.82 102.25 184.15 103.75"/><path class="cls-4" d="M173.78,147.06l-15-.12-.18-12.35,15,.12-.3-20.29-15-.13-.18-12.35,15,.12-.3-20.29-15-.12-.18-12.35,15,.12,0-3.14c-.46-30.17-25.17-54.83-55.21-55.07l-105.7-.87.86,57.76,15,.13.18,12.35-15-.13.3,20.3,15,.12.18,12.35-15-.12.3,20.29,15,.13.18,12.35-15-.12.38,25.37,160.09,1.32Z"/><path class="cls-5" d="M101.23,15.9,22,96l8.35.07a2.46,2.46,0,0,1,1.77.66,2.51,2.51,0,0,1,.67,1.77L33,110.85a7.3,7.3,0,0,1-2.33,4.81A7.22,7.22,0,0,1,25.91,118L18.07,118l.16,10.65,5.28,0L131.94,19A52.17,52.17,0,0,0,115,16Zm38,6.3L32.88,129.75a2.66,2.66,0,0,1,.43,1.39l.18,12.36a7.26,7.26,0,0,1-2.33,4.8,7.17,7.17,0,0,1-4.77,2.37l-7.83-.06.24,15.73,44.29.36,89.79-90.8-.07-4.23a7.3,7.3,0,0,1,2.33-4.81,7.22,7.22,0,0,1,4.77-2.37l4.21,0,3-3.08A53.39,53.39,0,0,0,152,31.67,54.24,54.24,0,0,0,139.22,22.2ZM160.4,97.14l2.81,0,4.94-5-.08-5.6-12-.1L76.65,166.82l17.54.14,59.15-59.82,0-2.83a7.3,7.3,0,0,1,2.33-4.8A7.22,7.22,0,0,1,160.4,97.14Z"/><path class="cls-6" d="M128.57,36.14a18.81,18.81,0,0,1-18.63,15.22l-18.63-.15a20,20,0,0,1-19.1-15.53L53.4,35.52l1.42,94.39,64.51.53,29-29.36-1-64.78Z"/><path class="cls-7" d="M58.28,40.39l9.72.08A22.16,22.16,0,0,0,89,56l18.63.16a25.36,25.36,0,0,0,17-6.76A28.28,28.28,0,0,0,131.09,41l11.56.09.9,60-24.29,24.57-59.71-.49Z"/><path class="cls-8" d="M118.72,49.26h0l0,0Zm0,0a18.84,18.84,0,0,0,9.85-13.12l-8.19,8.29A18.65,18.65,0,0,1,118.72,49.26Zm-63.9,80.65L53.4,35.52l-8.19,8.29,1.42,94.39,64.51.53,8.19-8.29Zm61.76-79.72a19.73,19.73,0,0,1-2,.62A16.84,16.84,0,0,0,116.58,50.19Z"/></g></g></g></svg>