<svg xmlns="http://www.w3.org/2000/svg" xmlns:xlink="http://www.w3.org/1999/xlink" viewBox="0 0 259.44 258.92"><defs><style>.cls-1{isolation:isolate;}.cls-2{fill:#8cd4ff;}.cls-3{fill:#3776ac;}.cls-4{fill:url(#Degradado_sin_nombre_3);}.cls-5{mix-blend-mode:overlay;fill:url(#Degradado_sin_nombre_11);}</style><linearGradient id="Degradado_sin_nombre_3" x1="307.19" y1="272.1" x2="296.61" y2="491.06" gradientTransform="matrix(-0.54, 0.54, 0.91, 0.93, -46.23, -379.85)" gradientUnits="userSpaceOnUse"><stop offset="0" stop-color="#3dc7cf"/><stop offset="1" stop-color="#27196e"/></linearGradient><linearGradient id="Degradado_sin_nombre_11" x1="308.66" y1="234.63" x2="308.66" y2="562.98" gradientTransform="matrix(-0.54, 0.54, 0.91, 0.93, -46.23, -379.85)" gradientUnits="userSpaceOnUse"><stop offset="0" stop-color="#3dc7cf"/><stop offset="1" stop-color="#fff" stop-opacity="0"/></linearGradient></defs><title>資產 4</title><g class="cls-1"><g id="圖層_2" data-name="圖層 2"><g id="圖層_2-2" data-name="圖層 2"><path class="cls-2" d="M30.17,258.64l218.91.28c6.31-.05,10.26-4,10.36-10.34l-.86-217.79C258.78,17.12,242,.17,228.41.28L11.55,0C5.24.05,1.28,4,1.19,10.34L0,228.13C-.2,241.8,16.56,258.75,30.17,258.64Z"/><polygon class="cls-3" points="1.66 117.63 1.69 115.55 257.34 113.45 257.31 115.53 1.66 117.63"/><polygon class="cls-3" points="1.87 103.72 1.9 101.63 257.55 99.53 257.52 101.61 1.87 103.72"/><polygon class="cls-3" points="257.76 85.61 257.73 87.69 2.08 89.8 2.11 87.71 257.76 85.61"/><polygon class="cls-3" points="1.45 131.55 1.48 129.47 257.13 127.37 257.1 129.45 1.45 131.55"/><polygon class="cls-3" points="0.82 173.31 0.85 171.23 256.5 169.13 256.47 171.21 0.82 173.31"/><polygon class="cls-3" points="1.03 159.39 1.06 157.31 256.71 155.21 256.68 157.29 1.03 159.39"/><polygon class="cls-3" points="1.24 145.47 1.27 143.39 256.92 141.29 256.89 143.37 1.24 145.47"/><path class="cls-4" d="M15.78,206.2,36.86,206l.26-17.32L16,188.88l.43-28.45,21.08-.17.26-17.32-21.09.17.43-28.45,21.08-.18.26-17.32-21.08.17.07-4.4c.63-42.3,35.29-76.87,77.41-77.22L243.1,14.49l-1.22,81-21.08.17L220.54,113l21.08-.17-.43,28.45-21.08.18-.26,17.32,21.08-.18L240.51,187l-21.09.17-.26,17.32,21.09-.17-.54,35.58L15.24,241.79Z"/><path class="cls-5" d="M98.15,22.45a73,73,0,0,0-23.71,4.18l152,153.76,7.4-.06.23-14.93-11,.09c-2.09,0-4.63-1.25-6.69-3.33s-3.29-4.64-3.26-6.73l.26-17.32a3.21,3.21,0,0,1,3.41-3.41l11.71-.1L117.5,22.29Zm-51.78,22a74.86,74.86,0,0,0-21.3,41.77l4.26,4.3,5.9,0c2.08,0,4.63,1.25,6.68,3.32s3.3,4.64,3.27,6.74l-.09,5.93L171,233.74l62.1-.51.33-22-11,.09c-2.08,0-4.63-1.25-6.68-3.33s-3.3-4.64-3.27-6.74l.26-17.32a3.66,3.66,0,0,1,.6-1.95L64.23,31.13A76.48,76.48,0,0,0,46.37,44.4Zm-5.14,95.13c2.05,2.07,3.29,4.64,3.26,6.73l-.06,4,82.94,83.88,24.6-.2L40.56,121.23l-16.78.13-.11,7.86,6.93,7,3.94,0C36.62,136.18,39.17,137.45,41.23,139.53Z"/></g></g></g></svg>