<svg xmlns="http://www.w3.org/2000/svg" viewBox="0 0 399.15 399.15"><defs><style>.cls-1{opacity:0.5;}.cls-2{fill:#26ade5;}.cls-2,.cls-4,.cls-6{opacity:0.65;}.cls-3{fill:#00d1db;}.cls-4{fill:#26c3e5;}.cls-5,.cls-9{fill:#fff;}.cls-5{opacity:0.8;}.cls-6{fill:#00d0e5;}.cls-7{fill:#00cadb;}.cls-8{fill:#00a2db;}</style></defs><title>資產 1</title><g id="圖層_2" data-name="圖層 2"><g id="圖層_2-2" data-name="圖層 2"><g class="cls-1"><path class="cls-2" d="M210.12,332.15l2.36-.25c1.55-.19,3.87-.31,6.85-.83a125.43,125.43,0,0,0,25.34-6.38l4.07-1.51,4.19-1.8c1.45-.58,2.87-1.3,4.33-2s3-1.41,4.46-2.26a126.11,126.11,0,0,0,18.44-11.94,132.48,132.48,0,0,0,34.29-39.67,134.29,134.29,0,0,0,11.64-27.75A131,131,0,0,0,331.15,206c.1-1.38.06-2.77.06-4.16s0-2.8,0-4.2-.15-2.81-.23-4.22l-.1-2.13c-.06-.7-.15-1.41-.22-2.12-.14-1.41-.29-2.83-.43-4.25s-.43-2.84-.64-4.26c-.37-2.86-1-5.67-1.61-8.53a129.09,129.09,0,0,0-5.05-16.86c-1-2.81-2.23-5.51-3.38-8.28-.63-1.36-1.31-2.69-2-4l-1-2-1.09-2a131.17,131.17,0,0,0-21.77-29.53,136.53,136.53,0,0,0-14.05-12.43,138,138,0,0,0-15.83-10.4A131.31,131.31,0,0,0,228.16,73a137.08,137.08,0,0,0-19.07-2.74,146.55,146.55,0,0,0-19.32.08,146.18,146.18,0,0,0-19.11,2.91A131.21,131.21,0,0,0,105,110.51a136.75,136.75,0,0,0-12,14.45,130.92,130.92,0,0,0-17,32.53l-.77,2.13-.67,2.16c-.43,1.44-.89,2.87-1.31,4.31-.7,2.9-1.54,5.77-2.06,8.69A130.8,130.8,0,0,0,69,192.23c-.13,2.9-.35,5.79-.28,8.67,0,1.44,0,2.87,0,4.3s.15,2.86.22,4.28c0,.71.06,1.42.12,2.13l.22,2.11c.14,1.41.29,2.81.43,4.2s.42,2.78.64,4.16.39,2.75.7,4.1A131.05,131.05,0,0,0,81,256.8a131.32,131.32,0,0,0,55.79,59.52,124.66,124.66,0,0,0,20.07,8.94c1.58.62,3.19,1.05,4.74,1.54s3.08,1,4.59,1.33l4.43,1.12,4.25.86a124.67,124.67,0,0,0,26,2.39c3,.06,5.34-.18,6.9-.23l2.37-.12.32,4.12-2.44.13c-1.61.05-4,.3-7.11.24A128.78,128.78,0,0,1,174,334.17l-4.39-.89-4.56-1.16c-1.57-.36-3.13-.87-4.74-1.36s-3.26-1-4.89-1.59a129.92,129.92,0,0,1-20.71-9.23,136.7,136.7,0,0,1-41.26-35,138.67,138.67,0,0,1-16.28-26.43A135,135,0,0,1,67,227c-.32-1.39-.5-2.81-.73-4.23s-.43-2.85-.65-4.28l-.45-4.34-.22-2.18c-.06-.73-.08-1.46-.13-2.19-.07-1.47-.15-2.93-.23-4.41s0-3,0-4.44c-.08-3,.15-5.94.28-8.94a134.15,134.15,0,0,1,2.46-18c.54-3,1.4-6,2.13-9,.42-1.49.9-3,1.35-4.44l.68-2.23.8-2.2a135.29,135.29,0,0,1,17.48-33.56,135.74,135.74,0,0,1,26.81-28,140.44,140.44,0,0,1,16.34-11A138.67,138.67,0,0,1,150.74,75a140.85,140.85,0,0,1,19-5.83,135.69,135.69,0,0,1,39.64-3.08,141.4,141.4,0,0,1,19.67,2.82,137.53,137.53,0,0,1,19,5.66,136.09,136.09,0,0,1,48.66,31.86,135.55,135.55,0,0,1,22.46,30.46l1.12,2.05,1,2.09c.68,1.4,1.38,2.78,2,4.18,1.19,2.85,2.5,5.64,3.49,8.54a132.77,132.77,0,0,1,5.22,17.4c.59,2.94,1.27,5.85,1.66,8.79.21,1.47.48,2.93.65,4.39s.3,2.94.45,4.39c.07.73.16,1.46.22,2.19l.11,2.19c.08,1.45.16,2.9.23,4.35s0,2.89,0,4.33,0,2.87-.07,4.3a135.13,135.13,0,0,1-5.22,32.79,138.8,138.8,0,0,1-12,28.62,136.67,136.67,0,0,1-35.37,40.92,129.49,129.49,0,0,1-19,12.32c-1.51.88-3.08,1.58-4.59,2.33s-3,1.48-4.47,2.08L250.27,327l-4.19,1.56a129.13,129.13,0,0,1-26.15,6.58c-3.07.54-5.46.66-7.06.86l-2.43.25Z"/><path class="cls-3" d="M302.27,101.81l-4.15-4.1c-1.39-1.3-3.16-2.85-5.21-4.7-1.05-.9-2.22-1.82-3.44-2.82l-1.9-1.55c-.66-.52-1.37-1-2.08-1.55a139.66,139.66,0,0,0-21.77-13.5A145.74,145.74,0,0,0,232.5,62.3a141.93,141.93,0,0,0-18.75-3.06c-3.26-.4-6.61-.45-10-.64-1.69,0-3.4,0-5.12,0-.86,0-1.73,0-2.6,0l-2.6.13a139,139,0,0,0-21.31,2.58,135.15,135.15,0,0,0-21.58,6.07,141.17,141.17,0,0,0-40.62,23.17,142.72,142.72,0,0,0-31.75,36.37,141.15,141.15,0,0,0-17.83,44.85l-.6,2.94c-.2,1-.4,1.95-.53,2.94l-.87,5.9q-.3,3-.59,5.9c-.2,2-.22,3.93-.34,5.89a145.72,145.72,0,0,0,.92,23.15,153.11,153.11,0,0,0,4.41,22,141.8,141.8,0,0,0,17.21,38c.9,1.37,1.84,2.71,2.74,4l1.37,2,1.44,1.91c1,1.26,1.89,2.52,2.85,3.75l3,3.54c.49.58,1,1.18,1.47,1.74l1.52,1.65,3,3.26,3.08,3,1.51,1.5c.5.49,1,.94,1.55,1.41L106.5,309c1,.92,2.06,1.72,3.07,2.57l3,2.45,3,2.24a144,144,0,0,0,21.93,13.25c1.6.75,3.12,1.49,4.56,2.15l4.1,1.72,1.84.76c.59.24,1.17.44,1.72.64l3,1.08c1.78.68,3.18,1.09,4.13,1.38l1.42.44-4.83,15.82L151.9,353c-1.05-.32-2.62-.79-4.61-1.54L144,350.29c-.62-.23-1.26-.45-1.93-.71l-2.05-.85-4.58-1.92c-1.61-.73-3.3-1.55-5.09-2.4a160.84,160.84,0,0,1-24.46-14.78l-3.38-2.5-3.37-2.74c-1.13-.94-2.32-1.83-3.43-2.86l-3.41-3.06c-.57-.52-1.16-1-1.73-1.57l-1.69-1.66-3.42-3.4-3.35-3.62c-.56-.62-1.13-1.23-1.7-1.85s-1.09-1.29-1.64-1.94l-3.3-3.95c-1.07-1.37-2.11-2.77-3.19-4.18l-1.6-2.13L69.11,292c-1-1.49-2.06-3-3.06-4.51A157.43,157.43,0,0,1,46.84,245a167.88,167.88,0,0,1-4.93-24.52,161.34,161.34,0,0,1-1-25.82c.13-2.18.16-4.38.38-6.57s.44-4.38.66-6.59.65-4.38,1-6.58c.15-1.1.36-2.19.59-3.29l.66-3.28A157.42,157.42,0,0,1,64.06,118.3a159.11,159.11,0,0,1,80.75-66.43,151.59,151.59,0,0,1,24.1-6.78,155.35,155.35,0,0,1,23.75-2.87l2.91-.15c1,0,1.93,0,2.89,0,1.92,0,3.82,0,5.71,0,3.79.2,7.52.28,11.16.72a157.14,157.14,0,0,1,20.95,3.41A161.89,161.89,0,0,1,271.13,58.8a156,156,0,0,1,24.29,15.06c.79.59,1.58,1.15,2.32,1.73l2.12,1.72c1.36,1.12,2.65,2.15,3.83,3.15,2.29,2.06,4.26,3.79,5.8,5.24l4.64,4.58Z"/><path class="cls-4" d="M322.88,196.93s-.05-.93-.14-2.66c-.06-.87-.06-1.94-.2-3.2s-.28-2.69-.44-4.31a125.89,125.89,0,0,0-6-26.09A131.59,131.59,0,0,0,309,144.25a123,123,0,0,0-42.35-46.37A123.27,123.27,0,0,0,162.84,83.94c-3.11.9-5.45,1.89-7.09,2.46a25.2,25.2,0,0,0-2.47,1L142.7,61.54l.77-.32c.5-.23,1.27-.5,2.27-.88,2-.71,4.9-1.9,8.71-3A150.61,150.61,0,0,1,281.83,74.44a150,150,0,0,1,21.32,16.65,153,153,0,0,1,30.6,40.22,159.72,159.72,0,0,1,8.73,20.18,153.53,153.53,0,0,1,7.34,32c.2,2,.39,3.74.54,5.27s.18,2.84.25,3.9c.11,2.13.17,3.26.17,3.26Z"/><path class="cls-5" d="M244.5,343.28l1.93-.61c1.27-.36,3.09-1,5.4-1.89a143,143,0,0,0,18.61-8.41,148.08,148.08,0,0,0,23.95-16.07,152.68,152.68,0,0,0,23.06-23.65,151,151,0,0,0,17.26-28.17,147.43,147.43,0,0,0,9.68-27.17A142.46,142.46,0,0,0,348,217.2c.23-2.46.48-4.38.52-5.7s.1-2,.1-2l23.75,1.29s0,.81-.12,2.34-.33,3.77-.6,6.62a167,167,0,0,1-4.14,23.33,171.26,171.26,0,0,1-11.23,31.54,172,172,0,0,1-46.74,60.07,171.17,171.17,0,0,1-27.78,18.64,166.27,166.27,0,0,1-21.6,9.76c-2.68,1-4.8,1.77-6.27,2.2l-2.24.71Z"/><path class="cls-5" d="M131.44,106.58l-1.66,1.27-2,1.51c-.8.59-1.64,1.36-2.63,2.17a113.15,113.15,0,0,0-14.93,14.93,116.46,116.46,0,0,0-16,25.14c-.3.61-.6,1.23-.89,1.85s-.54,1.27-.81,1.91c-.52,1.28-1.09,2.56-1.6,3.87-.94,2.64-2,5.3-2.75,8.06l-.63,2.05c-.22.69-.36,1.4-.55,2.09-.34,1.4-.73,2.8-1,4.21s-.57,2.84-.86,4.27c-.16.71-.27,1.43-.37,2.15l-.32,2.16L84,186.37c-.1.72-.15,1.45-.23,2.17-.12,1.45-.31,2.89-.41,4.34l-.21,4.34,0,1.08v3.24c-.08,2.88.19,5.73.3,8.54.14,1.41.29,2.8.43,4.19l.21,2.07.32,2q.32,2,.63,4c.27,1.31.54,2.62.81,3.9.14.65.24,1.29.4,1.92s.33,1.26.5,1.88c.32,1.24.64,2.47,1,3.68a118.48,118.48,0,0,0,14.72,31.82c1.46,2.09,2.52,3.79,3.39,4.85l1.27,1.67-4.93,3.76-1.33-1.75c-.91-1.12-2-2.91-3.57-5.11a124.34,124.34,0,0,1-10.51-19.56,126.09,126.09,0,0,1-5-14c-.34-1.28-.68-2.57-1-3.88l-.51-2c-.17-.67-.29-1.35-.43-2-.28-1.36-.57-2.73-.86-4.11s-.44-2.81-.66-4.24l-.33-2.14c-.08-.72-.15-1.45-.23-2.17-.15-1.46-.29-2.93-.44-4.41-.12-3-.4-6-.33-9v-3.41L77,197c.08-1.52.15-3.05.22-4.57s.3-3,.44-4.57c.08-.76.13-1.53.23-2.29l.35-2.27.34-2.28c.1-.76.22-1.51.39-2.26.3-1.5.61-3,.91-4.5s.74-2.95,1.1-4.43c.2-.73.35-1.48.58-2.2l.67-2.17c.82-2.9,1.89-5.7,2.89-8.49.54-1.37,1.13-2.72,1.69-4.07.28-.67.54-1.35.85-2l.93-2a122.86,122.86,0,0,1,16.87-26.46,120.23,120.23,0,0,1,15.71-15.72c1-.85,1.93-1.66,2.77-2.28l2.11-1.6,1.76-1.33Z"/><path class="cls-6" d="M220.57,307.8l3.89-.8c1.26-.29,2.8-.73,4.62-1.19.92-.2,1.87-.54,2.89-.86l3.27-1a115.91,115.91,0,0,0,15.94-7,108.56,108.56,0,0,0,18.68-12.7c1.63-1.29,3.14-2.79,4.74-4.23.83-.7,1.55-1.53,2.33-2.3s1.58-1.55,2.33-2.38c1.47-1.69,3.07-3.31,4.48-5.15.72-.9,1.49-1.78,2.2-2.72l2.11-2.85c.73-.94,1.37-1.95,2-3s1.38-2,2-3,1.26-2.1,1.89-3.16,1.18-2.17,1.79-3.26c1.25-2.17,2.23-4.5,3.36-6.77.94-2.37,2-4.7,2.85-7.16s1.65-4.92,2.44-7.43c.35-1.27.64-2.55,1-3.83.16-.64.35-1.28.48-1.93l.39-2,.4-2,.2-1,.15-1,.6-4c.17-1.34.26-2.68.41-4,.06-.67.16-1.35.2-2l.09-2,.1-2a20,20,0,0,0,.05-2.05v-4.12c0-1.37-.14-2.75-.2-4.13l-.1-2.07-.23-2.06a103.5,103.5,0,0,0-2.84-16.33c-.38-1.33-.64-2.69-1.08-4l-1.24-3.95c-.44-1.3-1-2.58-1.42-3.88s-1-2.56-1.55-3.82c-1-2.55-2.3-5-3.48-7.45l-2-3.59-.48-.9-.54-.87-1.08-1.74a102.43,102.43,0,0,0-9.51-13.06,105.35,105.35,0,0,0-11.07-11.27,104.16,104.16,0,0,0-12.15-9.27l-1.55-1-1.6-1c-1.06-.63-2.1-1.28-3.16-1.89-2.17-1.12-4.24-2.35-6.42-3.31A108.58,108.58,0,0,0,234,98.12l-3.17-1-1.56-.49-1.58-.39-3.1-.79c-1-.26-2.06-.42-3.07-.64a109.72,109.72,0,0,0-39.91-.58c-1.21.14-2.32.43-3.37.64l-3,.6-4.62,1.2c-1.26.3-2.18.67-2.83.85l-1,.31L164.32,90l1-.33c.7-.2,1.69-.59,3-.92l5-1.28,3.19-.66c1.14-.22,2.34-.53,3.63-.69a117.93,117.93,0,0,1,42.94.64c1.09.23,2.2.4,3.31.68l3.33.85,1.7.43,1.68.52,3.42,1a119,119,0,0,1,13.79,5.59c2.34,1,4.58,2.36,6.91,3.57,1.13.65,2.25,1.35,3.4,2l1.71,1,1.67,1.13a117.41,117.41,0,0,1,25,22.09,110.42,110.42,0,0,1,10.24,14.06l1.16,1.88.58.93.52,1,2.13,3.86c1.28,2.66,2.65,5.28,3.75,8,.58,1.36,1.19,2.71,1.67,4.12s1.05,2.77,1.52,4.18L312,168c.47,1.41.76,2.87,1.16,4.3a111.39,111.39,0,0,1,3.07,17.57l.23,2.22.12,2.22c.06,1.48.19,3,.21,4.44v4.42c0,.74,0,1.47-.05,2.21l-.11,2.19-.1,2.2c0,.73-.15,1.45-.21,2.17-.16,1.45-.26,2.91-.45,4.34s-.43,2.87-.65,4.29l-.15,1.07-.22,1.06-.43,2.11L314,226.9c-.14.7-.35,1.38-.51,2.07-.36,1.38-.68,2.76-1.06,4.13-.85,2.7-1.61,5.4-2.62,8s-2.06,5.16-3.08,7.7c-1.21,2.46-2.27,5-3.61,7.29-.66,1.17-1.22,2.39-1.93,3.51l-2,3.4c-.66,1.14-1.44,2.19-2.14,3.28s-1.41,2.16-2.2,3.17l-2.27,3.07c-.76,1-1.58,2-2.36,2.93-1.52,2-3.24,3.72-4.82,5.54-.81.89-1.69,1.71-2.51,2.56s-1.62,1.71-2.5,2.47c-1.73,1.56-3.35,3.16-5.11,4.55a117.11,117.11,0,0,1-20.1,13.67,124.07,124.07,0,0,1-17.16,7.51l-3.52,1.11c-1.11.34-2.14.7-3.12.93-2,.49-3.62,1-5,1.27l-4.19.87Z"/><path class="cls-2" d="M175.69,311.31l2.34.47,2.4.48,2.78.41,2.77.42,2.44.23,2.38.24L187,361l-3.39-.33-3.47-.35c-1.26-.17-2.61-.38-4-.58l-3.95-.6-3.43-.68-3.33-.67Z"/><path class="cls-2" d="M126.56,278.4l.31.3.92.82c.79.69,1.89,1.73,3.27,2.91l2.27,1.84,1.23,1c.43.33.89.65,1.34,1l2.8,2.08,3,2c.51.33,1,.68,1.51,1l1.54.92c1,.6,2,1.23,3,1.79l2.87,1.53,1.33.72,1.27.6c1.65.76,3,1.47,4,1.86l1.53.63-6.83,16.2-1.78-.74c-1.14-.47-2.7-1.28-4.61-2.16L144,312l-1.55-.83-3.35-1.79c-1.15-.65-2.3-1.38-3.49-2.08l-1.79-1.07c-.59-.37-1.17-.78-1.76-1.17l-3.48-2.33-3.27-2.41c-.53-.4-1.06-.77-1.56-1.16L122.32,298l-2.64-2.15c-1.6-1.37-2.88-2.57-3.8-3.38l-1.07-1-.35-.35Z"/><path class="cls-2" d="M244.26,39.69l-4-1c-2.6-.72-6.49-1.48-11.43-2.44a170.77,170.77,0,0,0-41.5-2,177.86,177.86,0,0,0-27.43,4.39,165.63,165.63,0,0,0-58,26.85A167.6,167.6,0,0,0,38.23,244.81c.6,2.45,1.29,4.59,1.88,6.46s1.07,3.45,1.52,4.72l1.42,3.89-3.87,1.44s-.51-1.38-1.46-4c-.46-1.3-.95-2.93-1.56-4.84s-1.31-4.11-1.92-6.61a173.1,173.1,0,0,1-5.88-42.12,170.88,170.88,0,0,1,24-90.13,173,173,0,0,1,47-51.53A170.44,170.44,0,0,1,128.82,45,168.56,168.56,0,0,1,158.9,34.59,181.39,181.39,0,0,1,187,30.1a175.29,175.29,0,0,1,42.53,2c5.07,1,9.05,1.77,11.71,2.51l4.11,1.05Z"/><path class="cls-5" d="M57.08,286.68l2.51,4.07c.77,1.31,1.87,2.8,3,4.56l1.91,2.78c.69,1,1.46,2,2.24,3A167.45,167.45,0,0,0,93,328.75L97,332c1.33,1.1,2.75,2.08,4.11,3.11s2.72,2.06,4.12,3l4.12,2.75c1.35.93,2.72,1.75,4.07,2.55l3.94,2.36c2.6,1.46,5.1,2.77,7.4,4l6.42,3.07c1.91.9,3.64,1.56,5,2.16l3.26,1.36,1.17.43-2.95,7.73-1.23-.46-3.42-1.42c-1.47-.63-3.28-1.32-5.29-2.27L121,357.16c-2.41-1.29-5-2.67-7.77-4.2l-4.14-2.48c-1.41-.84-2.85-1.7-4.26-2.67l-4.33-2.89c-1.47-1-2.87-2.07-4.32-3.12s-2.92-2.1-4.32-3.26l-4.23-3.45a175.5,175.5,0,0,1-27.5-29c-.82-1.09-1.62-2.13-2.35-3.14l-2-2.92c-1.23-1.85-2.38-3.42-3.19-4.79L50,290.93Z"/><path class="cls-5" d="M205.66,276.15,207,276c.89-.11,2.23-.18,3.95-.48a71.33,71.33,0,0,0,14.64-3.69L228,271l2.43-1c.83-.33,1.65-.75,2.5-1.16s1.72-.81,2.57-1.3a72.3,72.3,0,0,0,10.65-6.9,75.87,75.87,0,0,0,26.53-38.95,75.52,75.52,0,0,0,2.93-18.35c.05-.8,0-1.61,0-2.41s0-1.62,0-2.43l-.12-2.44-.07-1.22c0-.41-.08-.82-.12-1.23-.08-.81-.17-1.63-.25-2.46s-.25-1.63-.37-2.46c-.21-1.65-.6-3.27-.93-4.92a74.89,74.89,0,0,0-2.92-9.74c-.55-1.63-1.29-3.19-1.95-4.78-.36-.79-.76-1.56-1.13-2.34l-.57-1.18-.63-1.14A75.86,75.86,0,0,0,254,147.46a75.54,75.54,0,0,0-17.26-13.18,76.29,76.29,0,0,0-10-4.66,75.29,75.29,0,0,0-21.64-4.75,83.13,83.13,0,0,0-11.16,0,85.52,85.52,0,0,0-11,1.68,78.78,78.78,0,0,0-10.64,3.27A75.85,75.85,0,0,0,145,148.13a79.4,79.4,0,0,0-6.91,8.34,76.08,76.08,0,0,0-9.79,18.8l-.44,1.22-.39,1.25c-.25.83-.52,1.66-.75,2.49-.41,1.68-.9,3.33-1.19,5a72.64,72.64,0,0,0-1.38,10.08c-.07,1.68-.2,3.35-.16,5,0,.83,0,1.66,0,2.49s.09,1.64.13,2.46c0,.41,0,.83.07,1.23l.12,1.22c.09.82.17,1.63.25,2.43s.25,1.6.37,2.4.23,1.59.41,2.37a75.87,75.87,0,0,0,5.72,17.69,77.71,77.71,0,0,0,9.12,14.8A76.65,76.65,0,0,0,163.28,267a73.24,73.24,0,0,0,11.6,5.17c.91.35,1.84.6,2.74.89s1.77.56,2.65.76l2.55.65,2.46.5a72.37,72.37,0,0,0,15,1.38c1.75,0,3.09-.11,4-.14l1.36-.07.19,2.39-1.41.07c-.93,0-2.31.17-4.11.14a74.92,74.92,0,0,1-15.51-1.43l-2.53-.51-2.64-.67c-.9-.21-1.8-.5-2.73-.79s-1.89-.55-2.83-.92a74.56,74.56,0,0,1-12-5.33,79,79,0,0,1-23.84-20.19,80.14,80.14,0,0,1-9.4-15.27A77.87,77.87,0,0,1,123,215.39c-.18-.8-.29-1.62-.42-2.44s-.25-1.65-.38-2.47-.17-1.67-.25-2.51l-.13-1.26c0-.42,0-.84-.08-1.26,0-.85-.08-1.7-.13-2.55s0-1.71,0-2.56c0-1.72.09-3.44.16-5.17a77.56,77.56,0,0,1,1.43-10.4c.3-1.74.8-3.45,1.23-5.18.24-.86.52-1.71.77-2.57l.4-1.28.46-1.27a78.13,78.13,0,0,1,10.1-19.39,78.05,78.05,0,0,1,35.24-27.45,81.92,81.92,0,0,1,11-3.37,78.66,78.66,0,0,1,22.9-1.78,83.32,83.32,0,0,1,11.36,1.63,80.82,80.82,0,0,1,11,3.27,78.68,78.68,0,0,1,28.11,18.41,78.35,78.35,0,0,1,13,17.59l.65,1.18.59,1.21c.39.81.79,1.61,1.17,2.42.68,1.65,1.44,3.26,2,4.93a76.54,76.54,0,0,1,3,10c.34,1.7.74,3.38,1,5.08.13.85.28,1.69.38,2.54s.17,1.69.26,2.53c0,.43.09.85.12,1.27l.07,1.26c0,.84.09,1.68.13,2.51s0,1.67,0,2.5,0,1.66,0,2.49a78.34,78.34,0,0,1-3,18.94,78.45,78.45,0,0,1-27.36,40.17,75,75,0,0,1-11,7.11c-.87.51-1.78.92-2.65,1.35s-1.72.85-2.58,1.2l-2.5,1.07-2.42.9a74.63,74.63,0,0,1-15.11,3.8c-1.77.31-3.15.38-4.08.5l-1.4.15Z"/><path class="cls-2" d="M258.9,143.1l-2.4-2.37c-.81-.75-1.83-1.64-3-2.71-.61-.52-1.28-1.05-2-1.63l-1.09-.9c-.39-.3-.8-.59-1.21-.89a80.77,80.77,0,0,0-12.57-7.8,84.35,84.35,0,0,0-18-6.52,82,82,0,0,0-10.84-1.77c-1.88-.23-3.82-.26-5.77-.37-1,0-2,0-3,0-.5,0-1,0-1.5,0l-1.51.07a81.5,81.5,0,0,0-12.31,1.49,78.71,78.71,0,0,0-12.46,3.51,81.79,81.79,0,0,0-23.47,13.38,82.69,82.69,0,0,0-18.34,21,81.72,81.72,0,0,0-10.3,25.91l-.34,1.7c-.12.56-.23,1.12-.3,1.7l-.51,3.4-.34,3.41c-.12,1.13-.13,2.27-.2,3.4a82.48,82.48,0,0,0,.54,13.38,88.38,88.38,0,0,0,2.54,12.7,82.16,82.16,0,0,0,9.94,21.94c.52.79,1.06,1.56,1.59,2.33l.78,1.15.84,1.1c.55.73,1.09,1.46,1.65,2.17l1.71,2c.28.33.55.67.84,1l.88,1,1.74,1.88,1.77,1.76.88.86c.29.28.59.54.89.82l1.77,1.58c.57.53,1.19,1,1.77,1.48l1.75,1.42,1.75,1.29a82.5,82.5,0,0,0,12.66,7.65c.93.44,1.81.87,2.64,1.25l2.37,1,1.06.44c.34.14.68.25,1,.37l1.73.63c1,.39,1.84.63,2.38.79l.82.25L173,288.5l-.92-.28c-.6-.18-1.51-.45-2.66-.89l-1.93-.7c-.35-.13-.73-.25-1.11-.41l-1.19-.49-2.64-1.11c-.93-.42-1.91-.9-2.94-1.39a91.48,91.48,0,0,1-14.13-8.53l-2-1.45-1.95-1.58c-.65-.54-1.34-1.06-2-1.65l-2-1.77c-.33-.3-.67-.59-1-.91s-.65-.63-1-1c-.66-.64-1.32-1.29-2-2l-1.94-2.09-1-1.07c-.32-.36-.63-.74-1-1.11l-1.9-2.29c-.62-.79-1.22-1.6-1.84-2.42l-.93-1.23-.88-1.28c-.59-.86-1.19-1.72-1.77-2.6a91.48,91.48,0,0,1-11.09-24.5,97.39,97.39,0,0,1-2.85-14.17,94.5,94.5,0,0,1-.6-14.91c.08-1.26.1-2.53.23-3.8s.25-2.53.38-3.8.37-2.54.56-3.81c.09-.63.21-1.26.34-1.89l.38-1.9a92.09,92.09,0,0,1,58.15-67.3,92.25,92.25,0,0,1,27.64-5.57l1.68-.09h1.67c1.11,0,2.21,0,3.3,0,2.18.11,4.34.16,6.45.41a91.62,91.62,0,0,1,12.09,2,93.21,93.21,0,0,1,20.14,7.29,90.87,90.87,0,0,1,14,8.69l1.34,1,1.22,1c.79.64,1.54,1.24,2.21,1.82,1.33,1.19,2.46,2.19,3.36,3l2.68,2.64Z"/><path class="cls-5" d="M270.8,198.05s0-.54-.08-1.54c0-.5,0-1.12-.11-1.85s-.17-1.55-.26-2.49a72.62,72.62,0,0,0-3.46-15.07,75.06,75.06,0,0,0-4.1-9.48,71.28,71.28,0,0,0-24.46-26.79,71.22,71.22,0,0,0-60-8.05c-1.8.52-3.16,1.09-4.1,1.42a15.26,15.26,0,0,0-1.43.56l-6.11-14.92.45-.19c.28-.13.73-.29,1.31-.5,1.15-.41,2.82-1.1,5-1.75a87,87,0,0,1,73.58,9.89,86.93,86.93,0,0,1,12.31,9.62,88.43,88.43,0,0,1,17.68,23.23,92.33,92.33,0,0,1,5,11.66,88.26,88.26,0,0,1,4.24,18.49c.12,1.14.22,2.16.32,3s.1,1.65.14,2.26c.06,1.22.09,1.88.09,1.88Z"/><path class="cls-7" d="M225.52,282.59l1.12-.36c.74-.21,1.79-.59,3.12-1.09a82.51,82.51,0,0,0,10.75-4.86A85.28,85.28,0,0,0,254.34,267a88.61,88.61,0,0,0,13.33-13.66,87.1,87.1,0,0,0,10-16.28,84.43,84.43,0,0,0,5.59-15.69,81.14,81.14,0,0,0,2.06-11.61c.13-1.42.28-2.53.3-3.3l.06-1.17,13.72.75s0,.47-.07,1.35-.19,2.18-.35,3.82a94.92,94.92,0,0,1-2.39,13.48,98,98,0,0,1-6.49,18.22,99.1,99.1,0,0,1-27,34.7,99.18,99.18,0,0,1-16,10.77A97.86,97.86,0,0,1,234.54,294c-1.55.57-2.77,1-3.62,1.27l-1.3.41Z"/><path class="cls-2" d="M160.22,145.86l-1,.73-1.16.87c-.46.34-.94.79-1.51,1.25a65.28,65.28,0,0,0-8.63,8.63,67.7,67.7,0,0,0-9.25,14.52l-.51,1.07c-.17.36-.31.74-.47,1.1-.3.74-.63,1.48-.92,2.24-.55,1.53-1.14,3.06-1.59,4.65l-.37,1.19c-.12.4-.2.81-.31,1.21-.2.81-.42,1.61-.61,2.43s-.33,1.64-.49,2.46c-.1.41-.16.83-.22,1.24L133,190.7l-.2,1.25c-.05.41-.08.83-.12,1.25-.08.84-.19,1.67-.24,2.51l-.12,2.5,0,.63v1.87c0,1.66.11,3.31.18,4.93.08.82.16,1.62.24,2.42l.12,1.2.19,1.17c.12.78.24,1.56.36,2.32s.32,1.51.47,2.26c.08.37.14.74.23,1.11l.29,1.08c.19.72.37,1.42.55,2.12A70,70,0,0,0,137.7,227a68.24,68.24,0,0,0,5.76,10.73c.84,1.2,1.46,2.18,2,2.8l.73,1-2.85,2.18-.77-1c-.52-.64-1.17-1.68-2.06-2.95a72.37,72.37,0,0,1-6.07-11.29,73.91,73.91,0,0,1-2.89-8.07c-.19-.74-.39-1.49-.58-2.24l-.3-1.14c-.1-.39-.17-.78-.25-1.17-.16-.78-.33-1.57-.49-2.37s-.26-1.62-.39-2.45c-.06-.41-.13-.82-.19-1.23s-.09-.84-.13-1.26c-.08-.84-.17-1.69-.26-2.54-.07-1.72-.23-3.45-.18-5.2v-2l0-.65.12-2.64c.06-.88.17-1.76.25-2.64.05-.44.08-.88.14-1.32l.2-1.32.2-1.31c.06-.44.13-.88.22-1.31.18-.86.35-1.73.53-2.6s.43-1.7.64-2.56c.11-.42.2-.85.33-1.27l.38-1.25c.48-1.68,1.1-3.29,1.67-4.9.32-.8.66-1.58,1-2.36.16-.38.31-.78.49-1.16l.54-1.13a71.14,71.14,0,0,1,9.74-15.28,69.18,69.18,0,0,1,9.08-9.09c.6-.49,1.11-1,1.6-1.31l1.22-.92,1-.77Z"/><path class="cls-8" d="M211.7,262.09l2.25-.46c.73-.17,1.61-.43,2.67-.69.53-.12,1.08-.31,1.67-.5l1.89-.59a65.26,65.26,0,0,0,9.2-4,62,62,0,0,0,10.79-7.34c1-.74,1.82-1.6,2.74-2.44.48-.4.89-.88,1.35-1.33s.91-.89,1.34-1.37c.85-1,1.78-1.91,2.59-3,.42-.52.86-1,1.27-1.57l1.22-1.64c.42-.55.79-1.13,1.18-1.71s.8-1.15,1.15-1.76l1.1-1.82c.38-.61.68-1.26,1-1.89.72-1.25,1.29-2.59,1.94-3.91s1.18-2.71,1.65-4.13.95-2.85,1.41-4.3c.2-.73.37-1.47.56-2.21.09-.37.21-.74.28-1.11l.22-1.13.23-1.13.12-.57.09-.57c.11-.77.23-1.54.34-2.3s.16-1.56.24-2.33c0-.39.09-.78.11-1.17l.06-1.18.06-1.18c0-.39,0-.79,0-1.18v-2.38c0-.79-.09-1.59-.12-2.38l-.06-1.2-.13-1.19a58.87,58.87,0,0,0-1.64-9.43c-.22-.77-.37-1.56-.63-2.31l-.71-2.28c-.26-.76-.55-1.5-.82-2.25s-.58-1.47-.9-2.2c-.58-1.48-1.32-2.88-2-4.31l-1.14-2.07-.28-.52-.31-.5-.62-1a58.24,58.24,0,0,0-5.5-7.54,60.63,60.63,0,0,0-6.39-6.52,61.45,61.45,0,0,0-7-5.35l-.9-.6-.92-.55c-.61-.36-1.21-.74-1.82-1.09-1.26-.65-2.46-1.36-3.71-1.92a66,66,0,0,0-7.4-3l-1.83-.56-.91-.28-.91-.23-1.79-.46c-.59-.15-1.19-.24-1.77-.36a63.22,63.22,0,0,0-23.06-.34c-.69.08-1.33.25-1.94.37l-1.72.35-2.66.69c-.73.17-1.27.39-1.64.49l-.56.18-1.45-4.56.6-.18c.4-.12,1-.34,1.76-.53l2.87-.75,1.85-.37c.65-.13,1.34-.31,2.09-.4a68.34,68.34,0,0,1,24.81.36c.63.14,1.27.24,1.91.4l1.92.49,1,.25,1,.3,2,.6a67.89,67.89,0,0,1,8,3.24c1.36.59,2.65,1.36,4,2.06.66.37,1.31.78,2,1.17l1,.59,1,.65a67.9,67.9,0,0,1,14.43,12.76,64.66,64.66,0,0,1,5.92,8.12l.67,1.09.33.54.31.55c.4.75.81,1.49,1.22,2.24.74,1.53,1.53,3,2.17,4.63.34.79.69,1.57,1,2.38s.61,1.6.88,2.42l.78,2.45c.27.82.44,1.66.67,2.49A64.54,64.54,0,0,1,266.93,194l.13,1.28.07,1.28c0,.86.11,1.71.12,2.56s0,1.71,0,2.56c0,.43,0,.85,0,1.27l-.06,1.27-.06,1.27c0,.42-.08.84-.12,1.26-.09.83-.15,1.67-.26,2.5s-.25,1.66-.37,2.48l-.09.62-.13.61-.25,1.22-.24,1.22c-.08.4-.2.8-.29,1.19-.21.8-.4,1.6-.62,2.39-.49,1.56-.93,3.12-1.51,4.62s-1.19,3-1.78,4.45-1.31,2.86-2.08,4.21c-.38.68-.71,1.38-1.12,2l-1.17,2c-.39.66-.84,1.26-1.24,1.89s-.82,1.26-1.27,1.84l-1.31,1.77c-.45.58-.92,1.13-1.37,1.69-.88,1.14-1.87,2.15-2.78,3.2-.47.52-1,1-1.45,1.48s-.94,1-1.45,1.43c-1,.9-1.93,1.83-2.94,2.63A67.74,67.74,0,0,1,231.64,260a70.22,70.22,0,0,1-9.91,4.34l-2,.64c-.63.2-1.23.41-1.8.54-1.13.28-2.09.55-2.87.73l-2.42.5Z"/><path class="cls-2" d="M185.78,264.12l1.35.27,1.38.28,1.61.23,1.6.24,1.41.14,1.37.14-2.18,27.38-2-.19-2-.2-2.28-.33-2.29-.35-2-.39-1.93-.39Z"/><path class="cls-2" d="M157.4,245.1l.18.18.53.47c.46.4,1.09,1,1.88,1.68l1.32,1.07.71.59.77.57,1.62,1.2,1.73,1.15c.3.2.58.4.87.58l.9.53c.59.35,1.16.72,1.73,1l1.66.88.76.42.74.35c.95.43,1.72.84,2.28,1.07l.89.36L172,266.6l-1-.43c-.66-.27-1.56-.73-2.67-1.25l-.85-.4-.9-.48-1.93-1c-.66-.37-1.33-.79-2-1.2l-1-.62c-.35-.21-.68-.45-1-.67l-2-1.35-1.89-1.39-.9-.67-.83-.68-1.52-1.24c-.93-.8-1.67-1.49-2.2-2l-.62-.55-.2-.21Z"/><path class="cls-2" d="M225.38,107.22l-2.31-.6c-1.5-.41-3.75-.85-6.6-1.41a98.82,98.82,0,0,0-24-1.15,103.11,103.11,0,0,0-15.84,2.53,95.75,95.75,0,0,0-33.53,15.52,96.85,96.85,0,0,0-36.75,103.6c.35,1.41.75,2.65,1.09,3.72s.62,2,.88,2.73c.53,1.47.82,2.25.82,2.25l-2.24.83-.84-2.3c-.27-.75-.55-1.69-.9-2.8s-.76-2.37-1.11-3.81a100.33,100.33,0,0,1-3.4-24.33,98.92,98.92,0,0,1,75.41-97.73,104.71,104.71,0,0,1,16.23-2.59,100.86,100.86,0,0,1,24.57,1.18c2.92.57,5.22,1,6.76,1.45l2.38.6Z"/><path class="cls-2" d="M117.27,249.89l1.44,2.35c.45.76,1.08,1.62,1.76,2.63.35.51.72,1,1.1,1.61s.85,1.13,1.3,1.73a96.69,96.69,0,0,0,15.13,16l2.33,1.9c.77.64,1.59,1.2,2.38,1.8s1.57,1.19,2.38,1.71l2.38,1.59c.77.54,1.57,1,2.35,1.48l2.27,1.36c1.51.84,2.95,1.6,4.28,2.31l3.71,1.77c1.1.52,2.1.9,2.91,1.25l1.88.78.68.25-1.71,4.47-.71-.27-2-.82c-.85-.36-1.9-.76-3.06-1.31l-3.89-1.86c-1.39-.75-2.91-1.54-4.49-2.42-.78-.47-1.57-.95-2.39-1.43s-1.65-1-2.46-1.55l-2.5-1.67c-.85-.55-1.66-1.19-2.5-1.8s-1.69-1.22-2.49-1.89l-2.45-2a101.2,101.2,0,0,1-15.88-16.77c-.48-.63-.94-1.23-1.36-1.82l-1.16-1.68c-.71-1.07-1.37-2-1.84-2.77l-1.52-2.47Z"/><path class="cls-2" d="M282,159.26s-.08-.18-.23-.48-.37-.75-.66-1.26c-.57-1-1.29-2.41-2.1-3.75s-1.61-2.67-2.27-3.65l-1.1-1.61,7.39-5.07,1.2,1.77c.72,1.06,1.59,2.54,2.49,4s1.68,3,2.31,4.12c.31.56.56,1,.72,1.38l.26.53Z"/><path class="cls-3" d="M398.54,184.11C390,74.22,294-7.93,184.11.61S-7.93,105.15.61,215s104.54,192,214.43,183.5S407.08,294,398.54,184.11ZM5.5,214.66C-2.83,107.48,77.31,13.83,184.49,5.5s200.82,71.81,209.15,179-71.8,200.82-179,209.15S13.83,321.84,5.5,214.66Z"/><path class="cls-9" d="M210.46,198.73a10.92,10.92,0,1,0-10,11.73A10.91,10.91,0,0,0,210.46,198.73Z"/><path class="cls-5" d="M334.93,189.05A135.77,135.77,0,1,0,210.09,334.93,135.76,135.76,0,0,0,334.93,189.05ZM67.54,209.84A132.43,132.43,0,1,1,209.84,331.6,132.43,132.43,0,0,1,67.54,209.84Z"/><path class="cls-7" d="M294.16,192.22a94.88,94.88,0,1,0-87.23,101.94A94.88,94.88,0,0,0,294.16,192.22ZM107.31,206.74a92.54,92.54,0,1,1,99.43,85.1A92.54,92.54,0,0,1,107.31,206.74Z"/></g></g></g></svg>