<svg xmlns="http://www.w3.org/2000/svg" xmlns:xlink="http://www.w3.org/1999/xlink" viewBox="0 0 248.94 155.76"><defs><style>.cls-1{fill:#3f2cae;}.cls-2{fill:url(#linear-gradient);}.cls-3{fill:#303030;}.cls-4{fill:url(#linear-gradient-2);}.cls-5{fill:url(#linear-gradient-3);}.cls-6{fill:url(#linear-gradient-4);}.cls-7{fill:#999;}.cls-8{isolation:isolate;}.cls-9{fill:url(#linear-gradient-5);}.cls-10{fill:#232324;}.cls-11{fill:url(#linear-gradient-6);}.cls-12{fill:gray;}.cls-13{fill:#b3b3b3;}.cls-14{fill:none;}.cls-15{fill:url(#linear-gradient-7);}.cls-16{fill:#575757;}.cls-17{fill:url(#linear-gradient-8);}.cls-18{fill:url(#linear-gradient-9);}.cls-19{fill:#ccc;}.cls-20{fill:url(#linear-gradient-10);}.cls-21{fill:#757575;}.cls-22{fill:#727272;}.cls-23{fill:url(#linear-gradient-11);}.cls-24{fill:url(#linear-gradient-12);}.cls-25{fill:url(#linear-gradient-13);}.cls-26{fill:url(#linear-gradient-14);}.cls-27{fill:url(#linear-gradient-15);}.cls-28{fill:url(#linear-gradient-16);}.cls-29,.cls-30{fill:#fff;}.cls-30{stroke:#e0e0e2;stroke-miterlimit:10;}</style><linearGradient id="linear-gradient" x1="-11805.96" y1="190.38" x2="-11827.12" y2="157.02" gradientTransform="matrix(0.24, -0.97, -0.97, -0.24, 3192.33, -11398.72)" gradientUnits="userSpaceOnUse"><stop offset="0" stop-color="#666"/><stop offset="0.05" stop-color="#5f5f5f"/><stop offset="0.35" stop-color="#303030"/><stop offset="0.43" stop-color="#454545"/><stop offset="0.68" stop-color="#818181"/><stop offset="0.8" stop-color="#999"/></linearGradient><linearGradient id="linear-gradient-2" x1="-11809.82" y1="192.82" x2="-11830.97" y2="159.46" gradientTransform="matrix(0.24, -0.97, -0.97, -0.24, 3192.33, -11398.72)" gradientUnits="userSpaceOnUse"><stop offset="0" stop-color="#666"/><stop offset="0.05" stop-color="#5f5f5f"/><stop offset="0.35" stop-color="#303030"/><stop offset="0.39" stop-color="#3d3d3d"/><stop offset="0.49" stop-color="#5c5c5c"/><stop offset="0.59" stop-color="#737373"/><stop offset="0.69" stop-color="gray"/><stop offset="0.78" stop-color="#858585"/><stop offset="1" stop-color="#b3b3b3"/></linearGradient><linearGradient id="linear-gradient-3" x1="-11813.63" y1="195.24" x2="-11834.79" y2="161.88" gradientTransform="matrix(0.24, -0.97, -0.97, -0.24, 3192.33, -11398.72)" gradientUnits="userSpaceOnUse"><stop offset="0" stop-color="#666"/><stop offset="0.05" stop-color="#5f5f5f"/><stop offset="0.35" stop-color="#303030"/><stop offset="0.49" stop-color="#545454"/><stop offset="0.69" stop-color="#858585"/></linearGradient><linearGradient id="linear-gradient-4" x1="-11817.49" y1="197.68" x2="-11838.64" y2="164.33" gradientTransform="matrix(0.24, -0.97, -0.97, -0.24, 3192.33, -11398.72)" gradientUnits="userSpaceOnUse"><stop offset="0" stop-color="#666"/><stop offset="0.05" stop-color="#5f5f5f"/><stop offset="0.37" stop-color="#303030"/><stop offset="0.41" stop-color="#3f3f3f"/><stop offset="0.51" stop-color="#5d5d5d"/><stop offset="0.61" stop-color="#737373"/><stop offset="0.71" stop-color="#818181"/><stop offset="0.8" stop-color="#858585"/></linearGradient><linearGradient id="linear-gradient-5" x1="37.34" y1="197.44" x2="67.22" y2="150.95" gradientTransform="translate(419.26 59.87) rotate(103.6)" gradientUnits="userSpaceOnUse"><stop offset="0.06" stop-color="#838687"/><stop offset="0.16" stop-color="#949697"/><stop offset="0.35" stop-color="#c0c1c2"/><stop offset="0.47" stop-color="#dcdcde"/><stop offset="0.7" stop-color="#dfdfe1"/><stop offset="0.75" stop-color="#d3d3d5"/><stop offset="0.84" stop-color="#b2b2b4"/><stop offset="0.95" stop-color="#858687"/></linearGradient><linearGradient id="linear-gradient-6" x1="43.23" y1="206.45" x2="64.87" y2="164.5" xlink:href="#linear-gradient-5"/><linearGradient id="linear-gradient-7" x1="67.19" y1="180.96" x2="50.93" y2="204.99" xlink:href="#linear-gradient-5"/><linearGradient id="linear-gradient-8" x1="-11864.49" y1="225.82" x2="-11879.74" y2="198.57" gradientTransform="matrix(0.24, -0.97, -0.97, -0.24, 3192.33, -11398.72)" gradientUnits="userSpaceOnUse"><stop offset="0" stop-color="#999"/><stop offset="0.18" stop-color="#5f5f5f"/><stop offset="0.34" stop-color="#303030"/><stop offset="0.42" stop-color="#494949"/><stop offset="0.59" stop-color="gray"/><stop offset="0.64" stop-color="#858585"/><stop offset="0.71" stop-color="#939393"/><stop offset="0.78" stop-color="#aaa"/><stop offset="0.8" stop-color="#b3b3b3"/><stop offset="1" stop-color="#ccc"/></linearGradient><linearGradient id="linear-gradient-9" x1="110.33" y1="239.11" x2="130.05" y2="196.08" xlink:href="#linear-gradient-5"/><linearGradient id="linear-gradient-10" x1="116.83" y1="245.48" x2="136.79" y2="211.66" xlink:href="#linear-gradient-5"/><linearGradient id="linear-gradient-11" x1="135.42" y1="237.22" x2="148.45" y2="220.79" gradientTransform="translate(419.26 59.87) rotate(103.6)" gradientUnits="userSpaceOnUse"><stop offset="0" stop-color="#666"/><stop offset="0.05" stop-color="#5f5f5f"/><stop offset="0.37" stop-color="#303030"/><stop offset="0.51" stop-color="#4c4c4c"/><stop offset="0.54" stop-color="#515151"/><stop offset="0.58" stop-color="#5f5f5f"/><stop offset="0.62" stop-color="#767676"/><stop offset="0.64" stop-color="#858585"/><stop offset="0.77" stop-color="#3e3e3e"/><stop offset="0.78" stop-color="#4a4a4a"/><stop offset="0.8" stop-color="#6a6a6a"/><stop offset="0.83" stop-color="#858585"/><stop offset="0.86" stop-color="#999"/><stop offset="0.89" stop-color="#a8a8a8"/><stop offset="0.94" stop-color="#b0b0b0"/><stop offset="1" stop-color="#b3b3b3"/></linearGradient><linearGradient id="linear-gradient-12" x1="-11908.59" y1="259.68" x2="-11932.51" y2="217.69" gradientTransform="matrix(0.24, -0.97, -0.97, -0.24, 3192.33, -11398.72)" xlink:href="#linear-gradient-11"/><linearGradient id="linear-gradient-13" x1="-11915.71" y1="259.99" x2="-11936.87" y2="226.63" gradientTransform="matrix(0.24, -0.97, -0.97, -0.24, 3192.33, -11398.72)" gradientUnits="userSpaceOnUse"><stop offset="0" stop-color="#666"/><stop offset="0.05" stop-color="#5f5f5f"/><stop offset="0.35" stop-color="#303030"/><stop offset="0.36" stop-color="#323232"/><stop offset="0.4" stop-color="#414141"/><stop offset="0.44" stop-color="#494949"/><stop offset="0.52" stop-color="#4c4c4c"/><stop offset="0.57" stop-color="#515151"/><stop offset="0.63" stop-color="#5f5f5f"/><stop offset="0.69" stop-color="#767676"/><stop offset="0.75" stop-color="#979797"/><stop offset="0.8" stop-color="#b3b3b3"/></linearGradient><linearGradient id="linear-gradient-14" x1="-11919.57" y1="262.43" x2="-11940.73" y2="229.08" xlink:href="#linear-gradient-13"/><linearGradient id="linear-gradient-15" x1="-11923.38" y1="264.85" x2="-11944.54" y2="231.5" xlink:href="#linear-gradient-13"/><linearGradient id="linear-gradient-16" x1="-11927.24" y1="267.3" x2="-11948.4" y2="233.94" gradientTransform="matrix(0.24, -0.97, -0.97, -0.24, 3192.33, -11398.72)" gradientUnits="userSpaceOnUse"><stop offset="0" stop-color="#666"/><stop offset="0.02" stop-color="#5f5f5f"/><stop offset="0.18" stop-color="#303030"/><stop offset="0.19" stop-color="#323232"/><stop offset="0.27" stop-color="#414141"/><stop offset="0.37" stop-color="#494949"/><stop offset="0.52" stop-color="#4c4c4c"/><stop offset="0.56" stop-color="#515151"/><stop offset="0.61" stop-color="#5f5f5f"/><stop offset="0.67" stop-color="#767676"/><stop offset="0.72" stop-color="#979797"/><stop offset="0.78" stop-color="#c1c1c1"/><stop offset="0.8" stop-color="#ccc"/></linearGradient></defs><title>資產 19</title><g id="圖層_2" data-name="圖層 2"><g id="圖層_45" data-name="圖層 45"><polygon class="cls-1" points="172.11 123.28 184.63 119.64 171.02 85.1 158.5 88.73 172.11 123.28"/></g><g id="圖層_44" data-name="圖層 44"><path class="cls-2" d="M242.47,39.91h.05l.26.08.05,0,.31.11h0l.08,0,.16.06.11.05.16.07,0,0,.07,0,.13.07.12.06.13.07.06,0,.07,0,.11.07.13.08.12.07,0,0,.09.06.11.07.13.09.1.07,0,0,.09.06.11.09.12.09.11.09,0,0,.08.06.13.11.11.09.12.11,0,0,.06,0,.15.15.09.08.14.15.06.06,0,0,.27.28.05.06.21.25,0,0,0,0,0,.05.14.18,0,0,.16.21,0,0,.12.17,0,.06.13.21,0,0a1.18,1.18,0,0,1,.11.19l0,.06c0,.06.07.13.11.2v0c0,.08.08.15.11.22l0,.06.08.18,0,.06a2.14,2.14,0,0,1,.1.22v0a1.34,1.34,0,0,1,.07.18l0,.07a1.87,1.87,0,0,1,.07.22v0l.06.21v.06c0,.06,0,.12,0,.18v0l0,.19v0l0,.2a.09.09,0,0,0,0,0c0,.08,0,.16,0,.24h0v.31a.41.41,0,0,0,0,.11h0s0,.08,0,.12v.07a.94.94,0,0,1,0,.16v0h0a1.21,1.21,0,0,1-.05.18s0,0,0,0l0,.11h0s0,0,0,.07a.93.93,0,0,1-.05.1l0,.07a.59.59,0,0,0,0,.08h0a.35.35,0,0,1-.05.08.43.43,0,0,1,0,.07l-.06.08-.05.06h0l-.12.14-2.68,2.81h0l.06-.07.06-.06h0l.05-.06.05-.07h0l0-.05v0l0-.07v0h0a.3.3,0,0,0,0-.08l0-.06h0l0-.09,0-.07h0s0-.08,0-.11a.14.14,0,0,1,0-.06h0v0l0-.14h0s0,0,0-.08a.52.52,0,0,1,0-.11h0s0-.05,0-.08,0-.06,0-.1h0a.34.34,0,0,0,0-.1v-.1h0a.33.33,0,0,0,0-.1V50h0a.49.49,0,0,0,0-.12v-.1h0v0s0-.07,0-.11a.38.38,0,0,0,0-.1v0h0c0-.06,0-.13,0-.19v0a1.16,1.16,0,0,0,0-.18V49l-.06-.22h0c0-.08-.05-.15-.07-.23l0-.06-.06-.19,0,0-.09-.23,0-.05a1.42,1.42,0,0,0-.08-.18l0-.06a2.26,2.26,0,0,0-.11-.22v0c0-.06-.07-.13-.11-.2l0-.06-.11-.19,0,0-.14-.22,0,0c0-.06-.07-.12-.11-.17l0-.06-.15-.21,0,0c-.05,0-.09-.11-.14-.17l0-.06,0-.05,0,0-.21-.25-.05-.06c-.08-.1-.17-.19-.26-.29l0,0-.06-.06-.15-.15-.09-.09-.15-.14-.06-.06,0,0-.12-.11-.11-.09a.69.69,0,0,0-.13-.11l-.07-.07,0,0-.12-.09-.12-.09-.11-.09-.09-.07,0,0-.11-.08-.13-.09-.11-.07-.08,0-.05,0-.11-.07-.13-.08-.12-.07-.07,0-.06,0-.12-.07-.13-.07-.13-.06-.07,0,0,0-.15-.07-.12-.05-.16-.07-.08,0h0l-.32-.11,0,0-.26-.07-.05,0-.13,0-.26,0-.08,0-.16,0H238l-.09,0h-.1l-.09,0-.1,0-.09,0-.1,0-.08,0-.09,0-.08,0-.08,0-.08,0-.08,0a.18.18,0,0,1-.07.05l-.07,0-.06.06-.07,0-.06.06-.06.06,2.68-2.81a3.11,3.11,0,0,1,3.07-.58Z"/><path class="cls-3" d="M236.77,43.1l.06-.06.07,0a.18.18,0,0,0,.07-.05l.08,0,.08,0,.08,0,.08,0,.09,0,.08,0,.1,0,.09,0,.1,0,.09,0h.1l.09,0h1.12l.16,0,.08,0,.26,0,.18,0,.26.07,0,0,.32.11.1,0,.16.07.12.05.15.07.12.06.13.06.13.07.12.07.13.07.12.07.13.08.11.07.13.08.11.07.13.09.11.08.12.09.11.09.12.09.12.09.1.09a.69.69,0,0,1,.13.11l.11.09.12.11.1.09.15.14.09.09.15.15.08.08c.09.1.18.19.26.29l.05.06.21.25.08.09,0,.06c.05.06.09.12.14.17l0,0,.15.21,0,.06s.07.11.11.17l0,0,.14.22,0,0,.11.19,0,.06c0,.07.07.14.11.2v0a2.26,2.26,0,0,1,.11.22l0,.06a1.42,1.42,0,0,1,.08.18l0,.05.09.23,0,0,.06.19,0,.06c0,.08.05.15.07.23l.06.23v0c0,.07,0,.14,0,.21v0c0,.08,0,.15,0,.22v0a.38.38,0,0,1,0,.1s0,.07,0,.11v0h0v.1a.49.49,0,0,1,0,.12v.12a.33.33,0,0,1,0,.1v.11a.34.34,0,0,1,0,.1s0,.08,0,.12,0,.06,0,.08,0,.08,0,.12,0,.05,0,.08l0,.14v0l-.06.17h0l-.07.16h0c0,.05,0,.1-.08.14v0l0,.07v0l0,.05h0l-.05.07-.05.06-.06.07-.06.07a3.08,3.08,0,0,1-3.07.59,9.7,9.7,0,0,1-6.4-6.09,3.07,3.07,0,0,1,.5-3.2l.06-.06Z"/><path class="cls-4" d="M239.32,43.22h0l.26.08h.06l.31.11h0l.09,0,.16.06.11.05.15.07,0,0,.08,0,.12.06.13.07.13.07.05,0,.08,0,.11.07.13.08a.41.41,0,0,1,.11.07l.05,0,.08,0,.11.07.13.09.11.08,0,0,.09.06.12.09.12.09.11.09,0,0,.08.07.13.11.1.09.13.11,0,0,.06.05.15.14.09.09.15.15.06.06,0,0c.09.1.18.19.26.29l.05.06c.08.08.15.17.22.25l0,.05,0,0,0,.06.13.18,0,0,.15.21,0,.06.12.17,0,0,.14.22,0,0,.11.19,0,.06.11.2,0,0a2.26,2.26,0,0,0,.11.22l0,.06a1.42,1.42,0,0,0,.08.18l0,.05.09.23,0,0,.07.19,0,.06c0,.08.05.15.07.23h0a.9.9,0,0,1,.06.22l0,.06a.85.85,0,0,0,0,.17v0l0,.19v0l0,.2v0c0,.09,0,.17,0,.24h0v.21s0,.07,0,.11v.1h0a.49.49,0,0,1,0,.12.15.15,0,0,1,0,.07l0,.17v0h0c0,.07,0,.13-.05.18s0,0,0,.06a.49.49,0,0,1,0,.11h0l0,.07a.36.36,0,0,1,0,.09l0,.07,0,.08h0l-.05.09a.16.16,0,0,0,0,.07l-.07.08,0,.06h0l-.12.14-2.69,2.8h0l.06-.07a.18.18,0,0,0,0-.07h0l0-.07.05-.07h0l0,0,0,0,0-.08h0s0-.05,0-.08l0-.07h0l0-.09,0-.07h0l0-.11a.08.08,0,0,0,0-.05h0s0,0,0,0l0-.13h0a.17.17,0,0,0,0-.07.52.52,0,0,0,0-.11h0a.19.19,0,0,1,0-.08.34.34,0,0,1,0-.1h0v0a.28.28,0,0,1,0-.09V53.3h0s0-.09,0-.13v-.1h0v0s0-.07,0-.1,0-.07,0-.1v0l0-.18v-.05c0-.06,0-.12,0-.18v-.06l-.06-.21v0a1.87,1.87,0,0,0-.07-.22l0-.07a1.34,1.34,0,0,0-.07-.18v0a2.14,2.14,0,0,0-.1-.22l0-.06-.08-.17,0-.06-.11-.23v0l-.11-.2,0-.06a1.18,1.18,0,0,0-.11-.19l0,0c0-.07-.09-.14-.14-.21l0-.06-.12-.17,0,0-.16-.21,0,0c-.05-.06-.09-.12-.14-.17l0-.06,0-.05,0,0-.21-.26-.05-.05-.27-.29,0,0-.06,0-.14-.15-.09-.09-.16-.15-.05,0,0,0-.12-.12-.11-.09-.13-.11-.08-.06,0,0-.11-.08-.12-.1-.11-.08-.09-.07,0,0-.1-.08-.13-.09L239,47.1l-.09-.06,0,0-.12-.07-.13-.08-.11-.06-.07,0-.06,0-.13-.07-.12-.06-.13-.06-.07,0,0,0-.16-.07-.11,0-.16-.07-.08,0h0l-.31-.11-.05,0-.27-.08h0l-.14,0-.25-.06h-.08l-.16,0h-.1l-.14,0H235l-.11,0h-.09l-.11,0-.09,0-.1,0-.08,0-.1,0-.08,0-.09,0-.08,0-.09,0-.07,0-.08,0-.07,0-.07.05-.07,0-.07.06-.06.06-.06,0,2.69-2.8a3.11,3.11,0,0,1,3.07-.59Z"/><path class="cls-3" d="M233.61,46.4l.07,0,.07-.05.07,0,.08,0,.07,0,.09,0,.08,0,.09,0,.08,0,.1,0,.08,0,.1,0,.09,0,.11,0h.09l.11,0h.77l.14,0h.1l.16,0h.08l.25.06.18,0,.27.08.05,0,.31.11.11,0,.16.07.11,0,.16.07.12.06.13.06.12.06.13.07.13.08.11.06.13.08.12.07.13.09.11.07.13.09.1.08a.6.6,0,0,1,.13.09l.11.08.12.1.11.08.11.09.13.11.11.09.12.12.09.08.16.15.09.09.14.15.08.08.27.29.05.05.21.26.08.09,0,.06c.05.05.09.11.14.17l0,0,.16.21,0,0,.12.17,0,.06c.05.07.1.14.14.21l0,0a1.18,1.18,0,0,1,.11.19l0,.06.11.2v0l.11.23,0,.06.08.17,0,.06a2.14,2.14,0,0,1,.1.22v0a1.34,1.34,0,0,1,.07.18l0,.07a1.87,1.87,0,0,1,.07.22c0,.08.05.16.07.23v0c0,.07,0,.14,0,.21v0l0,.22v0s0,.07,0,.1,0,.07,0,.1v0h0v.1s0,.09,0,.13v.33a.28.28,0,0,0,0,.09s0,.09,0,.13a.19.19,0,0,0,0,.08l0,.12a.17.17,0,0,1,0,.07l0,.14s0,0,0,0a1.21,1.21,0,0,1,0,.18h0l-.06.16h0l-.07.15h0l0,.08,0,0,0,0h0l-.05.07,0,.07-.06.07-.06.07a3.1,3.1,0,0,1-3.08.59,9.74,9.74,0,0,1-6.4-6.1,3.08,3.08,0,0,1,.5-3.19l.06-.06Z"/><path class="cls-5" d="M236.21,46.5h0l.26.08h.06l.31.11h0l.09,0,.15.06.12,0,.15.07.05,0,.08,0,.12.06.13.07.13.07.05,0,.08,0,.11.07.13.08a.41.41,0,0,1,.11.07l0,0,.08,0,.11.07.13.09.11.08,0,0,.09.07.12.09.12.09.11.09,0,0,.08.07.13.11.1.09.13.11,0,0,.06,0,.15.14.09.09.15.15.06.06,0,0c.09.1.18.19.26.29l.05.06c.08.08.15.17.22.25l0,.05,0,0,.05.06.13.18,0,0,.15.21,0,.06.12.17,0,0,.14.22,0,0,.11.19,0,.06.11.2,0,0,.11.22,0,.06a1.42,1.42,0,0,0,.08.18l0,.05.09.23,0,0,.07.19,0,.06c0,.08,0,.15.07.23h0a.9.9,0,0,1,.06.22l0,.05a.8.8,0,0,0,0,.18v0l0,.19v0l0,.19v.05c0,.09,0,.17,0,.24h0V54s0,.07,0,.11v.1h0a.49.49,0,0,1,0,.12.15.15,0,0,1,0,.07l0,.17v0h0c0,.06,0,.13-.05.18s0,0,0,.06a.49.49,0,0,1,0,.11h0l0,.07a.36.36,0,0,1,0,.09l0,.07a.59.59,0,0,0,0,.08h0l0,.09a.16.16,0,0,0,0,.07l-.07.08,0,.06h0l-.12.14-2.69,2.8h0l.06-.07a.18.18,0,0,0,.05-.07h0l.05-.07,0-.07h0l0,0,0,0s0,0,0-.08h0l0-.08,0-.07h0l0-.09,0-.07h0l0-.11a.08.08,0,0,0,0,0h0s0,0,0,0a.65.65,0,0,0,0-.13h0a.17.17,0,0,0,0-.07.52.52,0,0,0,0-.11h0a.19.19,0,0,1,0-.08.31.31,0,0,1,0-.1h0v0a.28.28,0,0,1,0-.09v-.31h0s0-.09,0-.13a.38.38,0,0,0,0-.1h0v0s0-.07,0-.1,0-.07,0-.1v0l0-.18v-.05c0-.06,0-.12,0-.18v-.06l-.06-.21v0a1.87,1.87,0,0,0-.07-.22l0-.07a1.34,1.34,0,0,0-.07-.18v0a2.14,2.14,0,0,0-.1-.22l0-.06c0-.06-.05-.12-.08-.17l0-.06-.11-.23v0a2,2,0,0,1-.11-.2l0-.06a1.18,1.18,0,0,0-.11-.19l0,0c0-.07-.09-.14-.14-.21l0-.06-.12-.17,0,0-.16-.21,0,0c0-.06-.09-.12-.14-.17l0-.06,0,0,0,0-.21-.26,0-.05-.27-.29,0,0-.06,0a.67.67,0,0,0-.14-.15l-.09-.09-.16-.15-.05-.05,0,0-.12-.12-.11-.09-.13-.11-.08-.06,0,0-.11-.08-.12-.1-.11-.08-.09-.07,0,0-.1-.07-.13-.09-.11-.07-.09-.06,0,0-.12-.07-.13-.08-.11-.06-.07,0-.06,0-.13-.07-.12-.06-.13-.07-.07,0-.05,0-.16-.07-.11,0-.16-.07-.08,0h0l-.31-.11,0,0-.27-.08h0l-.14,0-.25-.06h-.08l-.17,0h-.09l-.14,0h-.77l-.11,0h-.09l-.11,0-.09,0-.1,0-.08,0-.1,0-.08,0-.09,0-.08,0-.09,0-.07,0-.08.05-.07,0-.07.05-.07,0-.07.06-.06.06-.06.05,2.69-2.8a3.11,3.11,0,0,1,3.07-.59Z"/><path class="cls-3" d="M230.5,49.68l.07,0,.07-.05.07,0,.08-.05.07,0,.09,0,.08,0,.09,0,.08,0,.1,0,.08,0,.1,0,.09,0,.11,0h.09l.11,0h.77l.14,0h.09l.17,0h.08l.25.06.18,0,.27.08,0,0,.31.11.11,0,.16.07.11,0,.16.07.12,0,.13.07.12.06.13.07.13.08.11.06.13.08.12.07.13.09.11.07.13.09.1.07.13.1.11.08.12.1.11.08.11.09.13.11.11.09.12.12.09.08.16.15.09.09a.67.67,0,0,1,.14.15l.08.08.27.29,0,.05.21.26.08.09,0,.06s.09.11.14.17l0,0,.16.21,0,0,.12.17,0,.06c0,.07.1.14.14.21l0,0a1.18,1.18,0,0,1,.11.19l0,.06a2,2,0,0,0,.11.2v0l.11.23,0,.06s.05.11.08.17l0,.06a2.14,2.14,0,0,1,.1.22v0a1.34,1.34,0,0,1,.07.18l0,.07a1.87,1.87,0,0,1,.07.22c0,.08.05.16.07.23v0c0,.07,0,.14.05.21v0l0,.22v0s0,.07,0,.1,0,.07,0,.1v0h0a.38.38,0,0,1,0,.1s0,.09,0,.13v.33a.28.28,0,0,0,0,.09c0,.05,0,.09,0,.13a.19.19,0,0,0,0,.08l0,.12a.17.17,0,0,1,0,.07.57.57,0,0,1,0,.14s0,0,0,0a1.21,1.21,0,0,1-.05.18h0l-.06.16h0l-.07.15h0s0,0,0,.08l0,0,0,0h0l0,.07-.05.07-.06.07-.06.07a3.1,3.1,0,0,1-3.08.59,9.74,9.74,0,0,1-6.4-6.1,3.08,3.08,0,0,1,.5-3.19l.06-.06Z"/><path class="cls-6" d="M233.05,49.8h0l.26.08,0,0,.32.11h0l.08,0,.16.07.12,0,.15.07.05,0,.07,0,.13.06.13.07.12.06.06,0,.07,0,.12.06a.57.57,0,0,0,.13.08l.11.07.05,0,.08.06.11.07.13.09.11.08,0,0,.09.07.11.08.12.1.12.09,0,0,.07.06.13.11.11.09.12.12,0,0,.06.05.15.15.09.09.15.15,0,0,0,0a3.58,3.58,0,0,1,.26.29l0,.05.21.26,0,0,0,0,0,.06s.09.11.14.17l0,0,.15.21,0,0c0,.06.07.12.11.17l0,.06.14.22v0l.12.19,0,.06.11.2v0a2.4,2.4,0,0,1,.11.23l0,.06a1.42,1.42,0,0,1,.08.18l0,0,.09.22,0,0,.06.18,0,.07.07.22v0l.06.21v.06a1.16,1.16,0,0,1,0,.18v.05a1.08,1.08,0,0,1,0,.19h0a1.5,1.5,0,0,1,0,.2s0,0,0,0a1.93,1.93,0,0,1,0,.24h0v.31s0,.07,0,.11h0s0,.08,0,.12a.17.17,0,0,0,0,.07l0,.16v0h0c0,.06,0,.12,0,.18l0,0s0,.08,0,.12h0l0,.08a.36.36,0,0,0,0,.09l0,.07a.3.3,0,0,1,0,.08h0l-.06.08a.16.16,0,0,1,0,.07l-.06.09,0,0h0l-.12.13-2.69,2.81h0a.2.2,0,0,0,.06-.07l.06-.06h0l.05-.06,0-.07h0l0-.05v0l0-.07h0a.25.25,0,0,1,0-.07l0-.07h0a.36.36,0,0,0,0-.09l0-.07h0a.49.49,0,0,0,0-.11s0,0,0,0h0v0s0-.09,0-.14h0s0,0,0-.08a.36.36,0,0,0,0-.11h0a.19.19,0,0,0,0-.08.31.31,0,0,0,0-.1h0v-.1s0-.06,0-.1h0v-.2h0v0a.49.49,0,0,1,0-.12s0-.07,0-.1h0v0a.38.38,0,0,1,0-.1s0-.07,0-.1v0l0-.19h0v0a1,1,0,0,1,0-.17V58.9a1.8,1.8,0,0,0-.06-.22h0c0-.08,0-.15-.07-.23l0-.06c0-.06,0-.12-.07-.19l0,0-.09-.23,0-.05a1.42,1.42,0,0,1-.08-.18l0-.06-.11-.22,0,0-.11-.19,0-.07-.11-.19,0,0-.14-.22,0,0a1,1,0,0,0-.11-.17l0-.06-.15-.21,0,0-.13-.18-.05-.06,0,0,0-.05c-.07-.08-.14-.17-.22-.25l0-.06c-.08-.1-.17-.19-.26-.29l0,0-.06-.06-.15-.15-.09-.09-.15-.14-.06-.05,0,0-.13-.11-.1-.09-.13-.11-.08-.07,0,0-.11-.09-.12-.09-.12-.09-.09-.06,0,0-.11-.07-.13-.09-.11-.08-.08,0-.05,0a.41.41,0,0,0-.11-.07l-.13-.08-.11-.07-.08,0,0,0-.13-.07-.13-.07-.12-.06-.07,0-.06,0-.15-.07-.12,0-.15-.06-.09,0h0l-.31-.11h-.06l-.26-.08h0l-.14,0-.25,0-.08,0-.17,0h-.1l-.14,0h-.87l-.1,0-.1,0-.09,0-.1,0-.09,0-.09,0-.09,0-.09,0-.07,0-.09,0-.07,0-.08.05-.07,0-.08.06-.06.05-.07.06-.06.05-.06.06,2.69-2.8a3.08,3.08,0,0,1,3.07-.59Z"/><path class="cls-7" d="M227.35,53l.06-.05.08-.06.07,0,.08-.05.07,0,.09,0,.07,0,.09,0,.09,0,.09,0,.09,0,.1,0,.09,0,.1,0,.1,0h.87l.14,0h.1l.17,0,.08,0,.25,0,.18,0,.26.08h.06l.31.11.11,0,.15.06.12,0,.15.07.13.06.12.06.13.07.13.07.13.07.11.07.13.08a.41.41,0,0,1,.11.07l.13.08.11.08.13.09.11.07.12.09.12.09.12.09.11.09.11.09.13.11.1.09.13.11.09.09.15.14.09.09.15.15a.6.6,0,0,0,.08.08c.09.1.18.19.26.29l0,.06c.08.08.15.17.22.25l.07.09.05.06.13.18,0,0,.15.21,0,.06a1,1,0,0,1,.11.17l0,0,.14.22,0,0,.11.19,0,.07.11.19,0,0,.11.22,0,.06a1.42,1.42,0,0,0,.08.18l0,.05.09.23,0,0c0,.07.05.13.07.19l0,.06c0,.08.05.15.07.23l.06.23v0c0,.07,0,.14.05.21v0a1.43,1.43,0,0,1,0,.22v0s0,.06,0,.1a.38.38,0,0,0,0,.1v0h0s0,.06,0,.1a.49.49,0,0,0,0,.12v.22s0,.07,0,.11v.1s0,.08,0,.12a.19.19,0,0,1,0,.08.5.5,0,0,1,0,.12s0,0,0,.08,0,.09,0,.14v0l-.06.17h0a1.11,1.11,0,0,1-.07.16h0a1.09,1.09,0,0,1-.08.15h0l0,.07v0l0,.05h0l0,.07-.05.06s0,.05-.06.07a.2.2,0,0,1-.06.07,3.1,3.1,0,0,1-3.07.6,9.76,9.76,0,0,1-6.4-6.1,3.1,3.1,0,0,1,.5-3.2l.06-.05Z"/><g class="cls-8"><path class="cls-9" d="M223,45l.15,0,.3.08.18,0,.28.09.19.06.26.08.2.07.25.09.21.07.25.09.21.08.24.09.21.09.24.1.21.09.24.1.22.1.24.11.21.1.23.11.22.1.23.12.22.11.23.12.21.11.23.13.22.12.23.12.21.13.23.13L230,48l.23.13.21.13.22.14.22.14.22.14.21.14.22.15.21.14.22.15.21.15.21.15.21.15.22.16.2.15.21.16.21.16.21.17.2.16.21.16.2.17.21.17.19.16.21.18.19.17.21.17.19.18.2.18a1.54,1.54,0,0,1,.19.17l.2.18.19.18c.07.06.13.13.19.19l.09.08.09.09.25.24.16.16.25.26.15.14.29.31.1.1.38.42h0c.44.47.86,1,1.26,1.45l0,0,.45.57.17.22c.09.12.19.24.28.37l.09.11.12.17.2.27.21.3.18.26.15.21.07.11c0,.06.09.12.13.19l.24.37.09.14c.08.12.16.24.23.36l0,.06h0c.22.36.43.71.63,1.07s.41.75.59,1.12.37.75.54,1.13a1,1,0,0,1,0,.1c.06.12.11.25.17.37a1.22,1.22,0,0,0,.07.17c.06.15.12.29.17.44l0,.07h0l.2.54,0,.15c.05.13.09.27.14.41l0,.09a.14.14,0,0,1,0,.07c.06.18.12.36.17.54l.12.4,0,.12a.83.83,0,0,0,0,.15l0,.14,0,.13c0,.11,0,.21.08.31a.29.29,0,0,0,0,.09c0,.13.05.26.08.39a.44.44,0,0,0,0,.1,1.55,1.55,0,0,0,0,.21.2.2,0,0,0,0,.07l0,.18,0,.22,0,.18,0,.22a1.1,1.1,0,0,0,0,.18c0,.07,0,.14,0,.22s0,.11,0,.17a.28.28,0,0,0,0,.09v.08c0,.11,0,.22,0,.32s0,.1,0,.15,0,.26,0,.38v.07c0,.14,0,.29,0,.43v.13c0,.1,0,.2,0,.31v.07a.28.28,0,0,1,0,.09c0,.06,0,.13,0,.19s0,.12,0,.17a1.36,1.36,0,0,0,0,.2l0,.17,0,.18a1,1,0,0,1,0,.17c0,.06,0,.12,0,.18l0,.16c0,.06,0,.12,0,.18s0,.11,0,.16a1.21,1.21,0,0,1-.05.18.83.83,0,0,1,0,.15c0,.06,0,.12-.05.17l0,.15-.06.17a.88.88,0,0,1-.05.15,1.11,1.11,0,0,1-.07.16.58.58,0,0,1-.05.14c0,.06,0,.11-.07.17l-.06.13c0,.06-.06.11-.08.16l-.06.13-.09.17a.41.41,0,0,0-.07.11l-.1.18-.06.09-.15.24,0,0-.18.25-.07.08a1.09,1.09,0,0,1-.13.17h0c-.12.15-.25.3-.38.44L238,82.8a5.82,5.82,0,0,0,.4-.45l.13-.17.06-.08a2.27,2.27,0,0,0,.18-.25l0,0,.16-.24,0-.09a1.74,1.74,0,0,0,.11-.18l.06-.11.09-.17.06-.12a1.3,1.3,0,0,0,.08-.17l.06-.13.08-.17a1.21,1.21,0,0,1,0-.14l.07-.16a.88.88,0,0,1,.05-.15l.06-.17s0-.1,0-.15l.06-.17s0-.1,0-.15,0-.12.05-.18l0-.16c0-.06,0-.12.05-.18l0-.16,0-.18,0-.17,0-.18a1.11,1.11,0,0,0,0-.17l0-.19c0-.06,0-.12,0-.18s0-.13,0-.19,0-.11,0-.16,0-.21,0-.31v-.13c0-.14,0-.29,0-.43v-.06c0-.13,0-.26,0-.39v-.15c0-.1,0-.21,0-.32s0-.11,0-.17,0-.12,0-.17l0-.22a1.1,1.1,0,0,0,0-.18l0-.22a1.1,1.1,0,0,0,0-.18,1.7,1.7,0,0,0,0-.22l0-.18a2.33,2.33,0,0,0-.05-.28.3.3,0,0,0,0-.1c0-.13,0-.26-.08-.39a.29.29,0,0,0,0-.09c0-.1,0-.2-.07-.31l0-.13-.08-.29,0-.12c0-.13-.07-.26-.11-.4s-.11-.36-.17-.54a1.42,1.42,0,0,1,0-.16c-.05-.14-.1-.28-.14-.41l-.06-.15c-.06-.18-.13-.36-.2-.54l0-.08-.18-.44a1.22,1.22,0,0,0-.07-.17c-.05-.12-.1-.25-.16-.37-.33-.75-.71-1.5-1.12-2.24h0c-.09-.17-.18-.34-.28-.5l0-.07-.27-.46a.61.61,0,0,0-.07-.1c-.08-.14-.16-.27-.25-.4l-.1-.17c-.08-.13-.16-.25-.25-.37l-.13-.2a3.62,3.62,0,0,0-.22-.32l-.18-.26a3.46,3.46,0,0,0-.22-.31l-.2-.27L235,63c-.09-.13-.19-.26-.29-.38l-.16-.22-.46-.57c-.41-.5-.85-1-1.29-1.49l-.39-.42a.94.94,0,0,0-.1-.1L232,59.5l-.14-.14-.26-.26-.16-.16-.24-.24-.18-.17-.19-.19-.19-.17-.2-.19-.19-.17-.2-.18-.2-.17-.2-.18-.19-.17-.21-.18-.2-.16-.21-.17-.19-.17-.21-.16-.21-.16-.21-.17-.2-.16-.21-.16-.21-.15-.21-.16-.21-.15-.22-.15-.21-.15-.22-.15-.2-.14-.23-.15-.21-.14-.22-.14-.21-.14-.22-.14-.22-.13-.22-.13-.22-.13-.22-.13-.22-.13-.23-.12L223.5,53l-.23-.13-.21-.11-.24-.12-.21-.11-.24-.12-.21-.1-.24-.11-.21-.1-.24-.11-.21-.1-.24-.1-.21-.09-.24-.1-.21-.08-.25-.1-.21-.08-.24-.09-.21-.07-.25-.09L219,51l-.26-.08-.2-.06-.27-.09-.18,0-.31-.08-.14,0-.46-.12c-4.76-1.13-8.51-.27-10.74,2.06l5.38-5.61c2.22-2.33,6-3.19,10.74-2.06Z"/><path class="cls-10" d="M239.59,71.81c-2.8-9.49-12.83-19.05-22.41-21.34S202.1,54,204.89,63.52s12.83,19,22.41,21.34S242.38,81.31,239.59,71.81Z"/></g><g class="cls-8"><path class="cls-7" d="M236.3,78.54c-3.36-11.42-15.42-22.9-26.94-25.66S191.18,57,194.54,68.39s15.47,23.08,27,25.83S239.65,90,236.3,78.54Z"/><path class="cls-11" d="M215.14,47.49l.19,0,.36.1.21.07.33.09.24.08.31.1.24.08.3.1.25.09.3.11.25.1.29.11.26.11.29.11.25.11.29.13.26.11.28.13.26.12.28.14.26.12.28.14.26.13.28.15.26.14c.09,0,.18.09.27.15l.26.14.28.15.25.15.28.16.25.15.27.16.26.16.27.17.25.16.27.18.25.16.27.18.25.17.26.18.25.18.27.18.24.18.26.19.25.19.26.19.24.19.25.2.25.19.25.2.24.2.25.2.23.2.25.21.24.21.24.21.23.21.25.21.22.21.24.22.23.22.24.22.1.1.1.1.3.3.19.19.31.31a1.37,1.37,0,0,1,.17.17l.36.37.12.13c.15.16.3.33.46.49v0l.39.43,0,0,.36.42.13.15.26.3.15.19.18.22,0,0,.54.67.11.15.51.66,0,0h0l.47.64.12.17.39.55.06.09,0,0c.14.2.27.41.41.62l.1.15.31.49.06.1.06.09.3.5a.75.75,0,0,0,.07.12l.35.61,0,0,.06.12c.09.15.17.3.25.45l.11.2.23.45.07.13,0,.05.3.61,0,.07c.08.18.16.36.25.54l0,.08,0,.12.2.45c0,.06,0,.13.08.2s.15.35.22.53l0,.08v0l0,.06c.06.14.11.28.16.42l0,.12c.06.16.12.31.17.47l0,0c0,.14.09.29.14.43l0,.12c.05.16.1.32.14.48s.1.32.14.48,0,.1,0,.14,0,.12,0,.18l.05.17a.94.94,0,0,0,0,.16c0,.12.06.25.08.37l0,.11c0,.15.06.31.1.47a.52.52,0,0,0,0,.11c0,.09,0,.17,0,.26s0,.05,0,.08a1.7,1.7,0,0,0,0,.22,2.51,2.51,0,0,0,0,.27l0,.21,0,.27,0,.21,0,.26a1.49,1.49,0,0,0,0,.21v.11a2.11,2.11,0,0,1,0,.25v0c0,.14,0,.27,0,.41v.1c0,.13,0,.27,0,.4v0c0,.13,0,.25,0,.38V79c0,.13,0,.26,0,.39v.07a2.46,2.46,0,0,1,0,.28,1.79,1.79,0,0,1,0,.23,1.49,1.49,0,0,1,0,.21,1.79,1.79,0,0,1,0,.23l0,.2a1.85,1.85,0,0,1,0,.23l0,.2c0,.07,0,.14,0,.22s0,.13,0,.19,0,.14-.05.22,0,.12,0,.19l-.06.21c0,.06,0,.12-.05.18a1.72,1.72,0,0,1-.07.21,1.21,1.21,0,0,1,0,.18c0,.07-.05.14-.07.2a1.34,1.34,0,0,1-.07.18c0,.06,0,.13-.07.2a1.11,1.11,0,0,0-.07.16l-.09.2c0,.06-.05.11-.07.16a1.24,1.24,0,0,1-.1.2l-.07.15c0,.07-.07.14-.11.2s-.05.09-.07.14l-.13.21-.07.12-.18.28,0,0-.22.3-.07.1-.16.2-.15.19a.73.73,0,0,0-.08.09l-.25.26-5.37,5.61.25-.26.07-.09.15-.18h0l.16-.2L235,91l.22-.3,0,0c.07-.09.13-.19.19-.28a.75.75,0,0,1,.07-.12l.12-.21.08-.14.11-.2a1,1,0,0,1,.07-.15c0-.06.07-.13.1-.2l.07-.16a1.19,1.19,0,0,0,.08-.2,1.11,1.11,0,0,0,.07-.16c0-.07.06-.14.08-.2l.06-.18a1.18,1.18,0,0,0,.07-.2l.06-.18.06-.21.06-.18a1.6,1.6,0,0,1,.05-.21c0-.07,0-.13,0-.19a1.42,1.42,0,0,1,.05-.22,1.29,1.29,0,0,1,0-.19,1.43,1.43,0,0,1,0-.22l0-.2a1.85,1.85,0,0,1,0-.23,1.36,1.36,0,0,1,0-.2l0-.23c0-.07,0-.14,0-.21s0-.15,0-.23,0-.07,0-.11,0-.11,0-.17V85c0-.13,0-.26,0-.39v-1c0-.14,0-.27,0-.41v0c0-.08,0-.17,0-.26s0-.06,0-.1a1.49,1.49,0,0,0,0-.21l0-.26a1.49,1.49,0,0,0,0-.21,2.51,2.51,0,0,0,0-.27.76.76,0,0,0,0-.21,2.51,2.51,0,0,0,0-.27l0-.22s0-.06,0-.08a2.38,2.38,0,0,0-.05-.26.36.36,0,0,0,0-.11c0-.16-.06-.32-.1-.47a.43.43,0,0,0,0-.11l-.09-.37a.94.94,0,0,0,0-.16,1,1,0,0,0,0-.17,1.21,1.21,0,0,0,0-.18l0-.14c-.05-.16-.09-.32-.14-.48l-.15-.48,0-.12a.65.65,0,0,0,0-.13c0-.1-.06-.2-.1-.3v0l-.17-.47s0-.08,0-.12l-.16-.42,0-.06v0l0-.08-.21-.53-.09-.2-.19-.45a.61.61,0,0,1,0-.12.3.3,0,0,1,0-.08c-.08-.18-.16-.36-.25-.54l0-.07-.3-.61,0-.06-.06-.12c-.08-.15-.16-.3-.23-.45a2,2,0,0,1-.11-.2l-.25-.45a.75.75,0,0,0-.07-.12l0,0-.36-.61a.75.75,0,0,0-.07-.12l-.3-.5-.05-.09a.61.61,0,0,0-.07-.1c-.1-.16-.2-.33-.31-.49l-.09-.15-.42-.62,0,0-.06-.09-.38-.55-.12-.17-.47-.64h0l0,0-.5-.66-.12-.15c-.17-.22-.35-.45-.54-.67l0-.05-.18-.21-.15-.19-.26-.3-.14-.15-.36-.42,0,0-.39-.43,0,0c-.15-.16-.3-.33-.46-.49l-.12-.13-.35-.37-.17-.18-.31-.3-.19-.19-.3-.3-.1-.1-.11-.1-.23-.22-.23-.22-.24-.22-.23-.21-.24-.21-.23-.21-.25-.21-.23-.21-.25-.21-.24-.2-.25-.2-.23-.2-.26-.2-.24-.19-.25-.2-.25-.19-.25-.19-.25-.19-.26-.19L221,58.6l-.26-.18-.25-.18-.26-.18-.25-.17-.27-.18-.25-.16-.27-.18-.25-.16-.28-.17-.25-.15-.27-.17-.26-.15-.27-.16-.26-.15-.27-.15-.26-.14c-.09-.06-.19-.1-.28-.15l-.26-.14-.28-.15-.25-.13-.28-.14-.26-.12-.29-.14-.25-.12-.29-.13-.25-.11-.29-.13-.26-.11-.29-.11-.25-.11-.29-.11-.26-.1-.29-.11-.25-.09-.3-.1-.25-.08-.31-.1-.23-.08-.33-.09-.22-.07-.36-.1-.18,0-.55-.13a20.42,20.42,0,0,0-4.05-.59h-.94a15.14,15.14,0,0,0-2.6.27l-.8.19c-.26.07-.52.15-.76.24a10.6,10.6,0,0,0-1.74.79,8.84,8.84,0,0,0-.93.62,9,9,0,0,0-1.09,1l5.37-5.61c2.68-2.8,7.2-3.84,12.92-2.47Z"/></g><path class="cls-12" d="M232,77.62c-2.69-9.12-12.31-18.29-21.51-20.49S196,60.54,198.66,69.66,211,87.94,220.16,90.14,234.64,86.73,232,77.62Z"/><path class="cls-13" d="M230.46,77.26C228,69,219.26,60.62,210.89,58.61S197.71,61.72,200.15,70s11.21,16.65,19.58,18.65S232.9,85.56,230.46,77.26Z"/><path class="cls-14" d="M222.65,79.78s0,0,0-.08S222.65,79.75,222.65,79.78Z"/><path class="cls-14" d="M222.69,79.45s0,0,0-.08S222.69,79.43,222.69,79.45Z"/><path class="cls-14" d="M222.62,79.93s0-.05,0-.07S222.62,79.91,222.62,79.93Z"/><path class="cls-14" d="M222.67,79.62s0-.06,0-.08S222.67,79.59,222.67,79.62Z"/><path class="cls-14" d="M222.5,80.39a.25.25,0,0,0,0-.07A.25.25,0,0,1,222.5,80.39Z"/><path class="cls-14" d="M222.55,80.24a.19.19,0,0,1,0-.07A.19.19,0,0,0,222.55,80.24Z"/><path class="cls-14" d="M222.58,80.09a.25.25,0,0,0,0-.07A.25.25,0,0,1,222.58,80.09Z"/><path class="cls-14" d="M222.7,79.29a.28.28,0,0,0,0-.09A.28.28,0,0,1,222.7,79.29Z"/><path class="cls-14" d="M222.71,78.76v0Z"/><path class="cls-14" d="M222.71,78.58a.25.25,0,0,0,0-.08A.25.25,0,0,1,222.71,78.58Z"/><path class="cls-14" d="M222.7,78.4a.25.25,0,0,1,0-.08A.25.25,0,0,0,222.7,78.4Z"/><path class="cls-14" d="M222.72,78.94v0Z"/><path class="cls-14" d="M222.71,79.12a.28.28,0,0,1,0-.09A.28.28,0,0,0,222.71,79.12Z"/><path class="cls-14" d="M221.82,81.66l0,0Z"/><path class="cls-14" d="M221.9,81.55l0-.06Z"/><path class="cls-14" d="M222,81.44l0-.06Z"/><path class="cls-14" d="M222.07,81.32l0-.06Z"/><path class="cls-14" d="M221.72,81.77s0,0,.05,0S221.74,81.75,221.72,81.77Z"/><path class="cls-14" d="M222.4,80.67l0-.07Z"/><path class="cls-14" d="M222.34,80.81l0-.07Z"/><path class="cls-14" d="M222.45,80.53l0-.07Z"/><path class="cls-14" d="M222.22,81.07l0-.06Z"/><path class="cls-14" d="M222.28,80.94l0-.06Z"/><path class="cls-14" d="M222.14,81.2a.21.21,0,0,0,0-.06A.21.21,0,0,1,222.14,81.2Z"/><path class="cls-14" d="M208.23,67h0Z"/><path class="cls-14" d="M208.51,66.92h0Z"/><path class="cls-14" d="M208.8,66.83h0Z"/><path class="cls-14" d="M210.11,66.65h0Z"/><path class="cls-14" d="M209.43,66.7h0Z"/><path class="cls-14" d="M209.11,66.75h0Z"/><path class="cls-14" d="M207.27,67.63h0Z"/><path class="cls-14" d="M208,67.15h0Z"/><path class="cls-14" d="M222.68,78.21s0,0,0-.08S222.68,78.19,222.68,78.21Z"/><path class="cls-14" d="M207.48,67.45v0Z"/><path class="cls-14" d="M207.72,67.29h0Z"/><path class="cls-14" d="M209.76,66.67h0Z"/><path class="cls-14" d="M222.56,77.44a.24.24,0,0,1,0-.08A.24.24,0,0,0,222.56,77.44Z"/><path class="cls-14" d="M222.51,77.24s0,0,0-.08S222.5,77.21,222.51,77.24Z"/><path class="cls-14" d="M222.63,77.84s0-.06,0-.09S222.62,77.81,222.63,77.84Z"/><path class="cls-14" d="M222.46,77s0,0,0-.08S222.45,77,222.46,77Z"/><path class="cls-14" d="M222.59,77.64s0-.06,0-.09S222.59,77.61,222.59,77.64Z"/><path class="cls-14" d="M222.66,78s0-.06,0-.09S222.65,78,222.66,78Z"/><path class="cls-14" d="M210.47,66.66h0Z"/><path class="cls-14" d="M210.84,66.68h0Z"/><path class="cls-14" d="M211.61,66.79Z"/><path class="cls-14" d="M211.22,66.73h0Z"/><path class="cls-15" d="M225.07,73.94c.65,2.21.33,4-.72,5.08l-2.68,2.81h0l.05,0s0,0,.05,0l0-.06,0,0,0-.06,0-.06,0,0,0-.06,0-.06,0-.06,0-.06a.21.21,0,0,0,0-.06.16.16,0,0,1,0-.07l0-.06,0-.07,0-.06,0-.07,0-.07,0-.07,0-.07a.14.14,0,0,0,0-.07l0-.07s0,0,0-.07a.25.25,0,0,0,0-.07l0-.08a.19.19,0,0,1,0-.07s0,0,0-.08a.25.25,0,0,0,0-.07s0-.06,0-.09,0-.05,0-.07,0-.06,0-.08,0,0,0-.08,0-.06,0-.08,0-.06,0-.08,0-.06,0-.09,0,0,0-.08v-.08a.28.28,0,0,0,0-.09v-.08a.28.28,0,0,1,0-.09v-.17a.38.38,0,0,0,0-.1v-.18a.25.25,0,0,0,0-.08v-.1a.25.25,0,0,1,0-.08s0-.07,0-.11,0,0,0-.08,0-.07,0-.1,0-.06,0-.09,0-.07,0-.1,0-.06,0-.09a.43.43,0,0,0,0-.11s0-.06,0-.09a.36.36,0,0,1,0-.11.24.24,0,0,1,0-.08l0-.12s0,0,0-.08l0-.13s0,0,0-.08l-.06-.2A15.77,15.77,0,0,0,212,66.88l-.41-.09h0l-.39-.06h0l-.37,0h0l-.36,0h-.37l-.34,0h0l-.32,0h0l-.3,0h0l-.29.07h0c-.09,0-.18,0-.27.09h0l-.26.1h0l-.24.12h0l-.23.13h0l-.22.15v0a1.56,1.56,0,0,0-.2.16h0l-.19.18h0l2.69-2.8c1-1.08,2.77-1.48,5-1A15.73,15.73,0,0,1,225.07,73.94Z"/><path class="cls-12" d="M207.27,67.63a1.56,1.56,0,0,1,.2-.16v0l.22-.15h0l.23-.13h0l.24-.12h0l.26-.1h0c.09,0,.18-.06.27-.09h0l.29-.07h0l.3,0h0l.32,0h0l.34,0h.37l.36,0h0l.37,0h0l.39.06h0l.41.09a15.77,15.77,0,0,1,10.36,9.87l.06.2s0,0,0,.08l0,.13s0,0,0,.08l0,.12a.24.24,0,0,0,0,.08.36.36,0,0,0,0,.11s0,.06,0,.09a.43.43,0,0,1,0,.11s0,.06,0,.09,0,.07,0,.1,0,.06,0,.09,0,.07,0,.1,0,.06,0,.08,0,.07,0,.11a.25.25,0,0,0,0,.08v.1a.25.25,0,0,1,0,.08v.18a.38.38,0,0,1,0,.1V79a.28.28,0,0,0,0,.09v.08a.28.28,0,0,1,0,.09v.08s0,.06,0,.08,0,.06,0,.09,0,0,0,.08,0,0,0,.08,0,0,0,.08,0,0,0,.08,0,0,0,.07,0,.06,0,.09a.25.25,0,0,1,0,.07s0,0,0,.08a.19.19,0,0,0,0,.07l0,.08a.25.25,0,0,1,0,.07s0,0,0,.07l0,.07a.14.14,0,0,1,0,.07l0,.07,0,.07,0,.07,0,.07,0,.06,0,.07,0,.06a.16.16,0,0,0,0,.07.21.21,0,0,1,0,.06l0,.06,0,.06,0,.06,0,.06,0,0,0,.06,0,.06,0,0,0,.06s0,0-.05,0l-.05,0c-1,1.08-2.76,1.49-5,1a15.77,15.77,0,0,1-10.36-9.87c-.66-2.21-.33-4,.72-5.09l.19-.18Z"/><path class="cls-14" d="M181.9,118.91l0-.06,0,0Z"/><polygon class="cls-14" points="181.83 119.01 181.83 119.01 181.83 119.01 181.83 119.01"/><path class="cls-14" d="M181.64,119.26l0,0Z"/><path class="cls-14" d="M182,118.77l0,0,0,0Z"/><path class="cls-14" d="M181.68,119.22l0,0h0Z"/><path class="cls-14" d="M182.16,118.32v0h0Z"/><path class="cls-14" d="M181.77,119.1l0,0Z"/><path class="cls-14" d="M182.2,118.17v0s0,0,0-.06Z"/><path class="cls-14" d="M182,118.65l0-.08,0,.05Z"/><path class="cls-14" d="M182.1,118.5v0h0l0,0h0Z"/><path class="cls-14" d="M182.13,118.42h0l0,0h0Z"/><path class="cls-14" d="M182.3,117.49v0Z"/><path class="cls-14" d="M182.3,117.61v0Z"/><path class="cls-14" d="M182.28,117.73v0Z"/><path class="cls-14" d="M182.3,117v0Z"/><path class="cls-14" d="M182.31,117.25v0Z"/><path class="cls-14" d="M182.27,117.82h0Z"/><path class="cls-14" d="M181.83,119l0,0Z"/><path class="cls-14" d="M182,118.67l0,0Z"/><path class="cls-14" d="M181.88,118.94l0,0Z"/><path class="cls-14" d="M182.27,117.84v0Z"/><path class="cls-14" d="M182.25,118v0Z"/><path class="cls-14" d="M182.23,118.06v0Z"/><path class="cls-14" d="M182.23,118.05h0Z"/><path class="cls-14" d="M176.23,109.31l-.28-.12.27.12Z"/><path class="cls-14" d="M177.35,109.92l-.14-.08.11.06Z"/><path class="cls-14" d="M176.79,109.59l-.17-.08.14.07Z"/><path class="cls-14" d="M177.94,110.32l0,0,0,0Z"/><path class="cls-14" d="M178.7,110.91l-.21-.18.18.16Z"/><path class="cls-14" d="M174,108.67h0Z"/><path class="cls-14" d="M175.88,109.17l-.21-.09h0Z"/><path class="cls-14" d="M182.3,117.6h0Z"/><path class="cls-14" d="M174.61,108.77h0Z"/><path class="cls-14" d="M175.27,109l-.18-.06.06,0Z"/><path class="cls-14" d="M179.94,112.11a.94.94,0,0,0-.1-.1l.06.06Z"/><path class="cls-14" d="M182.27,116.67v0s0-.06,0-.09v.07Z"/><path class="cls-14" d="M182.3,116.93v0Z"/><path class="cls-14" d="M182.31,117.14h0v0Z"/><path class="cls-14" d="M182.31,117.43v-.06h0Z"/><path class="cls-14" d="M182.18,116.18v0Z"/><path class="cls-14" d="M181.47,114.3l-.06-.12s0,0,0,.08Z"/><path class="cls-14" d="M182.14,116l0-.1v0Z"/><path class="cls-14" d="M180.6,112.92c-.06-.09-.13-.17-.19-.25l.18.24Z"/><path class="cls-14" d="M181.29,114l-.07-.11Z"/><path class="cls-14" d="M182.07,115.76l-.06-.21s0,0,0,.08A.5.5,0,0,1,182.07,115.76Z"/><path class="cls-14" d="M181.84,115.09c0-.06-.05-.11-.07-.17a.36.36,0,0,0,0,.09Z"/><path class="cls-14" d="M171.68,109.13l0,0Z"/><path class="cls-14" d="M173.42,108.64Z"/><path class="cls-14" d="M171.89,109h0Z"/><path class="cls-14" d="M173.29,108.65Z"/><path class="cls-14" d="M171.38,109.37l0,0Z"/><path class="cls-14" d="M171.56,109.22h0Z"/><path class="cls-14" d="M171.74,109.09h0Z"/><path class="cls-14" d="M171.46,109.29l0,0Z"/><path class="cls-14" d="M171.42,109.33h0Z"/><path class="cls-14" d="M171.79,109.06l0,0Z"/><path class="cls-14" d="M173.93,108.66h0Z"/><path class="cls-14" d="M174.2,108.7h0Z"/><path class="cls-14" d="M174.27,108.71h0Z"/><path class="cls-14" d="M173.61,108.64h0Z"/><path class="cls-14" d="M173.44,108.64h0Z"/><path class="cls-14" d="M173.8,108.65h0Z"/><path class="cls-14" d="M173.67,108.65h0Z"/><path class="cls-14" d="M172.3,108.83h0Z"/><path class="cls-14" d="M172.69,108.72h0Z"/><path class="cls-14" d="M173,108.68h0Z"/><path class="cls-14" d="M172.85,108.69h0Z"/><path class="cls-14" d="M172.72,108.71h0Z"/><path class="cls-14" d="M173,108.67h0Z"/><path class="cls-14" d="M173.15,108.66h0Z"/><path class="cls-14" d="M172,108.93l0,0Z"/><path class="cls-14" d="M173.18,108.65h0Z"/><path class="cls-14" d="M172.15,108.88l0,0Z"/><path class="cls-14" d="M172.27,108.84h0Z"/><path class="cls-14" d="M172.1,108.91h0Z"/><path class="cls-14" d="M172.56,108.75h0Z"/><path class="cls-14" d="M172.5,108.77h0Z"/><path class="cls-14" d="M174.48,108.74h0Z"/><path class="cls-14" d="M172.43,108.79h0Z"/><path class="cls-14" d="M181.5,114.35a2.26,2.26,0,0,1,.11.22A2.26,2.26,0,0,0,181.5,114.35Z"/><path class="cls-14" d="M182.18,116.19l0,.06Z"/><path class="cls-14" d="M182.15,116.05v0Z"/><path class="cls-14" d="M179.56,111.71l.1.1Z"/><path class="cls-14" d="M182.21,116.33v0Z"/><path class="cls-14" d="M182.23,116.41v0Z"/><path class="cls-14" d="M179.28,111.43l.09.09Z"/><path class="cls-14" d="M180,112.19s.09.1.13.16S180.05,112.24,180,112.19Z"/><path class="cls-14" d="M178.25,110.54l.21.17Z"/><path class="cls-14" d="M180.21,112.43l.15.18Z"/><path class="cls-14" d="M180.82,113.22l.06.09Z"/><path class="cls-14" d="M182.28,116.73v0Z"/><path class="cls-14" d="M181,113.53l.07.11Z"/><path class="cls-14" d="M181.9,115.25l0,.14Z"/><path class="cls-14" d="M181.63,114.61l.12.26Z"/><path class="cls-14" d="M179,111.15l0,0Z"/><path class="cls-14" d="M176.93,109.67l.14.08Z"/><path class="cls-14" d="M182.24,116.46v0Z"/><path class="cls-14" d="M178,110.32l.23.17Z"/><path class="cls-14" d="M175.39,109l.17.06Z"/><path class="cls-14" d="M176.31,109.35l.2.1Z"/><path class="cls-14" d="M174.77,108.8l.26.07Z"/><path class="cls-14" d="M177.55,110.05l.1.06Z"/><path class="cls-16" d="M171.38,109.37l0,0h0v0l0,0,.1-.07h0l.07-.06,0,0,0,0h0l0,0,.1-.06h0l.08,0,0,0h.08l0,0,.11,0h.05l.08,0h.17l.1,0h1.42l.12,0h.17l.11,0h.13l.16,0,.26.07.06,0,.18.06.12,0,.17.06.11,0,.21.09.07,0,.28.12.08,0,.2.1.11.06.17.08.14.08.14.08.14.09.14.08.2.13.1.06.26.18,0,0h0l.23.17.07.05.21.17,0,0,.21.18.28.24,0,0,.28.26.09.09.19.19.1.1.18.2a.94.94,0,0,1,.1.1l.07.08s.09.1.13.16l.07.08.15.18,0,.06c.06.08.13.16.19.25l.22.3.06.09.14.22.07.11a2.39,2.39,0,0,1,.13.21l.07.11.12.22.06.12,0,0a2.26,2.26,0,0,1,.11.22l0,0,.12.26,0,0c0,.06,0,.11.07.17l.06.16,0,.14.06.16.06.21a1,1,0,0,1,0,.14l0,.1v.1l0,.06v0h0l0,.06s0,0,0,.08v.19s0,0,0,.08,0,.06,0,.09v.1a.2.2,0,0,1,0,.07v.73h0v.21h0v.2h0v0l0,0s0,0,0,.06l0,0v0l0,.06,0,0v.06l0,0,0,0,0,.08v0l0,0,0,.05,0,0,0,0,0,.06,0,0,0,0,0,0h0l0,0,0,0,0,0,0,0,0,0,0,0,0,0,0,0a3.54,3.54,0,0,1-3.51.68,11.1,11.1,0,0,1-7.3-7,3.54,3.54,0,0,1,.52-3.6l.06-.06Z"/><path class="cls-17" d="M212.76,69.49h.06l.06,0,.12,0,.12,0,.17.06.11,0h0l.19.08.07,0,.27.11h0l.09,0,.2.09.1.06.14.07,0,0,.14.07.15.09.14.08.11.07,0,0,.19.12.1.07.26.18,0,0h0l.24.18.06,0,.22.16,0,0,.19.16,0,0,.28.24v0l.29.27.09.08.19.19a.47.47,0,0,0,.1.1l.18.2.06.06,0,0,.07.08.14.16.07.08.14.18.06.07.18.23h0l.22.3.06.09.15.22.07.12.13.2.06.12a1.59,1.59,0,0,1,.13.22.25.25,0,0,0,0,.07l0,0,0,0,.11.23,0,0a1.89,1.89,0,0,1,.11.25l0,.06,0,.08,0,.08a1.22,1.22,0,0,1,.07.17s0,.09.05.13a1.09,1.09,0,0,1,0,.17l0,.07,0,.13a1.8,1.8,0,0,1,0,.19v0a.94.94,0,0,1,0,.16v0h0a2.23,2.23,0,0,1,0,.23v0l0,.22v0h0c0,.07,0,.14,0,.21v0a1.48,1.48,0,0,1,0,.21h0v0a1.48,1.48,0,0,1,0,.21h0a1.34,1.34,0,0,0,0,.2v0h0a1.49,1.49,0,0,1,0,.21v0a1.18,1.18,0,0,1,0,.2v0h0s0,0,0,.07v0l0,.1h0l0,.11,0,0s0,0,0,.08h0v0l0,.09v0l-.06.11h0l-.06.11,0,0a.41.41,0,0,1-.05.09v0h0l-.12.16h0l-.13.15-37.73,39.39h0l0,0,0,0,0,0,0,0h0l0,0,0,0,0,0,0,0h0l0,0,0,0,0,0v0l0,0,0,0,0,0h0l0-.05,0,0v0l0-.05,0,0h0v0h0v-.06h0v0h0l0-.06v0h0l0,0v0h0l0,0v0h0v-.2h0v-.21h0v-.22h0v-.22h0v0s0,0,0-.07v-.19a.2.2,0,0,0,0-.07v-.19s0,0,0-.08v-.19s0-.06,0-.08l0-.06h0v0l0-.06V116l0,0v0a1,1,0,0,0,0-.14.5.5,0,0,0,0-.13s0,0,0-.08l-.06-.16,0-.14-.06-.16,0-.08a.36.36,0,0,1,0-.09l0,0-.12-.26,0,0a2.26,2.26,0,0,0-.11-.22l0,0,0,0s0-.05,0-.08l-.12-.22-.07-.11a2.39,2.39,0,0,0-.13-.21l-.07-.11-.14-.22-.06-.09-.22-.3h0l-.18-.24,0-.06-.15-.18-.07-.08c0-.06-.09-.11-.13-.16l-.07-.08,0,0-.06-.06-.18-.2-.1-.1-.19-.19-.09-.09-.28-.26,0,0-.28-.24,0,0-.18-.16,0,0-.21-.17-.07-.05-.23-.17h0l0,0-.26-.18-.1-.06-.2-.13,0,0-.11-.06-.14-.09-.14-.08-.14-.08h0l-.14-.07-.11-.06-.2-.1-.08,0h0l-.27-.12-.07,0-.19-.08h0l-.11,0-.17-.06-.12,0-.12,0-.06,0-.06,0-.26-.07-.16,0h-.13l-.11,0h-.17l-.12,0h-1.42l-.1,0h-.17l-.08,0h-.05l-.11,0,0,0H172l0,0-.08,0h0l-.1.06,0,0h0l0,0,0,0-.07.06h0l-.1.07,0,0v0h0l0,0,0,0-.06.06,0,0L209,70.09l.12-.12,0,0a.69.69,0,0,1,.13-.11h0l.14-.09,0,0,.16-.09h0l.15-.07h0l.17-.07h0l.16,0h0l.19,0h0l.18,0h0l.21,0h.92l.16,0,.13,0,.17,0h0l.18,0Z"/><g class="cls-8"><path class="cls-13" d="M185.82,132.18c-3.36-11.41-15.61-22.94-27.12-25.7s-17.95,4.32-14.59,15.73,15.42,22.9,26.94,25.66S189.18,143.6,185.82,132.18Z"/><path class="cls-18" d="M180.88,110.74a40.59,40.59,0,0,1,9.33,13.85,20.79,20.79,0,0,1,1.67,7.86,12.19,12.19,0,0,1-2.58,7.1c-1.52,2-3.87,3.62-5.24,5.72,2.38-2.26,2.67-6.94,2.26-10a26.35,26.35,0,0,0-3.93-10.06c-4.82-7.91-12.09-14.47-20.79-17.68a21.32,21.32,0,0,0-8.22-1.51c-2.55.11-5.71.94-7.47,2.91,1.8-1.75,3.49-3.63,5.23-5.45a9.32,9.32,0,0,1,1.39-1.18,6.65,6.65,0,0,1,.63-.39,7.71,7.71,0,0,1,.86-.44l.51-.22c.36-.14.74-.27,1.13-.38a17,17,0,0,1,8.39.14A36.74,36.74,0,0,1,180.88,110.74Z"/></g><g class="cls-8"><path class="cls-19" d="M175.1,138c2.79,9.49-2.71,15.33-12.29,13s-19.61-11.84-22.4-21.34,2.7-15.33,12.28-13S172.3,128.46,175.1,138Z"/><path class="cls-20" d="M158.08,111a15.05,15.05,0,0,0-3.41-.46,11.55,11.55,0,0,0-5.89,1.46c-1.7,1-2.81,2.52-4.14,3.91-.86.9-2.21,2.4-3.1,3.27a10.94,10.94,0,0,1,6.2-3,16.56,16.56,0,0,1,6.35.87c7.92,2.51,14.89,8.7,18.9,15.92,2.56,4.62,4.59,11.4.68,15.89,1.18-1.31,2.44-2.56,3.67-3.84a20.14,20.14,0,0,0,2.25-2.46,9.73,9.73,0,0,0,1.61-5.29,17.11,17.11,0,0,0-1.38-6.71c-2.91-7.32-8.76-13.27-15.65-17.08A25.18,25.18,0,0,0,158.08,111Zm21.77,19.57Z"/></g><path class="cls-14" d="M154.8,129.24l.1,0h0l-.1,0Z"/><path class="cls-14" d="M154.6,129.19l.08,0-.08,0Z"/><path class="cls-14" d="M154,129.14h0Z"/><path class="cls-14" d="M154.2,129.14h0Z"/><path class="cls-14" d="M156.71,130.25l0,0,0,0Z"/><path class="cls-14" d="M156.87,130.38l0,0,0,0Z"/><path class="cls-14" d="M153.82,129.15h0Z"/><path class="cls-14" d="M155.22,129.37l.09,0h0l-.09,0Z"/><path class="cls-14" d="M155,129.3l.05,0-.05,0Z"/><path class="cls-14" d="M156.05,129.78l0,0,0,0Z"/><path class="cls-14" d="M151.91,129.59h0Z"/><path class="cls-14" d="M152.36,129.61h0Z"/><path class="cls-14" d="M150.34,129h0Z"/><path class="cls-14" d="M151.4,129.49Z"/><path class="cls-14" d="M153,129.48h0l-.12.05Z"/><path class="cls-14" d="M153.15,129.38l-.13.07Z"/><path class="cls-14" d="M153.47,129.23l.07,0-.07,0Z"/><path class="cls-14" d="M153.31,129.3l0,0,0,0Z"/><path class="cls-14" d="M153.72,129.17Z"/><path class="cls-14" d="M162.27,137.35l.06.06-.06-.06Z"/><path class="cls-14" d="M163.51,138.86h0l0-.05Z"/><path class="cls-14" d="M163.15,138.3h0l0,0Z"/><path class="cls-14" d="M162.68,137.75l0,0,0,0Z"/><path class="cls-14" d="M163.58,139l0,0,0,0Z"/><path class="cls-14" d="M164,140.27v.1a.59.59,0,0,0,0-.13Z"/><polygon class="cls-14" points="166.64 138.4 166.64 138.4 166.64 138.4 166.64 138.4"/><path class="cls-14" d="M157.05,130.54l0,.05,0-.05Z"/><path class="cls-14" d="M164,140.48v.08h0v-.08Z"/><polygon class="cls-14" points="158.68 133.22 158.69 133.22 158.68 133.22 158.68 133.22"/><path class="cls-14" d="M158,131.65l0,0,0,0Z"/><path class="cls-14" d="M158.5,132.59v0a.64.64,0,0,1,0-.07Z"/><polygon class="cls-14" points="162.24 137.33 162.24 137.33 162.23 137.32 162.24 137.33"/><path class="cls-14" d="M158,131.57h0l-.05-.06Z"/><path class="cls-14" d="M158.76,133.54h0a.64.64,0,0,0,0-.07A.64.64,0,0,1,158.76,133.54Z"/><polygon class="cls-14" points="161.73 136.93 161.73 136.93 161.72 136.92 161.73 136.93"/><path class="cls-14" d="M159.16,134.45v0l-.06-.11Z"/><path class="cls-14" d="M164,140a.29.29,0,0,0,0,.09v.05l0-.15Z"/><path class="cls-14" d="M162.15,146.56v0l0-.06h0Z"/><path class="cls-14" d="M162.25,146.27a.06.06,0,0,1,0,0,.29.29,0,0,0,0-.09v.05Z"/><path class="cls-14" d="M162.21,146.42v0l0-.07h0Z"/><path class="cls-14" d="M162.07,146.71l0,0,0-.06h0Z"/><path class="cls-14" d="M151.65,129.55h0Z"/><path class="cls-14" d="M162,146.81l0,0,.05-.06h0Z"/><path class="cls-14" d="M162,142.77l0,.06Z"/><path class="cls-14" d="M162.26,145.37s0,0,0,.07l0-.15v.08Z"/><path class="cls-14" d="M162.23,145.22h0c0-.06,0-.12,0-.19s0,.09,0,.14Z"/><path class="cls-14" d="M146,127.8h0l0,0-.05,0Z"/><path class="cls-14" d="M162.28,146.12v0s0-.06,0-.09v.06Z"/><path class="cls-14" d="M162.29,145.59v0h0c0-.06,0-.11,0-.16v0S162.29,145.56,162.29,145.59Z"/><path class="cls-14" d="M162.3,146v0Z"/><path class="cls-14" d="M162.3,145.77v0h0v0Z"/><path class="cls-14" d="M146.25,127.62h0l-.05,0Z"/><path class="cls-14" d="M147.72,127.54h0Z"/><path class="cls-14" d="M147.93,127.6H148l-.08,0Z"/><path class="cls-14" d="M147.22,127.46h0Z"/><path class="cls-14" d="M148.19,127.69h0l0,0-.09,0Z"/><path class="cls-14" d="M147.44,127.49h0Z"/><path class="cls-14" d="M149,128.09h0l0,0Z"/><path class="cls-14" d="M148.68,127.92h0l0,0Z"/><path class="cls-14" d="M148.43,127.79h0l-.09,0Z"/><path class="cls-14" d="M146.81,127.47Z"/><path class="cls-14" d="M146.09,127.7h0l-.05,0Z"/><path class="cls-14" d="M147,127.46h0Z"/><path class="cls-14" d="M149.22,128.24l0,0,.08.06-.13-.1Z"/><path class="cls-14" d="M149.45,128.4l.18.14-.21-.16Z"/><path class="cls-14" d="M146.61,127.5h0Z"/><path class="cls-21" d="M145.54,132.33h0l-.11.1,0,0-.11.08h0l-.12.06h0l-.14.06h0l-.15,0-.17.05h0l-.14.06h0l-.13.07h0l-.11.08,0,0-.09.08,1.84-1.92A1.58,1.58,0,0,1,145.54,132.33Z"/><path class="cls-21" d="M164,141.18v0a.14.14,0,0,0,0-.06Z"/><path class="cls-21" d="M164,141v0h0s0-.07,0-.1A.09.09,0,0,1,164,141Z"/><path class="cls-21" d="M163.83,141.47v0l0-.05Z"/><path class="cls-21" d="M164,140.9v0s0-.07,0-.11A.28.28,0,0,0,164,140.9Z"/><path class="cls-21" d="M163.76,141.59l0,0,.05-.06Z"/><path class="cls-21" d="M163.91,141.33l0,0,0-.05Z"/><path class="cls-21" d="M164.05,140.61h0s0,.1,0,.15h0a.75.75,0,0,0,0-.15Z"/><polygon class="cls-22" points="164.04 140.6 164.04 140.61 164.04 140.61 164.04 140.6"/><path class="cls-22" d="M162.09,142.63l0,0,.09-.11h0a1.56,1.56,0,0,1,.2-.16l-.35.35Z"/><path class="cls-23" d="M162,146.81l0,0h0l0-.05,0,0,0,0h0l0-.08v-.05h0l0-.09v-.06h0s0,0,0-.06a.06.06,0,0,0,0,0v-.05a.64.64,0,0,0,0-.07v-.09s0,0,0-.07v-.17h0v-.16h0v0s0-.05,0-.08v-.07s0-.05,0-.07v-.14h0v0c0-.05,0-.09,0-.14l0-.1a.3.3,0,0,0,0-.1.88.88,0,0,0-.05-.15c0-.11-.08-.22-.11-.32h0l-.06-.21v0l0-.16v-.05s0-.1,0-.16v0c0-.05,0-.1,0-.15s0,0,0-.07v-.1s0-.05,0-.07,0-.07,0-.1a.64.64,0,0,0,0-.07.29.29,0,0,1,0-.09s0,0,0-.06l0-.09a.36.36,0,0,1,0-.09l0-.06,0-.06,0,0,.35-.35a1.24,1.24,0,0,1,.52-.23,1.51,1.51,0,0,0,.75-.41h0l.79-.82,0-.06h0a.15.15,0,0,0,0,.07V141a.17.17,0,0,0,0,.07v.07s0,.05,0,.08a.13.13,0,0,0,0,.06s0,0,0,.08a.64.64,0,0,1,0,.07c0,.05,0,.11,0,.17s.07.22.12.33l.12.34,0,.14v0s0,0,0,.05v0l0,.06s0,.05,0,.08v0a.19.19,0,0,0,0,.08v.06s0,0,0,.08V143h0v.19a.34.34,0,0,0,0,.1v0c0,.05,0,.09,0,.14h0l0,.12h0v0s0,.09-.05.13h0a.83.83,0,0,1-.07.13h0l0,0-.05.07,0,0-.07.09h0l-2.68,2.8h0l0,0Z"/><path class="cls-7" d="M146,127.77l.08-.06.05,0,.1-.05.05,0h0l.15,0h0l.15,0h.06l.12,0h.47l.18,0h0l.2,0h.07l.16,0,.08,0,.15.06.09,0,.15.06.09,0,.18.09,0,0h0l.23.13h0l0,0,.2.13.13.1.06,0,0,0,.21.16h0l.21.16.07.05.09.06.06,0h0l.1.07.14.08,0,0h0l0,0,.14.07.1.05.14.07.09,0,.17.07.06,0,.23.08h.08l.14,0h.12l.1,0,.09,0h.73l.08,0,.09,0h0l.07,0h0l.12-.05h0l.13-.07h0l.15-.08,0,0h0l.11-.05.07,0h0l.1,0h.08l.1,0h.67l.11,0,.08,0h0l.11,0,.1,0,.11,0,.05,0h.05l.11,0,.09,0,.11.05.06,0,0,0h0l.11.05.1.06.11,0,0,0,.07,0h0l.11.06,0,0,.07,0,.11.07h0l.08.06h0l.14.1.08.06.14.11,0,0a.1.1,0,0,1,.05,0l.09.07,0,0,.05,0,.08.08,0,.05.05,0,.06.06.11.11.06.06.07.08.24.27.14.18,0,.05,0,.07.05.06,0,.08,0,0,.05.07a.59.59,0,0,1,0,.08.41.41,0,0,1,.07.11l.06.11.06.1a.37.37,0,0,0,.05.11,1.17,1.17,0,0,0,0,.11c0,.06.05.11.07.16a.64.64,0,0,0,0,.07v0l0,.07a1,1,0,0,1,0,.16h0a1.8,1.8,0,0,1,.05.19l0,.15h0l0,.13h0l0,.11a.64.64,0,0,1,0,.07h0a1.46,1.46,0,0,0,.07.19v.05c0,.06,0,.12.08.19v0l0,.09v0l0,0,0,.1,0,0,0,.06,0,0,.06.11,0,.06v0h0l0,0,.06.12,0,0,0,0,0,0,0,.07,0,0,0,0v0l0,0a.64.64,0,0,0,.1.13h0l0,0,.06.08,0,0,0,.05h0v0l0,0,.13.15,0,0,.08.08.05.06.17.17h0l.17.16.07.06.09.08,0,0,.12.09.1.08.12.08.08.06h0l.26.17h0l.28.18.1.07h0l.12.08.11.09.11.08h0l.16.14h0l0,0,.06.06.12.11.05,0,.13.13.05.05,0,0,.09.11,0,0,.15.19,0,0,.07.09,0,0,0,.07.09.12.05.08.08.13a.25.25,0,0,1,0,.07l0,0,0,.05.07.13,0,0,0,0,.06.13.08.18h0l.06.17,0,.05h0l.06.18v0l.05.17v0l0,.15h0v.05a.59.59,0,0,1,0,.13v0h0v.17h0a.75.75,0,0,1,0,.15v.05s0,.07,0,.11V141s0,.07,0,.1,0,0,0,.06a.14.14,0,0,1,0,.06l0,.08v0l0,.05,0,.06,0,0,0,.05,0,.06h0l-.05.06,0,.05a1.51,1.51,0,0,1-.75.41,1.24,1.24,0,0,0-.52.23,1.56,1.56,0,0,0-.2.16h0l-.09.11,0,0,0,0,0,0,0,.06,0,.06a.36.36,0,0,0,0,.09l0,.09s0,0,0,.06a.29.29,0,0,0,0,.09.64.64,0,0,1,0,.07s0,.07,0,.1,0,0,0,.07v.1s0,.05,0,.07,0,.1,0,.15v0c0,.06,0,.11,0,.16V144l0,.16v0l.06.21h0c0,.1.07.21.11.32a.88.88,0,0,1,.05.15.3.3,0,0,1,0,.1l0,.1c0,.07,0,.13,0,.19v.06l0,.15v.05s0,.1,0,.16V146s0,0,0,.07,0,.06,0,.09a.64.64,0,0,1,0,.07.29.29,0,0,1,0,.09s0,0,0,.06l0,.07,0,.09,0,.06,0,.08,0,.06,0,.05-.05.06,0,0c-.68.74-2.22.64-3.81-.62-1.27-1-2.7-1.35-3.52-.84-1.58,1-4.76-1.14-5.45-3.51,0-.11-.06-.22-.08-.33s0-.21-.08-.32a5.92,5.92,0,0,0-2.58-3.13,5.82,5.82,0,0,1-2.58-3.14,1.83,1.83,0,0,1,.34-2l0,0,.11-.08h0l.13-.07h0l.14-.06h0l.17-.05.15,0h0l.14-.06h0l.12-.06h0l.11-.08,0,0,.11-.1h0a1.58,1.58,0,0,0,.38-1.14,2.65,2.65,0,0,0-.12-.75c0-.11-.07-.21-.11-.32a2.91,2.91,0,0,1-.12-.35,1.82,1.82,0,0,1,.29-1.89l.08-.07Z"/><path class="cls-24" d="M157.59,126.45a3.9,3.9,0,0,1,1.2.53,5.83,5.83,0,0,1,2.26,2.6,18.5,18.5,0,0,0,1,2.43c1.11,1.75,3.3,2.36,4.26,4.27l.07.12v0l.06.15v0a.87.87,0,0,1,.07.17v0a.64.64,0,0,1,.06.18,1.21,1.21,0,0,1,.05.18v.06s0,.06,0,.08v.07s0,.05,0,.08v.06a.22.22,0,0,1,0,.08s0,0,0,.06v.13h0V138s0,.07,0,.11v0s0,.06,0,.09v.05l0,.1v0a.25.25,0,0,1,0,.07l0,.07,0,.06a.3.3,0,0,0,0,.08h0l0,.07,0,0-.09.1-1.84,1.92,0,.06-.79.82h0l0-.05,0,0v0h0l0-.06v-.05l0,0,0-.06,0,0v0l0-.08v-.06s0,0,0-.06h0v0a.09.09,0,0,0,0,0v-.09a.28.28,0,0,1,0-.09v-.05h0a.85.85,0,0,0,0-.16v0h0v-.13h0v-.23h0v-.05a.29.29,0,0,1,0-.09h0v0l-.05-.17v0l-.06-.18,0-.05-.06-.17h0l-.08-.18-.06-.13,0,0,0,0-.07-.13,0-.05,0,0a.25.25,0,0,0,0-.07l-.08-.13-.05-.08-.09-.12,0-.07,0,0-.07-.09,0,0-.15-.19,0,0-.09-.11,0,0-.05-.05-.13-.13-.05,0-.12-.11-.06-.06,0,0h0l-.16-.14-.11-.08-.11-.09-.12-.08h0l-.1-.07-.28-.18-.26-.17h0l-.08-.06-.12-.08-.1-.08-.12-.09,0,0-.09-.08-.07-.06-.17-.16h0l-.17-.17-.05-.06-.08-.08,0,0-.13-.15,0,0v0h0l0-.05,0,0-.06-.08,0,0h0a.64.64,0,0,1-.1-.13l0,0v0l0,0,0,0,0-.07,0,0,0,0,0,0-.06-.12,0,0h0v0l0-.06v0l0-.09,0,0,0-.06,0,0,0-.1,0,0v0l0-.09v0c0-.07-.06-.13-.08-.19v-.05a1.46,1.46,0,0,1-.07-.19.64.64,0,0,0,0-.07l0-.11h0l0-.13,0-.15a1.8,1.8,0,0,0-.05-.19,1,1,0,0,0,0-.16l0-.07v-.1c0-.05-.05-.1-.07-.16a1.17,1.17,0,0,1,0-.11.37.37,0,0,1-.05-.11l-.06-.1-.06-.11a.41.41,0,0,0-.07-.11.59.59,0,0,0,0-.08l-.05-.07,0,0,0-.08-.05-.06,0-.07,0-.05-.14-.18-.24-.27-.07-.08-.06-.06-.11-.11-.06-.06-.05,0,0-.05-.08-.08-.05,0,0,0-.09-.07a.1.1,0,0,0-.05,0l0,0-.14-.11-.08-.06-.14-.1-.08-.06h0l-.11-.07-.07,0,0,0-.11-.06-.07,0,0,0-.11,0-.1-.06-.11-.05,0,0-.06,0-.11-.05-.09,0-.11,0h-.05l-.05,0-.11,0-.1,0-.11,0h0l-.08,0-.11,0h-.67l-.1,0h-.08l-.1,0-.07,0-.11.05h0l0,0-.16.08-.13.07H153l-.09,0h0l-.07,0h0l-.09,0-.08,0h-.73l-.09,0-.1,0h-.12l-.14,0h-.08l-.23-.08-.06,0-.17-.07-.09,0-.14-.07-.1-.05-.14-.07,0,0h0l0,0-.14-.08-.1-.07-.06,0-.09-.06-.07-.05-.21-.16-.18-.14,0,0,0,0-.06,0-.08-.06,0,0h0l-.2-.13H149l-.23-.13h0l0,0-.18-.09h0l-.05,0-.15-.06,0,0h-.05l-.15-.06h-.08l-.16,0h-.07l-.2,0h0l-.18,0h-.47l-.12,0h-.06l-.15,0h0l-.15,0h-.05l-.1.05h-.05l-.08.06,0,0h0l-.08.07,0,0c1.19-1.24,2.72-3.73,4.68-3.16a8,8,0,0,1,2.12,1.21,3.78,3.78,0,0,0,2.26.82c.63,0,1.21-.34,1.84-.4A2.76,2.76,0,0,1,157.59,126.45Z"/><path class="cls-25" d="M151.81,133.13h.05l.26.08.06,0,.31.11h0l.09,0,.15.06.12.05.15.07,0,0,.08,0,.12.07.13.06.13.07.05,0,.07,0,.12.07.13.08.11.07.05,0,.08,0,.11.08.13.09.11.07,0,0,.09.06.12.09.12.09.11.09,0,0,.08.06.13.11.1.09a.69.69,0,0,0,.13.11l0,0,.06,0,.15.14.09.09.15.15.06.06,0,0,.26.28.05.06.22.25,0,.05,0,0,0,.05.13.18,0,0,.15.21,0,0a1.63,1.63,0,0,1,.11.17l0,.06.14.21,0,0,.11.19,0,.06a1.28,1.28,0,0,1,.11.2v0l.12.22,0,.06.09.18,0,.06.09.22,0,.05a1.34,1.34,0,0,0,.07.18l0,.06c0,.08.05.16.07.23h0l.06.22,0,.06a1.16,1.16,0,0,0,0,.18v0a1.62,1.62,0,0,1,0,.19v0a1.36,1.36,0,0,1,0,.2.07.07,0,0,1,0,0c0,.08,0,.16,0,.24h0v.21a.34.34,0,0,0,0,.1.41.41,0,0,1,0,.11h0s0,.08,0,.12,0,0,0,.07l0,.16v0h0a1.16,1.16,0,0,1,0,.18l0,0a.36.36,0,0,1,0,.11h0l0,.07,0,.1,0,.07,0,.08h0a.35.35,0,0,0-.05.08l0,.07-.06.08,0,.06h0l-.12.14L155,145.14h0l.06-.07,0-.06h0l0-.06a.18.18,0,0,1,.05-.07h0l0,0v0l.05-.07v0h0a.3.3,0,0,1,0-.08l0-.06h0l0-.09,0-.07h0l0-.11a.14.14,0,0,0,0-.06h0v0a.74.74,0,0,0,0-.14h0s0,0,0-.07a.43.43,0,0,0,0-.11h0a.22.22,0,0,0,0-.08s0-.06,0-.1h0v-.1a.34.34,0,0,0,0-.1h0v-.2h0s0-.08,0-.12a.31.31,0,0,0,0-.1h0v0s0-.07,0-.11a.31.31,0,0,1,0-.1v0h0l0-.19v0c0-.06,0-.12,0-.18v-.06a1.6,1.6,0,0,0,0-.21h0a2,2,0,0,0-.07-.23l0-.06c0-.07-.05-.13-.07-.19l0,0a2.18,2.18,0,0,0-.09-.23l0-.05L155,141l0-.06-.11-.22,0,0c0-.07-.07-.13-.1-.2l0-.06-.11-.19,0,0-.14-.22,0,0-.12-.18,0-.05-.15-.21,0,0-.13-.17,0-.06,0-.05s0,0,0,0a2.62,2.62,0,0,0-.22-.25l0-.06-.27-.29,0,0-.06-.06-.14-.15-.1-.09-.15-.14-.05-.06,0,0a.69.69,0,0,0-.13-.11l-.1-.09-.13-.11-.08-.07,0,0-.11-.09-.12-.1-.11-.08-.09-.07,0,0-.11-.08-.12-.09-.11-.07-.09,0,0,0-.12-.07a.57.57,0,0,0-.13-.08l-.11-.07-.08,0,0,0-.13-.07-.12-.07-.13-.06-.07,0,0,0-.16-.07-.11-.05-.16-.07-.08,0h0l-.31-.11-.06,0-.26-.07,0,0-.14,0-.25-.05-.08,0-.17,0h-1.11l-.09,0h-.11l-.09,0-.1,0-.09,0-.09,0-.08,0-.09,0-.08,0-.09,0-.07.05-.08,0-.07.05-.07,0-.07.06-.07.05-.06.06-.06.06,2.69-2.81a3.13,3.13,0,0,1,3.07-.59Z"/><path class="cls-3" d="M146.11,136.32l.07-.06.07,0,.07-.05.08,0,.07-.05.09,0,.08,0,.09,0,.08,0,.09,0,.09,0,.1,0,.09,0h.11l.09,0h1.11l.17,0,.08,0,.25.05.18,0,.26.07.06,0,.31.11.11,0,.16.07.11.05.16.07.12.06.13.06.12.07.13.07.13.07.11.07a.57.57,0,0,1,.13.08l.12.07.13.08.11.07.12.09.11.08.13.09.11.08.12.1.11.09.11.09.13.11.1.09a.69.69,0,0,1,.13.11l.09.09.15.14.1.09.14.15.08.08.27.29,0,.06a2.62,2.62,0,0,1,.22.25l.07.09,0,.06.13.17,0,0,.15.21,0,.05.12.18,0,0,.14.22,0,0,.11.19,0,.06c0,.07.07.13.1.2l0,0,.11.22,0,.06.08.18,0,.05a2.18,2.18,0,0,1,.09.23l0,0c0,.06.05.12.07.19l0,.06a2,2,0,0,1,.07.23.9.9,0,0,1,.06.22v0c0,.07,0,.14,0,.21v0l0,.22v0a.31.31,0,0,0,0,.1s0,.07,0,.11v0h0a.31.31,0,0,1,0,.1s0,.08,0,.12v.22a.41.41,0,0,1,0,.11v.1s0,.08,0,.12a.22.22,0,0,1,0,.08.5.5,0,0,1,0,.12s0,.05,0,.07a.83.83,0,0,1,0,.15v0a1.09,1.09,0,0,1,0,.17h0l-.06.16h0s0,.1-.07.14v0l-.05.07v0l0,0h0a.18.18,0,0,0-.05.07l0,.06-.06.07-.06.07a3.1,3.1,0,0,1-3.08.59,9.72,9.72,0,0,1-6.4-6.09,3.09,3.09,0,0,1,.5-3.2l.06-.06Z"/><path class="cls-26" d="M148.66,136.44h.05l.26.08H149l.31.11h0l.08,0,.16.06.12.05.15.07,0,0,.07,0,.13.06.13.07.12.07.06,0,.07,0,.12.07.13.08.11.07,0,0,.08,0,.11.07.13.09.11.08,0,0,.09.07.11.09.12.09.12.09,0,0,.08.07a.69.69,0,0,1,.13.11l.11.09.12.11,0,0,.06.06.15.14.09.09.15.15.05.06,0,0,.26.29.05.06.21.25,0,.05,0,0,0,.06.14.18,0,0,.15.21,0,.06.12.17,0,0,.13.22,0,0,.11.19,0,.06c0,.07.07.14.11.2v0a2.26,2.26,0,0,1,.11.22l0,.06a1.42,1.42,0,0,1,.08.18l0,.05.09.23v0a1.46,1.46,0,0,1,.07.19l0,.06.08.23h0l.06.22v.05a1.16,1.16,0,0,1,0,.18v0l0,.19v0c0,.06,0,.13,0,.19a.43.43,0,0,0,0,.05c0,.09,0,.17,0,.24h0V144a.34.34,0,0,0,0,.1h0s0,.08,0,.12a.2.2,0,0,0,0,.07l0,.17v0h0a1.21,1.21,0,0,1-.05.18s0,0,0,.06a.49.49,0,0,0,0,.11h0l0,.07a.36.36,0,0,0,0,.09.43.43,0,0,1,0,.07l0,.08h0l-.06.09,0,.07-.06.08,0,.06h0a.75.75,0,0,1-.12.14l-2.68,2.8h0l.06-.07.06-.07h0l.05-.07a.18.18,0,0,0,.05-.07h0l0,0v0l.05-.08h0l0-.07a.16.16,0,0,0,0-.07h0a.36.36,0,0,0,0-.09l0-.07h0a.36.36,0,0,0,0-.11l0-.05h0v0l0-.13h0a.17.17,0,0,1,0-.07s0-.08,0-.11h0a.25.25,0,0,0,0-.08s0-.07,0-.1h0v0a.31.31,0,0,0,0-.1.28.28,0,0,1,0-.09v-.21h0v-.13a.31.31,0,0,1,0-.1h0v0s0-.07,0-.1a.34.34,0,0,0,0-.1v0a1.16,1.16,0,0,0,0-.18v-.06l0-.17v-.06l-.06-.21v0l-.07-.22,0-.07a1.34,1.34,0,0,1-.07-.18l0-.05-.09-.22,0-.06-.09-.18,0,0-.12-.23v0a1.28,1.28,0,0,0-.11-.2l0-.06-.11-.19,0,0-.14-.21,0-.06a1.63,1.63,0,0,0-.11-.17l0-.05-.15-.21,0,0-.13-.18-.05-.05,0-.05,0,0-.22-.26-.05-.06-.26-.28,0,0-.06-.06-.15-.14-.09-.09-.15-.15-.06-.05,0,0-.13-.12-.1-.09-.13-.11-.08-.06,0,0-.11-.09-.12-.09-.12-.08-.09-.07,0,0-.11-.07-.13-.09a.41.41,0,0,0-.11-.07l-.08-.06-.05,0-.11-.07-.13-.08-.12-.06-.07-.05-.05,0-.13-.07-.13-.06-.12-.07-.08,0,0,0-.15-.07-.12-.06-.16-.06-.08,0h0l-.31-.11-.06,0-.26-.08H146l-.13,0-.25-.06h-.09l-.16,0h-.1l-.14,0h-.76l-.11,0h-.1l-.1,0-.09,0-.1,0-.09,0-.09,0-.09,0-.09,0-.08,0-.08,0-.07,0-.08.05a.18.18,0,0,0-.07.05l-.08,0-.06.05-.07.06-.06.06-.06,0,2.69-2.8a3.08,3.08,0,0,1,3.06-.59Z"/><path class="cls-3" d="M143,139.62l.06-.05.08,0a.18.18,0,0,1,.07-.05l.08-.05.07,0,.08,0,.08,0,.09,0,.09,0,.09,0,.09,0,.1,0,.09,0,.1,0h.1l.11,0h.76l.14,0h.1l.16,0h.09l.25.06.18,0,.26.08.06,0,.31.11.1,0,.16.06.12.06.15.07.13.05.12.07.13.06.13.07.12.08.12.06.13.08.11.07.13.09a.41.41,0,0,1,.11.07l.13.09.11.07.12.1.12.08.12.09.11.09.11.09.13.11.1.09.13.12.09.08.15.15.09.09.15.14.08.09.26.28.05.06.22.26.07.09.05.05.13.18,0,0,.15.21,0,.05a1.63,1.63,0,0,1,.11.17l0,.06.14.21,0,0,.11.19,0,.06a1.28,1.28,0,0,1,.11.2v0l.12.23,0,0,.09.18,0,.06.09.22,0,.05a1.34,1.34,0,0,0,.07.18l0,.07.07.22.06.23v0c0,.08,0,.15,0,.21v0a1.7,1.7,0,0,1,0,.22v0a.34.34,0,0,1,0,.1s0,.07,0,.1v0h0a.31.31,0,0,0,0,.1v.13a.41.41,0,0,1,0,.11v.1s0,.08,0,.11a.31.31,0,0,1,0,.1.53.53,0,0,1,0,.13.25.25,0,0,1,0,.08.5.5,0,0,1,0,.12.17.17,0,0,0,0,.07c0,.05,0,.1,0,.14v0l-.06.18h0a.77.77,0,0,1-.07.16h0l-.08.15h0l-.05.08v0l0,0h0a.18.18,0,0,1-.05.07l-.05.07-.06.07-.06.07a3.08,3.08,0,0,1-3.07.59,9.72,9.72,0,0,1-6.4-6.1,3.06,3.06,0,0,1,.5-3.19l.06-.06Z"/><path class="cls-27" d="M145.55,139.72h0l.26.08h0l.31.11h0l.08,0,.16.07.12.05.15.07.05,0,.07,0,.13.06.13.07.12.07.06,0,.07,0,.12.07.13.08.11.07.05,0,.08,0,.11.07.13.09.11.08,0,0,.09.07.11.09.12.09.12.09,0,0,.08.07a.69.69,0,0,1,.13.11l.11.09.12.11,0,0,.06.06.15.14.09.09.15.15,0,.06,0,0,.26.29,0,.06.21.25,0,0,0,.05,0,.06c0,.06.09.12.14.17l0,0,.15.21,0,.06.12.17,0,0,.13.22,0,0,.11.19,0,.06c0,.07.07.14.11.2v0a2.26,2.26,0,0,1,.11.22l0,.06a1.42,1.42,0,0,1,.08.18l0,.05.09.23v0a1.46,1.46,0,0,1,.07.19l0,.06.08.23h0l.06.22v.05a1.16,1.16,0,0,1,0,.18v0l0,.19v0c0,.06,0,.13,0,.19a.07.07,0,0,0,0,.05c0,.09,0,.17,0,.24h0v.32a.34.34,0,0,0,0,.1h0s0,.08,0,.12a.17.17,0,0,0,0,.07l0,.17v0h0a1.21,1.21,0,0,1,0,.18s0,0,0,.06a.49.49,0,0,0,0,.11h0l0,.07a.36.36,0,0,0,0,.09l0,.07,0,.08h0l-.06.09,0,.07-.06.08,0,.06h0a.75.75,0,0,1-.12.14l-2.68,2.8h0l.06-.07.06-.07h0l.05-.07a.18.18,0,0,0,0-.07h0l0,0v0l0-.08h0l0-.07a.43.43,0,0,0,0-.07h0a.36.36,0,0,0,0-.09l0-.07h0a.36.36,0,0,0,0-.11l0-.05h0v0l0-.13h0a.17.17,0,0,1,0-.07s0-.08,0-.11h0a.25.25,0,0,0,0-.08s0-.07,0-.1h0v0a.31.31,0,0,0,0-.1.28.28,0,0,1,0-.09v-.12a.27.27,0,0,1,0-.09h0v-.13a.31.31,0,0,1,0-.1h0v0s0-.07,0-.1a.34.34,0,0,0,0-.1v0a1.62,1.62,0,0,0,0-.19h0v0a1.36,1.36,0,0,0,0-.17v-.06l-.06-.21v0l-.07-.22,0-.07a1.34,1.34,0,0,1-.07-.18l0-.05-.09-.22,0-.06-.09-.18,0-.06-.12-.22v0a1.28,1.28,0,0,0-.11-.2l0-.06-.11-.19,0,0-.14-.21,0-.06a1.63,1.63,0,0,0-.11-.17l0-.05-.15-.21,0,0-.13-.18-.05,0,0-.05,0,0-.22-.26,0-.06-.26-.28,0,0-.06-.06-.15-.15-.09-.08-.15-.15-.06-.05,0,0-.13-.12-.1-.09-.13-.11-.08-.06,0,0-.11-.09-.12-.09-.12-.08-.09-.07,0,0-.11-.07-.13-.09a.41.41,0,0,0-.11-.07l-.08-.06-.05,0-.11-.07-.13-.08-.12-.06-.07-.05,0,0-.13-.07-.13-.06-.13-.07-.07,0-.05,0-.15-.07-.12-.06-.16-.06-.08,0h0l-.31-.11-.06,0-.26-.08h0l-.13,0-.25-.06h-.09l-.16,0h-.1l-.14,0h-.76l-.11,0H141l-.1,0-.09,0-.1,0-.09,0-.09,0-.09,0-.09,0-.08,0-.08,0-.07,0-.08.05a.18.18,0,0,0-.07.05l-.08,0-.06.05-.07.06-.06.06-.06,0,2.69-2.8a3.08,3.08,0,0,1,3.06-.59Z"/><path class="cls-3" d="M139.85,142.9l.06-.05.08,0a.18.18,0,0,1,.07-.05l.08-.05.07,0,.08,0,.08,0,.09,0,.09,0,.09,0,.09,0,.1,0,.09,0,.1,0h.1l.11,0H142l.14,0h.1l.16,0h.09l.25.06.18,0,.26.08.06,0,.31.11.1,0,.16.06.12.06.15.07.12.05.13.07.13.06.13.07.12.08.12.06.13.08.11.07.13.09a.41.41,0,0,1,.11.07l.13.09.11.07.12.1.12.08.12.09.11.09.11.09.13.11.1.09.13.12.09.08.15.15.09.08.15.15.08.09.26.28,0,.06.22.26.07.09.05,0,.13.18,0,0,.15.21,0,.05a1.63,1.63,0,0,1,.11.17l0,.06.14.21,0,0,.11.19,0,.06a1.28,1.28,0,0,1,.11.2v0l.12.22,0,.06.09.18,0,.06.09.22,0,.05a1.34,1.34,0,0,0,.07.18l0,.07.07.22.06.23v0c0,.08,0,.15,0,.21v0a1.7,1.7,0,0,1,0,.22v0a.34.34,0,0,1,0,.1s0,.07,0,.1v0h0a.31.31,0,0,0,0,.1v.13s0,.07,0,.11v.1a.45.45,0,0,0,0,.11.31.31,0,0,1,0,.1.53.53,0,0,1,0,.13.25.25,0,0,1,0,.08.5.5,0,0,1,0,.12.17.17,0,0,0,0,.07c0,.05,0,.09,0,.14v0l-.06.18h0a.77.77,0,0,1-.07.16h0l-.08.15h0l0,.08v0l0,0h0a.18.18,0,0,1,0,.07l-.05.07-.06.07-.06.07a3.1,3.1,0,0,1-3.07.59,9.72,9.72,0,0,1-6.4-6.1,3.06,3.06,0,0,1,.5-3.19l.06-.06Z"/><path class="cls-28" d="M142.4,143h0l.26.08.06,0,.31.11h0l.08,0,.16.07.11.05.16.07,0,0,.07,0,.13.06.12.06.13.07,0,0,.08.05.11.06.13.08.12.07,0,0,.09.06.11.07.12.09.11.08,0,0,.09.07.11.08.12.1.11.08,0,0,.08.06.13.11.1.09.13.12,0,0,0,.05.15.15.1.09.14.15.06.05,0,0,.27.29,0,.05.22.26,0,0,0,.05.05.06.13.17,0,0,.15.21,0,.05.12.17,0,.06a1.64,1.64,0,0,1,.14.22l0,0a1.18,1.18,0,0,1,.11.19l0,.06c0,.07.07.13.1.2l0,0,.11.23,0,.06.08.17,0,.06.09.22,0,.05.07.18,0,.07a1.87,1.87,0,0,1,.07.22v0a1.6,1.6,0,0,1,.05.21l0,.06c0,.06,0,.12,0,.18v0l0,.18v0l0,.2v.05a1.94,1.94,0,0,1,0,.24h0v.21a.34.34,0,0,1,0,.1v.11h0s0,.08,0,.12a.2.2,0,0,1,0,.07l0,.16v0h0c0,.06,0,.12-.05.18a.08.08,0,0,1,0,.05l0,.12h0l0,.07a.3.3,0,0,1,0,.1l0,.07a.3.3,0,0,0,0,.08h0a.22.22,0,0,1,0,.08.43.43,0,0,1,0,.07l-.06.09,0,.05h0l-.12.13L145.53,155h0l.06-.07.05-.06h0l.05-.06,0-.07h0a.13.13,0,0,0,0-.05l0,0,0-.07h0a.25.25,0,0,0,0-.07l0-.07h0a.36.36,0,0,1,0-.09l0-.07h0a.49.49,0,0,1,0-.11s0,0,0-.06h0v0l0-.14h0l0-.08a.52.52,0,0,1,0-.11h0a.25.25,0,0,1,0-.08s0-.06,0-.1h0a.34.34,0,0,1,0-.1v-.1h0v-.2h0v0a.49.49,0,0,0,0-.12v-.1h0v0s0-.07,0-.11,0-.06,0-.09v0h0l0-.19h0v0a.85.85,0,0,0,0-.17v-.06l-.06-.22h0l-.08-.23,0-.06c0-.06,0-.12-.07-.19v0l-.09-.23,0,0a1.42,1.42,0,0,0-.08-.18l0-.06-.11-.22v0c0-.06-.07-.13-.11-.2l0-.06-.11-.19,0,0c0-.07-.09-.14-.13-.22l0-.05-.12-.17,0-.06-.15-.21,0,0-.14-.18,0-.06,0,0,0,0-.21-.25,0-.06-.26-.29,0,0-.05-.06-.15-.15-.09-.09-.15-.14-.06-.06,0,0-.12-.11-.11-.09a.69.69,0,0,0-.13-.11l-.08-.07,0,0-.11-.09-.12-.09-.11-.09-.09-.07,0,0-.11-.08-.13-.08-.11-.08-.08-.05-.05,0-.11-.07-.13-.08-.12-.07-.07,0-.06,0-.12-.07-.13-.07-.13-.06-.07,0-.05,0-.16-.07-.11,0-.16-.06-.08,0h0l-.31-.11h0l-.26-.08h0l-.14,0-.25,0-.08,0-.16,0-.1,0h-1l-.09,0-.11,0-.09,0-.1,0-.08,0-.1,0-.08,0-.09,0-.08,0-.08.05-.08,0-.08,0a.18.18,0,0,1-.07,0l-.07.06-.07.05-.07.06-.06,0-.05.06,2.68-2.81a3.11,3.11,0,0,1,3.07-.58Z"/><path class="cls-12" d="M136.69,146.21l.07-.05.07-.06a.18.18,0,0,0,.07,0l.08,0,.08,0,.08-.05.08,0,.09,0,.08,0,.1,0,.08,0,.1,0,.09,0,.11,0,.09,0h1l.1,0,.16,0,.08,0,.25,0,.19.05.26.08h0l.31.11.11.05.16.06.11,0,.16.07.12.06.13.06.13.07.12.07.13.07.12.07.13.08.11.07.13.08.11.08.13.08.11.08.12.09.11.09.12.09.11.09.11.09a.69.69,0,0,1,.13.11l.11.09.12.11.1.09.15.14.09.09.15.15.08.08.26.29,0,.06.21.25.08.09,0,.06.14.18,0,0,.15.21,0,.06.12.17,0,.05c0,.08.09.15.13.22l0,0,.11.19,0,.06c0,.07.07.14.11.2v0l.11.22,0,.06a1.42,1.42,0,0,1,.08.18l0,0,.09.23v0c0,.07.05.13.07.19l0,.06.08.23.06.23v0a1.6,1.6,0,0,1,.05.21v0a1.55,1.55,0,0,0,0,.21v0s0,.06,0,.09,0,.07,0,.11v0h0v.1a.49.49,0,0,1,0,.12v.33a.34.34,0,0,0,0,.1s0,.08,0,.12a.25.25,0,0,0,0,.08.5.5,0,0,0,0,.12l0,.08,0,.14v0l-.06.17h0a1.11,1.11,0,0,0-.07.16h0a1,1,0,0,1-.07.15h0l0,.07,0,0a.13.13,0,0,1,0,.05h0l0,.07-.05.06-.06.07-.06.07a3.12,3.12,0,0,1-3.08.6,9.78,9.78,0,0,1-6.4-6.1,3.09,3.09,0,0,1,.5-3.2l.06,0Z"/></g><g id="圖層_32" data-name="圖層 32"><polygon class="cls-1" points="104.99 72.78 113.76 47.14 8.77 0 0 25.63 104.99 72.78"/><polygon class="cls-1" points="200.29 90.93 205.19 79.5 169.71 63.87 164.81 75.3 200.29 90.93"/><polygon class="cls-1" points="216.06 87.02 203.37 90.18 215.61 125.1 228.3 121.93 216.06 87.02"/><path class="cls-29" d="M203.89,95.23c4.82,2.12,10.27.26,12.16-4.15s-.48-9.72-5.3-11.85-10.27-.26-12.16,4.15S199.07,93.1,203.89,95.23Z"/><path class="cls-30" d="M187.85,70.74,191,63.31,84.93,16.57C70,10,53.22,15.75,47.37,29.39l-.21.49c-5.85,13.64,1.48,30,16.38,36.58l59.75,26.31C148.89,104.05,177.8,94.19,187.85,70.74Z"/></g></g></svg>