<svg xmlns="http://www.w3.org/2000/svg" viewBox="0 0 183.72 479.98"><defs><style>.cls-1,.cls-9{fill:#fff;}.cls-2{fill:#3f2cad;}.cls-3{fill:#9eeaf0;}.cls-4{fill:none;}.cls-5,.cls-8{fill:#3f2cae;}.cls-6{fill:#5ec9cb;}.cls-7{fill:#9febf1;}.cls-8{opacity:0.1;}.cls-9{stroke:#e0e0e2;stroke-miterlimit:10;}</style></defs><title>資產 1</title><g id="圖層_2" data-name="圖層 2"><g id="圖層_32" data-name="圖層 32"><path class="cls-1" d="M64.16.25,87.28,2.72c22.9,2.43,39.61,21.84,37.32,43.33L121.22,77.8c-2.29,21.49-22.71,36.94-45.61,34.51l-23.12-2.47C29.59,107.4,12.89,88,15.18,66.51l3.38-31.75C20.85,13.26,41.26-2.19,64.16.25Z"/><path class="cls-2" d="M80.68,14l15.53,1.66c15.38,1.64,26.3,17.44,24.4,35.29l-2.17,20.37-.64,6c-1.9,17.85-15.91,31-31.28,29.36L71,105.06c-15.38-1.64-26.3-17.44-24.4-35.3L49.4,43.39C51.3,25.53,65.31,12.39,80.68,14Z"/><path class="cls-3" d="M96.91,40.43a8.87,8.87,0,0,0,17.61,1.88,8.87,8.87,0,0,0-17.61-1.88Z"/><path class="cls-4" d="M135.22,77.18h0"/><path class="cls-2" d="M24.75,51.18a7.39,7.39,0,0,0,6.52,8.16h0a7.39,7.39,0,0,0,8.47-6.09l3.4-24.69a7.39,7.39,0,0,0-6.51-8.16h0a7.39,7.39,0,0,0-8.48,6.1Z"/><path class="cls-4" d="M95.8,64.2c-.12,8.27,6.69,15.2,15.43,15.55s16.08-6,16.64-14.25Z"/><rect class="cls-4" x="1.86" y="115.36" width="181.86" height="58.16" transform="translate(185.58 288.87) rotate(-180)"/><path class="cls-3" d="M105.57,64.89l16.76,2.48s-1.61,14.87-2,15.91C120.29,83.28,104.84,81.1,105.57,64.89Z"/><polygon class="cls-5" points="88.06 355.85 66.93 357.51 66.85 299.52 87.98 297.86 88.06 355.85"/><polygon class="cls-5" points="89.9 467.22 68.68 468.49 69.8 414.08 91.02 412.8 89.9 467.22"/><path class="cls-6" d="M80.79,345.79h-.53c-14.57-.16-27.37,12.26-28.58,27.74l-2.89,36.85C47.57,425.87,58.4,438.55,73,438.71h.53c14.57.16,27.37-12.26,28.58-27.75L105,374.11C106.19,358.63,95.36,346,80.79,345.79Z"/><path class="cls-6" d="M102.89,299.32l-.14.51C98.88,313.7,85.12,322.63,72,319.78L29.7,310.57c-13.84-3-19.2-19.84-10.32-32.38l.69-1c8.35-11.79,22.4-17.68,35.41-14.85l30.73,6.69C99.3,271.9,106.77,285.45,102.89,299.32Z"/><path class="cls-7" d="M44.18,281.06l-2.6,9.29,59.89,13a27.69,27.69,0,0,0,1.28-3.55l.14-.51a26.77,26.77,0,0,0,.94-5.28Z"/><path class="cls-6" d="M116.12,476l-68.23-1.08a6.57,6.57,0,0,1-6.36-7.48v-.15A8,8,0,0,1,49.33,460l68.23,1.08a6.58,6.58,0,0,1,6.36,7.48l0,.15A8,8,0,0,1,116.12,476Z"/><path class="cls-1" d="M56.34,295.8,33,295.1c-7.95-.24-14.77-5.36-16.58-12.44l-5.16-20.15C8.68,252.42,17.18,243,28.5,243.28l34.47,1c11.32.34,19.42,10.31,16.42,20.24l-6,19.82C71.31,291.33,64.28,296,56.34,295.8Z"/><path class="cls-1" d="M53.2,259.16l-15.55-.46c-20.25-.61-36.35-16.07-36-34.53l1.44-69.6c.38-18.46,17.11-32.94,37.36-32.34L56,122.7c20.25.6,36.36,16.06,36,34.53l-1.44,69.6C90.17,245.29,73.44,259.77,53.2,259.16Z"/><ellipse class="cls-5" cx="44.38" cy="273.18" rx="17.22" ry="18.89" transform="translate(-231.36 296.99) rotate(-85.71)"/><path class="cls-8" d="M51.92,179c17.8.53,32.51-12.2,32.85-28.43.24-11.7-7.06-22-17.8-27.05a33.42,33.42,0,0,0-5.45-.64l-12.63-.38A31.35,31.35,0,0,0,31.63,127a28,28,0,0,0-11.34,21.66C20,164.86,34.11,178.45,51.92,179Z"/><polygon class="cls-5" points="39.33 360.44 17.1 362.08 17.37 306.93 39.6 305.29 39.33 360.44"/><polygon class="cls-5" points="38.02 465.87 15.29 465.19 16.34 414.5 39.07 415.18 38.02 465.87"/><path class="cls-1" d="M34.17,358.45h-.56c-15.32-.11-28.85,11.75-30.23,26.47L.11,420c-1.37,14.73,9.93,26.76,25.25,26.86h.56c15.32.11,28.85-11.75,30.23-26.48l3.27-35.05C60.79,370.59,49.49,358.56,34.17,358.45Z"/><path class="cls-9" d="M35.24,377.22l-.5,0C21,376,9.9,363.63,9.85,349.56l-.17-45.49c0-14.87,14.49-23.81,28-17.2l1.05.52a38,38,0,0,1,21.11,33.47l.13,33C60,368,48.94,378.4,35.24,377.22Z"/><path class="cls-7" d="M40.11,313l-9.17-.79.23,64.36a26.6,26.6,0,0,0,3.57.6l.5,0a24.12,24.12,0,0,0,5.11-.1Z"/><path class="cls-1" d="M80.65,480l-73-2.18c-4.18-.13-7.51-3.32-7.43-7.13v-.14c.08-3.81,3.53-6.8,7.71-6.67l73,2.18c4.18.13,7.5,3.32,7.42,7.13v.14C88.28,477.12,84.83,480.1,80.65,480Z"/><polygon class="cls-5" points="68.08 255.05 44.18 251.2 51.12 148.61 75.02 152.47 68.08 255.05"/><polygon class="cls-5" points="42.35 337.82 31.28 336.89 33.87 302.34 44.93 303.27 42.35 337.82"/><polygon class="cls-5" points="32.64 348.61 40.47 339.93 62.86 364.25 55.03 372.93 32.64 348.61"/><path class="cls-1" d="M44.23,342.46c-.35,4.7-4.11,8.21-8.38,7.85s-7.47-4.46-7.11-9.16,4.1-8.21,8.38-7.84S44.58,337.77,44.23,342.46Z"/><polygon class="cls-5" points="70.67 325.16 62.54 333.5 41.02 308.25 49.15 299.91 70.67 325.16"/><path class="cls-9" d="M31.66,319.53l-7.2-.61,7.73-103.3c1.09-14.5,12.67-25.35,25.88-24.23l.49,0c13.21,1.12,23,13.78,22,28.28l-4.35,58.17C74.29,302.81,54.37,321.46,31.66,319.53Z"/><path class="cls-1" d="M78.85,172.4l-40-5.44C24,165,13.53,152.34,15.53,138.81l.08-.49c2-13.53,15.67-22.87,30.53-20.85l39.39,5.35c14.08,1.91,24,13.85,22,26.67l-.54,3.66C105.19,165.64,92.57,174.26,78.85,172.4Z"/><path class="cls-7" d="M60.33,159.1l.3,0c8.16,1.11,15.66-4,16.77-11.45l3.77-25.46-29.85-4.06-3.78,25.47C46.44,151.07,52.17,158,60.33,159.1Z"/></g></g></svg>