<?xml version="1.0" encoding="utf-8"?>
<!-- Generator: Adobe Illustrator 22.1.0, SVG Export Plug-In . SVG Version: 6.00 Build 0)  -->
<svg version="1.1" id="圖層_1" xmlns="http://www.w3.org/2000/svg" xmlns:xlink="http://www.w3.org/1999/xlink" x="0px" y="0px"
	 viewBox="0 0 535.7 794.8" style="enable-background:new 0 0 535.7 794.8;" xml:space="preserve">
<style type="text/css">
	.st0{fill:#3F2CAB;}
	.st1{fill:#FFFFFF;}
	.st2{fill:#9CE8EE;}
	.st3{fill:#4D6773;}
	.st4{clip-path:url(#SVGID_2_);}
	.st5{clip-path:url(#SVGID_4_);}
	.st6{fill:#ED1944;}
	.st7{opacity:0.8;fill:url(#SVGID_5_);enable-background:new    ;}
	.st8{opacity:0.3;}
	.st9{fill:#8CD4FF;}
	.st10{fill:#BBBDBF;}
	.st11{opacity:0.5;fill:#2F2E30;enable-background:new    ;}
	.st12{opacity:0.5;fill:#414042;enable-background:new    ;}
	.st13{fill:#A6A8AB;}
	.st14{fill:#7E8081;}
	.st15{fill:#626466;}
	.st16{fill:#7C7F80;}
	.st17{fill:#888A8D;}
	.st18{fill:#414042;}
	.st19{fill:#929497;}
	.st20{fill:#58595B;}
	.st21{fill:#EEB642;}
	.st22{fill:#CFA039;}
	.st23{fill:#2F2E30;}
	.st24{opacity:0.5;fill:#231F20;enable-background:new    ;}
	.st25{fill:#E2DDDE;}
	.st26{fill:#3A3C3D;}
	.st27{opacity:0.1;fill:#231F20;enable-background:new    ;}
	.st28{fill:#95979A;}
	.st29{fill:#231F20;}
	.st30{fill:#3776AC;}
	.st31{fill:url(#SVGID_6_);}
	.st32{fill:url(#SVGID_7_);}
	.st33{fill:url(#SVGID_8_);}
	.st34{fill:#53F0E7;}
	.st35{fill:url(#SVGID_9_);}
	.st36{enable-background:new    ;}
	.st37{fill:#E82121;}
</style>
<g id="圖層_2_2_">
	<g id="圖層_1-2">
		<path class="st0" d="M207.6,273.1c0,4.5-3.2,8.3-7.3,8.3l0,0c-4,0-7.3-3.7-7.3-8.3v-28.5c0-4.5,3.2-8.3,7.3-8.3l0,0
			c4,0,7.3,3.7,7.3,8.3V273.1z"/>
		<path class="st0" d="M351,272.6c0,4.5-3.2,8.3-7.3,8.3l0,0c-4,0-7.3-3.7-7.3-8.3v-28.5c0-4.5,3.2-8.2,7.3-8.2l0,0
			c4,0,7.3,3.7,7.3,8.2V272.6z"/>
		<path class="st1" d="M257.6,194.9H286c28.1,0,50.8,22.7,50.8,50.8v41.4c0,28.1-22.7,50.8-50.8,50.8h-28.3
			c-28.1,0-50.8-22.7-50.8-50.8v-41.4C206.8,217.6,229.6,194.9,257.6,194.9z"/>
		<path class="st1" d="M309.6,486.2h-76c-14.1,0-26.5-9.5-30.2-23.1l-20-74.2c-4.5-16.7,5.4-33.8,22-38.3c2.6-0.7,5.4-1.1,8.1-1.1
			h116c17.3,0,31.3,14,31.3,31.3c0,2.7-0.4,5.5-1.1,8.1l-20,74.2C336.1,476.8,323.7,486.2,309.6,486.2z"/>
		<path class="st0" d="M261.3,213.5h20.9c20.7,0,37.6,16.8,37.6,37.6v30.6c0,20.7-16.8,37.6-37.6,37.6h-20.9
			c-20.7,0-37.6-16.8-37.6-37.6v-30.6C223.8,230.3,240.6,213.5,261.3,213.5z"/>
		<circle class="st0" cx="271.8" cy="385" r="14.1"/>
		<path class="st2" d="M342.9,451.5c-17.2,0-33-9.2-41.6-24l-0.4-0.7c-12-20.8-42.1-20.8-54.1,0l-0.4,0.7c-8.6,14.9-24.4,24-41.6,24
			h-4.4l3.1,11.6c3.7,13.6,16,23.1,30.2,23.1h76c14.1,0,26.5-9.5,30.2-23.1L342.9,451.5L342.9,451.5z"/>
		<path class="st2" d="M282.8,385c0,6.1-4.9,11-11,11c-6.1,0-11-4.9-11-11s4.9-11,11-11C277.9,374,282.8,378.9,282.8,385z"/>
		<path class="st0" d="M215.4,625.7h-11.1v-71.9c0-24.3,19.7-44,44-44h31v11.1h-31c-18.2,0-32.9,14.7-32.9,32.9V625.7z"/>
		<rect x="195.1" y="595" class="st0" width="26.7" height="32.3"/>
		<rect x="195.1" y="696.4" class="st0" width="26.7" height="32.3"/>
		<path class="st1" d="M210.2,611.6h-0.6c-16.1,0-29.2-13.1-29.2-29.2V528c0-7.3,5.9-13.2,13.2-13.2l0,0h0.6
			c25,0,45.2,20.2,45.2,45.2v22.4C239.4,598.5,226.3,611.6,210.2,611.6C210.2,611.6,210.2,611.6,210.2,611.6z"/>
		<path class="st1" d="M209.6,620.8h0.6c16.1,0,29.2,13.1,29.2,29.2v38.4c0,16.1-13.1,29.2-29.2,29.2h-0.6
			c-16.1,0-29.2-13.1-29.2-29.2V650C180.4,633.9,193.5,620.8,209.6,620.8z"/>
		<path class="st1" d="M161.4,725.9h74.8c4.3,0,7.8,3.5,7.8,7.8v0.2c0,4.3-3.5,7.8-7.8,7.8h-74.8c-4.3,0-7.8-3.5-7.8-7.8v-0.2
			C153.6,729.4,157.1,725.9,161.4,725.9z"/>
		<path class="st0" d="M252.9,518.5c0,6.8-5.5,12.3-12.3,12.3c-6.8,0-12.3-5.5-12.3-12.3c0-6.8,5.5-12.3,12.3-12.3
			C247.4,506.2,252.9,511.7,252.9,518.5C252.9,518.4,252.9,518.5,252.9,518.5z"/>
		<path class="st2" d="M210.2,611.6c16.1,0,29.2-13.1,29.2-29.2V560c0-1.5-0.1-3-0.2-4.5h-0.3c-15.8,0-28.7,12.8-28.7,28.7
			c0,0,0,0,0,0L210.2,611.6z"/>
		<path class="st0" d="M328.7,625.7h11.1v-71.9c0-24.3-19.7-44-44-44h-31v11.1h31c18.2,0,32.9,14.7,32.9,32.9L328.7,625.7z"/>
		<rect x="322.3" y="595" class="st0" width="26.7" height="32.3"/>
		<rect x="322.3" y="696.4" class="st0" width="26.7" height="32.3"/>
		<path class="st1" d="M334,611.6h0.6c16.1,0,29.2-13.1,29.2-29.2V528c0-7.3-5.9-13.2-13.2-13.2c0,0,0,0,0,0H350
			c-25,0-45.2,20.2-45.2,45.2v22.4C304.8,598.5,317.8,611.6,334,611.6z"/>
		<path class="st1" d="M334,620.8h0.6c16.1,0,29.2,13.1,29.2,29.2v38.4c0,16.1-13.1,29.2-29.2,29.2H334c-16.1,0-29.2-13.1-29.2-29.2
			V650C304.8,633.9,317.8,620.8,334,620.8z"/>
		<path class="st1" d="M307.9,725.9h74.8c4.3,0,7.8,3.5,7.8,7.8v0.2c0,4.3-3.5,7.8-7.8,7.8h-74.8c-4.3,0-7.8-3.5-7.8-7.8v-0.2
			C300.2,729.4,303.6,725.9,307.9,725.9z"/>
		<circle class="st0" cx="303.5" cy="518.5" r="12.3"/>
		<path class="st2" d="M334,611.6c-16.1,0-29.2-13.1-29.2-29.2V560c0-1.5,0.1-3,0.2-4.5h0.3c15.8,0,28.7,12.8,28.7,28.7c0,0,0,0,0,0
			V611.6z"/>
		<path class="st1" d="M283.8,543.8h-23.9c-8.2,0-15.3-5.5-17.3-13.4l-5.7-22.4c-2.4-9.5,3.3-19.2,12.9-21.6
			c1.4-0.4,2.9-0.5,4.4-0.5h35.3c9.8,0,17.8,8,17.8,17.8c0,1.5-0.2,3-0.5,4.4l-5.7,22.4C299,538.3,291.9,543.8,283.8,543.8z"/>
		<rect x="145.3" y="364.5" class="st0" width="25.8" height="110.6"/>
		<path class="st1" d="M218.2,382.9h-67.1c-15.4,0-27.8-12.5-27.8-27.8v-0.6c0-15.4,12.5-27.8,27.8-27.8l0,0h40.7
			c14.6,0,26.4,11.8,26.4,26.4c0,0,0,0,0,0V382.9z"/>
		<rect x="127.8" y="555.5" class="st0" width="12.5" height="35.5"/>
		
			<rect x="141.6" y="591.8" transform="matrix(0.6449 -0.7642 0.7642 0.6449 -413.3524 329.436)" class="st0" width="12.5" height="35.5"/>
		<path class="st1" d="M142.7,595.6c0,4.8-3.9,8.7-8.7,8.7s-8.7-3.9-8.7-8.7c0-4.8,3.9-8.7,8.7-8.7S142.7,590.8,142.7,595.6
			L142.7,595.6z"/>
		
			<rect x="147.4" y="550.5" transform="matrix(0.6737 -0.739 0.739 0.6737 -369.8489 298.9749)" class="st0" width="12.5" height="35.5"/>
		<path class="st1" d="M126.7,573.3h-8.1V467.1c0-14.9,12-27,27-27c0,0,0,0,0,0h0.6c14.9,0,27,12.1,27,27c0,0,0,0,0,0v59.8
			C173.1,552.5,152.3,573.3,126.7,573.3z"/>
		<path class="st2" d="M171.7,370.9h0.3c8.4,0,15.3-6.8,15.3-15.3v-28.9h-30.9v28.9C156.4,364.1,163.3,370.9,171.7,370.9
			C171.7,370.9,171.7,370.9,171.7,370.9z"/>
		<path class="st2" d="M255.5,253.5c0,3.3-2.7,6-6,6c-3.3,0-6-2.7-6-6c0-3.3,2.7-6,6-6c0,0,0,0,0,0
			C252.8,247.5,255.5,250.2,255.5,253.5L255.5,253.5z"/>
		<path class="st2" d="M297.3,253.5c0,3.3-2.7,6-6,6c-3.3,0-6-2.7-6-6c0-3.3,2.7-6,6-6c0,0,0,0,0,0
			C294.6,247.5,297.2,250.2,297.3,253.5z"/>
		<path class="st2" d="M258.9,269.9c0,7,5.7,12.7,12.7,12.7c7,0,12.7-5.7,12.7-12.7H258.9z"/>
		<rect x="373" y="364.7" class="st0" width="25.8" height="110.6"/>
		<path class="st1" d="M326,383.1h67.1c15.4,0,27.8-12.5,27.8-27.8v-0.6c0-15.4-12.5-27.8-27.8-27.8h-40.8
			c-14.6,0-26.4,11.8-26.4,26.4c0,0,0,0,0,0L326,383.1z"/>
		<rect x="403.9" y="555.7" class="st0" width="12.5" height="35.5"/>
		
			<rect x="378.5" y="603.5" transform="matrix(0.7642 -0.6449 0.6449 0.7642 -299.826 399.3387)" class="st0" width="35.5" height="12.5"/>
		<path class="st1" d="M401.4,595.8c0,4.8,3.9,8.7,8.7,8.7s8.7-3.9,8.7-8.7c0-4.8-3.9-8.7-8.7-8.7S401.4,591,401.4,595.8
			L401.4,595.8z"/>
		
			<rect x="372.8" y="562.3" transform="matrix(0.739 -0.6737 0.6737 0.739 -281.0525 411.4573)" class="st0" width="35.5" height="12.5"/>
		<path class="st1" d="M417.4,573.5h8.1V467.3c0-14.9-12.1-27-27-27H398c-14.9,0-27,12.1-27,27l0,0v59.8
			C371.1,552.7,391.8,573.5,417.4,573.5z"/>
		<path class="st2" d="M372.5,371.1h-0.3c-8.4,0-15.3-6.8-15.3-15.3v-28.9h30.9v28.9C387.7,364.3,380.9,371.1,372.5,371.1z"/>
	</g>
</g>
</svg>
