<svg xmlns="http://www.w3.org/2000/svg" viewBox="0 0 152.32 518.11"><defs><style>.cls-1,.cls-9{fill:#fff;}.cls-2{fill:#3f2cad;}.cls-3,.cls-4{fill:none;}.cls-4{stroke:#cfcfd0;stroke-width:2px;}.cls-10,.cls-4,.cls-9{stroke-miterlimit:10;}.cls-10,.cls-5,.cls-8{fill:#3f2cae;}.cls-6{fill:#5ec9cb;}.cls-7{fill:#9febf1;}.cls-8{opacity:0.1;}.cls-10,.cls-9{stroke:#e0e0e2;}</style></defs><title>資產 3</title><g id="圖層_2" data-name="圖層 2"><g id="巴頭機器人"><path class="cls-1" d="M83.81,1l25,5.18c24.74,5.13,40.68,29.07,35.63,53.48l-7.48,36.06c-5.06,24.41-29.21,40-53.94,34.92l-25-5.18C33.29,120.3,17.34,96.36,22.4,72l7.47-36.06C34.93,11.48,59.08-4.15,83.81,1Z"/><path class="cls-2" d="M100.23,18.44,117,21.92c16.61,3.44,26.67,22.67,22.46,43L134.68,88l-1.41,6.81c-4.21,20.28-21.08,33.93-37.69,30.49l-16.77-3.48c-16.62-3.44-26.67-22.67-22.47-42.95l6.21-29.95C66.75,28.65,83.62,15,100.23,18.44Z"/><path class="cls-3" d="M152.32,96.4h0"/><path class="cls-2" d="M50.84,69.41a8.92,8.92,0,0,1-10.55,6.92h0a8.92,8.92,0,0,1-6.92-10.54l6.27-30.25a8.92,8.92,0,0,1,10.54-6.92h0a8.92,8.92,0,0,1,6.93,10.54Z"/><line class="cls-4" x1="132.66" y1="50.61" x2="109.68" y2="62.78"/><line class="cls-4" x1="115.08" y1="45.2" x2="127.25" y2="68.19"/><line class="cls-4" x1="106.22" y1="93.8" x2="131.63" y2="99.32"/><polygon class="cls-5" points="94.17 385.37 71.57 387.14 71.48 325.14 94.08 323.36 94.17 385.37"/><polygon class="cls-5" points="96.13 504.46 73.44 505.82 74.64 447.63 97.33 446.27 96.13 504.46"/><path class="cls-6" d="M86.39,374.61h-.57c-15.58-.17-29.26,13.11-30.56,29.67l-3.09,39.4C50.87,460.24,62.45,473.8,78,474h.57c15.58.17,29.26-13.11,30.56-29.67l3.09-39.4C113.55,388.34,102,374.78,86.39,374.61Z"/><path class="cls-6" d="M110,324.92l-.15.54C105.73,340.3,91,349.85,77,346.8L31.76,337c-14.8-3.22-20.53-21.22-11-34.62l.74-1.05c8.93-12.61,23.95-18.91,37.86-15.88l32.87,7.15C106.19,295.6,114.17,310.09,110,324.92Z"/><path class="cls-7" d="M47.24,305.39l-2.77,9.93,64,13.94a29.56,29.56,0,0,0,1.38-3.8l.15-.54a30,30,0,0,0,1-5.65Z"/><path class="cls-6" d="M124.17,513.85l-73-1.16a7,7,0,0,1-6.8-8v-.16a8.55,8.55,0,0,1,8.33-7.76l73,1.15a7,7,0,0,1,6.8,8l0,.16A8.54,8.54,0,0,1,124.17,513.85Z"/><path class="cls-1" d="M60.24,321.15l-25-.74c-8.49-.26-15.79-5.73-17.73-13.3l-5.5-21.55C9.29,274.77,18.37,264.64,30.48,265l36.86,1.1c12.1.36,20.76,11,17.55,21.63l-6.39,21.2C76.25,316.37,68.74,321.41,60.24,321.15Z"/><path class="cls-1" d="M56.89,282l-16.63-.5C18.61,280.83,1.39,264.3,1.8,244.56l1.54-74.43c.41-19.74,18.29-35.22,39.94-34.58l16.63.5c21.65.65,38.87,17.18,38.46,36.92L96.83,247.4C96.42,267.14,78.54,282.62,56.89,282Z"/><ellipse class="cls-5" cx="47.46" cy="296.97" rx="18.41" ry="20.2" transform="translate(-252.23 322.06) rotate(-85.71)"/><path class="cls-8" d="M55.52,196.24c19,.57,34.76-13.05,35.12-30.41.26-12.5-7.54-23.51-19-28.92a34.8,34.8,0,0,0-5.83-.68l-13.51-.41a33.63,33.63,0,0,0-18.46,4.79,30,30,0,0,0-12.13,23.16C21.33,181.13,36.48,195.67,55.52,196.24Z"/><polygon class="cls-5" points="42.05 390.27 18.28 392.03 18.58 333.06 42.35 331.3 42.05 390.27"/><polygon class="cls-5" points="40.66 503.02 16.35 502.29 17.47 448.08 41.78 448.81 40.66 503.02"/><path class="cls-1" d="M36.54,388.15h-.6C19.56,388,5.09,400.71,3.62,416.46L.12,453.94c-1.47,15.75,10.62,28.61,27,28.73h.6c16.38.12,30.85-12.56,32.32-28.31l3.5-37.48C65,401.13,52.92,388.27,36.54,388.15Z"/><path class="cls-9" d="M37.68,408.22l-.53-.05c-14.65-1.26-26.56-14.48-26.62-29.52L10.36,330c-.06-15.9,15.48-25.46,29.91-18.4l1.13.56A40.6,40.6,0,0,1,64,348l.13,35.33C64.16,398.32,52.33,409.49,37.68,408.22Z"/><path class="cls-7" d="M42.89,339.56l-9.81-.85.25,68.82a27,27,0,0,0,3.82.64l.53.05a26.07,26.07,0,0,0,5.46-.11Z"/><path class="cls-1" d="M86.24,518.1l-78-2.33c-4.47-.13-8-3.55-7.94-7.62V508c.09-4.07,3.78-7.27,8.25-7.14l78,2.34c4.47.13,8,3.54,7.94,7.62V511C94.4,515,90.71,518.24,86.24,518.1Z"/><polygon class="cls-5" points="72.8 277.58 47.24 273.46 54.66 163.76 80.22 167.88 72.8 277.58"/><polygon class="cls-5" points="64.94 369.8 53.08 370.27 51.26 333.26 63.12 332.8 64.94 369.8"/><polygon class="cls-5" points="56.07 382.53 63.23 372.29 90.2 395.13 83.04 405.38 56.07 382.53"/><path class="cls-1" d="M67.55,374.48c.25,5-3.27,9.25-7.86,9.43s-8.5-3.75-8.75-8.78,3.27-9.25,7.86-9.43S67.3,369.45,67.55,374.48Z"/><polygon class="cls-10" points="93.32 352.62 85.8 362.54 59.63 338.6 67.15 328.67 93.32 352.62"/><path class="cls-9" d="M51.18,351.8l-7.72.31L38,241.47c-.76-15.53,10.1-28.57,24.27-29.13l.52,0c14.16-.56,26.26,11.58,27,27.11l3.06,62.3C94.22,328.43,75.54,350.85,51.18,351.8Z"/><path class="cls-1" d="M84.31,189.2,41.5,183.38c-15.89-2.15-27-15.63-24.89-30.1l.08-.53c2.14-14.46,16.76-24.44,32.65-22.29l42.12,5.72c15.05,2,25.61,14.81,23.58,28.52l-.58,3.92C112.48,182,99,191.19,84.31,189.2Z"/><path class="cls-7" d="M64.51,175l.32,0c8.72,1.18,16.75-4.3,17.93-12.24l4-27.23-31.93-4.34-4,27.23C49.66,166.39,55.78,173.79,64.51,175Z"/></g></g></svg>