<svg xmlns="http://www.w3.org/2000/svg" viewBox="0 0 230.08 60.59"><defs><style>.cls-1{fill:#3f2cae;}.cls-2,.cls-3{fill:#fff;}.cls-3{stroke:#e0e0e2;stroke-miterlimit:10;}</style></defs><title>資產 16</title><g id="圖層_2" data-name="圖層 2"><g id="圖層_42" data-name="圖層 42"><polygon class="cls-1" points="106.62 44.87 107.12 19.61 0.5 7.62 0 32.87 106.62 44.87"/><polygon class="cls-1" points="196.4 33.87 197.5 22.34 161.55 18.55 160.45 30.09 196.4 33.87"/><polygon class="cls-1" points="209.29 25.92 198.92 32.34 219.72 59.86 230.09 53.44 209.29 25.92"/><path class="cls-2" d="M200.82,36.67c4.88.51,9.19-2.69,9.62-7.15s-3.2-8.49-8.08-9-9.2,2.68-9.62,7.14S195.93,36.15,200.82,36.67Z"/><polygon class="cls-1" points="178.12 60.59 188.2 53.8 166.29 27 156.21 33.79 178.12 60.59"/><path class="cls-3" d="M179.62,19.49l.71-7.51L72.82.67C57.73-.92,44.44,9,43.12,22.73l0,.5C41.76,37,52.93,49.45,68,51l60.54,6.37C154.5,60.15,177.36,43.17,179.62,19.49Z"/></g></g></svg>