<svg xmlns="http://www.w3.org/2000/svg" viewBox="0 0 205.64 532.15"><defs><style>.cls-1,.cls-9{fill:#fff;}.cls-2{fill:#3f2cad;}.cls-3{fill:#9eeaf0;}.cls-4{fill:none;}.cls-5,.cls-8{fill:#3f2cae;}.cls-6{fill:#5ec9cb;}.cls-7{fill:#9febf1;}.cls-8{opacity:0.1;}.cls-9{stroke:#e0e0e2;stroke-miterlimit:10;}</style></defs><title>資產 18</title><g id="圖層_2" data-name="圖層 2"><g id="圖層_32" data-name="圖層 32"><path class="cls-1" d="M54.67.21,80.7,0c25.77-.21,46.82,19.24,47,43.43L128,79.17c.2,24.2-20.54,44-46.31,44.19l-26,.2c-25.77.21-46.82-19.23-47-43.43L8.36,44.39C8.17,20.2,28.9.42,54.67.21Z"/><path class="cls-2" d="M74.8,13.42l17.48-.14c17.31-.14,31.47,16,31.63,36.14l.19,22.93.05,6.75c.16,20.1-13.74,36.51-31.05,36.65l-17.48.14c-17.3.14-31.46-16-31.63-36.14l-.24-29.69C43.59,30,57.49,13.56,74.8,13.42Z"/><path class="cls-3" d="M96.21,40.72A9.93,9.93,0,0,0,116,40.56a9.93,9.93,0,0,0-19.83.16Z"/><path class="cls-4" d="M143.5,76.69h0"/><path class="cls-2" d="M17.29,70.35a8.26,8.26,0,0,0,8.29,8.24h0a8.26,8.26,0,0,0,8.64-7.86l.62-27.88a8.26,8.26,0,0,0-8.28-8.24h0a8.26,8.26,0,0,0-8.65,7.86Z"/><path class="cls-4" d="M107.23,66.76c-.13,9.26,7.49,17,17.27,17.41s18-6.71,18.62-16Z"/><rect class="cls-4" x="2.08" y="124.02" width="203.55" height="65.09" transform="translate(207.72 313.14) rotate(-180)"/><path class="cls-3" d="M109,66.81l19,.62s.11,16.75-.24,17.95C127.67,85.38,110.21,84.93,109,66.81Z"/><polygon class="cls-5" points="98.57 393.21 74.92 395.07 74.83 330.17 98.48 328.3 98.57 393.21"/><polygon class="cls-5" points="100.63 517.87 76.87 519.29 78.13 458.38 101.88 456.96 100.63 517.87"/><path class="cls-6" d="M90.43,382h-.6c-16.31-.17-30.63,13.73-32,31.06l-3.23,41.25c-1.36,17.33,10.76,31.52,27.07,31.7h.59c16.31.17,30.63-13.73,32-31.06l3.24-41.25C118.85,396.32,106.74,382.13,90.43,382Z"/><path class="cls-6" d="M115.17,329.94l-.16.57C110.67,346,95.28,356,80.63,352.84L33.24,342.53c-15.48-3.37-21.49-22.21-11.55-36.24l.78-1.1C31.81,292,47.53,285.4,62.1,288.57l34.4,7.49C111.15,299.24,119.51,314.42,115.17,329.94Z"/><path class="cls-7" d="M49.45,309.49l-2.91,10.4,67,14.59a31.2,31.2,0,0,0,1.43-4l.16-.57a30.48,30.48,0,0,0,1-5.91Z"/><path class="cls-6" d="M130,527.7,53.6,526.49a7.36,7.36,0,0,1-7.12-8.38l0-.17a8.93,8.93,0,0,1,8.72-8.12L131.58,511a7.36,7.36,0,0,1,7.12,8.37l0,.17A8.94,8.94,0,0,1,130,527.7Z"/><path class="cls-1" d="M63.06,326l-26.13-.78c-8.89-.26-16.53-6-18.55-13.92l-5.77-22.56c-2.89-11.29,6.62-21.89,19.29-21.52l38.58,1.16c12.68.38,21.73,11.54,18.38,22.64L82.17,313.2C79.82,321,72,326.26,63.06,326Z"/><path class="cls-1" d="M59.54,285l-17.4-.52c-22.66-.68-40.69-18-40.26-38.65l1.61-77.9c.43-20.67,19.15-36.88,41.81-36.2l17.41.52c22.66.68,40.69,18,40.26,38.65l-1.62,77.9C100.93,269.46,82.21,285.66,59.54,285Z"/><ellipse class="cls-5" cx="49.68" cy="300.68" rx="19.27" ry="21.15" transform="matrix(0.07, -1, 1, 0.07, -253.88, 327.71)"/><path class="cls-8" d="M58.11,195.24c19.93.6,36.39-13.65,36.77-31.83.27-13.08-7.9-24.6-19.92-30.27a36.86,36.86,0,0,0-6.1-.71L54.73,132a35.2,35.2,0,0,0-19.33,5,31.32,31.32,0,0,0-12.69,24.25C22.33,179.43,38.18,194.64,58.11,195.24Z"/><polygon class="cls-5" points="44.02 398.35 19.14 400.19 19.45 338.46 44.33 336.62 44.02 398.35"/><polygon class="cls-5" points="42.56 516.36 17.11 515.6 18.29 458.85 43.73 459.61 42.56 516.36"/><path class="cls-1" d="M38.24,396.12h-.62C20.47,396,5.32,409.27,3.79,425.75L.13,465c-1.54,16.49,11.11,29.95,28.26,30.07H29c17.14.12,32.29-13.14,33.82-29.63L66.5,426.2C68,409.71,55.39,396.25,38.24,396.12Z"/><path class="cls-9" d="M39.45,417.13l-.57-.05c-15.32-1.32-27.8-15.16-27.86-30.91l-.18-50.92C10.78,318.61,27.05,308.6,42.15,316l1.18.58A42.51,42.51,0,0,1,67,354.05l.14,37C67.15,406.77,54.77,418.45,39.45,417.13Z"/><path class="cls-7" d="M44.9,345.26l-10.27-.89.26,72a29.4,29.4,0,0,0,4,.67l.57.05a26.43,26.43,0,0,0,5.71-.12Z"/><path class="cls-1" d="M90.27,532.15,8.59,529.71c-4.67-.14-8.39-3.72-8.31-8v-.16c.09-4.26,4-7.6,8.63-7.46l81.68,2.44c4.67.14,8.39,3.71,8.3,8v.16C98.81,528.94,95,532.29,90.27,532.15Z"/></g></g></svg>