<svg xmlns="http://www.w3.org/2000/svg" xmlns:xlink="http://www.w3.org/1999/xlink" viewBox="0 0 579.32 579.32"><defs><style>.cls-1{isolation:isolate;}.cls-2{opacity:0.8;fill:url(#radial-gradient);}.cls-2,.cls-3{mix-blend-mode:color-dodge;}.cls-3{opacity:0.2;}.cls-10,.cls-11,.cls-12,.cls-13,.cls-14,.cls-15,.cls-16,.cls-17,.cls-18,.cls-19,.cls-20,.cls-21,.cls-22,.cls-23,.cls-24,.cls-25,.cls-26,.cls-27,.cls-28,.cls-29,.cls-30,.cls-31,.cls-32,.cls-33,.cls-34,.cls-35,.cls-36,.cls-37,.cls-38,.cls-39,.cls-4,.cls-40,.cls-41,.cls-42,.cls-43,.cls-44,.cls-45,.cls-5,.cls-6,.cls-7,.cls-8,.cls-9{fill:#8dd5ff;}.cls-4{opacity:0;}.cls-5{opacity:0.02;}.cls-6{opacity:0.05;}.cls-7{opacity:0.07;}.cls-8{opacity:0.1;}.cls-9{opacity:0.12;}.cls-10{opacity:0.15;}.cls-11{opacity:0.17;}.cls-12{opacity:0.2;}.cls-13{opacity:0.22;}.cls-14{opacity:0.24;}.cls-15{opacity:0.27;}.cls-16{opacity:0.29;}.cls-17{opacity:0.32;}.cls-18{opacity:0.34;}.cls-19{opacity:0.37;}.cls-20{opacity:0.39;}.cls-21{opacity:0.41;}.cls-22{opacity:0.44;}.cls-23{opacity:0.46;}.cls-24{opacity:0.49;}.cls-25{opacity:0.51;}.cls-26{opacity:0.54;}.cls-27{opacity:0.56;}.cls-28{opacity:0.59;}.cls-29{opacity:0.61;}.cls-30{opacity:0.63;}.cls-31{opacity:0.66;}.cls-32{opacity:0.68;}.cls-33{opacity:0.71;}.cls-34{opacity:0.73;}.cls-35{opacity:0.76;}.cls-36{opacity:0.78;}.cls-37{opacity:0.8;}.cls-38{opacity:0.83;}.cls-39{opacity:0.85;}.cls-40{opacity:0.88;}.cls-41{opacity:0.9;}.cls-42{opacity:0.93;}.cls-43{opacity:0.95;}.cls-44{opacity:0.98;}.cls-46{opacity:0.3;mix-blend-mode:multiply;}.cls-47,.cls-48{mix-blend-mode:soft-light;}.cls-48{fill:url(#linear-gradient);}</style><radialGradient id="radial-gradient" cx="289.66" cy="289.66" r="289.66" gradientTransform="translate(289.66 -119.98) rotate(45)" gradientUnits="userSpaceOnUse"><stop offset="0" stop-color="#fff"/><stop offset="0.05" stop-color="#fff" stop-opacity="0.89"/><stop offset="0.15" stop-color="#fff" stop-opacity="0.69"/><stop offset="0.26" stop-color="#fff" stop-opacity="0.5"/><stop offset="0.37" stop-color="#fff" stop-opacity="0.35"/><stop offset="0.48" stop-color="#fff" stop-opacity="0.22"/><stop offset="0.6" stop-color="#fff" stop-opacity="0.12"/><stop offset="0.72" stop-color="#fff" stop-opacity="0.05"/><stop offset="0.85" stop-color="#fff" stop-opacity="0.01"/><stop offset="1" stop-color="#fff" stop-opacity="0"/></radialGradient><linearGradient id="linear-gradient" x1="215.39" y1="214.42" x2="364.95" y2="378.45" gradientUnits="userSpaceOnUse"><stop offset="0" stop-color="#fff"/><stop offset="1"/></linearGradient></defs><title>資產 1</title><g class="cls-1"><g id="圖層_2" data-name="圖層 2"><g id="圖層_4" data-name="圖層 4"><circle class="cls-2" cx="289.66" cy="289.66" r="289.66" transform="translate(-119.98 289.66) rotate(-45)"/><g class="cls-3"><rect class="cls-4" x="157.55" y="166.18" width="260.88" height="260.88" rx="34.65" ry="34.65"/><rect class="cls-5" x="158.5" y="167.14" width="258.97" height="258.97" rx="34.07" ry="34.07"/><rect class="cls-6" x="159.45" y="168.09" width="257.06" height="257.06" rx="33.49" ry="33.49"/><rect class="cls-7" x="160.41" y="169.04" width="255.16" height="255.15" rx="32.91" ry="32.91"/><rect class="cls-8" x="161.36" y="170" width="253.25" height="253.25" rx="32.33" ry="32.33"/><rect class="cls-9" x="162.31" y="170.95" width="251.34" height="251.34" rx="31.75" ry="31.75"/><rect class="cls-10" x="163.27" y="171.9" width="249.43" height="249.43" rx="31.18" ry="31.18"/><rect class="cls-11" x="164.22" y="172.86" width="247.53" height="247.53" rx="30.6" ry="30.6"/><rect class="cls-12" x="165.17" y="173.81" width="245.62" height="245.62" rx="30.02" ry="30.02"/><rect class="cls-13" x="166.13" y="174.77" width="243.71" height="243.71" rx="29.44" ry="29.44"/><rect class="cls-14" x="167.08" y="175.72" width="241.81" height="241.8" rx="28.86" ry="28.86"/><rect class="cls-15" x="168.04" y="176.67" width="239.9" height="239.9" rx="28.28" ry="28.28"/><rect class="cls-16" x="168.99" y="177.63" width="237.99" height="237.99" rx="27.7" ry="27.7"/><rect class="cls-17" x="169.94" y="178.58" width="236.08" height="236.08" rx="27.12" ry="27.12"/><rect class="cls-18" x="170.9" y="179.53" width="234.18" height="234.18" rx="26.54" ry="26.54"/><path class="cls-19" d="M197.81,180.49H378.15a26,26,0,0,1,26,26V386.79a26,26,0,0,1-26,26H197.81a26,26,0,0,1-26-26V206.45A26,26,0,0,1,197.81,180.49Z"/><rect class="cls-20" x="172.8" y="181.44" width="230.36" height="230.36" rx="25.39" ry="25.39"/><rect class="cls-21" x="173.76" y="182.39" width="228.45" height="228.45" rx="24.81" ry="24.81"/><rect class="cls-22" x="174.71" y="183.35" width="226.55" height="226.55" rx="24.23" ry="24.23"/><rect class="cls-23" x="175.66" y="184.3" width="224.64" height="224.64" rx="23.65" ry="23.65"/><rect class="cls-24" x="176.62" y="185.26" width="222.73" height="222.73" rx="23.07" ry="23.07"/><rect class="cls-25" x="177.57" y="186.21" width="220.83" height="220.83" rx="22.49" ry="22.49"/><rect class="cls-26" x="178.52" y="187.16" width="218.92" height="218.92" rx="21.91" ry="21.91"/><rect class="cls-27" x="179.48" y="188.12" width="217.01" height="217.01" rx="21.33" ry="21.33"/><rect class="cls-28" x="180.43" y="189.07" width="215.1" height="215.1" rx="20.75" ry="20.75"/><path class="cls-29" d="M201.56,190H374.41a20.17,20.17,0,0,1,20.17,20.17V383a20.17,20.17,0,0,1-20.17,20.17H201.56A20.17,20.17,0,0,1,181.39,383V210.2A20.18,20.18,0,0,1,201.56,190Z"/><path class="cls-30" d="M201.94,191H374a19.6,19.6,0,0,1,19.6,19.6v172.1A19.59,19.59,0,0,1,374,402.27H201.93a19.59,19.59,0,0,1-19.59-19.59V210.57A19.6,19.6,0,0,1,201.94,191Z"/><rect class="cls-31" x="183.29" y="191.93" width="209.38" height="209.38" rx="19.02" ry="19.02"/><rect class="cls-32" x="184.25" y="192.88" width="207.48" height="207.48" rx="18.44" ry="18.44"/><rect class="cls-33" x="185.2" y="193.84" width="205.57" height="205.57" rx="17.86" ry="17.86"/><rect class="cls-34" x="186.15" y="194.79" width="203.66" height="203.66" rx="17.28" ry="17.28"/><rect class="cls-35" x="187.11" y="195.74" width="201.75" height="201.75" rx="16.7" ry="16.7"/><rect class="cls-36" x="188.06" y="196.7" width="199.85" height="199.85" rx="16.12" ry="16.12"/><rect class="cls-37" x="189.01" y="197.65" width="197.94" height="197.94" rx="15.54" ry="15.54"/><rect class="cls-38" x="189.97" y="198.61" width="196.03" height="196.03" rx="14.96" ry="14.96"/><rect class="cls-39" x="190.92" y="199.56" width="194.13" height="194.13" rx="14.38" ry="14.38"/><path class="cls-40" d="M205.68,200.51H370.29a13.81,13.81,0,0,1,13.81,13.81V378.93a13.8,13.8,0,0,1-13.8,13.8H205.68a13.81,13.81,0,0,1-13.81-13.81V214.32A13.81,13.81,0,0,1,205.68,200.51Z"/><rect class="cls-41" x="192.83" y="201.47" width="190.31" height="190.31" rx="13.23" ry="13.23"/><rect class="cls-42" x="193.78" y="202.42" width="188.4" height="188.4" rx="12.65" ry="12.65"/><rect class="cls-43" x="194.74" y="203.37" width="186.5" height="186.5" rx="12.07" ry="12.07"/><rect class="cls-44" x="195.69" y="204.33" width="184.59" height="184.59" rx="11.49" ry="11.49"/><rect class="cls-45" x="196.64" y="205.28" width="182.68" height="182.68" rx="10.91" ry="10.91"/></g><g class="cls-46"><rect x="211.84" y="218.24" width="161.56" height="161.56" rx="9.65" ry="9.65"/><rect x="226.73" y="208.06" width="7.44" height="21.91"/><rect x="240.44" y="208.06" width="7.44" height="21.91"/><rect x="254.14" y="208.06" width="7.44" height="21.91"/><rect x="267.84" y="208.06" width="7.44" height="21.91"/><rect x="281.55" y="208.06" width="7.44" height="21.91"/><rect x="295.25" y="208.06" width="7.44" height="21.91"/><rect x="308.95" y="208.06" width="7.44" height="21.91"/><rect x="322.66" y="208.06" width="7.44" height="21.91"/><rect x="336.36" y="208.06" width="7.44" height="21.91"/><rect x="350.06" y="208.06" width="7.44" height="21.91"/><rect x="362.44" y="235.85" width="21.91" height="7.44"/><rect x="362.44" y="249.55" width="21.91" height="7.44"/><rect x="362.44" y="263.26" width="21.91" height="7.44"/><rect x="362.44" y="276.96" width="21.91" height="7.44"/><rect x="362.44" y="290.66" width="21.91" height="7.44"/><rect x="362.44" y="304.37" width="21.91" height="7.44"/><rect x="362.44" y="318.07" width="21.91" height="7.44"/><rect x="362.44" y="331.77" width="21.91" height="7.44"/><rect x="362.44" y="345.48" width="21.91" height="7.44"/><rect x="362.44" y="359.18" width="21.91" height="7.44"/><rect x="200.88" y="235.85" width="21.91" height="7.44"/><rect x="200.88" y="249.55" width="21.91" height="7.44"/><rect x="200.88" y="263.26" width="21.91" height="7.44"/><rect x="200.88" y="276.96" width="21.91" height="7.44"/><rect x="200.88" y="290.66" width="21.91" height="7.44"/><rect x="200.88" y="304.37" width="21.91" height="7.44"/><rect x="200.88" y="318.07" width="21.91" height="7.44"/><rect x="200.88" y="331.77" width="21.91" height="7.44"/><rect x="200.88" y="345.48" width="21.91" height="7.44"/><rect x="200.88" y="359.18" width="21.91" height="7.44"/><rect x="226.73" y="368.85" width="7.44" height="21.91"/><rect x="240.44" y="368.85" width="7.44" height="21.91"/><rect x="254.14" y="368.85" width="7.44" height="21.91"/><rect x="267.84" y="368.85" width="7.44" height="21.91"/><rect x="281.55" y="368.85" width="7.44" height="21.91"/><rect x="295.25" y="368.85" width="7.44" height="21.91"/><rect x="308.95" y="368.85" width="7.44" height="21.91"/><rect x="322.66" y="368.85" width="7.44" height="21.91"/><rect x="336.36" y="368.85" width="7.44" height="21.91"/><rect x="350.06" y="368.85" width="7.44" height="21.91"/><rect class="cls-47" x="211.84" y="218.24" width="161.56" height="161.56" rx="9.65" ry="9.65"/></g><rect class="cls-45" x="210.84" y="217.24" width="161.56" height="161.56" rx="9.65" ry="9.65"/><rect class="cls-45" x="225.73" y="207.06" width="7.44" height="21.91"/><rect class="cls-45" x="239.44" y="207.06" width="7.44" height="21.91"/><rect class="cls-45" x="253.14" y="207.06" width="7.44" height="21.91"/><rect class="cls-45" x="266.84" y="207.06" width="7.44" height="21.91"/><rect class="cls-45" x="280.55" y="207.06" width="7.44" height="21.91"/><rect class="cls-45" x="294.25" y="207.06" width="7.44" height="21.91"/><rect class="cls-45" x="307.95" y="207.06" width="7.44" height="21.91"/><rect class="cls-45" x="321.66" y="207.06" width="7.44" height="21.91"/><rect class="cls-45" x="335.36" y="207.06" width="7.44" height="21.91"/><rect class="cls-45" x="349.06" y="207.06" width="7.44" height="21.91"/><rect class="cls-45" x="361.44" y="234.85" width="21.91" height="7.44"/><rect class="cls-45" x="361.44" y="248.55" width="21.91" height="7.44"/><rect class="cls-45" x="361.44" y="262.26" width="21.91" height="7.44"/><rect class="cls-45" x="361.44" y="275.96" width="21.91" height="7.44"/><rect class="cls-45" x="361.44" y="289.66" width="21.91" height="7.44"/><rect class="cls-45" x="361.44" y="303.37" width="21.91" height="7.44"/><rect class="cls-45" x="361.44" y="317.07" width="21.91" height="7.44"/><rect class="cls-45" x="361.44" y="330.77" width="21.91" height="7.44"/><rect class="cls-45" x="361.44" y="344.48" width="21.91" height="7.44"/><rect class="cls-45" x="361.44" y="358.18" width="21.91" height="7.44"/><rect class="cls-45" x="199.88" y="234.85" width="21.91" height="7.44"/><rect class="cls-45" x="199.88" y="248.55" width="21.91" height="7.44"/><rect class="cls-45" x="199.88" y="262.26" width="21.91" height="7.44"/><rect class="cls-45" x="199.88" y="275.96" width="21.91" height="7.44"/><rect class="cls-45" x="199.88" y="289.66" width="21.91" height="7.44"/><rect class="cls-45" x="199.88" y="303.37" width="21.91" height="7.44"/><rect class="cls-45" x="199.88" y="317.07" width="21.91" height="7.44"/><rect class="cls-45" x="199.88" y="330.77" width="21.91" height="7.44"/><rect class="cls-45" x="199.88" y="344.48" width="21.91" height="7.44"/><rect class="cls-45" x="199.88" y="358.18" width="21.91" height="7.44"/><rect class="cls-45" x="225.73" y="367.85" width="7.44" height="21.91"/><rect class="cls-45" x="239.44" y="367.85" width="7.44" height="21.91"/><rect class="cls-45" x="253.14" y="367.85" width="7.44" height="21.91"/><rect class="cls-45" x="266.84" y="367.85" width="7.44" height="21.91"/><rect class="cls-45" x="280.55" y="367.85" width="7.44" height="21.91"/><rect class="cls-45" x="294.25" y="367.85" width="7.44" height="21.91"/><rect class="cls-45" x="307.95" y="367.85" width="7.44" height="21.91"/><rect class="cls-45" x="321.66" y="367.85" width="7.44" height="21.91"/><rect class="cls-45" x="335.36" y="367.85" width="7.44" height="21.91"/><rect class="cls-45" x="349.06" y="367.85" width="7.44" height="21.91"/><rect class="cls-48" x="210.84" y="217.24" width="161.56" height="161.56" rx="9.65" ry="9.65"/><text></text></g></g></g></svg>