<svg xmlns="http://www.w3.org/2000/svg" viewBox="0 0 130.71 15.93"><defs><style>.cls-1{fill:#d0d0d1;fill-rule:evenodd;}</style></defs><title>資產 1</title><g id="圖層_2" data-name="圖層 2"><g id="圖層_1-2" data-name="圖層 1"><path class="cls-1" d="M19.59,12.57A3.79,3.79,0,0,0,19,9.66c-1.89.71-2.67,1.91-4.79,2.66-.8-1.32.09-2.58-.86-3.76-2.53,1.69-4,3.81-7.83,4.79-.66-.54-.48-.92-.06-1.37A12.42,12.42,0,0,0,8.13,7.21,17.42,17.42,0,0,1,2.84,8c-.25-.71-.2-.7.36-1.17.94-.77,2.25-1.46,2.23-2.5a8.7,8.7,0,0,1-.92-.48C3.14,2.93,1.76,2,.45,1,.06.71-.35.23.5,0A4.23,4.23,0,0,1,2.25.36C3.17.69,4,1.11,4.89,1.44c1.29.45,2.64.84,4,1.25.91.29,1.79.61,2.76.82a78,78,0,0,0,16.65,2c2.09,0,4.19-.11,6.26-.25,5.44-.36,10.67-1,15.22-2.87a32.92,32.92,0,0,1,5.11-1.26,7.62,7.62,0,0,1,1.71.21l-4.83,2.5,8.4-.23c-.38.43-.47.75-.8.87a33.64,33.64,0,0,1-12.62,2,15.88,15.88,0,0,0,5.65,3c.72.21,1.6.34,1.62,1-4,.72-7.17-.78-11.13-1.5a27.53,27.53,0,0,1,3,2.49c.71.81,2.32,1.37,2.49,2.49-5.2-.24-8.08-2.28-11.66-4-.25,2,1.33,3.55,1.82,5.24-1.5.15-1.57.18-2.2-.33-1.21-1-2.33-2-3.48-3-.47-.41-.9-.82-1.35-1.23a14,14,0,0,0-.88,3.64c-.09.62-.08,1.3-1.61,1.65-2-1.75-2.21-3.86-4.1-5.71a33.54,33.54,0,0,1-4.34,5A2.29,2.29,0,0,1,19.59,12.57Z"/><path class="cls-1" d="M110.13,15.21a33.54,33.54,0,0,1-4.34-5c-1.89,1.85-2.06,4-4.1,5.71-1.53-.35-1.52-1-1.61-1.65a14,14,0,0,0-.88-3.64c-.44.41-.88.82-1.35,1.23-1.14,1-2.27,2-3.48,3-.63.51-.69.48-2.2.33.49-1.69,2.07-3.27,1.82-5.24-3.58,1.69-6.45,3.73-11.66,4,.17-1.12,1.78-1.68,2.49-2.49a27.53,27.53,0,0,1,3-2.49c-4,.72-7.09,2.22-11.13,1.5,0-.71.9-.84,1.62-1a15.88,15.88,0,0,0,5.65-3,33.64,33.64,0,0,1-12.62-2C71,4.31,71,4,70.57,3.56l8.4.23-4.83-2.5a7.64,7.64,0,0,1,1.72-.21A33.07,33.07,0,0,1,81,2.34c4.55,1.84,9.78,2.51,15.22,2.87,2.08.14,4.17.24,6.26.25a78,78,0,0,0,16.65-1.95c1-.21,1.85-.53,2.76-.82,1.33-.41,2.68-.8,4-1.25.92-.33,1.72-.75,2.64-1.08A4.23,4.23,0,0,1,130.21,0c.85.21.45.69,0,1-1.31,1-2.69,1.93-4.06,2.89a8.7,8.7,0,0,1-.92.48c0,1,1.29,1.73,2.23,2.5.56.47.61.46.36,1.17a17.42,17.42,0,0,1-5.29-.83A12.42,12.42,0,0,0,125.23,12c.42.45.6.83-.06,1.37-3.84-1-5.3-3.1-7.83-4.79-1,1.18-.06,2.44-.86,3.76-2.12-.75-2.9-2-4.79-2.66a3.78,3.78,0,0,0-.56,2.91A2.31,2.31,0,0,1,110.13,15.21Z"/></g></g></svg>