<svg xmlns="http://www.w3.org/2000/svg" viewBox="0 0 29.04 25.81"><defs><style>.cls-1{fill:#ed1944;}</style></defs><title>資產 4</title><g id="圖層_2" data-name="圖層 2"><g id="透視零件"><polygon class="cls-1" points="29.04 6.45 29.04 3.23 25.81 3.23 25.81 0 22.59 0 19.36 0 19.36 3.23 16.13 3.23 16.13 6.45 12.91 6.45 12.91 3.23 9.68 3.23 9.68 0 6.45 0 3.23 0 3.23 3.23 0 3.23 0 6.45 0 9.68 0 12.91 3.23 12.91 3.23 16.13 6.45 16.13 6.45 19.36 9.68 19.36 9.68 22.59 12.91 22.59 12.91 25.81 16.13 25.81 16.13 22.59 19.36 22.59 19.36 19.36 22.59 19.36 22.59 16.13 25.81 16.13 25.81 12.91 29.04 12.91 29.04 9.68 29.04 6.45"/></g></g></svg>