<svg xmlns="http://www.w3.org/2000/svg" xmlns:xlink="http://www.w3.org/1999/xlink" viewBox="0 0 95.68 33.82"><defs><style>.cls-1{isolation:isolate;}.cls-2{opacity:0.8;mix-blend-mode:color-dodge;fill:url(#radial-gradient);}.cls-3{opacity:0.3;mix-blend-mode:multiply;}.cls-4{fill:#8dd5ff;}.cls-5,.cls-6{mix-blend-mode:soft-light;}.cls-6{fill:url(#linear-gradient);}.cls-7{font-size:8.98px;fill:#e10c25;font-family:FZLTZHB--B51-0, Lantinghei TC;font-weight:700;}</style><radialGradient id="radial-gradient" cx="-1170.25" cy="1020.16" r="5.25" gradientTransform="matrix(0.01, -1.07, 1.21, 0.01, -1167.06, -1244.26)" gradientUnits="userSpaceOnUse"><stop offset="0" stop-color="#fff"/><stop offset="0.05" stop-color="#fff" stop-opacity="0.89"/><stop offset="0.15" stop-color="#fff" stop-opacity="0.69"/><stop offset="0.26" stop-color="#fff" stop-opacity="0.5"/><stop offset="0.37" stop-color="#fff" stop-opacity="0.35"/><stop offset="0.48" stop-color="#fff" stop-opacity="0.22"/><stop offset="0.6" stop-color="#fff" stop-opacity="0.12"/><stop offset="0.72" stop-color="#fff" stop-opacity="0.05"/><stop offset="0.85" stop-color="#fff" stop-opacity="0.01"/><stop offset="1" stop-color="#fff" stop-opacity="0"/></radialGradient><linearGradient id="linear-gradient" x1="18.73" y1="1.36" x2="45.53" y2="30.75" gradientUnits="userSpaceOnUse"><stop offset="0" stop-color="#fff"/><stop offset="1"/></linearGradient></defs><title>資產 2</title><g class="cls-1"><g id="圖層_2" data-name="圖層 2"><g id="透視零件"><path class="cls-2" d="M57.06,15.77c3.51,0,6.34,2.58,6.31,5.69S60.47,27.06,57,27s-6.34-2.58-6.31-5.69S53.54,15.74,57.06,15.77Z"/><g class="cls-3"><polygon points="95.68 21.84 95.67 22.61 57.91 22.26 53.4 26.17 37.17 26.02 31.89 21.92 1 21.63 1.01 20.86 32.22 21.15 37.5 25.25 53.05 25.39 57.55 21.48 95.68 21.84"/></g><polygon class="cls-4" points="94.68 20.84 94.67 21.61 56.91 21.26 52.4 25.17 36.17 25.02 30.89 20.92 0 20.63 0.01 19.86 31.22 20.15 36.5 24.25 52.05 24.39 56.55 20.48 94.68 20.84"/><g class="cls-3"><polygon points="85.2 11.06 84.59 11.6 79.44 6.96 61.17 6.78 48.09 18.14 47.48 17.6 60.82 6.02 79.81 6.2 85.2 11.06"/></g><polygon class="cls-4" points="84.2 10.06 83.59 10.6 78.44 5.96 60.17 5.78 47.09 17.14 46.48 16.6 59.82 5.02 78.81 5.2 84.2 10.06"/><g class="cls-3"><polygon points="78.71 12.33 78.69 13.08 65.65 12.61 59.57 17.6 58.99 17.05 65.33 11.85 78.71 12.33"/></g><polygon class="cls-4" points="77.71 11.33 77.69 12.08 64.65 11.61 58.57 16.6 57.99 16.05 64.33 10.85 77.71 11.33"/><g class="cls-3"><path d="M60.48,17.41a1.49,1.49,0,0,1-2.95,0,1.49,1.49,0,0,1,2.95,0Zm-2.08,0a.61.61,0,1,0,.61-.52A.58.58,0,0,0,58.4,17.39Z"/></g><path class="cls-4" d="M59.48,16.41a1.49,1.49,0,0,1-2.95,0,1.49,1.49,0,0,1,2.95,0Zm-2.08,0a.61.61,0,1,0,.61-.52A.58.58,0,0,0,57.4,16.39Z"/><g class="cls-3"><path d="M47.91,18.69a1.49,1.49,0,0,1-2.95,0,1.39,1.39,0,0,1,1.48-1.29A1.4,1.4,0,0,1,47.91,18.69Zm-2.08,0a.57.57,0,0,0,.6.53.53.53,0,1,0,0-1.06A.57.57,0,0,0,45.83,18.67Z"/></g><path class="cls-4" d="M46.91,17.69a1.49,1.49,0,0,1-2.95,0,1.39,1.39,0,0,1,1.48-1.29A1.4,1.4,0,0,1,46.91,17.69Zm-2.08,0a.57.57,0,0,0,.6.53.53.53,0,1,0,0-1.06A.57.57,0,0,0,44.83,17.67Z"/><g class="cls-3"><path d="M81.21,12.81a1.39,1.39,0,0,1-1.52,1.25,1.41,1.41,0,0,1-1.43-1.36,1.49,1.49,0,0,1,2.95.11Zm-2.07-.07a.56.56,0,0,0,.58.55.57.57,0,0,0,.62-.51.57.57,0,0,0-.58-.55A.56.56,0,0,0,79.14,12.74Z"/></g><path class="cls-4" d="M80.21,11.81a1.39,1.39,0,0,1-1.52,1.25,1.41,1.41,0,0,1-1.43-1.36,1.49,1.49,0,0,1,2.95.11Zm-2.07-.07a.56.56,0,0,0,.58.55.57.57,0,0,0,.62-.51.57.57,0,0,0-.58-.55A.56.56,0,0,0,78.14,11.74Z"/><g class="cls-3"><path d="M86.88,11.88a1.49,1.49,0,0,1-3,0,1.49,1.49,0,0,1,3,0Zm-2.08,0a.6.6,0,1,0,.6-.53A.56.56,0,0,0,84.8,11.86Z"/></g><path class="cls-4" d="M85.88,10.88a1.49,1.49,0,0,1-3,0,1.49,1.49,0,0,1,3,0Zm-2.08,0a.6.6,0,1,0,.6-.53A.56.56,0,0,0,83.8,10.86Z"/><g class="cls-3"><path d="M47.82,30.12V4.56A1.73,1.73,0,0,0,46.1,2.83H20.67A1.73,1.73,0,0,0,19,4.56V30.12a1.73,1.73,0,0,0,1.72,1.73H46.1A1.73,1.73,0,0,0,47.82,30.12Z"/><rect x="21.61" y="1" width="1.33" height="3.94"/><rect x="24.06" y="1" width="1.33" height="3.94"/><rect x="26.51" y="1" width="1.33" height="3.94"/><rect x="28.96" y="1" width="1.33" height="3.94"/><rect x="31.41" y="1" width="1.33" height="3.94"/><rect x="33.86" y="1" width="1.33" height="3.94"/><rect x="36.31" y="1" width="1.33" height="3.94"/><rect x="38.76" y="1" width="1.33" height="3.94"/><rect x="41.21" y="1" width="1.33" height="3.94"/><rect x="43.65" y="1" width="1.33" height="3.94"/><rect x="45.87" y="5.99" width="3.92" height="1.34"/><rect x="45.87" y="8.45" width="3.92" height="1.34"/><rect x="45.87" y="10.92" width="3.92" height="1.34"/><rect x="45.87" y="13.38" width="3.92" height="1.34"/><rect x="45.87" y="15.84" width="3.92" height="1.34"/><rect x="45.87" y="18.3" width="3.92" height="1.34"/><rect x="45.87" y="20.76" width="3.92" height="1.34"/><rect x="45.87" y="23.22" width="3.92" height="1.34"/><rect x="45.87" y="25.69" width="3.92" height="1.34"/><rect x="45.87" y="28.15" width="3.92" height="1.34"/><rect x="16.99" y="5.99" width="3.92" height="1.34"/><rect x="16.99" y="8.45" width="3.92" height="1.34"/><rect x="16.99" y="10.92" width="3.92" height="1.34"/><rect x="16.99" y="13.38" width="3.92" height="1.34"/><rect x="16.99" y="15.84" width="3.92" height="1.34"/><rect x="16.99" y="18.3" width="3.92" height="1.34"/><rect x="16.99" y="20.76" width="3.92" height="1.34"/><rect x="16.99" y="23.22" width="3.92" height="1.34"/><rect x="16.99" y="25.69" width="3.92" height="1.34"/><rect x="16.99" y="28.15" width="3.92" height="1.34"/><rect x="21.61" y="29.88" width="1.33" height="3.94"/><rect x="24.06" y="29.88" width="1.33" height="3.94"/><rect x="26.51" y="29.88" width="1.33" height="3.94"/><rect x="28.96" y="29.88" width="1.33" height="3.94"/><rect x="31.41" y="29.88" width="1.33" height="3.94"/><rect x="33.86" y="29.88" width="1.33" height="3.94"/><rect x="36.31" y="29.88" width="1.33" height="3.94"/><rect x="38.76" y="29.88" width="1.33" height="3.94"/><rect x="41.21" y="29.88" width="1.33" height="3.94"/><rect x="43.65" y="29.88" width="1.33" height="3.94"/><path class="cls-5" d="M47.82,30.12V4.56A1.73,1.73,0,0,0,46.1,2.83H20.67A1.73,1.73,0,0,0,19,4.56V30.12a1.73,1.73,0,0,0,1.72,1.73H46.1A1.73,1.73,0,0,0,47.82,30.12Z"/></g><path class="cls-4" d="M46.82,29.12V3.56A1.73,1.73,0,0,0,45.1,1.83H19.67A1.73,1.73,0,0,0,18,3.56V29.12a1.73,1.73,0,0,0,1.72,1.73H45.1A1.73,1.73,0,0,0,46.82,29.12Z"/><rect class="cls-4" x="20.61" width="1.33" height="3.94"/><rect class="cls-4" x="23.06" width="1.33" height="3.94"/><rect class="cls-4" x="25.51" width="1.33" height="3.94"/><rect class="cls-4" x="27.96" width="1.33" height="3.94"/><rect class="cls-4" x="30.41" width="1.33" height="3.94"/><rect class="cls-4" x="32.86" width="1.33" height="3.94"/><rect class="cls-4" x="35.31" width="1.33" height="3.94"/><rect class="cls-4" x="37.76" width="1.33" height="3.94"/><rect class="cls-4" x="40.21" width="1.33" height="3.94"/><rect class="cls-4" x="42.65" width="1.33" height="3.94"/><rect class="cls-4" x="44.87" y="4.99" width="3.92" height="1.34"/><rect class="cls-4" x="44.87" y="7.45" width="3.92" height="1.34"/><rect class="cls-4" x="44.87" y="9.92" width="3.92" height="1.34"/><rect class="cls-4" x="44.87" y="12.38" width="3.92" height="1.34"/><rect class="cls-4" x="44.87" y="14.84" width="3.92" height="1.34"/><rect class="cls-4" x="44.87" y="17.3" width="3.92" height="1.34"/><rect class="cls-4" x="44.87" y="19.76" width="3.92" height="1.34"/><rect class="cls-4" x="44.87" y="22.22" width="3.92" height="1.34"/><rect class="cls-4" x="44.87" y="24.69" width="3.92" height="1.34"/><rect class="cls-4" x="44.87" y="27.15" width="3.92" height="1.34"/><rect class="cls-4" x="15.99" y="4.99" width="3.92" height="1.34"/><rect class="cls-4" x="15.99" y="7.45" width="3.92" height="1.34"/><rect class="cls-4" x="15.99" y="9.92" width="3.92" height="1.34"/><rect class="cls-4" x="15.99" y="12.38" width="3.92" height="1.34"/><rect class="cls-4" x="15.99" y="14.84" width="3.92" height="1.34"/><rect class="cls-4" x="15.99" y="17.3" width="3.92" height="1.34"/><rect class="cls-4" x="15.99" y="19.76" width="3.92" height="1.34"/><rect class="cls-4" x="15.99" y="22.22" width="3.92" height="1.34"/><rect class="cls-4" x="15.99" y="24.69" width="3.92" height="1.34"/><rect class="cls-4" x="15.99" y="27.15" width="3.92" height="1.34"/><rect class="cls-4" x="20.61" y="28.88" width="1.33" height="3.94"/><rect class="cls-4" x="23.06" y="28.88" width="1.33" height="3.94"/><rect class="cls-4" x="25.51" y="28.88" width="1.33" height="3.94"/><rect class="cls-4" x="27.96" y="28.88" width="1.33" height="3.94"/><rect class="cls-4" x="30.41" y="28.88" width="1.33" height="3.94"/><rect class="cls-4" x="32.86" y="28.88" width="1.33" height="3.94"/><rect class="cls-4" x="35.31" y="28.88" width="1.33" height="3.94"/><rect class="cls-4" x="37.76" y="28.88" width="1.33" height="3.94"/><rect class="cls-4" x="40.21" y="28.88" width="1.33" height="3.94"/><rect class="cls-4" x="42.65" y="28.88" width="1.33" height="3.94"/><path class="cls-6" d="M46.82,29.12V3.56A1.73,1.73,0,0,0,45.1,1.83H19.67A1.73,1.73,0,0,0,18,3.56V29.12a1.73,1.73,0,0,0,1.72,1.73H45.1A1.73,1.73,0,0,0,46.82,29.12Z"/><text class="cls-7" transform="translate(23.91 20.03) scale(0.99 1)">ＩC</text></g></g></g></svg>