<svg xmlns="http://www.w3.org/2000/svg" viewBox="0 0 112.72 68.75"><defs><style>.cls-1{fill:#bcbec0;}.cls-15,.cls-2{fill:#2f2e30;}.cls-16,.cls-2,.cls-3{opacity:0.5;}.cls-3,.cls-9{fill:#414042;}.cls-4{fill:#a7a9ac;}.cls-5{fill:#7e8082;}.cls-6{fill:#626466;}.cls-7{fill:#7c7f81;}.cls-8{fill:#898b8e;}.cls-10{fill:#939598;}.cls-11{fill:#58595b;}.cls-12{fill:#fff;}.cls-13{fill:#efb742;}.cls-14{fill:#d0a139;}.cls-16,.cls-19,.cls-21{fill:#231f20;}.cls-17{fill:#e3dedf;}.cls-18{fill:#3a3c3d;}.cls-19{opacity:0.1;}.cls-20{fill:#96989b;}</style></defs><title>資產 5</title><g id="圖層_2" data-name="圖層 2"><g id="透視零件"><path class="cls-1" d="M98.88,63.16H21.15a7,7,0,0,1-7-7V7.2a7,7,0,0,1,7-7H84.5a11,11,0,0,1,7.88,3.34l13.49,13.92V56.16A7,7,0,0,1,98.88,63.16Z"/><rect class="cls-2" x="66.8" y="4.49" width="25.83" height="7.6"/><rect class="cls-3" x="60.57" y="14.15" width="14.72" height="10.82"/><rect class="cls-4" x="48.14" y="42.97" width="64.19" height="16.14" rx="6.61" ry="6.61"/><rect class="cls-4" x="67.75" y="15.19" width="37.73" height="15.57" rx="6.38" ry="6.38"/><rect class="cls-5" x="82.31" y="15.86" width="2.94" height="14.91"/><rect class="cls-5" x="88.48" y="15.86" width="2.94" height="14.91"/><path class="cls-5" d="M103.77,28.29V17.67a7.07,7.07,0,0,0-2.38-1.81h-.56V30.33A7.07,7.07,0,0,0,103.77,28.29Z"/><rect class="cls-5" x="94.65" y="15.86" width="2.94" height="14.91"/><rect class="cls-5" x="76.14" y="15.86" width="2.94" height="14.91"/><path class="cls-5" d="M70,28.82a7.07,7.07,0,0,0,2.94,1.68V15.86H71.84A7.06,7.06,0,0,0,70,17.14Z"/><rect class="cls-6" x="61.8" y="33.23" width="45.45" height="9.78"/><rect class="cls-7" x="59.33" y="29.06" width="50.23" height="7.12" rx="2.92" ry="2.92"/><path class="cls-8" d="M48.14,54.69v.24a4.18,4.18,0,0,0,4.18,4.18h55.83a4.18,4.18,0,0,0,4.18-4.18v-.24Z"/><path class="cls-1" d="M68.16,48.9c0,2.05-.66,3.7-1.47,3.7S65.22,51,65.22,48.9s.66-3.7,1.47-3.7S68.16,46.86,68.16,48.9Z"/><path class="cls-1" d="M73.29,48.9c0,2.05-.66,3.7-1.47,3.7S70.35,51,70.35,48.9s.66-3.7,1.47-3.7S73.29,46.86,73.29,48.9Z"/><path class="cls-1" d="M78.42,48.9c0,2.05-.66,3.7-1.47,3.7S75.47,51,75.47,48.9s.66-3.7,1.48-3.7S78.42,46.86,78.42,48.9Z"/><path class="cls-1" d="M83.54,48.9c0,2.05-.65,3.7-1.47,3.7S80.6,51,80.6,48.9s.66-3.7,1.47-3.7S83.54,46.86,83.54,48.9Z"/><path class="cls-1" d="M88.67,48.9c0,2.05-.66,3.7-1.47,3.7S85.73,51,85.73,48.9s.66-3.7,1.47-3.7S88.67,46.86,88.67,48.9Z"/><path class="cls-1" d="M93.8,48.9c0,2.05-.66,3.7-1.47,3.7S90.86,51,90.86,48.9s.65-3.7,1.47-3.7S93.8,46.86,93.8,48.9Z"/><path class="cls-1" d="M98.93,48.9c0,2.05-.66,3.7-1.47,3.7S96,51,96,48.9s.66-3.7,1.48-3.7S98.93,46.86,98.93,48.9Z"/><path class="cls-1" d="M104.05,48.9c0,2.05-.65,3.7-1.47,3.7s-1.47-1.65-1.47-3.7.66-3.7,1.47-3.7S104.05,46.86,104.05,48.9Z"/><path class="cls-1" d="M109.18,48.9c0,2.05-.66,3.7-1.47,3.7s-1.47-1.65-1.47-3.7.66-3.7,1.47-3.7S109.18,46.86,109.18,48.9Z"/><rect class="cls-1" x="69.9" y="40.83" width="6.77" height="2.22"/><path class="cls-9" d="M75.79,40.86H71V34.5a4.28,4.28,0,0,1,4.28-4.27h32.53v-10h-1.42V15.48h1.9a4.27,4.27,0,0,1,4.27,4.27v11A4.27,4.27,0,0,1,108.33,35H75.79Z"/><path class="cls-10" d="M105.25,21.78H69.69c-1.91,0-3.46-1.24-3.46-2.76V12c0-1.52,1.55-2.76,3.46-2.76h32.15A3.54,3.54,0,0,1,105.07,11l3.4,7C109.35,19.83,107.67,21.78,105.25,21.78Z"/><path class="cls-5" d="M71.3,11a.62.62,0,0,1-1.24,0,.62.62,0,1,1,1.24,0Z"/><path class="cls-5" d="M102.39,11a.62.62,0,0,1-1.23,0,.62.62,0,1,1,1.23,0Z"/><path class="cls-5" d="M71.3,20a.62.62,0,1,1-.62-.62A.61.61,0,0,1,71.3,20Z"/><rect class="cls-1" x="66.36" y="15.67" width="37.6" height="1.04"/><path class="cls-5" d="M106.76,20a.61.61,0,0,1-.62.61.62.62,0,0,1,0-1.23A.62.62,0,0,1,106.76,20Z"/><polygon class="cls-11" points="107.19 43.96 92.33 43.96 63.79 43.96 63.79 43.01 107.19 43.01 107.19 43.96"/><rect class="cls-12" x="74.9" y="40.88" width="0.95" height="2.09"/><rect class="cls-1" x="79.59" y="40.83" width="6.77" height="2.22"/><rect class="cls-12" x="84.59" y="40.88" width="0.95" height="2.09"/><path class="cls-9" d="M85.44,40.78H80.7V39.29A4.08,4.08,0,0,1,85,35.42h25.49v4.75h-25Z"/><path class="cls-9" d="M112.72,37.79a2.38,2.38,0,1,1-2.38-2.37A2.38,2.38,0,0,1,112.72,37.79Z"/><rect class="cls-3" x="27.62" width="18.1" height="63.05"/><rect class="cls-4" x="70.98" y="4.87" width="7.66" height="4.43"/><rect class="cls-1" x="71.93" y="4.87" width="1.46" height="4.43" transform="translate(145.31 14.18) rotate(180)"/><rect class="cls-13" x="70.47" y="3.8" width="8.48" height="1.84"/><rect class="cls-14" x="70.47" y="5.63" width="8.48" height="0.76"/><rect class="cls-4" x="80.92" y="4.87" width="7.66" height="4.43"/><rect class="cls-1" x="81.87" y="4.87" width="1.46" height="4.43" transform="translate(165.19 14.18) rotate(180)"/><rect class="cls-13" x="80.41" y="3.8" width="8.48" height="1.84"/><rect class="cls-14" x="80.41" y="5.63" width="8.48" height="0.76"/><rect class="cls-4" x="90.14" y="4.87" width="2.63" height="4.43"/><rect class="cls-1" x="90.47" y="4.87" width="0.5" height="4.43" transform="translate(181.44 14.18) rotate(180)"/><rect class="cls-13" x="89.97" y="3.8" width="2.91" height="1.84"/><rect class="cls-14" x="89.97" y="5.63" width="2.91" height="0.76"/><rect class="cls-4" x="93.75" y="4.87" width="2.63" height="4.43"/><rect class="cls-1" x="94.08" y="4.87" width="0.5" height="4.43" transform="translate(188.66 14.18) rotate(180)"/><rect class="cls-13" x="93.58" y="3.8" width="2.91" height="1.84"/><rect class="cls-14" x="93.58" y="5.63" width="2.91" height="0.76"/><rect class="cls-15" x="45.72" y="5.51" width="21.08" height="1.08"/><rect class="cls-11" x="9.96" y="6.91" width="53.93" height="50.11" rx="14.4" ry="14.4"/><rect class="cls-4" x="11.74" y="8.57" width="50.37" height="46.8" rx="14.4" ry="14.4"/><rect class="cls-3" x="16.41" y="13.86" width="21.84" height="9.5" rx="3.89" ry="3.89"/><rect class="cls-12" x="16.89" y="14.24" width="21.84" height="9.5" rx="3.89" ry="3.89"/><rect class="cls-3" x="12.05" y="24.31" width="49.95" height="21.46"/><path class="cls-9" d="M32.25,36a8.48,8.48,0,1,1-8.48-8.48A8.47,8.47,0,0,1,32.25,36Z"/><circle class="cls-3" cx="41.81" cy="20.23" r="11.92" transform="translate(8.76 52.87) rotate(-70.46)"/><polygon class="cls-16" points="64.17 56.92 64.17 63.24 58 63.24 64.17 56.92"/><rect class="cls-14" x="54.78" y="58.71" width="10.68" height="3.04" rx="1.4" ry="1.4" transform="translate(-24.89 64.17) rotate(-47.71)"/><polygon class="cls-16" points="69.75 56.92 69.75 63.24 63.58 63.24 69.75 56.92"/><rect class="cls-14" x="60.36" y="58.71" width="10.68" height="3.04" rx="1.4" ry="1.4" transform="translate(-23.07 68.3) rotate(-47.71)"/><polygon class="cls-16" points="75.33 56.92 75.33 63.24 69.16 63.24 75.33 56.92"/><rect class="cls-14" x="65.93" y="58.71" width="10.68" height="3.04" rx="1.4" ry="1.4" transform="translate(-21.24 72.43) rotate(-47.71)"/><polygon class="cls-16" points="80.91 56.92 80.91 63.24 74.74 63.24 80.91 56.92"/><rect class="cls-14" x="71.51" y="58.71" width="10.68" height="3.04" rx="1.4" ry="1.4" transform="translate(-19.42 76.51) rotate(-47.69)"/><polygon class="cls-16" points="86.49 56.92 86.49 63.24 80.32 63.24 86.49 56.92"/><rect class="cls-14" x="77.09" y="58.71" width="10.68" height="3.04" rx="1.4" ry="1.4" transform="translate(-17.58 80.72) rotate(-47.73)"/><polygon class="cls-16" points="92.07 56.92 92.07 63.24 85.89 63.24 92.07 56.92"/><rect class="cls-14" x="82.67" y="58.71" width="10.68" height="3.04" rx="1.4" ry="1.4" transform="translate(-15.77 84.81) rotate(-47.71)"/><polygon class="cls-16" points="97.64 56.92 97.64 63.24 91.47 63.24 97.64 56.92"/><rect class="cls-14" x="88.25" y="58.71" width="10.68" height="3.04" rx="1.4" ry="1.4" transform="translate(-13.95 88.89) rotate(-47.69)"/><circle class="cls-11" cx="35.47" cy="20.4" r="11.68" transform="translate(-5.42 21.83) rotate(-31.9)"/><path class="cls-17" d="M44,20.36A8.35,8.35,0,1,1,35.66,12,8.35,8.35,0,0,1,44,20.36Z"/><path class="cls-18" d="M36.73,68.68a21.73,21.73,0,0,1-7.95-2.09c-3.84-2-15.63-7.5-15.63-7.5-3.26-1.36-4.84-3.35-5-6.33a6,6,0,0,1,.8-3A6.1,6.1,0,0,1,10.46,48s3.35-2.23,6.47-4.23c6.48-4.15,6.56-4.12,6.92-4.12A3.57,3.57,0,0,0,27.38,36v-.12l0-.11c1.47-5.81,3.66-14.53,3.88-15.47a4,4,0,0,1,3-3.9c1.87-.52,24.74,0,24.74,0v0h.45A14.16,14.16,0,0,1,73.61,30.56a15.89,15.89,0,0,1-4.36,11c-4.39,4.65-9,10.68-17.7,18.8C46.32,65.26,43.05,69.32,36.73,68.68ZM14.63,57.33,29.7,64.92A14.24,14.24,0,0,0,49,59.81l.18-.31.21-.07,18-19.51,0,0a12.24,12.24,0,0,0-7.94-21.57c-.29,0-.61,0-1,0l-.66,0-.06-.11L36,18.17h-.09a2.22,2.22,0,0,0-.89,0l-.08,0a2.29,2.29,0,0,0-1.78,2.23c0,.15,0,.25-3.9,15.71-1,3.2-1.73,3.74-5.11,5.67-1.18.71-7.87,4.63-12.32,7.5l-.08.09-.08.06a4.22,4.22,0,0,0-1.13,1.32l-.06.1a4.18,4.18,0,0,0,3.41,6.07l.51,0Z"/><path class="cls-17" d="M28.33,36a4.56,4.56,0,1,1-4.56-4.56A4.56,4.56,0,0,1,28.33,36Z"/><path class="cls-4" d="M27,36a3.26,3.26,0,1,1-3.26-3.26A3.26,3.26,0,0,1,27,36Z"/><circle class="cls-17" cx="36.73" cy="52.54" r="15.19"/><circle class="cls-4" cx="36.73" cy="52.54" r="10.86"/><path class="cls-19" d="M26.21,52.87A10.86,10.86,0,0,1,44.57,45,10.85,10.85,0,1,0,29.23,60.38,10.81,10.81,0,0,1,26.21,52.87Z"/><path class="cls-19" d="M41.32,52.73a4.21,4.21,0,1,1-4.21-4.21A4.2,4.2,0,0,1,41.32,52.73Z"/><path class="cls-11" d="M40.94,52.54a4.21,4.21,0,1,1-4.21-4.21A4.2,4.2,0,0,1,40.94,52.54Z"/><path class="cls-17" d="M39.87,52.54a3.14,3.14,0,1,1-3.14-3.13A3.14,3.14,0,0,1,39.87,52.54Z"/><polygon class="cls-11" points="34.68 43.42 35.16 47.48 38.19 47.48 38.68 43.42 34.68 43.42"/><polygon class="cls-11" points="28.83 47.55 32.04 50.07 34.18 47.93 31.66 44.72 28.83 47.55"/><polygon class="cls-11" points="27.62 54.6 31.67 54.11 31.67 51.08 27.62 50.59 27.62 54.6"/><polygon class="cls-11" points="31.74 60.44 34.26 57.23 32.12 55.09 28.91 57.61 31.74 60.44"/><polygon class="cls-11" points="38.79 61.66 38.3 57.6 35.27 57.6 34.79 61.66 38.79 61.66"/><polygon class="cls-11" points="44.63 57.53 41.42 55.01 39.28 57.15 41.8 60.36 44.63 57.53"/><polygon class="cls-11" points="45.85 50.48 41.8 50.97 41.8 54 45.85 54.49 45.85 50.48"/><polygon class="cls-11" points="41.72 44.64 39.2 47.85 41.35 49.99 44.55 47.47 41.72 44.64"/><circle class="cls-17" cx="59.46" cy="30.56" r="13.2" transform="translate(18.92 83.72) rotate(-79.87)"/><path class="cls-11" d="M68.9,30.56a9.44,9.44,0,1,1-9.44-9.43A9.44,9.44,0,0,1,68.9,30.56Z"/><path class="cls-19" d="M50.32,30.85A9.43,9.43,0,0,1,66.27,24,9.43,9.43,0,1,0,52.94,37.37,9.42,9.42,0,0,1,50.32,30.85Z"/><path class="cls-19" d="M63.45,30.72a3.66,3.66,0,1,1-3.66-3.65A3.66,3.66,0,0,1,63.45,30.72Z"/><path class="cls-11" d="M63.12,30.56a3.66,3.66,0,1,1-3.66-3.66A3.65,3.65,0,0,1,63.12,30.56Z"/><path class="cls-17" d="M62.19,30.56a2.73,2.73,0,1,1-2.73-2.72A2.72,2.72,0,0,1,62.19,30.56Z"/><polygon class="cls-11" points="57.68 22.64 58.1 26.16 60.73 26.16 61.16 22.64 57.68 22.64"/><polygon class="cls-11" points="52.6 26.22 55.39 28.41 57.25 26.55 55.06 23.76 52.6 26.22"/><polygon class="cls-11" points="51.55 32.34 55.06 31.92 55.06 29.29 51.55 28.87 51.55 32.34"/><polygon class="cls-11" points="55.13 37.42 57.32 34.63 55.46 32.77 52.67 34.96 55.13 37.42"/><polygon class="cls-11" points="61.25 38.48 60.83 34.96 58.2 34.96 57.77 38.48 61.25 38.48"/><polygon class="cls-11" points="66.33 34.89 63.54 32.7 61.68 34.56 63.87 37.35 66.33 34.89"/><polygon class="cls-11" points="67.38 28.77 63.86 29.19 63.86 31.83 67.38 32.25 67.38 28.77"/><polygon class="cls-11" points="63.8 23.69 61.61 26.48 63.47 28.34 66.26 26.15 63.8 23.69"/><path class="cls-19" d="M27.38,20.65a8.35,8.35,0,0,1,14.12-6A8.34,8.34,0,1,0,29.7,26.42,8.3,8.3,0,0,1,27.38,20.65Z"/><path class="cls-19" d="M39,20.54a3.24,3.24,0,1,1-3.24-3.23A3.24,3.24,0,0,1,39,20.54Z"/><path class="cls-20" d="M39.09,20.4a3.62,3.62,0,1,1-3.62-3.62A3.62,3.62,0,0,1,39.09,20.4Z"/><path class="cls-17" d="M38.16,20.4a2.69,2.69,0,1,1-2.69-2.7A2.69,2.69,0,0,1,38.16,20.4Z"/><rect class="cls-9" x="53.16" y="46.62" width="1.8" height="1.8"/><path class="cls-21" d="M6.35,45.47a5.71,5.71,0,0,1-5.7-5.7c0-.16,0-.32,0-.48L0,24.56a10.26,10.26,0,0,1,20.5.54,10.17,10.17,0,0,1-.73,3.78l-8.3,13.39a5.82,5.82,0,0,1-.71,1.11l-1.09,1A5.71,5.71,0,0,1,6.35,45.47Zm-4.5-19,.73,12.86v.08c0,.12,0,.25,0,.37A3.8,3.8,0,0,0,8.88,42.6l.28-.25.1-.14a3.85,3.85,0,0,0,.52-.81l.06-.11L17.07,30l.51-.95a8.35,8.35,0,1,0-15.69-4v.37l.05,1Z"/><path class="cls-17" d="M19.55,25.1a9.31,9.31,0,1,1-9.31-9.31A9.3,9.3,0,0,1,19.55,25.1Z"/><circle class="cls-4" cx="10.24" cy="25.1" r="6.65" transform="translate(-8.78 5.79) rotate(-22.37)"/><path class="cls-19" d="M3.8,25.3A6.64,6.64,0,0,1,15,20.5a6.65,6.65,0,1,0-9.4,9.4A6.62,6.62,0,0,1,3.8,25.3Z"/><path class="cls-19" d="M13.05,25.22a2.58,2.58,0,1,1-2.58-2.58A2.57,2.57,0,0,1,13.05,25.22Z"/><circle class="cls-11" cx="10.24" cy="25.1" r="2.58"/><path class="cls-17" d="M12.16,25.1a1.92,1.92,0,1,1-1.92-1.92A1.92,1.92,0,0,1,12.16,25.1Z"/><polygon class="cls-11" points="8.98 19.52 9.28 22 11.13 22 11.43 19.52 8.98 19.52"/><polygon class="cls-11" points="5.4 22.04 7.37 23.59 8.68 22.27 7.14 20.31 5.4 22.04"/><polygon class="cls-11" points="4.66 26.36 7.14 26.06 7.14 24.2 4.66 23.91 4.66 26.36"/><polygon class="cls-11" points="7.18 29.94 8.73 27.97 7.42 26.66 5.45 28.2 7.18 29.94"/><polygon class="cls-11" points="11.5 30.68 11.2 28.2 9.35 28.2 9.05 30.68 11.5 30.68"/><polygon class="cls-11" points="15.08 28.16 13.12 26.61 11.8 27.93 13.35 29.89 15.08 28.16"/><polygon class="cls-11" points="15.82 23.84 13.34 24.14 13.34 25.99 15.82 26.29 15.82 23.84"/><polygon class="cls-11" points="13.3 20.26 11.75 22.23 13.07 23.54 15.03 21.99 13.3 20.26"/><path class="cls-4" d="M11.1,39.77A4.75,4.75,0,1,1,6.35,35,4.75,4.75,0,0,1,11.1,39.77Z"/><rect class="cls-4" x="33.98" y="33.04" width="10.92" height="1.04"/><rect class="cls-4" x="33.98" y="34.85" width="10.92" height="1.04"/></g></g></svg>