<svg xmlns="http://www.w3.org/2000/svg" viewBox="0 0 103.13 49.18"><defs><style>.cls-1{fill:#5a6e7f;}.cls-2{fill:#97d5c9;}.cls-3{fill:#5cbfab;}</style></defs><title>資產 3</title><g id="圖層_2" data-name="圖層 2"><g id="透視零件"><g id="圖層_14" data-name="圖層 14"><path class="cls-1" d="M87.22,49.18h9.22A1.6,1.6,0,0,0,98,47.59v-3h1.57A3.52,3.52,0,0,0,103.13,41V15.41a3.51,3.51,0,0,0-3.52-3.52h-2a22.1,22.1,0,0,0-39.2,0H3.53A3.52,3.52,0,0,0,0,15.41V41a3.53,3.53,0,0,0,3.53,3.53h2v3a1.59,1.59,0,0,0,1.59,1.59h9.22A1.59,1.59,0,0,0,18,47.59v-3H85.63v3A1.59,1.59,0,0,0,87.22,49.18ZM2.84,15h16v9.13h-16ZM45.72,39.83H2.84V37H45.72Zm0-4.38H2.84V32.6H45.72Zm0-4.37H2.84V28.23H45.72ZM78,40.9A18.8,18.8,0,1,1,96.78,22.11,18.79,18.79,0,0,1,78,40.9Z"/><path class="cls-2" d="M59.2,22.11A18.79,18.79,0,1,0,78,3.31,18.79,18.79,0,0,0,59.2,22.11Zm36,0A17.25,17.25,0,1,1,78,4.85,17.25,17.25,0,0,1,95.24,22.11Z"/><path class="cls-3" d="M60.74,22.11A17.25,17.25,0,1,0,78,4.85,17.25,17.25,0,0,0,60.74,22.11Zm30.3,0A13,13,0,1,1,78,9.06,13,13,0,0,1,91,22.11Z"/><path class="cls-1" d="M64.94,22.11a13.05,13.05,0,1,0,13-13A13,13,0,0,0,64.94,22.11Zm17,0A3.93,3.93,0,1,1,78,18.17,3.93,3.93,0,0,1,81.92,22.11Zm-2-10.61A.52.52,0,0,1,80,12l-.64,1.88a.52.52,0,0,1-.46.35,11.65,11.65,0,0,0-8.39,4.35.49.49,0,0,1-.57.17l-1.85-.62a.54.54,0,0,1-.33-.68l.07-.14a14.55,14.55,0,0,1,11.66-6A.52.52,0,0,1,79.88,11.5Z"/><path class="cls-3" d="M67.79,17.29l-.07.14a.54.54,0,0,0,.33.68l1.85.62a.49.49,0,0,0,.57-.17,11.65,11.65,0,0,1,8.39-4.35.52.52,0,0,0,.46-.35L80,12a.52.52,0,0,0-.08-.48.52.52,0,0,0-.43-.23A14.55,14.55,0,0,0,67.79,17.29Z"/><path class="cls-2" d="M74.06,22.11A3.93,3.93,0,1,0,78,18.17,3.93,3.93,0,0,0,74.06,22.11Z"/><rect class="cls-2" x="2.84" y="15.02" width="9.69" height="9.13"/><rect class="cls-3" x="12.54" y="15.02" width="6.29" height="9.13"/><rect class="cls-3" x="2.84" y="28.23" width="42.88" height="2.85"/><rect class="cls-3" x="2.84" y="32.6" width="42.88" height="2.85"/><rect class="cls-3" x="2.84" y="36.98" width="42.88" height="2.85"/></g></g></g></svg>