<?xml version="1.0" encoding="utf-8"?>
<!-- Generator: Adobe Illustrator 22.0.1, SVG Export Plug-In . SVG Version: 6.00 Build 0)  -->
<svg version="1.1" id="圖層_1" xmlns="http://www.w3.org/2000/svg" xmlns:xlink="http://www.w3.org/1999/xlink" x="0px" y="0px"
	 viewBox="0 0 500 500" style="enable-background:new 0 0 500 500;" xml:space="preserve">
<style type="text/css">
	.st0{display:none;}
	.st1{display:inline;fill:url(#SVGID_1_);}
	.st2{opacity:0.79;fill:url(#SVGID_2_);enable-background:new    ;}
	.st3{opacity:0.79;}
	.st4{fill:url(#SVGID_3_);}
	.st5{fill:url(#SVGID_4_);}
	.st6{fill:url(#SVGID_5_);}
	.st7{fill:url(#SVGID_6_);}
	.st8{fill:url(#SVGID_7_);}
	.st9{fill:url(#SVGID_8_);}
	.st10{fill:url(#SVGID_9_);}
	.st11{fill:url(#SVGID_10_);}
	.st12{fill:url(#SVGID_11_);}
	.st13{fill:url(#SVGID_12_);}
	.st14{fill:url(#SVGID_13_);}
	.st15{fill:url(#SVGID_14_);}
	.st16{fill:url(#SVGID_15_);}
	.st17{fill:url(#SVGID_16_);}
	.st18{fill:url(#SVGID_17_);}
	.st19{fill:url(#SVGID_18_);}
	.st20{fill:url(#SVGID_19_);}
	.st21{fill:url(#SVGID_20_);}
	.st22{fill:url(#SVGID_21_);}
	.st23{fill:url(#SVGID_22_);}
	.st24{fill:url(#SVGID_23_);}
	.st25{fill:url(#SVGID_24_);}
	.st26{fill:url(#SVGID_25_);}
	.st27{fill:url(#SVGID_26_);}
	.st28{fill:url(#SVGID_27_);}
	.st29{fill:url(#SVGID_28_);}
	.st30{fill:url(#SVGID_29_);}
	.st31{opacity:0.79;fill:url(#SVGID_30_);enable-background:new    ;}
	.st32{opacity:0.79;fill:none;stroke:#5FD7F2;stroke-width:0.8282;stroke-miterlimit:10;enable-background:new    ;}
	.st33{opacity:0.79;fill:#07A5FB;stroke:#07A5FB;stroke-width:1.9892;stroke-miterlimit:10;enable-background:new    ;}
	.st34{fill:none;stroke:#07A5FB;stroke-width:0.4574;stroke-miterlimit:10;}
	.st35{fill:none;stroke:#07A5FB;stroke-width:0.4574;stroke-miterlimit:10;stroke-dasharray:5.2552,5.2552;}
	.st36{fill:none;stroke:#07A5FB;stroke-width:0.4574;stroke-miterlimit:10;stroke-dasharray:5.2564,5.2564;}
	.st37{fill:none;stroke:#07A5FB;stroke-width:0.4574;stroke-miterlimit:10;stroke-dasharray:5.2513,5.2513;}
	.st38{fill:none;stroke:#07A5FB;stroke-width:0.4574;stroke-miterlimit:10;stroke-dasharray:4.9464,4.9464;}
	.st39{opacity:0.79;fill:url(#SVGID_31_);enable-background:new    ;}
	.st40{fill:#07A5FB;}
	
		.st41{opacity:0.79;fill:none;stroke:#5FD7F2;stroke-width:0.5;stroke-miterlimit:10;stroke-dasharray:5.488;enable-background:new    ;}
</style>
<g id="BACKGROUND" class="st0">
	
		<radialGradient id="SVGID_1_" cx="250" cy="251.2756" r="250" gradientTransform="matrix(1 0 0 -1 0 501.2756)" gradientUnits="userSpaceOnUse">
		<stop  offset="0" style="stop-color:#024C7B"/>
		<stop  offset="1" style="stop-color:#012442"/>
	</radialGradient>
	<rect y="0" class="st1" width="500" height="500"/>
</g>
<g>
	
		<linearGradient id="SVGID_2_" gradientUnits="userSpaceOnUse" x1="186" y1="261.3756" x2="313.4" y2="261.3756" gradientTransform="matrix(1 0 0 -1 0 501.2756)">
		<stop  offset="0" style="stop-color:#5FD7F2"/>
		<stop  offset="0.9895" style="stop-color:#398CBC"/>
	</linearGradient>
	<path class="st2" d="M249.7,303.6c-35.1,0-63.7-28.6-63.7-63.7s28.6-63.7,63.7-63.7s63.7,28.6,63.7,63.7
		C313.4,275.1,284.8,303.6,249.7,303.6z M249.7,177.4c-34.5,0-62.5,28.1-62.5,62.5c0,34.5,28.1,62.5,62.5,62.5
		c34.5,0,62.5-28.1,62.5-62.5C312.2,205.4,284.2,177.4,249.7,177.4z"/>
	<g class="st3">
		
			<linearGradient id="SVGID_3_" gradientUnits="userSpaceOnUse" x1="250.2373" y1="314.7256" x2="265.0373" y2="314.7256" gradientTransform="matrix(1 0 0 -1 0 501.2756)">
			<stop  offset="0" style="stop-color:#5FD7F2"/>
			<stop  offset="0.9895" style="stop-color:#398CBC"/>
		</linearGradient>
		<path class="st4" d="M250.2,191.5c4.1,0,8.1,0.6,11.9,1.6L265,182c-4.7-1.3-9.7-1.9-14.8-2V191.5z"/>
		
			<linearGradient id="SVGID_4_" gradientUnits="userSpaceOnUse" x1="234.7344" y1="314.7756" x2="249.1344" y2="314.7756" gradientTransform="matrix(1 0 0 -1 0 501.2756)">
			<stop  offset="0" style="stop-color:#5FD7F2"/>
			<stop  offset="0.9895" style="stop-color:#398CBC"/>
		</linearGradient>
		<path class="st5" d="M237.6,193c3.7-1,7.6-1.5,11.6-1.5V180c-5,0-9.8,0.7-14.4,1.9L237.6,193z"/>
		
			<linearGradient id="SVGID_5_" gradientUnits="userSpaceOnUse" x1="189.8652" y1="251.4756" x2="203.2652" y2="251.4756" gradientTransform="matrix(1 0 0 -1 0 501.2756)">
			<stop  offset="0" style="stop-color:#5FD7F2"/>
			<stop  offset="0.9895" style="stop-color:#398CBC"/>
		</linearGradient>
		<path class="st6" d="M203.3,253.8c-1-3.5-1.7-7.1-1.9-10.8h-11.5c0.2,4.7,1,9.3,2.3,13.6L203.3,253.8z"/>
		
			<linearGradient id="SVGID_6_" gradientUnits="userSpaceOnUse" x1="191.3359" y1="280.6756" x2="206.7031" y2="280.6756" gradientTransform="matrix(1 0 0 -1 0 501.2756)">
			<stop  offset="0" style="stop-color:#5FD7F2"/>
			<stop  offset="0.9895" style="stop-color:#398CBC"/>
		</linearGradient>
		<path class="st7" d="M202.4,229.4c0.9-4.1,2.4-8.1,4.3-11.8l-9.9-5.8c-2.4,4.6-4.3,9.5-5.5,14.7L202.4,229.4z"/>
		
			<linearGradient id="SVGID_7_" gradientUnits="userSpaceOnUse" x1="218.9365" y1="310.9756" x2="236.5215" y2="310.9756" gradientTransform="matrix(1 0 0 -1 0 501.2756)">
			<stop  offset="0" style="stop-color:#5FD7F2"/>
			<stop  offset="0.9895" style="stop-color:#398CBC"/>
		</linearGradient>
		<path class="st8" d="M224.7,198.4c3.7-2.2,7.6-3.9,11.8-5.1l-2.8-11.1c-5.2,1.5-10.2,3.6-14.7,6.3L224.7,198.4z"/>
		
			<linearGradient id="SVGID_8_" gradientUnits="userSpaceOnUse" x1="263.1758" y1="310.8256" x2="280.7758" y2="310.8256" gradientTransform="matrix(1 0 0 -1 0 501.2756)">
			<stop  offset="0" style="stop-color:#5FD7F2"/>
			<stop  offset="0.9895" style="stop-color:#398CBC"/>
		</linearGradient>
		<path class="st9" d="M266.1,182.3l-2.9,11.1c4.2,1.2,8.1,3,11.8,5.2l5.8-9.9C276.3,186,271.3,183.8,266.1,182.3z"/>
		
			<linearGradient id="SVGID_9_" gradientUnits="userSpaceOnUse" x1="197.3667" y1="293.3756" x2="213.8667" y2="293.3756" gradientTransform="matrix(1 0 0 -1 0 501.2756)">
			<stop  offset="0" style="stop-color:#5FD7F2"/>
			<stop  offset="0.9895" style="stop-color:#398CBC"/>
		</linearGradient>
		<path class="st10" d="M197.4,210.8l9.9,5.8c1.8-3.4,4.1-6.5,6.6-9.3l-8.1-8.1C202.5,202.8,199.7,206.6,197.4,210.8z"/>
		
			<linearGradient id="SVGID_10_" gradientUnits="userSpaceOnUse" x1="285.5186" y1="293.1256" x2="302.2186" y2="293.1256" gradientTransform="matrix(1 0 0 -1 0 501.2756)">
			<stop  offset="0" style="stop-color:#5FD7F2"/>
			<stop  offset="0.9895" style="stop-color:#398CBC"/>
		</linearGradient>
		<path class="st11" d="M285.5,207.4c2.6,2.9,4.9,6.1,6.8,9.6l9.9-5.8c-2.4-4.3-5.3-8.3-8.6-11.9L285.5,207.4z"/>
		
			<linearGradient id="SVGID_11_" gradientUnits="userSpaceOnUse" x1="283.0557" y1="226.2756" x2="299.7881" y2="226.2756" gradientTransform="matrix(1 0 0 -1 0 501.2756)">
			<stop  offset="0" style="stop-color:#5FD7F2"/>
			<stop  offset="0.9895" style="stop-color:#398CBC"/>
		</linearGradient>
		<path class="st12" d="M289.9,266.9c-2,3-4.3,5.7-6.9,8.1l8.1,8.1c3.3-3.1,6.2-6.6,8.6-10.4L289.9,266.9z"/>
		
			<linearGradient id="SVGID_12_" gradientUnits="userSpaceOnUse" x1="199.3726" y1="226.4256" x2="216.3159" y2="226.4256" gradientTransform="matrix(1 0 0 -1 0 501.2756)">
			<stop  offset="0" style="stop-color:#5FD7F2"/>
			<stop  offset="0.9895" style="stop-color:#398CBC"/>
		</linearGradient>
		<path class="st13" d="M209.3,266.6l-9.9,5.8c2.5,3.9,5.5,7.5,8.9,10.7l8.1-8.1C213.7,272.5,211.3,269.7,209.3,266.6z"/>
		
			<linearGradient id="SVGID_13_" gradientUnits="userSpaceOnUse" x1="189.7886" y1="266.6256" x2="202.1753" y2="266.6256" gradientTransform="matrix(1 0 0 -1 0 501.2756)">
			<stop  offset="0" style="stop-color:#5FD7F2"/>
			<stop  offset="0.9895" style="stop-color:#398CBC"/>
		</linearGradient>
		<path class="st14" d="M201.2,239.9c0-3.2,0.3-6.4,0.9-9.5l-11.1-2.9c-0.8,4-1.3,8.1-1.3,12.4c0,0.6,0,1.3,0,1.9h11.5
			C201.3,241.2,201.2,240.6,201.2,239.9z"/>
		
			<linearGradient id="SVGID_14_" gradientUnits="userSpaceOnUse" x1="292.8184" y1="280.3756" x2="308.1184" y2="280.3756" gradientTransform="matrix(1 0 0 -1 0 501.2756)">
			<stop  offset="0" style="stop-color:#5FD7F2"/>
			<stop  offset="0.9895" style="stop-color:#398CBC"/>
		</linearGradient>
		<path class="st15" d="M302.7,212.1l-9.9,5.8c1.9,3.7,3.3,7.6,4.2,11.8l11.1-2.8C307,221.7,305.1,216.7,302.7,212.1z"/>
		
			<linearGradient id="SVGID_15_" gradientUnits="userSpaceOnUse" x1="290.5273" y1="237.8756" x2="306.7793" y2="237.8756" gradientTransform="matrix(1 0 0 -1 0 501.2756)">
			<stop  offset="0" style="stop-color:#5FD7F2"/>
			<stop  offset="0.9895" style="stop-color:#398CBC"/>
		</linearGradient>
		<path class="st16" d="M295.7,255.1c-1.3,3.8-3,7.5-5.2,10.8l9.9,5.8c2.7-4.2,4.8-8.9,6.4-13.7L295.7,255.1z"/>
		
			<linearGradient id="SVGID_16_" gradientUnits="userSpaceOnUse" x1="297.2539" y1="266.3756" x2="309.583" y2="266.3756" gradientTransform="matrix(1 0 0 -1 0 501.2756)">
			<stop  offset="0" style="stop-color:#5FD7F2"/>
			<stop  offset="0.9895" style="stop-color:#398CBC"/>
		</linearGradient>
		<path class="st17" d="M308.4,227.9l-11.1,2.9c0.6,3,0.9,6,0.9,9.2c0,0.6,0,1.3,0,1.9h11.5c0-0.6,0-1.3,0-1.9
			C309.6,235.8,309.2,231.8,308.4,227.9z"/>
		
			<linearGradient id="SVGID_17_" gradientUnits="userSpaceOnUse" x1="273.4619" y1="217.3256" x2="290.3619" y2="217.3256" gradientTransform="matrix(1 0 0 -1 0 501.2756)">
			<stop  offset="0" style="stop-color:#5FD7F2"/>
			<stop  offset="0.9895" style="stop-color:#398CBC"/>
		</linearGradient>
		<path class="st18" d="M282.3,275.8c-2.7,2.4-5.6,4.6-8.8,6.4l5.8,9.9c4-2.3,7.8-5,11.1-8.2L282.3,275.8z"/>
		
			<linearGradient id="SVGID_18_" gradientUnits="userSpaceOnUse" x1="296.0234" y1="251.2756" x2="309.5049" y2="251.2756" gradientTransform="matrix(1 0 0 -1 0 501.2756)">
			<stop  offset="0" style="stop-color:#5FD7F2"/>
			<stop  offset="0.9895" style="stop-color:#398CBC"/>
		</linearGradient>
		<path class="st19" d="M298,243c-0.2,3.8-0.9,7.6-2,11.1l11.1,2.9c1.3-4.5,2.2-9.2,2.4-14H298z"/>
		
			<linearGradient id="SVGID_19_" gradientUnits="userSpaceOnUse" x1="275.9" y1="303.3756" x2="292.8649" y2="303.3756" gradientTransform="matrix(1 0 0 -1 0 501.2756)">
			<stop  offset="0" style="stop-color:#5FD7F2"/>
			<stop  offset="0.9895" style="stop-color:#398CBC"/>
		</linearGradient>
		<path class="st20" d="M275.9,199.2c3.2,2.1,6.2,4.6,8.9,7.3l8.1-8.1c-3.3-3.5-7.1-6.5-11.1-9.1L275.9,199.2z"/>
		
			<linearGradient id="SVGID_20_" gradientUnits="userSpaceOnUse" x1="206.5215" y1="303.3756" x2="223.7686" y2="303.3756" gradientTransform="matrix(1 0 0 -1 0 501.2756)">
			<stop  offset="0" style="stop-color:#5FD7F2"/>
			<stop  offset="0.9895" style="stop-color:#398CBC"/>
		</linearGradient>
		<path class="st21" d="M214.6,206.6c2.7-2.9,5.8-5.4,9.2-7.5l-5.8-9.9c-4.2,2.6-8.1,5.8-11.5,9.3L214.6,206.6z"/>
		
			<linearGradient id="SVGID_21_" gradientUnits="userSpaceOnUse" x1="192.4683" y1="238.1756" x2="208.6683" y2="238.1756" gradientTransform="matrix(1 0 0 -1 0 501.2756)">
			<stop  offset="0" style="stop-color:#5FD7F2"/>
			<stop  offset="0.9895" style="stop-color:#398CBC"/>
		</linearGradient>
		<path class="st22" d="M208.7,265.7c-2.1-3.4-3.8-7-5.1-10.9l-11.1,2.8c1.5,4.9,3.7,9.5,6.3,13.8L208.7,265.7z"/>
		
			<linearGradient id="SVGID_22_" gradientUnits="userSpaceOnUse" x1="209.0205" y1="217.4256" x2="225.6445" y2="217.4256" gradientTransform="matrix(1 0 0 -1 0 501.2756)">
			<stop  offset="0" style="stop-color:#5FD7F2"/>
			<stop  offset="0.9895" style="stop-color:#398CBC"/>
		</linearGradient>
		<path class="st23" d="M225.6,282c-3.1-1.8-5.9-3.8-8.5-6.2l-8.1,8.1c3.3,3,6.9,5.7,10.8,8L225.6,282z"/>
		
			<linearGradient id="SVGID_23_" gradientUnits="userSpaceOnUse" x1="220.77" y1="211.0756" x2="237.4141" y2="211.0756" gradientTransform="matrix(1 0 0 -1 0 501.2756)">
			<stop  offset="0" style="stop-color:#5FD7F2"/>
			<stop  offset="0.9895" style="stop-color:#398CBC"/>
		</linearGradient>
		<path class="st24" d="M237.4,286.8c-3.8-1-7.4-2.4-10.8-4.3l-5.8,9.9c4.3,2.4,8.9,4.2,13.7,5.5L237.4,286.8z"/>
		
			<linearGradient id="SVGID_24_" gradientUnits="userSpaceOnUse" x1="250.2373" y1="207.8756" x2="263.4373" y2="207.8756" gradientTransform="matrix(1 0 0 -1 0 501.2756)">
			<stop  offset="0" style="stop-color:#5FD7F2"/>
			<stop  offset="0.9895" style="stop-color:#398CBC"/>
		</linearGradient>
		<path class="st25" d="M260.6,287.1c-3.3,0.8-6.8,1.2-10.4,1.2v11.4c4.5,0,9-0.6,13.2-1.6L260.6,287.1z"/>
		
			<linearGradient id="SVGID_25_" gradientUnits="userSpaceOnUse" x1="235.5649" y1="207.7756" x2="249.1348" y2="207.7756" gradientTransform="matrix(1 0 0 -1 0 501.2756)">
			<stop  offset="0" style="stop-color:#5FD7F2"/>
			<stop  offset="0.9895" style="stop-color:#398CBC"/>
		</linearGradient>
		<path class="st26" d="M249.1,288.4c-3.7,0-7.2-0.5-10.6-1.3l-2.9,11.1c4.4,1.1,8.9,1.6,13.6,1.7v-11.5H249.1z"/>
		
			<linearGradient id="SVGID_26_" gradientUnits="userSpaceOnUse" x1="261.6631" y1="210.9256" x2="278.2631" y2="210.9256" gradientTransform="matrix(1 0 0 -1 0 501.2756)">
			<stop  offset="0" style="stop-color:#5FD7F2"/>
			<stop  offset="0.9895" style="stop-color:#398CBC"/>
		</linearGradient>
		<path class="st27" d="M272.5,282.7c-3.4,1.8-7,3.2-10.8,4.2l2.8,11.1c4.8-1.2,9.5-3.1,13.8-5.4L272.5,282.7z"/>
	</g>
	<g class="st3">
		
			<linearGradient id="SVGID_27_" gradientUnits="userSpaceOnUse" x1="199" y1="423.9756" x2="245.9" y2="423.9756" gradientTransform="matrix(1 0 0 -1 0 501.2756)">
			<stop  offset="0" style="stop-color:#5FD7F2"/>
			<stop  offset="0.9895" style="stop-color:#398CBC"/>
		</linearGradient>
		<path class="st28" d="M199,62.3l9.3,36.1c12-3.1,24.7-4.8,37.6-4.9V56.2C229.7,56.3,214,58.4,199,62.3z"/>
		
			<linearGradient id="SVGID_28_" gradientUnits="userSpaceOnUse" x1="147.5" y1="411.5756" x2="204.8" y2="411.5756" gradientTransform="matrix(1 0 0 -1 0 501.2756)">
			<stop  offset="0" style="stop-color:#5FD7F2"/>
			<stop  offset="0.9895" style="stop-color:#398CBC"/>
		</linearGradient>
		<path class="st29" d="M147.5,83.9l18.8,32.2c11.9-7.2,24.8-12.8,38.5-16.7l-9.3-36.1C178.5,68,162.4,75,147.5,83.9z"/>
		
			<linearGradient id="SVGID_29_" gradientUnits="userSpaceOnUse" x1="107.1" y1="387.1256" x2="163.3" y2="387.1256" gradientTransform="matrix(1 0 0 -1 0 501.2756)">
			<stop  offset="0" style="stop-color:#5FD7F2"/>
			<stop  offset="0.9895" style="stop-color:#398CBC"/>
		</linearGradient>
		<path class="st30" d="M107.1,116.2l26.4,26.3c8.9-9.3,18.9-17.6,29.8-24.5l-18.8-32.2C130.8,94.3,118.3,104.6,107.1,116.2z"/>
	</g>
	
		<linearGradient id="SVGID_30_" gradientUnits="userSpaceOnUse" x1="205.1" y1="261.3756" x2="294.3" y2="261.3756" gradientTransform="matrix(1 0 0 -1 0 501.2756)">
		<stop  offset="0" style="stop-color:#5FD7F2"/>
		<stop  offset="0.9895" style="stop-color:#398CBC"/>
	</linearGradient>
	<path class="st31" d="M292.5,252.4c0-0.2,0.1-0.3,0.1-0.5c0.1-0.5,0.3-1,0.4-1.5c0-0.2,0.1-0.3,0.1-0.5l0,0c0.7-3.2,1.2-6.6,1.2-10
		c0-24.6-20-44.6-44.6-44.6c-0.2,0-0.4,0-0.6,0l0,0c-24.3,0-44,19.8-44,44l0,0c0,0.2,0,0.4,0,0.6c0,24.6,20,44.6,44.6,44.6
		c19.5,0,36.2-12.6,42.2-30.2c0,0,0,0,0-0.1C292.1,253.7,292.3,253,292.5,252.4z M206.4,239.9c0-0.2,0-0.4,0-0.6h4.2
		c0-21.2,17.3-38.5,38.5-38.5v-4.2c0.2,0,0.4,0,0.6,0c23.9,0,43.3,19.4,43.3,43.3c0,3.4-0.4,6.6-1.1,9.7l-4.2-1
		c-4.9,21-26,34.1-47.1,29.2l-1,4.2C220.6,277.5,206.4,260.4,206.4,239.9z"/>
	<path class="st32" d="M287,329.4l37.8,78.2c44.1-20.8,80.5-57.9,99.1-106.7l-82.1-28.6C331.2,298.4,311.1,318.3,287,329.4z"/>
	<path class="st33" d="M113.6,144.3c0.4-0.5,0.8-1,1.2-1.5l-1.6-1.2c-0.4,0.5-0.8,1-1.2,1.5c-52,67.3-39.7,164.4,27.6,216.5l1.2-1.6
		C74.4,306.6,62.2,210.8,113.6,144.3z"/>
	<g class="st3">
		<g>
			<path class="st34" d="M297.3,198.3c0.7,0.6,1.3,1.3,2,1.9l1.9-2"/>
			<line class="st35" x1="304.9" y1="194.5" x2="376.2" y2="120.9"/>
			<path class="st34" d="M378,119l1.9-2c-0.7-0.6-1.3-1.3-2-1.9"/>
			<path class="st36" d="M374.1,111.5c-17.6-16.1-37.6-29.1-59.2-38.5"/>
			<path class="st34" d="M312.5,72c-0.8-0.4-1.7-0.7-2.5-1.1l-1,2.5"/>
			<line class="st37" x1="306.9" y1="78.3" x2="268.2" y2="173.1"/>
			<path class="st34" d="M267.2,175.5l-1,2.5c0.8,0.3,1.7,0.7,2.5,1.1"/>
			<path class="st38" d="M273.2,181.3c8.1,4.1,15.6,9.2,22.4,15.4"/>
		</g>
	</g>
	
		<linearGradient id="SVGID_31_" gradientUnits="userSpaceOnUse" x1="107.0841" y1="203.0685" x2="353.7528" y2="203.0685" gradientTransform="matrix(0.9004 -0.4352 -0.4352 -0.9004 132.6434 511.2906)">
		<stop  offset="0" style="stop-color:#5FD7F2"/>
		<stop  offset="0.9895" style="stop-color:#398CBC"/>
	</linearGradient>
	<path class="st39" d="M206.4,113.6l5.2,15c-4.6,1.6-9.2,3.4-13.8,5.6c-57.4,27.8-81.6,97.1-53.8,154.5c26.3,54.5,90,79,145.5,57.7
		l-0.4-0.8c-55,21-118.1-3.3-144.2-57.3c-27.5-57-3.6-125.7,53.4-153.2c56.6-27.4,124.9-3.9,152.8,52.4c1.7,3.6,3.2,7.3,4.5,11.1
		l0.2-0.1c9.3,25,9.3,51.6,1.4,75.6l0.9,0.3c7.9-24.2,8-51-1.4-76.2l14.2-4.9C347.5,125.9,273.7,90.2,206.4,113.6z M236.1,123.3
		c23.8-2.7,47.5,2.4,67.7,13.7C283.4,125.8,259.7,120.8,236.1,123.3z M305.1,137.7c0.1,0,0.1,0.1,0.2,0.1
		C305.2,137.7,305.2,137.7,305.1,137.7z"/>
	<g class="st3">
		<polygon class="st40" points="169,235.5 169.1,235.6 169.1,244.3 169,244.4 164.2,239.9 		"/>
		<polygon class="st40" points="160.5,235.5 160.6,235.6 160.6,244.3 160.5,244.4 155.7,239.9 		"/>
		<polygon class="st40" points="152,235.5 152.1,235.6 152.1,244.3 152,244.4 147.2,239.9 		"/>
	</g>
	<path class="st41" d="M259.9,239.9c0,5.6-4.6,10.2-10.2,10.2c-5.6,0-10.2-4.6-10.2-10.2c0-5.6,4.6-10.2,10.2-10.2
		C255.3,229.7,259.9,234.3,259.9,239.9z"/>
	<g>
		<path class="st40" d="M381.9,298.1l7.3,3.2c-0.8,1.7-1.6,3.5-2.4,5.2l-7.2-3.5C380.4,301.4,381.2,299.8,381.9,298.1z"/>
		<path class="st40" d="M385.9,288.1l7.5,2.7c-0.6,1.8-1.3,3.6-2,5.3l-7.4-2.9C384.6,291.5,385.3,289.8,385.9,288.1z"/>
		<path class="st40" d="M365.7,326l6.4,4.8c-1.1,1.5-2.3,3-3.5,4.5l-6.2-5C363.5,328.9,364.6,327.4,365.7,326z"/>
		<path class="st40" d="M389.1,277.8l7.7,2.1c-0.5,1.8-1,3.7-1.6,5.5l-7.6-2.4C388.1,281.3,388.6,279.5,389.1,277.8z"/>
		<path class="st40" d="M371.8,317.1l6.8,4.3c-1,1.6-2.1,3.2-3.1,4.8l-6.6-4.5C369.8,320.1,370.8,318.6,371.8,317.1z"/>
		<path class="st40" d="M377.2,307.8l7.1,3.8c-0.9,1.7-1.8,3.3-2.8,5l-6.9-4C375.5,311,376.4,309.4,377.2,307.8z"/>
		<path class="st40" d="M393.9,245.9l8,0.3c-0.1,1.9-0.2,3.8-0.3,5.7l-8-0.6C393.8,249.5,393.9,247.6,393.9,245.9z"/>
		<path class="st40" d="M391.5,267.3l7.9,1.5c-0.4,1.9-0.8,3.7-1.2,5.6l-7.8-1.8C390.8,270.8,391.2,269.1,391.5,267.3z"/>
		<rect x="394.1" y="240" class="st40" width="8" height="0.4"/>
		<path class="st40" d="M358.9,334.4l6.1,5.2c-1.2,1.4-2.5,2.8-3.8,4.2l-5.9-5.5C356.6,337.1,357.8,335.8,358.9,334.4z"/>
		<path class="st40" d="M393.1,256.6l7.9,0.9c-0.2,1.9-0.5,3.8-0.8,5.6l-7.9-1.2C392.7,260.2,392.9,258.4,393.1,256.6z"/>
		<path class="st40" d="M288.8,387.4c-1.8,0.5-3.7,0.9-5.5,1.4l-1.8-7.8c1.8-0.4,3.5-0.8,5.2-1.3L288.8,387.4z"/>
		<path class="st40" d="M351.6,342.3l5.6,5.7c-1.3,1.3-2.7,2.7-4.1,3.9l-5.4-5.9C349,344.9,350.3,343.6,351.6,342.3z"/>
		<path class="st40" d="M277.7,389.9c-1.9,0.3-3.7,0.7-5.6,0.9l-1.2-7.9c1.8-0.3,3.6-0.6,5.3-0.9L277.7,389.9z"/>
		<path class="st40" d="M310.3,379.9c-1.7,0.8-3.5,1.5-5.3,2.2l-2.9-7.5c1.7-0.7,3.4-1.3,5-2.1L310.3,379.9z"/>
		<path class="st40" d="M266.4,391.5c-1.9,0.2-3.8,0.4-5.7,0.5l-0.6-8c1.8-0.1,3.6-0.3,5.4-0.5L266.4,391.5z"/>
		<path class="st40" d="M249.7,384.4c1.7,0,3.4,0,5.1-0.1l0.3,8c-1.8,0.1-3.6,0.1-5.4,0.1L249.7,384.4L249.7,384.4z"/>
		<path class="st40" d="M299.7,384c-1.8,0.6-3.6,1.2-5.4,1.8l-2.3-7.7c1.7-0.5,3.5-1.1,5.1-1.7L299.7,384z"/>
		<path class="st40" d="M320.6,374.9c-1.7,0.9-3.4,1.7-5.1,2.6l-3.5-7.2c1.6-0.8,3.2-1.6,4.8-2.4L320.6,374.9z"/>
		<path class="st40" d="M339.9,362.8c-1.5,1.1-3.1,2.2-4.7,3.3l-4.5-6.6c1.5-1,3-2.1,4.4-3.1L339.9,362.8z"/>
		<path class="st40" d="M343.6,349.7l5.2,6.1c-1.4,1.2-2.9,2.5-4.4,3.6l-5-6.3C340.9,352,342.3,350.8,343.6,349.7z"/>
		<path class="st40" d="M330.5,369.2c-1.6,1-3.3,2-4.9,2.9l-4-6.9c1.6-0.9,3.1-1.8,4.6-2.8L330.5,369.2z"/>
	</g>
</g>
</svg>
